<svg xmlns="http://www.w3.org/2000/svg" viewBox="0 0 1650.91 1068.28"><defs><style>.cls-1{fill:#18130d;}.cls-2{fill:#46423d;stroke:#46423d;}.cls-2,.cls-3{stroke-miterlimit:10;}.cls-3{fill:none;stroke:#000;stroke-width:16px;}.cls-4{fill:#ddb8b2;}.cls-5{fill:#fff;}</style></defs><g id="Layer_2" data-name="Layer 2"><g id="Art"><path class="cls-1" d="M852.52,451.79c-1.32,176.57,13.67,351.43,3.92,528.44-37.27,6.13-68.86,26-96.5,51.53,34.28,29.82-2.47,37.91-26.06,35.71s-63.23-11-42.39-38.59c3.61-230.41-207.42-144.52-340.39-74.61,31.75-126.45-9.57-166.12-123.79-112.75C218.48,744.75,81.37,725.29,0,715.32c67.78-29.06,104.77-91.94,76.32-163.39,27.19-30.25,246.88-154.42,277.55-152.32,4.21.28,2.95.39,7.23.5-2.93,3.43,5.93,1.37,6.46,2.36C472.44,599.76,514.23,644.53,684.45,528c81.29-55.65,16.21-17.45,68.86-67.69C778.89,463.43,821.51,455.23,852.52,451.79Z"/><path class="cls-2" d="M759.87,1031.69c35,30.45-3.33,37.23-25.78,36s-66.41-13.61-41.38-37.72,40-61.86,41.77-97.32C708.61,855.37,688,711.2,705.14,630.36c-12.43,21.84-33.66,48.59-41.9,71.48-157-7.32-283.88-79-301.59-247.78,4.66,81.67,54.64,433.42-10.54,500.17,55.16-102.56,4.42-366.37,5.45-493.47-36,115.42-66.73,276.17-129.24,380.74C277,719,307.21,587.15,347.34,461.1,235.13,599.6,179.14,675.7,3,714.8,177.82,655.66,218.65,589.62,336.55,458c-84.7,66.2-146.52,161.54-260.26,94,138.52,17.95,165.58-39.87,266.44-117.24,3.53-8.17,9.53-27.85,10.89-33.94,3.78-16.9,6.55-28.64-.8-42.38,9.9,11.2,11.8,32.1,12.5,44.68s-.41,17.9-2.25,28.82C418.62,589,457.87,662.31,636.54,662.33c28.89-45.29,50.69-113.29,74-164,47.11,2.59,96.4,15.21,142.17,15.81,5.08,155.43,12.41,310.75,3.73,466.15C819.16,986.29,787.65,1006.3,759.87,1031.69Z"/><path class="cls-1" d="M1427.84,845.94c-100.75-103.29-93.42-6.47-70.28,85.49-147.85-96.36-315.62-130-360.94,93.27,16.1,31.16-12.6,35.53-39.65,32.32s-50-16.41-20.8-41.53c-19.12-27.23-47.79-37.13-79.81-35.27,10.26-177-5.79-351.87-3.45-528.43,32.38-.94,73.32,5.79,100.86,2.62,44.76,50.7-8.71,12,60.74,70.22,145.42,121.84,224.72-16.06,304.22-130.45.4-.57,10.17.91,6.39-2.16,10.79-1.26-4.4.69,8.69-1.19,95.52-13.72,224.76,74,268.33,156.15-18.51,78.27-.27,252.13,48.77,313.54C1589.09,832.45,1446.92,768.86,1427.84,845.94Z"/><path class="cls-2" d="M1335.18,448.35c41.71,138.56,67.65,254.43,92.65,397.56-39.63-131.21-56.53-262.46-101.48-397.45-9.76,118-18.94,381.25,31.19,482.93-63-74.53-44.43-405.17-36.19-488.87-40.49,167.65-111,204-270.53,256.76-21-17.2-37.06-41.06-50.6-64.28,26.18,99.2,26.84,194.74-22.88,287.71-2.88,33.18-3.48,75.13,19.35,102,16,31.1-12.64,35.51-39.72,32.3s-50-16.41-20.8-41.55c-19.1-27.21-47.82-37.15-79.78-35.24,8.82-155.38,1.29-310.72-3.7-466.14a1119.45,1119.45,0,0,1,141.52-8.44c17.16,43.55,41.43,122.12,75.06,152.76,171.22-59.58,176.27-69.9,251.59-235.92-1.16-10.57-.74-15.1.64-27s6.22-31.27,16-40.95c-7.63,11.51-6.12,22.26-4.47,37.47.6,5.48,5.18,23.62,7.85,31,83,36.9,176.16,108,261.45,123.93-56.67,24.7-207.08-77.83-257.62-103.63,141.94,132,185.45,284,303.87,415.24C1532.33,754.52,1453.46,574.35,1335.18,448.35Z"/><path class="cls-1" d="M993.5,291.11C1079.76,207.7,1125.06,84.2,1013.58,0c-107,43.16-117.67,170.9-92,269.36Z"/><path class="cls-2" d="M944.31,248.34c-5.29-30.79-8.2-61-5.69-92.3,4.09-51,23-99,70-125.16,24.67,30.86,42,49.58,44.47,95.17,2.51,46-30.8,101.88-66.82,134.1C972.15,257.69,958.39,252,944.31,248.34Z"/><path class="cls-1" d="M713.08,291.11C626.76,207.64,581.56,84.27,693,0c106.88,43.12,117.75,171,92,269.36Z"/><path class="cls-2" d="M762.26,248.34c5.34-30.79,8.17-61,5.68-92.3-4.06-51-22.92-99-69.94-125.16-24.63,30.86-42,49.58-44.45,95.17-2.44,46,30.69,101.88,66.82,134.1C734.4,257.69,748.22,252,762.26,248.34Z"/><polygon class="cls-2" points="795.59 558 892.59 558 853.59 980 795.59 558"/><ellipse class="cls-1" cx="853.29" cy="395.67" rx="215.82" ry="179.85"/><path class="cls-3" d="M956.18,348.83a57.71,57.71,0,0,1-102.89,35.92,57.72,57.72,0,1,1,0-71.84,57.71,57.71,0,0,1,102.89,35.92Z"/><path class="cls-4" d="M785.71,481.83s90.34,55.21,152.25,0c0,0-17.83,29.5-71.37,31.17S785.71,481.83,785.71,481.83Z"/><polygon class="cls-5" points="892.14 504.42 911.19 537.04 910.89 498.87 892.14 504.42"/><polygon class="cls-5" points="824.99 498.87 842.89 503.45 822.52 537.04 824.99 498.87"/><rect class="cls-1" x="724.59" y="282" width="246" height="67"/></g></g></svg>