<svg xmlns="http://www.w3.org/2000/svg" viewBox="0 0 1880.72 1055.5"><defs><style>.cls-1{fill:#18130d;}.cls-2{fill:#46423d;stroke:#46423d;}.cls-2,.cls-3{stroke-miterlimit:10;}.cls-3,.cls-6{fill:none;}.cls-3{stroke:#000;stroke-width:16px;}.cls-4{fill:#ddb8b2;}.cls-5{fill:#fff;}.cls-6{stroke:#0070e6;stroke-linecap:round;stroke-linejoin:round;stroke-width:12px;}</style></defs><g id="Layer_2" data-name="Layer 2"><g id="Art"><path class="cls-1" d="M940.36,450.42v527c-57.64,0-92.22,37.87-92.22,37.87s41.17,42.82-28,39.53-39.52-39.53-39.52-39.53C749.33,735.33,331,817.67,331,817.67c108.69-196-128.46-172.92-128.46-172.92C222.33,489.94,0,424.07,0,424.07c141.63-29.64,125.16-154.81,125.16-154.81,85.49-63.76,197.77-19.13,223.5-7.51,3.52,1.6,5.42,2.57,5.42,2.57,1.17,1.65,2.32,3.28,3.49,4.91C591,596.73,726.75,568.07,790.12,515.32c30.27-25.18,44-55.84,44-55.84Z"/><path class="cls-2" d="M848.14,1015.29s41.17,42.82-28,39.53-39.52-39.53-39.52-39.53c31.29-23,29.64-95.51,29.64-95.51-53.92-99-25.74-231.5-9.22-289.1-17.46,29.5-53.36,61.83-53.36,61.83C465,584.67,354.16,322.8,352.45,318.72c114,425.06-18.45,497.39-21.38,498.92,111.9-105.48,16.42-494,16.42-494C311.54,537.67,204.26,643.1,202.58,644.73c116.91-163,136.67-324.41,136.67-324.41-113.63,93.87-336,103.75-336,103.75,194.33-28,327.73-112,327.73-112-141.63,14.82-205.86-42.82-205.86-42.82C266.79,312.08,336,294,336,294c6.62-12.83,10.54-23.47,12.7-32.22,6-24.26-1.62-33.94-2.69-35.17,10.63,9.1,12.44,27,11.6,42.65a162.26,162.26,0,0,1-4.32,28.85C453.71,535.23,727.09,647.22,727.09,647.22c37.88-24.7,73.62-154,73.62-154l139.65,14.82V977.42C882.72,977.42,848.14,1015.29,848.14,1015.29Z"/><path class="cls-1" d="M1678.16,644.75S1441,621.69,1549.7,817.67c0,0-418.3-82.34-449.59,197.62,0,0,29.64,36.24-39.53,39.53s-28-39.53-28-39.53S998,977.42,940.36,977.42v-527l106.22,9.06s13.76,30.66,44,55.84c63.37,52.75,199.14,81.41,432.55-246.09,1.17-1.63,2.32-3.26,3.49-4.91,0,0,1.89-1,5.42-2.57,25.72-11.62,138-56.25,223.49,7.51,0,0-16.47,125.17,125.16,154.81C1880.72,424.07,1658.4,489.94,1678.16,644.75Z"/><path class="cls-2" d="M1541.47,320.32s19.76,161.37,136.67,324.41c-1.68-1.63-109-107.06-144.91-321.12,0,0-95.48,388.55,16.42,494-2.93-1.53-135.35-73.86-21.37-498.92-1.72,4.08-112.55,265.95-395.23,373.79,0,0-35.91-32.33-53.36-61.83,16.52,57.6,44.69,190.05-9.23,289.1,0,0-1.64,72.46,29.65,95.51,0,0,29.64,36.24-39.53,39.53s-28-39.53-28-39.53S998,977.42,940.36,977.42V508.06l140.32-3.29s35.07,117.75,73,142.45c0,0,273.38-112,373.84-349.14a162.82,162.82,0,0,1-4.31-28.85c-.84-15.61,1-33.55,11.59-42.65-1.07,1.23-8.66,10.91-2.68,35.17,2.15,8.75,6.07,19.39,12.69,32.22,0,0,69.17,18.11,210.8-24.71,0,0-64.23,57.64-205.86,42.82,0,0,133.4,84,327.73,112C1877.43,424.07,1655.1,414.19,1541.47,320.32Z"/><path class="cls-1" d="M1078.38,286.56C1257.89,118.57,1098.14,0,1098.14,0c-146.57,54.35-90.57,265.15-90.57,265.15Z"/><path class="cls-2" d="M1030,244.4c-3.55-18.62-8.61-53.56-5.75-90.73,4.66-60.47,27.84-101.69,69-122.79,15.28,15.25,41.63,47.55,43.9,90.69,2.29,43.49-19.89,88.94-65.95,135.28Z"/><path class="cls-1" d="M802.34,286.56C622.83,118.57,782.58,0,782.58,0c146.57,54.35,90.58,265.15,90.58,265.15Z"/><path class="cls-2" d="M850.72,244.4c3.55-18.62,8.61-53.56,5.74-90.73C851.8,93.2,828.62,52,787.5,30.88c-15.28,15.25-41.63,47.55-43.9,90.69-2.28,43.49,19.89,88.94,65.95,135.28Z"/><ellipse class="cls-1" cx="940.36" cy="389.48" rx="212.45" ry="177.04"/><path class="cls-3" d="M1049,338.83a57.71,57.71,0,0,1-102.89,35.92,57.72,57.72,0,1,1,0-71.84A57.71,57.71,0,0,1,1049,338.83Z"/><path class="cls-4" d="M878.48,471.83s90.34,55.21,152.24,0c0,0-17.82,29.5-71.36,31.17S878.48,471.83,878.48,471.83Z"/><polygon class="cls-5" points="984.91 494.42 1003.96 527.04 1003.66 488.87 984.91 494.42"/><polygon class="cls-5" points="917.76 488.87 935.65 493.45 915.28 527.04 917.76 488.87"/><rect class="cls-1" x="817.36" y="272" width="246" height="67"/><path class="cls-6" d="M1193,396.5s39-19,48-36c0,0-35,81-24,87,0,0,44-15,44-29"/><path class="cls-6" d="M1153,465.76s29.54-14.38,36.36-27.26c0,0-26.51,61.35-18.18,65.89,0,0,33.32-11.36,33.32-22"/></g></g></svg>