<svg xmlns="http://www.w3.org/2000/svg" viewBox="0 0 1959.97 1053.57"><defs><style>.cls-1{fill:#18130d;}.cls-2{fill:#46423d;stroke:#46423d;}.cls-2,.cls-3{stroke-miterlimit:10;}.cls-3{fill:none;stroke:#000;stroke-width:16px;}.cls-4{fill:#ddb8b2;}.cls-5{fill:#fff;}</style></defs><g id="Layer_2" data-name="Layer 2"><g id="Art"><path class="cls-1" d="M967.72,415.9c3.23,183.7-2,367.69-5.17,551.48-36.19,2.2-67.89,17.92-93.28,43.94,30.4,32.76-1.21,42.92-30,41.58s-63.59-11.17-40.34-42.66C777.38,787.93,504.67,668.52,305,674.86,386.2,551.4,312.47,454.23,180,436c24.75-120.67-78.7-225.82-180-273,75.37-4.62,146.36-48.28,147.36-130.7C220.52-4.28,308.7,19,372.85,61.06c8.79,5.77-.94-.31,6.47,4.21-3.28,1.8,4.34,3.62,4.51,4.14,35.3,103.64,283.4,496,423.82,408.5,67.05-41.8,14.26-16.48,56.9-55.59C892.89,423.85,934.67,417.58,967.72,415.9Z"/><path class="cls-2" d="M869.22,1011.27c31,33.36-1.93,42.24-29.8,41.78s-66.13-13.6-39.52-41.82,33.3-71.62,30.87-109.56C784.32,803.6,789.66,685.23,824.45,584c-16.26,21.54-37,40.15-58.85,56C585,536.28,425.83,323.88,370.26,121.12c12,91.89,66.51,504.17-65.21,553.72,106.36-87.15,74.68-418.95,59.55-549.71C333.16,229.82,274.09,370.3,180,436c78.45-82.8,149.13-203.79,176.57-316.1C259.1,173,112.65,175.49,3.33,163.46c111.73,1.15,240.6-12.75,345.88-54.06C286.9,102,191.49,82.75,147.27,32.19c57,26.18,144.2,62.18,209.25,59.26,5-6.44,14.58-23.64,16.5-28.83,5.32-14.4,8-23.88,2.57-36.28,9.5,12.14,8.29,30.74,6,43.56s-4.27,18.89-8,29.88c53.46,185,206,386.19,371.44,488.6,34.79-16.06,70.62-98.51,82.5-135.14,46.92,6.75,93.94,13.12,141.18,17.16,1.33,165.73-3.08,331.32-6.19,497C926.35,969.51,894.72,985.39,869.22,1011.27Z"/><path class="cls-1" d="M1773.47,441.13c-132,20.25-215.28,109-134.81,239-202.93-9.33-481.48,111.51-517.75,331,21.37,32.26-11.7,40.92-41.17,41.18s-58.87-11.6-27.79-43c-22.75-27-54.63-41.33-89.48-41.94,3.58-183.79,8-367.78,5.6-551.49,33.18,1.25,75.19,7.05,103.59,5.07,43.78,38.94-9.17,14.55,59.43,56.06,143.66,86.92,405.73-293.37,443.17-403.77.19-.55,11-2.3,5.9-4.14,7.73-4.47-2.16,1.54,6.74-4.17,64.86-41.72,153.15-65.72,226.79-28.33.75,83.05,69.7,127.16,146.28,132.16C1858.68,215.61,1751.34,320.11,1773.47,441.13Z"/><path class="cls-2" d="M1602.15,124c25.73,112,94.17,234.06,171.3,317.12-93.24-66.29-149.78-207.09-179.45-312-17.34,130.57-59.84,461.38,44.63,550.92-130.8-51.75-64-464-50.25-555-60.3,204.78-232.59,412.71-415.86,515.51-21.56-15.87-42.77-35.14-58.16-57,32.38,105.07,33.48,219.18-18.86,318.34-2.36,35.46-2.11,82.8,25.49,109.25,21.2,32.2-11.75,40.9-41.25,41.15s-58.85-11.59-27.8-43c-22.72-27-54.66-41.35-89.44-41.92,3.18-165.67-6.36-331.95-7.66-497.68,47.56-1.77,108.79-3.51,156.26-7.12,13.77,36.69,48.73,108.34,83.78,125.59C1363.6,489.91,1528,288.5,1585.43,103.74c-3.59-11-5.46-17.1-7.5-30s-3-31.55,6.64-43.62c-5.57,12.37-3,21.85,2.1,36.36,1.84,5.24,11.21,22.63,16.11,29.15,65,3.63,154-33.17,211-59.08-43.52,50.17-142.52,70.59-204,77.09C1712,154.9,1848.13,170,1956.63,169.28,1849.42,180.68,1696.89,176.81,1602.15,124Z"/><path class="cls-1" d="M1101.9,264.37c86.83-76.76,121.86-185.62,15.72-263.79-102.69,38.27-115.56,150.49-86.83,243.36C1054.43,251,1078.16,257.68,1101.9,264.37Z"/><path class="cls-2" d="M1052.43,225.91c-5.66-27.8-9.93-53-7.65-81.94,3.72-47.15,23.39-91.49,68-114.16,24.07,28.34,41.15,47.53,44.15,89.86,3,42.66-28.89,89.62-63,117.39C1079.93,234.76,1066.35,229.39,1052.43,225.91Z"/><path class="cls-1" d="M827.37,265.94C736.46,190.45,694.71,84.76,800.33,0c102.26,34.33,120.91,151.17,97.11,244.23Q862.42,255.14,827.37,265.94Z"/><path class="cls-2" d="M874.6,226.13c4.52-28.44,6.38-54.91,3-83.92-5.44-47.19-26.57-91.5-71.75-113-22.77,29.42-40.15,48.88-41.37,91.66-1.23,43.12,32.79,91.1,69.28,117.31C847.52,235.48,860.93,229.81,874.6,226.13Z"/><path class="cls-1" d="M1178.89,358.65c3.26,104-117.88,167.08-209.44,168.61S755.7,462.42,755,360.27,871.56,192.7,963.13,193.38,1175.63,254.67,1178.89,358.65Z"/><path class="cls-3" d="M1073.39,311.65c.75,31.25-25.67,52.57-55.86,53.23-17.32.38-32.95-7.65-45.29-19.68-12,12.34-27.21,20.32-44.57,20.15-30.25-.3-57.46-21.31-58.09-52.58s25.8-53,55.85-54c17.25-.59,33,7.44,45.21,19.42,11.74-12.14,27.17-20.23,44.27-19.59C1044.72,259.68,1072.64,280.4,1073.39,311.65Z"/><path class="cls-4" d="M906.08,466c46.65-26.19,109.12-34.95,153.07,1.12-16-22.32-44.81-29.21-71.88-30.28S925.86,444.23,906.08,466Z"/><path class="cls-5" d="M1015.23,440.53c-.13,12.22-.58,24.45-.66,36.66,6.39-10.31,12.88-20.55,19.28-30.85Q1024.52,443.51,1015.23,440.53Z"/><path class="cls-5" d="M937.55,444.92c6-1.72,11.83-3.74,17.73-5.65-.32,12.7-.64,25.4-1.07,38.09Q945.89,461.15,937.55,444.92Z"/><path class="cls-1" d="M1086.51,251.09c-81.61-.78-162.92-1.41-244.52,1.16.55,20.38,1.1,40.75,1.43,61.13,81.63-1,163.22-1.72,244.86-1.56C1087.76,291.58,1087.13,271.33,1086.51,251.09Z"/></g></g></svg>