<svg xmlns="http://www.w3.org/2000/svg" viewBox="0 0 119 119"><defs><style>.cls-1,.cls-3{stroke:#333;stroke-miterlimit:10;stroke-width:5px;}.cls-2{fill:#5c5c5c;}.cls-3{fill:none;}</style></defs><g id="Layer_2" data-name="Layer 2"><g id="Art"><circle cx="59.5" cy="59.5" r="59.5"/><circle class="cls-1" cx="59.5" cy="59.5" r="47.5"/><path class="cls-2" d="M13.35,59.33A49.11,49.11,0,0,1,45.84,18.26c1.12-.34,2.23-.76,3.37-1s2.29-.55,3.45-.79l3.5-.49a32.18,32.18,0,0,1,3.53-.23A45.1,45.1,0,0,1,73.6,17.45a50,50,0,0,1,12.52,5.63,45.38,45.38,0,0,1,10.31,8.74,2.52,2.52,0,0,1-3.27,3.76l-.09-.06c-1.66-1.06-3.41-2.1-5.18-3-.88-.48-1.78-.91-2.67-1.35S83.4,30.37,82.5,30a57.94,57.94,0,0,0-11.11-3.39,44.93,44.93,0,0,0-11.25-.7,49.64,49.64,0,0,0-5.56.68l-2.73.64c-.91.21-1.79.54-2.69.8A47.45,47.45,0,0,0,30.24,40.2a57.52,57.52,0,0,0-12,20.18l0,0a2.51,2.51,0,0,1-4.87-1.1Z"/><circle class="cls-3" cx="59" cy="60" r="47.5"/></g></g></svg>