<svg xmlns="http://www.w3.org/2000/svg" viewBox="0 0 464.98 287.97"><defs><style>.cls-1{fill:#978e6f;}.cls-2{fill:#ab6b3f;}.cls-3{fill:#cac2b7;}.cls-4{fill:#2e1a0f;}.cls-5{fill:#ddb8b2;}.cls-6{fill:#d1bf97;}.cls-7{fill:#4b2b1e;}.cls-8{fill:#1a1f19;}.cls-9{fill:#a27f69;}.cls-10{fill:#16160c;}</style></defs><g id="Layer_2" data-name="Layer 2"><g id="Art"><path class="cls-1" d="M216.82,194.58S166,216.19,127,200.19c0,0-25-4-34-13,0,0-14-4-22,3,0,0-8,6-15,31,0,0-8,16-6,35,0,0,0,14,4,21,0,0,5,8-6,7s-11-45-11-45l13-49,30-24,61,1,66,5,25,6Z"/><path class="cls-2" d="M66,75.19s-41-5-45,20c0,0-9,8-4,42,0,0,0,59-11,71,0,0-12,18-2,52,0,0,23-13,15-60,0,0,9-55,3-62,0,0,1-29,4-40,0,0,10-10,11-4,0,0-16,5-7,34,0,0,8,43,12,48,0,0-10,32-16,34,0,0-4,5,2,11,0,0,8,49,0,60,0,0,7,13,20,3,0,0,4-1-4-19,0,0-4-17,3-38,0,0,22-55,51-51,0,0,51,39,119,16,0,0-3,40,4,49,0,0,4,23-5,32,0,0-5,7,6,9s13-6,13-6,1-5-3-6,3-31,3-31,5-45,8-50c0,0-10,14,17,15,0,0,3,12,12,40,0,0,7,16,3,29,0,0-7,7,9,4s9-7,9-7-10-25-11-36c0,0,6,4-2-38,0,0,19-21,15-27,0,0,12-5,8-27,0,0,8-15,7-24,0,0,8-3,7-13,0,0,7-17,4-24,0,0,20,4,19-4,0,0,13-2,8-10s-11-5-11-5a20.93,20.93,0,0,0-15,5,35.36,35.36,0,0,0,1-6s12-19-27-19-27,21-27,21,5,11-15-3c0,0-14,0-14,10,0,0-34,11-71,8,0,0-72-4-84-8C85,70.19,77,68.19,66,75.19Z"/><path class="cls-3" d="M19.14,199.16S8.48,206.35,11,197.52s5-33.78,5-33.78l1-25.85s-6.47-27.47,1-37.34c0,0,9.49-33.86,8.49-2.86,0,0-6.94,30.4-4.47,39.7C22,137.39,28.81,143.62,19.14,199.16Z"/><path class="cls-3" d="M38.19,187.26S41,184.19,42,203.19c0,0,5-12,7-7s6,3,6,3,7.78-5.67,9.39-2.84c0,0,17-24.33,32.83-20.25,0,0,32.92,26.32,89.35,22.7,0,0,31.43-5.61-29.57-4.61,0,0-40,0-47-26,0,0-9-16-16-10a7.87,7.87,0,0,1-8-4s-9.5-11.5-7.5,7.5c0,0-20,6-28-7,0,0-20-17-17-34,0,0-.26-20.86-4.13-18.93s.27,25.23.27,25.23,3.86,32.7,11.86,48.7Z"/><path class="cls-3" d="M43.48,93.69c3.53,6.64,15.93.42,25,8,6.71,5.6,5.36,13.54,11.5,15,3.2.76,7.32-.5,8.5-3,2-4.16-5.54-9-4-13,2-5.32,16.52-1,19-6,3.14-6.28-14.11-25.19-23.5-22-4.41,1.49-3.06,6.49-8.5,10-9.45,6.08-21.84-3.63-27,2A8.45,8.45,0,0,0,43.48,93.69Z"/><path class="cls-3" d="M108.48,142.69c-2.89,5.37.41,14.57,5,16,3.51,1.09,5.12-3.19,12-5,9.78-2.58,16.13,3.55,20,0,2.39-2.2,2.54-6.9,1-10C141.38,133.46,113.79,132.8,108.48,142.69Z"/><path class="cls-3" d="M158.48,106.69c2.47,10.45-2.29,15.43,1,19,4.64,5,20,1.45,22-5,1.21-3.92-3.47-5.75-5-14-1.62-8.76,2.59-12.38,0-16-4.17-5.84-20.56-4.08-23,2C152.08,96.18,156.47,98.18,158.48,106.69Z"/><path class="cls-3" d="M221.48,149.69c-1.91,5.1.69,12.23,4,13s4.61-5.54,12-10c9.88-6,18.47-1.29,21-6,2.2-4.1-1.72-12.4-7-14-5.91-1.8-11.06,5.54-16,3-3.39-1.75-2.69-6.09-6-7s-8.08,2.37-8,5c.09,3.07,6.69,3.6,7,7C228.76,143.8,223.35,144.67,221.48,149.69Z"/><path class="cls-4" d="M159,79.19s20,0,27,10c0,0,21.5,12.5,29.5,9.5,0,0,6,2,16-3,0,0,6,12,19,12,0,0,7,0,9-4,0,0-1,15,7,26,0,0,7,27-4,36,0,0-12,10,9,31,0,0,15.39-9.56,23.69-25.78,0,0,13.31-9.22,7.31-29.22,0,0,8-11,8-24l-20.86-3s-3.14-10-15.14-18c0,0-5-9-3-17l-15.77,1.2-.23,1.8s-43,11-54,6c0,0-18.77-7-19.88-9.5S159,79.19,159,79.19Z"/><path class="cls-5" d="M298.59,116.62s-6.62,17.66,6.29,16S319.41,144,319.41,144s6.46,8.08,11.3,0c0,0,1.61-9.68-6.46-14.52,0,0-6.46-8.08-12.91-6.46,0,0-10.2,5-4.3-6.36Z"/><path class="cls-6" d="M271.3,49.08s-44.82,6.61-63.82-27.39c0,0-2-10-27-13,0,0-30,0-40-4,0,0,24,14,38,10s27,21,27,21,23,28,36,23c0,0,21.54,2.19,28.27.6Z"/><path class="cls-6" d="M465,.19s-39-3-57,15c0,0-33,34-45,31,0,0-25.14,6.75-42.07,1.37L323,60.19s44,5,55-6c0,0,17.5-10.5,32.5-31.5C410.48,22.69,432.48,2.69,465,.19Z"/><path class="cls-7" d="M271,79.19s-23,8-31-9c0,0-3-11,14-10,0,0,12.85,8,14.42,7S273,71.19,271,79.19Z"/><path class="cls-7" d="M321,81.19c3.47-.64,1.59-3.82,2-7a8,8,0,0,0-2.5-6.5,27,27,0,0,1,8.37-5.38c4.88-2.12,11.13-3.12,16.63,1.38,0,0,12.74,18.5-8.5,18.5A136.13,136.13,0,0,1,321,81.19Z"/><ellipse class="cls-8" cx="279.48" cy="75.69" rx="3" ry="7" transform="translate(156.37 337.76) rotate(-79.99)"/><path class="cls-8" d="M319.45,74.6c-.2-1.85-3.31-3.21-5.84-2.89-3.43.43-5,3.83-5.1,4.06.15.21,2.4,3.2,5.84,2.9C316.89,78.44,319.65,76.45,319.45,74.6Z"/><path class="cls-9" d="M314.77,101.13S312,97.19,306,99.19h-9s-6-1-7,2c0,0-7,13,4,16,0,0,21,2,20-2C314,115.19,318.56,110.08,314.77,101.13Z"/><path class="cls-10" d="M292.48,103.69s6,2,6,6S289.48,108.69,292.48,103.69Z"/><path class="cls-10" d="M307.48,109.69s1-5,6-6C313.48,103.69,313.48,110.69,307.48,109.69Z"/></g></g></svg>