<svg xmlns="http://www.w3.org/2000/svg" viewBox="0 0 498.95 501.5"><defs><style>.cls-1{fill:#482a0e;}.cls-2{fill:#603813;}.cls-3{fill:#8c6239;}.cls-4{fill:#fff;stroke-width:2px;}.cls-4,.cls-5,.cls-6{stroke:#000;stroke-miterlimit:10;}.cls-5,.cls-6{fill:none;}.cls-5{stroke-width:3px;}</style></defs><g id="Layer_2" data-name="Layer 2"><g id="Art"><path class="cls-1" d="M498.45,322.79c-8.06,26-103.66-.52-120.46-6S267.9,276.75,276.59,251s103.23,2.48,120.09,7.95S506.51,296.81,498.45,322.79Z"/><ellipse class="cls-1" cx="222" cy="439" rx="116" ry="25.5"/><path class="cls-2" d="M212,0a23.5,23.5,0,1,1-23.5,23.5A23.5,23.5,0,0,1,212,0"/><path class="cls-3" d="M212,4a19.5,19.5,0,1,1-19.5,19.5A19.53,19.53,0,0,1,212,4"/><path class="cls-2" d="M356,4a23.5,23.5,0,1,1-23.5,23.5A23.5,23.5,0,0,1,356,4"/><path class="cls-3" d="M356,8a19.5,19.5,0,1,1-19.5,19.5A19.53,19.53,0,0,1,356,8"/><path class="cls-2" d="M326.75,304.88a316.09,316.09,0,0,1-45.35,76.48,324.84,324.84,0,0,1-43.85,45.44c-65.42,55.59-141.79,72.83-187.1,36.77C-5.52,419,7.13,310,78.7,220.06s175-126.75,231-82.21C350.29,170.19,354.76,236.53,326.75,304.88Z"/><path class="cls-2" d="M280,4c61.58,0,111.5,41.19,111.5,92S341.58,188,280,188,168.5,146.81,168.5,96,218.42,4,280,4"/><ellipse class="cls-3" cx="280" cy="151.5" rx="56" ry="33"/><ellipse cx="279" cy="120" rx="13" ry="7.5"/><circle class="cls-4" cx="242" cy="74.5" r="18"/><circle class="cls-1" cx="246.5" cy="75" r="14"/><circle class="cls-1" cx="319.5" cy="75" r="14"/><circle class="cls-4" cx="319" cy="74.5" r="18"/><circle class="cls-1" cx="323.5" cy="75" r="14"/><path class="cls-5" d="M246.5,151s17,27,33,0l-1-31"/><path class="cls-5" d="M310,151.5s-15,27-30,0V122.75"/><path class="cls-6" d="M180.05,136.81s55.45,93.86,157.45,38"/><ellipse class="cls-2" cx="212" cy="464.5" rx="114" ry="37"/><ellipse class="cls-2" cx="19" cy="427.5" rx="19" ry="14"/><path class="cls-6" d="M235.5,428.53s-48.5-14-110.5,0"/><path class="cls-3" d="M326.75,304.88a316.09,316.09,0,0,1-45.35,76.48,324.84,324.84,0,0,1-43.85,45.44C218.67,413.29,206.5,392,206.5,368c0-40.87,35.37-74,79-74A82.6,82.6,0,0,1,326.75,304.88Z"/><path class="cls-2" d="M483.66,217.54c5.52,30.89-80.2,52.41-100.44,56.8S278.91,295.37,271,265s76.9-58.46,97.14-62.87S478.14,186.65,483.66,217.54Z"/><path class="cls-6" d="M342.47,210c-18,6.42-56.72,19.22-65.68,37.29"/><path class="cls-6" d="M333.47,281c-20.29-.26-33.64,1-53.21-4.87"/></g></g></svg>