<svg xmlns="http://www.w3.org/2000/svg" viewBox="0 0 513.35 501.5"><defs><style>.cls-1{fill:#482a0e;}.cls-2{fill:#603813;}.cls-3{fill:#8c6239;}.cls-4{fill:#fff;stroke-width:2px;}.cls-4,.cls-5,.cls-6{stroke:#000;stroke-miterlimit:10;}.cls-5,.cls-6{fill:none;}.cls-5{stroke-width:3px;}</style></defs><g id="Layer_2" data-name="Layer 2"><g id="Art"><ellipse class="cls-1" cx="397.6" cy="245.43" rx="116" ry="30.48" transform="translate(-15.84 27.75) rotate(-3.92)"/><ellipse class="cls-1" cx="222" cy="439" rx="116" ry="25.5"/><circle class="cls-2" cx="212" cy="23.5" r="23.5"/><circle class="cls-3" cx="212" cy="23.5" r="19.5"/><circle class="cls-2" cx="356" cy="27.5" r="23.5"/><circle class="cls-3" cx="356" cy="27.5" r="19.5"/><path class="cls-2" d="M326.75,304.88a316.09,316.09,0,0,1-45.35,76.48,324.84,324.84,0,0,1-43.85,45.44c-65.42,55.59-141.79,72.83-187.1,36.77C-5.52,419,7.13,310,78.7,220.06s175-126.75,231-82.21C350.29,170.19,354.76,236.53,326.75,304.88Z"/><ellipse class="cls-2" cx="280" cy="96" rx="111.5" ry="92"/><ellipse class="cls-3" cx="280" cy="151.5" rx="56" ry="33"/><ellipse cx="279" cy="120" rx="13" ry="7.5"/><circle class="cls-4" cx="242" cy="74.5" r="18"/><circle class="cls-1" cx="246.5" cy="75" r="14"/><circle class="cls-1" cx="319.5" cy="75" r="14"/><circle class="cls-4" cx="319" cy="74.5" r="18"/><circle class="cls-1" cx="323.5" cy="75" r="14"/><path class="cls-5" d="M246.5,151s17,27,33,0l-1-31"/><path class="cls-5" d="M310,151.5s-15,27-30,0V122.75"/><path class="cls-6" d="M180.05,136.81s55.45,93.86,157.45,38"/><ellipse class="cls-2" cx="212" cy="464.5" rx="114" ry="37"/><ellipse class="cls-2" cx="19" cy="427.5" rx="19" ry="14"/><path class="cls-6" d="M235.5,428.53s-48.5-14-110.5,0"/><path class="cls-3" d="M326.75,304.88a316.09,316.09,0,0,1-45.35,76.48,324.84,324.84,0,0,1-43.85,45.44C218.67,413.29,206.5,392,206.5,368c0-40.87,35.37-74,79-74A82.6,82.6,0,0,1,326.75,304.88Z"/><path class="cls-6" d="M343.22,243.64s-52.46-10.27-62.34,1.79"/><ellipse class="cls-2" cx="375.85" cy="288.15" rx="37" ry="114" transform="translate(-1.85 573.87) rotate(-74.58)"/><path class="cls-6" d="M323.5,309s-44.7-25.15-54.1-36.82"/></g></g></svg>