<svg xmlns="http://www.w3.org/2000/svg" viewBox="0 0 34.78 136.86"><defs><style>.cls-1{fill:#ab6b3f;}.cls-2{fill:#82786e;}.cls-3{fill:#cac2b7;}</style></defs><g id="Layer_2" data-name="Layer 2"><g id="Art"><path class="cls-1" d="M33.87,41.29c-.24-.42-.47-.84-.69-1.25A8,8,0,0,1,33.87,41.29Z"/><path class="cls-1" d="M30.35,119.64a15.06,15.06,0,0,1-9.58,2.9v-1l-.22,1A18.4,18.4,0,0,1,11,118.63c.68-1.41,1.15-3.85.73-8.07a36.17,36.17,0,0,1,3-18s4-18,0-26c-2-4.05-2.77-9.9-3-14.68.72,1.55,2.18,3,5,3.68,8,2,6,8,6,8s-2,5,1,12a8.74,8.74,0,0,0,1.66,3c-.64,5.23-.86,11.39,1.34,13,4,3,1,13,1,13S27.77,113.59,30.35,119.64Z"/><path class="cls-2" d="M11,118.63a18.4,18.4,0,0,0,9.51,3.89l-2.78,12s-4,3-9-2,0-12,0-12S10.11,120.56,11,118.63Z"/><path class="cls-2" d="M33.77,133.56c-7,6-13,2-13,2v-13a15.06,15.06,0,0,0,9.58-2.9c.13.32.27.62.42.92A33,33,0,0,1,33.77,133.56Z"/><path class="cls-3" d="M26.77,70.56s-.44,2-.88,4.71c-.16,1-.32,2.1-.46,3.25a8.74,8.74,0,0,1-1.66-3c-3-7-1-12-1-12s2-6-6-8c-2.83-.71-4.29-2.13-5-3.68l-.08-6.07c0-1.4.09-2.25.09-2.25A47.67,47.67,0,0,0,9,18.59a45.36,45.36,0,0,0-6.23-11c-12.28-16.06,20-1.78,23.67-.15l.33.15S23.21,21.48,33.17,40h0c.22.41.45.83.69,1.25l0,.06h0C38,50.59,26.77,70.56,26.77,70.56Z"/><path class="cls-3" d="M33.87,41.29c-.24-.42-.47-.84-.69-1.25A8,8,0,0,1,33.87,41.29Z"/></g></g></svg>