<svg xmlns="http://www.w3.org/2000/svg" viewBox="0 0 605.49 488.9"><defs><style>.cls-1{fill:#797169;}.cls-2{fill:#a4815b;}.cls-3{fill:#23140d;}.cls-4{fill:#534334;}.cls-5{fill:#dbd4ce;}.cls-12,.cls-6{fill:none;}.cls-6{stroke:#797169;stroke-width:2px;}.cls-12,.cls-13,.cls-6{stroke-miterlimit:10;}.cls-7{fill:#342f2b;}.cls-8{fill:#6f5f50;}.cls-9{fill:#d0cdc8;}.cls-10{fill:#d2bea6;}.cls-11{fill:#333;}.cls-12{stroke:#000;stroke-width:3px;}.cls-13{fill:#fff;stroke:#23140d;}</style></defs><g id="Art"><path class="cls-1" d="M1769.76,323.31s20.93,31.05,22.28,37.8c0,0,6.07,1.35,3.37,5.4,0,0-4.05,10.8,5.4,12.83,0,0-11.47,10.12-14.17,20.24,0,0-12.15-2.7-15.53,6.75,0,0-20.92.68-23.62,10.8,0,0-10.12,10.8-7.42,14.85,0,0-5.4,7.43,4,4.73,0,0,0,9.45,10.8,4.72l4.73-4.72s-2.7,12.15,12.82,7.42a19.5,19.5,0,0,1,17.55,1.35s10.8,3.38,18.9-2.7l12.15-56-16.2-61.42-37.8-38.48-8.77,27Z" transform="translate(-1288.51 -17.64)"/><path class="cls-2" d="M1883.16,182.92s12.83,76.94-6.07,78.29c0,0,13.5,43.2,3.37,57.38,0,0-4.72,18.22.68,29.7,0,0-3.38,30.37,4,32.4,0,0,8.77,12.82-3.38,35.77,0,0,2,10.8-2.7,17.55,0,0-13.5,35.77-16.87,34.42,0,0-10.8,19.58-8.78,27,0,0,.68,6.08-12.82,4.73,0,0-3.38-2-12.83,3.37,0,0-19.62,5.55-23.59-.32-3.07.83-7,.84-12.18-.35A38.21,38.21,0,0,1,1779.9,498c-1.92,2.12-4.74,3.49-8.79,3.49-18.22,0-16.87-7.43-16.87-7.43s-2-14.85,14.85-20.92c0,0,1.35-7.43,19.57-5.4,0,0,32.4-38.48,19.58-83.7,0,0-11.48-15.52-12.83-46.57,0,0-23.62-7.43-27-46.58v34.43s-1.08,1.06-3.12,2.91l0,0c-17.65,16-106,90.36-179.09,51.07a17.61,17.61,0,0,1,2.37,3.47,13.64,13.64,0,0,1,1.49,9.63,13.41,13.41,0,0,1-3.06,5.61c-.25.29-.52.58-.8.86,0,0,.52,1.6,1.15,4.16,0,0,0,0,0,0,1.92,7.81,4.84,24.46-2.92,31.77h0a12.84,12.84,0,0,1-6.34,3.18,22.12,22.12,0,0,1,.82,2.31l0,0c1.33,4.42,2.95,13.68-6.24,15.21,0,0-1.53,18.42-11.29,24.07a2.49,2.49,0,0,1-.28.15,11.63,11.63,0,0,1-4.63,1.43,15.3,15.3,0,0,1-.72,3.62c-1.53,4.83-6.26,12.64-20.88,11.23l-.07,0c-.21.12-.85.48-1.81,1-4.07,2-13.78,6.09-19,1.94-1.9-1.52-3.19-4.14-3.36-8.37,0-.49,0-1,0-1.52-2.83,7.79-9.69,14.75-26.4,4.26,0,0-5.47-2.74-5.69-8.34-3.87,2.4-8.66,3-14.34-.53h0c-.29-.17-.58-.37-.88-.57a8.43,8.43,0,0,1-2.79-4.23c-1.18-4.1.21-11.11,14.27-20.75,0,0,10.38-7.12,20.32-12.9a109.34,109.34,0,0,1,10.89-5.69c.69-.29,1.34-.56,2-.78l.58-.2s-13.67-3.9-7.13-15.55c.08-.15.17-.31.27-.47a1.74,1.74,0,0,1,.11-.18s-5.12-9.45-5.13-18.42a19.52,19.52,0,0,1,.11-2.18c0-.4.08-.79.15-1.18q-.11.33-.24.69c-3.53,10.19-12.13,32.61-22.59,42.72,0,0,0,0,0,0-4.44,4.29-9.21,6.35-14.08,4.33l-.74-.33s-.54.24-1.47.58c-3.53,1.29-12.63,4-19.64.88a12.58,12.58,0,0,1-2.4-1.39c.21,2-4.61,3.93-29.14,1.95,0,0-22.09-16.9-6.23-30.55a34.3,34.3,0,0,1,7.18-4.62,73.15,73.15,0,0,1,12.55-4.65,7,7,0,0,0,3.8-1.05,15.67,15.67,0,0,0,1.48-.89,25.72,25.72,0,0,0,5.09-4.78c.3-.35.61-.74.91-1.14h0l.19-.24s-5.93-4.74-1.13-10.33l0,0a12.5,12.5,0,0,1,1-1,1,1,0,0,1,.15-.14s-10.17-13.75-4.6-21.56a8.33,8.33,0,0,1,1.22-1.39s2-51.3-13.5-54.68c0,0-27.8,4.64-31.61-75.26,0-.77-.08-1.56-.11-2.36,0,0-26.32,4.72-38.47-15.52,0,0-2-8.78-10.13-3.38,0,0-26.32,13.5-20.92-29,0,0-4.73-18.23,2-31.73,0,0-20.92,4,3.38-75.6,0,0,0-11.47-4.73-2.7,0,0-11.47,37.13-21.6,36.45,0,0-4,1.35,1.35-6.07s6.75-18.23,6.75-18.23,4-18.22,2-29c0,0-4-14.17,19.57-27a58.06,58.06,0,0,1,47.25-8.77s22.28-17.55,68.85-.68c0,0,6.07-6.07,37.12,10.8,0,0,18.9-2,29,13.5,0,0,29.7-.67,52,29,0,0,.68,7.41-1.34,10.12a6.17,6.17,0,0,1,.58-.4c1.48-.87,5.36-2.14,7.51,6.48,0,0,6.08-6.07,8.1,3.38,0,0,8.1-6.75,8.77,7.42,0,0,4.05-.67,3.38,4.73l.45-.06c7.12-.94,96.23-12.41,148-4,0,0,40.49-12.15,54.67,3.37,0,0,25.65-12.82,40.5,5.4,0,0,27.67-7.42,31,20.25,0,0,25.65-2.7,35.1,45.23C1893.29,180.22,1898,187.64,1883.16,182.92Z" transform="translate(-1288.51 -17.64)"/><path class="cls-1" d="M1777.78,321.83l-12.49,6.42h0v0c-17.65,16-106,90.36-179.09,51.07,0,0,5.62,6,3.86,13.1l-9.6-18.84,4.57-1.28s116.25,41.1,182.4-85.12c0,0,.33,3.09,1,7.44C1769.87,303.86,1772.9,318.75,1777.78,321.83Z" transform="translate(-1288.51 -17.64)"/><path class="cls-3" d="M1473.9,62.36s26.88,16.27,23.51,99.29c0,0,4.08,8.76,24.31-3l-17.56-87.4Z" transform="translate(-1288.51 -17.64)"/><path class="cls-4" d="M1555.46,88.08s-4,20.25-8.78,27-6.75,30.37-15.52,35.1-8.78,18.9-24.3-2.7c0,0-6.08-14.17-4-26.32,0,0-3.38-38.48-16.2-49.95s-14.85-8.78-14.85-8.78-10.12-14.17,0-20.25l8-6.43s15.61,1,24.39,13.86c0,0,30.37-3.38,51.3,29C1555.46,78.63,1560.86,82.68,1555.46,88.08Z" transform="translate(-1288.51 -17.64)"/><path class="cls-3" d="M1318.72,78.46s19.4-19.8,26.82-32.42l-25,9-10.13,17.55,6.58,2.18S1320.92,72.89,1318.72,78.46Z" transform="translate(-1288.51 -17.64)"/><path class="cls-4" d="M1369.16,25.31s-23-6.75-46.57,8.77-20.16,25.55-20.16,25.55a98.9,98.9,0,0,1-2.79,24.4s2.54,15.46-7.5,27.3,4,2.24,4,2.24,9.48-5.58,12.75-20.77c0,0,6-11.81,5.29-14.51,0,0,8.78-25,28.35-30.37C1342.5,47.92,1362.08,36.45,1369.16,25.31Z" transform="translate(-1288.51 -17.64)"/><path class="cls-5" d="M1587.34,403.1c2.48,7.76,6.31,24.23-2.92,31.77h0a16.57,16.57,0,0,1-6.68,3.18,20.41,20.41,0,0,1,1.16,2.31l0,0c1.91,4.4,4.49,13.73-6.37,16.69,0,0-1.17,17.15-11.16,22.59a2.49,2.49,0,0,1-.28.15,13.46,13.46,0,0,1-5,1.43,16.37,16.37,0,0,1-.38,3.62c-1.08,5.24-5.23,14-21,11.27l-.27,0s-.57.4-1.54,1c-3.78,2.29-13.61,7.36-19,1.94-1.65-1.67-2.87-4.33-3.36-8.37a.59.59,0,0,1,0-.14s-6.06,14.31-20.11,6.57c0,0-14.61-4.18-12-11.7,0,0-7.49,5.45-14.34-.86h0a19.67,19.67,0,0,1-3.67-4.8c-.06-.1-.1-.19-.16-.28s-8.18-11.21,34.75-33.37c3.42-1.76,7.15-3.59,11.24-5.5,0,0-.13-.06-.35-.19-2.2-1.3-13.72-8.67-4.59-16.53l.38-.31-.11-.16c-.76-1.14-5.43-8.43-5.45-16.87a22,22,0,0,1,.16-2.68c-.59,2-1.37,4.55-2.37,7.89-7.77,26.59-12,28.29-19.93,33.11,0,0,0,0,0,0-1.52.92-3.18,2-5,3.32-1.52,1.12-4.81.66-9,1H1460l-.28,0c-.67.06-1.3.14-1.87.22-7.18,1-7.46,3.4-19.64.88l-1.17-.25s-2,5.88-30.37,1.15c0,0-24.56-17.12-6.23-30.89a34.91,34.91,0,0,1,4.62-2.91s1-.72,2.56-1.71c4-2.5,11.56-6.75,16.35-5.7l.42.1,1.06-1,5.09-4.78,1.11-1-.19-.1h0c-1.29-.67-8.41-4.8-.93-10.57l0,0c.33-.25.7-.52,1.11-.79l-.15-.19c-1.34-1.76-11-15-4.45-21.7a9.1,9.1,0,0,1,1.22-1.06v-.33c0-4.36-.55-49.63-12.13-53.9,0,0-30.39,7.66-33.09-76h50.62L1465.79,201s27.75,20.88,39-35.9l44.4-54.46s13.73,45.94-7.19,63.49c0,0-10.8,23.63-32.4,32.4,0,0-17.55,38.47,6.07,55.35,0,0-3.37,10.12-14.17,13.5s2.7,18.22,2.7,18.22,2,2.7-16.87,9.45,11.47,73.58,11.47,73.58-2,16.2,23.62,26.32c0,0,31,23,58.73-36.45,0,0,14.85-10.8,4.72,4.73,0,0-6.28,7,1.24,9.57a15.89,15.89,0,0,1,1.47,2c2.06,3.27,4.91,9.92-1.57,15.24-.35.29-.73.58-1.14.86,0,0,.68,1.6,1.49,4.16C1587.33,403.08,1587.34,403.09,1587.34,403.1Z" transform="translate(-1288.51 -17.64)"/><path class="cls-1" d="M1498.42,396.88s0,.2-.11.57c0,.1-2,7.29-1.91,6.39-.59,2-1.37,4.55-2.37,7.89-7.77,26.59-12,28.29-19.93,33.11,0,0,0,0,0,0-4.44,4.29-9.21,6.35-14.08,4.33H1460l-.28,0-.4-.36s23.63-14.18,21.6-85.72c0,0,3.39-.92,7.77,3C1493.2,370.3,1498.77,379.65,1498.42,396.88Z" transform="translate(-1288.51 -17.64)"/><path class="cls-6" d="M1495.38,385.75a19,19,0,0,0,.68-8.78,19.67,19.67,0,0,0-4-8.77c-6.65-8.9-11.84-23.38-12.82-33.75a45.81,45.81,0,0,1,1.91-17.75s-12.83,5.68-21.61-.55a21.56,21.56,0,0,1-8-24.22" transform="translate(-1288.51 -17.64)"/><path class="cls-7" d="M1350.2,107s2.7-12.56-8.07-17.41l-5.37-.13s6.08,4,6.08,8.1c0,0-14.85-4.72-22.27,5.4s2,7.39,2,7.39-2.67,6.11,1.38,9.49c0,0-.33,15.15,13,7.24s14.43-11.83,14.43-11.83Z" transform="translate(-1288.51 -17.64)"/><path class="cls-7" d="M1432.61,94.83s14.18,2.7,5.4,14.85c0,0-5.4,10.13-14.17,8.78,0,0-3.38-16.2-18.23-15.53,0,0,10.41,2.8,7.57,15.24a25.66,25.66,0,0,1,17.06,13.64l9.35,16.1s27.45,2.94,30.82-13.93c0,0,4.73,0,6.75,2.7s0-18.22,0-18.22.68,3.37-3.37,2.7c0,0-.34,7.08-6.42,1.68,0,0-12.82-10.12-24.3-5.4,0,0,10.8-10.12,7.43-14.85C1450.5,102.59,1446.45,90.44,1432.61,94.83Z" transform="translate(-1288.51 -17.64)"/><path class="cls-8" d="M1327,219.34s16.46-10.88,19.2,3.85,36.92,15.24,36.92,15.24,23.7,11.3,35.6,0c0,0-1,20.51,25.33-6.53s-63.09-25.47-63.09-25.47l-54.3-.23Z" transform="translate(-1288.51 -17.64)"/><path class="cls-9" d="M1312.47,152.88s3.48-23.62,18.27-13.16,20.63-24.5,20.63-24.5,9.69-28.49-24.73-28.49c0,0,22.95-22.27,17.55-27.67,0,0,6.75-20.25,23.62-23.63,0,0,27.22-12.73,20.7-16.82,7.63,1,2.67-1.06,17.1-.73,9.9.23,27,2.7,33.08,7.43,8.1-5.4,21.36,5.54,37.12,10.8a85.65,85.65,0,0,0-40.7-7.33c-1.19,1.26-2,2.75-1.49,4.29,0,0-10.12-16.2-29.69-9.45,0,0-18.23,26.33,16.87,19.58l2,4.72S1406,62.77,1408.65,71.54c0,0,1.35,12.15-4.72,16.2,0,0-9.45,22.35,0,26.7a37,37,0,0,1,16.53,6.72c2.34,1.74,17.55,8.1,17.55,33.07-1.35,9.45,5,16.74,7.09,28.69l25-12.15s.68,51.38-29.7,61.13L1337.1,187.64l-25,.68s-5.4-12.15,3.37-31.73Z" transform="translate(-1288.51 -17.64)"/><path class="cls-10" d="M1387.73,111.37s-48.6-10.13-58,32.4c0,0-4.73,34.42-16.2,44.55,0,0-8.78,50.62,25,23.62,0,0,27.68,20.25,72.22,12.83,0,0,5.4,28.34,34.43,3.37s0-44.55,0-44.55S1451.17,116.77,1387.73,111.37Z" transform="translate(-1288.51 -17.64)"/><path class="cls-11" d="M1361.4,143.77s20.25-27.68,39.83,4l1.35,3.37s-1.35,4.05-10.13,2.7c0,0-6.75-5.4,1.35-8.77,0,0-8.1-.68-4.72,8.77,0,0,2,6.08,14.85,0,0,0-12.15,10.8-7.43,19.58,0,0-19.57-12.83-35.1-6.75,0,0,4.73-5.4-5.4-18.23,0,0,8.1,6.08,11.48,5.4a18.88,18.88,0,0,0,6.75-3.37s4-5.4,0-10.13c0,0,1.35,6.75-2.7,8.78a6.37,6.37,0,0,1-7.43,0s-2.7,0-4.72-3.38Z" transform="translate(-1288.51 -17.64)"/><path class="cls-12" d="M1338.45,211.94s31.73-70.2,70.2,6.75" transform="translate(-1288.51 -17.64)"/><line class="cls-12" x1="92.42" y1="127.34" x2="85.76" y2="165.26"/><ellipse class="cls-13" cx="161.99" cy="111.95" rx="16.54" ry="9.79"/><path class="cls-13" d="M1351.36,112.73a12.71,12.71,0,0,1-14.42,8.55c-6.33-1-14.58-5.55-14.43-12,1.93-6.13,11.74-11,18.08-10A13.28,13.28,0,0,1,1351.36,112.73Z" transform="translate(-1288.51 -17.64)"/><circle class="cls-3" cx="48.76" cy="92.54" r="10.29"/><circle class="cls-3" cx="161.99" cy="111.95" r="10.12"/><path class="cls-5" d="M1584.48,270.33c-13.5,2-13.5-12.15-13.5-12.15,14.18-35.78-16.32-166.43-16.32-166.43l1-3.74c1.48-.87,5.36-2.14,7.51,6.48,0,0,6.08-6.07,8.1,3.38,0,0,8.1-6.75,8.77,7.42,0,0,4.05-.67,3.38,4.73l.45-.06-.11.4C1601.36,130.61,1584.48,270.33,1584.48,270.33Z" transform="translate(-1288.51 -17.64)"/><path class="cls-5" d="M1867.19,461.94s14-22.53-48.83-52.91c0,0-12.82-47.92-20.92-51.29,0,0,7.64,26.26,11.25,28,0,0-.86,27.07,1.71,31.94,0,0-2.16,25.8-21.74,50.1,0,0-15.91-2.91-19.43,5,0,0-17,5.16-15,21.36,0,0-1.08,4,5.87,6.06s16.4,2.72,19.78-2c0,0,12.15,8.1,24.3,5.4s.31.06.31.06,3.74,6.69,23.31-.06c0,0,10.13-5.4,12.83-3.37,0,0,7.78,1.1,11-1.48s1.84-4.6,1.84-4.6a67,67,0,0,1,9-25.62S1864.72,470.29,1867.19,461.94Z" transform="translate(-1288.51 -17.64)"/></g></svg>