<svg xmlns="http://www.w3.org/2000/svg" viewBox="0 0 605.49 488.9"><defs><style>.cls-1{fill:#797169;}.cls-2{fill:#a4815b;}.cls-3{fill:#23140d;}.cls-4{fill:#534334;}.cls-5{fill:#dbd4ce;}.cls-12,.cls-13,.cls-6{fill:none;stroke-miterlimit:10;}.cls-6{stroke:#797169;stroke-width:2px;}.cls-7{fill:#342f2b;}.cls-8{fill:#6f5f50;}.cls-9{fill:#d0cdc8;}.cls-10{fill:#d2bea6;}.cls-11{fill:#333;}.cls-12{stroke:#000;stroke-width:3px;}.cls-13{stroke:#23140d;stroke-width:4px;}</style></defs><g id="Layer_2" data-name="Layer 2"><g id="Art"><path class="cls-1" d="M481.25,305.67s20.93,31.05,22.28,37.8c0,0,6.07,1.35,3.37,5.4,0,0-4,10.8,5.4,12.82,0,0-11.47,10.13-14.17,20.25,0,0-12.15-2.7-15.53,6.75,0,0-20.92.68-23.62,10.8,0,0-10.13,10.8-7.43,14.85,0,0-5.4,7.43,4.05,4.73,0,0,0,9.45,10.8,4.72l4.73-4.72s-2.7,12.15,12.82,7.42a19.5,19.5,0,0,1,17.55,1.35s10.8,3.38,18.9-2.7l12.15-56-16.2-61.43-37.8-38.47-8.77,27Z"/><path class="cls-2" d="M594.65,165.27s12.82,76.95-6.07,78.3c0,0,13.49,43.2,3.37,57.37,0,0-4.72,18.23.68,29.7,0,0-3.38,30.38,4,32.4,0,0,8.78,12.83-3.37,35.78,0,0,2,10.8-2.7,17.55,0,0-13.5,35.77-16.87,34.42,0,0-10.8,19.57-8.78,27,0,0,.68,6.07-12.82,4.72,0,0-3.38-2-12.83,3.38,0,0-19.62,5.55-23.6-.32-3.06.83-7,.84-12.17-.36a37.94,37.94,0,0,1-12.14-4.84c-1.92,2.13-4.74,3.49-8.79,3.49-18.22,0-16.87-7.42-16.87-7.42s-2-14.85,14.85-20.92c0,0,1.35-7.43,19.57-5.4,0,0,32.4-38.48,19.58-83.7,0,0-11.48-15.53-12.83-46.58,0,0-23.62-7.42-27-46.57v34.42s-1.08,1.06-3.12,2.91l0,0c-17.64,16-105.94,90.35-179.08,51.06a17.51,17.51,0,0,1,2.37,3.48,13.64,13.64,0,0,1,1.49,9.63,13.41,13.41,0,0,1-3.06,5.61c-.25.28-.52.57-.8.86,0,0,.52,1.6,1.15,4.16l0,0c1.92,7.81,4.84,24.45-2.92,31.76v0a12.84,12.84,0,0,1-6.34,3.18,22.12,22.12,0,0,1,.82,2.31l0,0c1.33,4.42,3,13.67-6.24,15.21,0,0-1.53,18.42-11.29,24.07l-.28.15a12,12,0,0,1-4.63,1.43,15.19,15.19,0,0,1-.72,3.61c-1.53,4.84-6.26,12.65-20.88,11.23l-.07.05c-.21.12-.85.47-1.81.95-4.07,2-13.78,6.09-19,1.93-1.9-1.51-3.19-4.13-3.36-8.37,0-.48,0-1,0-1.51-2.83,7.78-9.69,14.75-26.4,4.25,0,0-5.47-2.73-5.69-8.33-3.87,2.39-8.66,3-14.34-.53h0c-.29-.18-.58-.37-.88-.58a8.37,8.37,0,0,1-2.79-4.23c-1.18-4.09.21-11.1,14.27-20.74,0,0,10.38-7.12,20.32-12.9a109.34,109.34,0,0,1,10.89-5.69c.69-.3,1.34-.56,2-.78.2-.08.39-.14.58-.2,0,0-13.67-3.91-7.13-15.55.08-.15.17-.32.27-.47a1.74,1.74,0,0,1,.11-.18s-5.12-9.45-5.13-18.42c0-.74,0-1.47.1-2.18.05-.4.09-.79.16-1.18-.07.22-.16.45-.24.68-3.53,10.2-12.13,32.62-22.59,42.73h0c-4.44,4.3-9.22,6.36-14.08,4.34l-.74-.33s-.54.24-1.48.58c-3.52,1.29-12.62,4-19.63.87a13.08,13.08,0,0,1-2.4-1.38c.21,2-4.61,3.93-29.14,1.95,0,0-22.09-16.9-6.23-30.56a34.71,34.71,0,0,1,7.18-4.61,73.15,73.15,0,0,1,12.55-4.65,7,7,0,0,0,3.8-1.06,12.33,12.33,0,0,0,1.48-.89A25.34,25.34,0,0,0,142,386.7c.31-.36.62-.74.92-1.14h0l.19-.24S137.16,380.58,142,375h0c.29-.32.61-.65,1-1l.15-.14s-10.17-13.75-4.6-21.56a8.68,8.68,0,0,1,1.22-1.39s2-51.3-13.5-54.67c0,0-27.8,4.64-31.61-75.26,0-.78-.08-1.57-.11-2.36,0,0-26.32,4.72-38.47-15.53,0,0-2-8.77-10.13-3.37,0,0-26.32,13.5-20.92-29,0,0-4.73-18.22,2-31.72,0,0-20.92,4.05,3.38-75.6,0,0,0-11.47-4.73-2.7,0,0-11.47,37.13-21.6,36.45,0,0-4,1.35,1.35-6.07S12.14,72.8,12.14,72.8s4.05-18.22,2-29c0,0-4.05-14.18,19.57-27A58,58,0,0,1,81,8s22.27-17.55,68.85-.67c0,0,6.07-6.08,37.12,10.8,0,0,18.9-2,29,13.5,0,0,29.7-.68,52,29,0,0,.67,7.41-1.34,10.11a5.08,5.08,0,0,1,.58-.39c1.48-.87,5.36-2.14,7.51,6.48,0,0,6.07-6.07,8.1,3.38,0,0,8.1-6.75,8.77,7.42,0,0,4.05-.67,3.38,4.73l.45-.06c7.12-.94,96.23-12.41,148-4,0,0,40.5-12.15,54.68,3.37,0,0,25.65-12.82,40.5,5.4,0,0,27.67-7.42,31,20.25,0,0,25.64-2.7,35.09,45.22C604.77,162.57,609.5,170,594.65,165.27Z"/><path class="cls-1" d="M489.27,304.18l-12.49,6.42h0l0,0c-17.64,16-105.94,90.35-179.08,51.06,0,0,5.61,6,3.86,13.11L291.92,356l4.56-1.28s116.26,41.1,182.41-85.12c0,0,.33,3.09,1,7.44C481.35,286.22,484.39,301.11,489.27,304.18Z"/><path class="cls-3" d="M185.38,44.72S212.27,61,208.9,144c0,0,4.08,8.76,24.31-3l-17.56-87.4Z"/><path class="cls-4" d="M267,70.44s-4.05,20.25-8.78,27-6.75,30.37-15.52,35.1-8.78,18.9-24.3-2.7c0,0-6.08-14.18-4-26.33,0,0-3.38-38.47-16.2-49.95s-14.85-8.77-14.85-8.77-10.12-14.17,0-20.25l8-6.43s15.61,1,24.39,13.86c0,0,30.37-3.38,51.3,29C267,61,272.35,65,267,70.44Z"/><path class="cls-3" d="M30.21,60.82S49.61,41,57,28.39l-25,9L21.93,54.91l6.58,2.19S32.41,55.25,30.21,60.82Z"/><path class="cls-4" d="M80.65,7.67S57.7.92,34.08,16.44,13.92,42,13.92,42a99,99,0,0,1-2.79,24.41s2.54,15.45-7.5,27.3,4,2.24,4,2.24,9.48-5.58,12.75-20.77c0,0,6-11.81,5.29-14.51,0,0,8.78-25,28.35-30.37C54,30.28,73.57,18.8,80.65,7.67Z"/><path class="cls-5" d="M298.83,385.46c2.48,7.75,6.31,24.23-2.92,31.76v0a16.7,16.7,0,0,1-6.68,3.18,19.36,19.36,0,0,1,1.16,2.31l0,0c1.91,4.4,4.48,13.73-6.37,16.68,0,0-1.17,17.16-11.16,22.6l-.28.15a13.46,13.46,0,0,1-5,1.43,16.27,16.27,0,0,1-.38,3.61c-1.08,5.25-5.23,14-21,11.28l-.27-.05s-.57.41-1.54,1c-3.78,2.29-13.61,7.36-19,1.93-1.65-1.66-2.87-4.32-3.36-8.37a.51.51,0,0,1,0-.13s-6.06,14.31-20.11,6.57c0,0-14.62-4.18-12-11.7,0,0-7.49,5.45-14.34-.86h0a19.55,19.55,0,0,1-3.67-4.81c-.06-.09-.1-.18-.16-.27s-8.18-11.21,34.75-33.37c3.42-1.77,7.15-3.6,11.24-5.5l-.35-.19c-2.2-1.3-13.72-8.67-4.59-16.53l.38-.32-.11-.15c-.76-1.14-5.44-8.43-5.45-16.88a22.26,22.26,0,0,1,.16-2.68c-.59,2-1.37,4.56-2.37,7.9-7.77,26.58-12,28.28-19.93,33.11h0c-1.52.93-3.18,2-5,3.33-1.53,1.12-4.81.66-9.05,1h-.06l-.28,0c-.67.06-1.3.14-1.88.22-7.17,1-7.45,3.4-19.63.87l-1.17-.25s-2,5.88-30.37,1.16c0,0-24.56-17.13-6.23-30.9a36,36,0,0,1,4.62-2.9s1-.72,2.56-1.71c4-2.51,11.56-6.75,16.35-5.71l.42.11,1.06-1L142,386.7l1.12-1.05-.19-.09h0c-1.29-.67-8.41-4.81-.93-10.58h0c.34-.26.71-.52,1.12-.79l-.15-.2c-1.34-1.76-11-15-4.45-21.7a8.47,8.47,0,0,1,1.22-1v-.34c0-4.35-.55-49.62-12.13-53.89,0,0-30.39,7.66-33.09-76h50.62l32.17-37.6s27.75,20.89,39-35.89L260.64,93s13.73,45.94-7.19,63.49c0,0-10.8,23.62-32.4,32.4,0,0-17.55,38.47,6.07,55.35,0,0-3.37,10.12-14.17,13.5s2.7,18.22,2.7,18.22,2,2.7-16.88,9.45S210.25,359,210.25,359s-2,16.2,23.62,26.33c0,0,31.05,22.95,58.73-36.45,0,0,14.85-10.8,4.72,4.72,0,0-6.28,7,1.24,9.57a16.58,16.58,0,0,1,1.47,2c2.06,3.27,4.91,9.91-1.57,15.24-.35.29-.73.57-1.14.86,0,0,.68,1.6,1.49,4.16Z"/><path class="cls-1" d="M209.91,379.24s0,.2-.11.56c0,.1-2,7.3-1.91,6.39-.59,2-1.37,4.56-2.37,7.9-7.77,26.58-12,28.28-19.93,33.11h0c-4.44,4.3-9.22,6.36-14.08,4.34h-.06l-.28,0-.4-.36s23.63-14.18,21.6-85.73c0,0,3.39-.91,7.76,3C204.69,352.66,210.26,362,209.91,379.24Z"/><path class="cls-6" d="M206.87,368.11a19,19,0,0,0,.68-8.78,19.72,19.72,0,0,0-4.05-8.77c-6.65-8.91-11.84-23.38-12.83-33.75a46.12,46.12,0,0,1,1.92-17.76s-12.83,5.69-21.61-.54a21.56,21.56,0,0,1-8-24.23"/><path class="cls-7" d="M61.69,89.33s2.7-12.56-8.07-17.41l-5.37-.13s6.08,4,6.08,8.1c0,0-14.85-4.73-22.28,5.4s2,7.38,2,7.38-2.67,6.12,1.38,9.49c0,0-.33,15.16,13,7.24S62.86,97.57,62.86,97.57Z"/><path class="cls-7" d="M144.1,77.19s14.18,2.7,5.4,14.85c0,0-5.4,10.12-14.17,8.77,0,0-3.38-16.2-18.23-15.52,0,0,10.41,2.8,7.57,15.24a25.66,25.66,0,0,1,17.06,13.64l9.35,16.1s27.44,2.94,30.82-13.93c0,0,4.72,0,6.75,2.7s0-18.23,0-18.23.67,3.38-3.38,2.7c0,0-.33,7.09-6.41,1.69,0,0-12.82-10.12-24.3-5.4,0,0,10.8-10.12,7.43-14.85C162,85,157.94,72.8,144.1,77.19Z"/><path class="cls-8" d="M38.47,201.7s16.46-10.88,19.19,3.85,36.93,15.24,36.93,15.24,23.7,11.3,35.59,0c0,0-1,20.51,25.34-6.54s-63.1-25.47-63.1-25.47l-54.29-.22Z"/><path class="cls-9" d="M24,135.24s3.48-23.63,18.28-13.16S62.86,97.57,62.86,97.57s9.69-28.48-24.73-28.48c0,0,22.95-22.27,17.55-27.67,0,0,6.75-20.25,23.62-23.63,0,0,27.22-12.73,20.7-16.83,7.62,1,2.67-1,17.1-.72,9.9.23,27,2.7,33.08,7.43,8.1-5.4,21.36,5.54,37.12,10.8a85.68,85.68,0,0,0-40.7-7.33c-1.19,1.25-2,2.75-1.49,4.29,0,0-10.12-16.2-29.7-9.45,0,0-18.22,26.32,16.88,19.57l2,4.73S117.44,45.13,120.14,53.9c0,0,1.35,12.15-4.73,16.2,0,0-9.45,22.35,0,26.7A37.06,37.06,0,0,1,132,103.51c2.34,1.75,17.55,8.1,17.55,33.08-1.35,9.45,5,16.73,7.09,28.68l25-12.15s.68,51.39-29.7,61.13L48.59,170l-25,.67S18.22,158.52,27,139Z"/><path class="cls-10" d="M99.21,93.73s-48.59-10.13-58,32.4c0,0-4.73,34.42-16.2,44.54,0,0-8.78,50.63,25,23.63,0,0,27.68,20.25,72.22,12.82,0,0,5.4,28.35,34.43,3.38s0-44.55,0-44.55S162.66,99.13,99.21,93.73Z"/><path class="cls-11" d="M72.89,126.13s20.25-27.68,39.82,4.05l1.35,3.37s-1.35,4-10.12,2.7c0,0-6.75-5.4,1.35-8.77,0,0-8.1-.68-4.73,8.77,0,0,2,6.07,14.85,0,0,0-12.15,10.8-7.42,19.57,0,0-19.57-12.82-35.1-6.75,0,0,4.73-5.4-5.4-18.22,0,0,8.1,6.07,11.48,5.4a19,19,0,0,0,6.75-3.38s4-5.39,0-10.12c0,0,1.35,6.75-2.7,8.77a6.37,6.37,0,0,1-7.43,0s-2.7,0-4.72-3.37Z"/><path class="cls-12" d="M49.94,194.3s31.73-70.2,70.2,6.75"/><line class="cls-12" x1="92.42" y1="127.34" x2="85.76" y2="165.26"/><path class="cls-5" d="M296,252.68c-13.5,2-13.5-12.15-13.5-12.15,14.18-35.77-16.32-166.42-16.32-166.42l1.05-3.74c1.48-.87,5.36-2.14,7.51,6.48,0,0,6.07-6.07,8.1,3.38,0,0,8.1-6.75,8.77,7.42,0,0,4.05-.67,3.38,4.73l.45-.06-.11.39C312.85,113,296,252.68,296,252.68Z"/><path class="cls-5" d="M578.68,444.29s14-22.52-48.83-52.9c0,0-12.82-47.92-20.92-51.3,0,0,7.64,26.26,11.25,28,0,0-.86,27.08,1.71,31.95,0,0-2.16,25.8-21.74,50.1,0,0-15.91-2.91-19.43,4.95,0,0-17,5.17-15,21.37,0,0-1.08,4,5.87,6.06s16.4,2.71,19.78-2c0,0,12.15,8.1,24.3,5.4s.31.05.31.05,3.74,6.7,23.31-.05c0,0,10.13-5.4,12.83-3.38,0,0,7.78,1.11,11-1.47s1.84-4.6,1.84-4.6a67,67,0,0,1,9-25.62S576.21,452.65,578.68,444.29Z"/><path class="cls-13" d="M38.34,92.23s5,15,19,1"/><path class="cls-13" d="M145.34,111.23s8,18,29,4"/></g></g></svg>