<svg xmlns="http://www.w3.org/2000/svg" viewBox="0 0 960 539"><defs><style>.cls-1,.cls-3{fill:none;}.cls-2{fill:#790cf8;}.cls-3,.cls-4{stroke:#1c1a44;stroke-miterlimit:10;stroke-width:3px;}.cls-4{fill:#d42927;}</style></defs><g id="Layer_2" data-name="Layer 2"><g id="Art"><rect class="cls-1" width="960" height="539"/><polygon class="cls-2" points="527.97 8.11 563.7 124.97 652.9 41.57 653.84 163.57 764.27 111.28 717.51 222.42 835.06 246.69 708.45 299.58 725.91 435.78 594.56 390.31 548.28 521.31 449.17 424.81 345.42 516.65 342.15 397.69 242.26 462.25 276.21 348.38 160.58 376.25 237 286.44 125.34 248.97 248.3 216.34 219.29 92.09 336.37 147.44 366.56 21.74 455.65 115.52 527.97 8.11"/><polygon class="cls-3" points="527.97 8.11 563.7 124.97 652.9 41.57 653.84 163.57 764.27 111.28 717.51 222.42 835.06 246.69 708.45 299.58 725.91 435.78 594.56 390.31 548.28 521.31 449.17 424.81 345.42 516.65 342.15 397.69 242.26 462.25 276.21 348.38 160.58 376.25 237 286.44 125.34 248.97 248.3 216.34 219.29 92.09 336.37 147.44 366.56 21.74 455.65 115.52 527.97 8.11"/><path class="cls-4" d="M270.8,339q-12.15-7.84-17.62-17.32a65.39,65.39,0,0,1-7.61-21.44,110.51,110.51,0,0,1-1.24-31.3,91.6,91.6,0,0,1,8.08-29,79,79,0,0,0,8.56,1.71,49.45,49.45,0,0,0,11.24-.35,48.53,48.53,0,0,0,10.12-3.51,51.72,51.72,0,0,0,7-4.43q10,9.69,14.8,17.22a51.49,51.49,0,0,1,6.69,15.6c-3.44-1.91-6.35-3-8.75-3.14a23.78,23.78,0,0,0-7.46.65,28.18,28.18,0,0,0-8,3.52,22.24,22.24,0,0,0-4-7.24,7.39,7.39,0,0,0-13.48,2.53q-1.63,4.56-1.48,13a77.74,77.74,0,0,0,1.86,15.91A66,66,0,0,0,274.16,305q2.94,6.19,11.46,11.52,6.75-8,7.23-17a26.84,26.84,0,0,0,7.08,1,19.06,19.06,0,0,0,6.82-1.15,30.88,30.88,0,0,0,5.58-2.65c1.58-1,3.2-2,4.88-3.13q.68,6.6-1.23,17.14t-9.65,21.95a49.39,49.39,0,0,0-18.18-1.9,62.71,62.71,0,0,0-10.69,4.1Q274.17,336.66,270.8,339Z"/><path class="cls-4" d="M342.88,325.88a30.18,30.18,0,0,1-11.12-10.3,37.75,37.75,0,0,1-5.34-12.49,26.45,26.45,0,0,1-.54-9.92,16.29,16.29,0,0,1,4.4-7.87,23,23,0,0,1,10-6.11,122.67,122.67,0,0,1,13.23-3.58l7.21-.68a30.12,30.12,0,0,0-2.16-6.94,14.42,14.42,0,0,0-2.73-4,7.08,7.08,0,0,0-4.69-1.61q-3.75.92-5.13,2.75a17.62,17.62,0,0,0-2.4,6.41,16,16,0,0,0-7.21.31,14.83,14.83,0,0,0-6.7,3.21,44.85,44.85,0,0,0-6.17,7.88,85.29,85.29,0,0,1,.68-15A61.66,61.66,0,0,1,330,248a31,31,0,0,0,8.17,2,95.69,95.69,0,0,0,10.29.12,82.25,82.25,0,0,0,9.95-3.79,50.86,50.86,0,0,0,7.59-4.71,72.07,72.07,0,0,1,11.64,16.62,109.22,109.22,0,0,1,7.43,19.08,73.21,73.21,0,0,1,2.77,21.75q-.31,10.56-8,20.24a16.2,16.2,0,0,0-7.11-2.22,71.42,71.42,0,0,0-11.82.21,58.72,58.72,0,0,0-11.34,3.92A27.92,27.92,0,0,0,342.88,325.88Zm16.16-19a15.7,15.7,0,0,0,5.83-4,7.8,7.8,0,0,0,1.82-4.9,10.48,10.48,0,0,0-2.1-6,6,6,0,0,0-6.12-2.76,22.4,22.4,0,0,0-6.94,1.85,9.28,9.28,0,0,0-4.17,3.3,5.49,5.49,0,0,0-.57,4.38,14.68,14.68,0,0,0,2,4.48,10.87,10.87,0,0,0,3.53,3.34Q354.47,307.93,359,306.87Z"/><path class="cls-4" d="M451.24,306.58a14.1,14.1,0,0,0-7.65-2.85,13.2,13.2,0,0,0-7.89,1.34l1-12.27a109.33,109.33,0,0,1-10.85,12.8,38.86,38.86,0,0,1-12,7.64Q403.25,306.7,399.25,297a69,69,0,0,1-4.84-21.31,109,109,0,0,1,.39-20.48A72.32,72.32,0,0,1,400,235.56a16.58,16.58,0,0,0,7.19,3.3q4.05.81,9.71-1.06A107.7,107.7,0,0,0,415,258.3a74.67,74.67,0,0,0,2.64,18.59,9.38,9.38,0,0,0,3.65,5.09,16.14,16.14,0,0,0,6.48,2.39c3.08-1.44,5.18-3,6.31-4.66a9.79,9.79,0,0,0,1.56-6,58.91,58.91,0,0,0-4.36-18.29q-3.62-8.64-8.93-18.57a17.15,17.15,0,0,0,14.14-7.77,93.49,93.49,0,0,1,11.48,15.06q4.83,7.94,8.06,20.56a84.07,84.07,0,0,1,2.46,22A34,34,0,0,1,451.24,306.58Z"/><path class="cls-4" d="M490.77,322q-11.61-7.59-16.8-17.17t-5.79-15a27.18,27.18,0,0,0,9.1,2.35,25.87,25.87,0,0,0,8.18-.73,22.94,22.94,0,0,0,7.54-3.6Q496.59,295,504.92,300q4.56-6.68,5.46-10.87a43.25,43.25,0,0,0,.91-9,188.08,188.08,0,0,1-19.5-4.53,65.78,65.78,0,0,1-18.56-8.85,23.47,23.47,0,0,1-6-7.24,25.33,25.33,0,0,1-2.83-9.39,44.88,44.88,0,0,1,2-13.8,66.8,66.8,0,0,1,6.18-13.68,42.06,42.06,0,0,0,7.8,2,45.6,45.6,0,0,0,11-.44,39.09,39.09,0,0,0,9.43-3.33,47,47,0,0,0,6.76-4.57,103.72,103.72,0,0,1,17.08,25.25,122.08,122.08,0,0,1,9.7,29.73,75.21,75.21,0,0,1,.05,23Q532.7,305,525,315.92l-7.48-1.23a43.41,43.41,0,0,0-10-.06,59.62,59.62,0,0,0-10.64,3.73A62.77,62.77,0,0,0,490.77,322ZM509,260.37q-4.5-12.27-7.62-16.73c-2.08-3-4.5-4.41-7.25-4.32-2.85.91-4.55,2.44-5.11,4.57a16.69,16.69,0,0,0-.34,6.66,15.81,15.81,0,0,0,6.92,5.91A51.43,51.43,0,0,0,509,260.37Z"/><path class="cls-4" d="M559.61,288a81.57,81.57,0,0,1-14.51-18.37,63.42,63.42,0,0,1-7.25-21.5,105.54,105.54,0,0,1-1.49-31.32,81.72,81.72,0,0,1,8.8-29.12,10.88,10.88,0,0,0,6.21,3.3A23.63,23.63,0,0,0,560,190a128,128,0,0,0-1,15.26,85.16,85.16,0,0,0,1.36,14.48,29.26,29.26,0,0,1,6.44-3.28,18.23,18.23,0,0,1,7.5-.79,29.49,29.49,0,0,1,9.29,2.44,30.24,30.24,0,0,1,9.33,6.4,43.36,43.36,0,0,1,8.13,12,52,52,0,0,1,4.85,15.88,49.93,49.93,0,0,1,0,14.72,55.27,55.27,0,0,1-4.23,13.65,54.33,54.33,0,0,0-4.73-8.38,19.71,19.71,0,0,0-6.14-6,20.89,20.89,0,0,0-5.89-2.55,24.12,24.12,0,0,0-5.28-.53,78.72,78.72,0,0,0,1.78-13.63,68,68,0,0,0-.13-9.63,12.9,12.9,0,0,0-1.34-4.83,7.94,7.94,0,0,0-3.15-2.92,8.07,8.07,0,0,0-5.15-.8,6.88,6.88,0,0,0-4.55,2.28,8.58,8.58,0,0,0-1.94,3.82,13.81,13.81,0,0,0,.67,5.81,59.52,59.52,0,0,0,3.69,9.42q2.64,5.58,5.57,11.05a14,14,0,0,0-5.41,1.88,20.05,20.05,0,0,0-4.93,4.54,19.34,19.34,0,0,0-3.64,7.67A58.63,58.63,0,0,0,559.61,288Z"/><path class="cls-4" d="M635.74,274.33q.36-13.75,0-26a170.1,170.1,0,0,0-2.62-25c-1.69-3.12-3.72-4.87-6.07-5.27a15.15,15.15,0,0,0-6.84.36,12.83,12.83,0,0,0-5.25,2.77q-1.94,1.81-3.53,7.23a41.82,41.82,0,0,1-4.11-12.77,39.68,39.68,0,0,1-.46-9.45,29.35,29.35,0,0,1,1.44-6.3,18.92,18.92,0,0,0,6.19,1.46,17.45,17.45,0,0,0,7.19-1.1q3.79-1.35,4.77-2.74a30.16,30.16,0,0,0-1.4-8.18,29.64,29.64,0,0,0-3.12-6.9q-1.87-3-4.19-7.07,3.9.65,7.34,1.07A24.51,24.51,0,0,0,633,176a18.7,18.7,0,0,0,7.07-2.18q3-1.69,6.93-3.61-1,4.69-1.67,8.11a33.6,33.6,0,0,0-.56,7.49,25.45,25.45,0,0,0,1.72,8.31q1.17,1,5.17.85a19.9,19.9,0,0,0,7.12-1.51,20.79,20.79,0,0,0,5.55-3.49,33.24,33.24,0,0,1,3.42,5.5,40.54,40.54,0,0,1,2.82,9,44.88,44.88,0,0,1,.67,13.39l0,.23c-2.42-3.07-4.42-5-6-5.71a11.51,11.51,0,0,0-5.83-.79,16.49,16.49,0,0,0-6.54,2c-2.08,1.14-3.29,3.46-3.65,6.94a152.25,152.25,0,0,0,5.94,24.42q3.92,11.7,9.1,24.34-2.74-1-5.43-1.66c-1.79-.45-5-.52-9.56-.19a50.66,50.66,0,0,0-8.75,3.39A26.52,26.52,0,0,0,635.74,274.33Z"/><path class="cls-4" d="M700.84,240.61a154.34,154.34,0,0,1-16.14-29.93q-7.35-17.56-11.6-46.25a24.34,24.34,0,0,0,15.22,3.15,30.76,30.76,0,0,0,14.62-8.47q3.67,28.8,2.78,47.83A156.13,156.13,0,0,1,700.84,240.61Zm14.14,19a24.62,24.62,0,0,0-11-1,26.22,26.22,0,0,0-10,4.47,42.32,42.32,0,0,1,0-9.16,12.88,12.88,0,0,1,2-5.67,15.85,15.85,0,0,1,5.4-4.32,16.15,16.15,0,0,1,6.56,2.19,12.82,12.82,0,0,1,3.83,4.7A48.24,48.24,0,0,1,715,259.6Z"/></g></g></svg>