<svg xmlns="http://www.w3.org/2000/svg" viewBox="0 0 98.79 201.39"><defs><style>.cls-1{fill:#dbd4ce;}.cls-2{fill:none;stroke:#a49f9b;stroke-linecap:round;stroke-linejoin:round;}.cls-3{fill:#a4815b;}.cls-4{fill:#5e5e5e;}</style></defs><g id="Layer_2" data-name="Layer 2"><g id="Art"><path class="cls-1" d="M84.73,68.88s0,12-4,18c0,0,8,7-5,17,0,0,0,.47-.06,1.22-.22,2.72-1.23,9.21-5.94,10.78,0,0,3,8-3,12,0,0,4,3-2,11,0,0,5,16-5,23,0,0,2,7-2,12,0,0,3,13-5,19a12,12,0,0,1-15,0s-13.5,10.5-26,3c0,0-11.5,1.5-9-12,0,0-4-1,4-8,0,0,6.5-6.5,10.5-4.5,0,0,4-2,2-5s5-9,5-9-2-10,6-13c0,0,0-11,2-18s5-15,5-15-4-15,2-19A28.66,28.66,0,0,0,41.58,86c.92-3.9.89-8.54-3.35-10.66-8-4-4-34-4-34s-10-60,60.5-35.5C94.73,5.88,108.73,38.88,84.73,68.88Z"/><path class="cls-2" d="M3.19,184s3-5.59,12-9.59"/><path class="cls-2" d="M12.19,195.62s4-15.24,14-21.24"/><path class="cls-2" d="M37.72,192.56s-3.49-6.18,5.51-14.18"/><path class="cls-3" d="M84.73,68.88s0,12-4,18c0,0,8,7-5,17,0,0,0,.47-.06,1.22-5.56,2.44-11.67,4.28-17.44,4.28C47,109.38,43,95.44,41.58,86c.92-3.9.89-8.54-3.35-10.66-8-4-4-34-4-34s-10-60,60.5-35.5C94.73,5.88,108.73,38.88,84.73,68.88Z"/><path class="cls-4" d="M43.23,193.38s-4.5,3.5-4.5,5.5c0,0-2.5-2.5-.5-7.5S43.23,193.38,43.23,193.38Z"/><path class="cls-4" d="M1.78,182.08s-2.55,2.3-1.55,7.3a7.81,7.81,0,0,1,2-5C4.23,182.38,1.78,182.08,1.78,182.08Z"/><path class="cls-4" d="M8.25,192.09s-4.5,1.5-3.5,5.5c0,0-2.4-.48-1.55-7.1a1.91,1.91,0,0,1,.27-.78c.6-1,2.37-3.23,4.78-1.62C11.25,190.09,8.25,192.09,8.25,192.09Z"/><path class="cls-4" d="M21.77,196a12.17,12.17,0,0,0-6.2,5.39,10.41,10.41,0,0,1,1.5-8.5c2.5-3.55,4-3,4-3s3.85,0,1.16,5.68A.92.92,0,0,1,21.77,196Z"/></g></g></svg>