<svg xmlns="http://www.w3.org/2000/svg" viewBox="0 0 622.93 525.56"><defs><style>.cls-1,.cls-10{fill:none;stroke-width:3px;}.cls-1,.cls-10,.cls-3,.cls-4,.cls-5,.cls-6,.cls-8{stroke:#ba8d76;stroke-miterlimit:10;}.cls-2,.cls-6{fill:#ba8d76;}.cls-3{fill:#e2dce0;}.cls-4{fill:#f0e1de;}.cls-5{fill:#ead7c6;}.cls-7{fill:#401b12;}.cls-8{fill:#ddb8b2;}.cls-9{fill:#8b6a59;}.cls-10{stroke-linecap:round;}</style></defs><g id="Layer_2" data-name="Layer 2"><g id="Art"><path class="cls-1" d="M575.37,455.43s12.73-16.62,16.39-3.46S578,468.14,578,468.14s-5.64-8.68,6.41-10.76,18.15,9.26,18.15,9.26.34,17.87-14.21,13.5,7.52-12.34,7.52-12.34,10.65-10.12,15.24,8.39-14,14.84-14,14.84-8.14-15.14,25.62-11.34"/><path class="cls-2" d="M256.33,354.5s-5.16,21.88,34.1,29.63-8.25-51.59-8.25-51.59Z"/><path class="cls-3" d="M290.06,481.49S340,465.8,346.77,446.08l25.54,8.75L354.83,481.3l-62.22,14.91Z"/><path class="cls-4" d="M106.4,237.84s-6.39,6.3-25.08,17.81c0,0-3,14.31-28.48,18.72,0,0-22,24.49-19.35,47.48,0,0-16.09,34.5,19.95,11.71s70.9-92.26,70.9-92.26Z"/><path class="cls-5" d="M300.64,41.14s-17.35,11.28-21,29.84c0,0,73.29,72.8,117.57,81.68,0,0,106.37,40.87,154,125,0,0,54,88.56,32.55,164,0,0-17.55,49.93-87.15,30.27,0,0-34.93,21.22-105.94,25.25,0,0-32.65-5.38-50.23,4.57,0,0-33.37,22.32-66.89,19.86,0,0-35.86,15.86-35.2-20.1l23.4-8.2-33.06.22s-1.39-8,25.85-10l36.84-2.24s54.77,5.68,72.25-20.79c0,0-86.45-69.15-83.11-105.58,0,0-58.67,11.55-68-50.27,0,0-43.95,9-58.37-10.57,0,0-42.43,1.83-57.59,41.69,0,0,7.73,20.73-19.74,21.35,0,0-36.61,3.58-44.83,11.9,0,0-10.06-2.39,4.09-24.15,0,0,1.31-40.22,18.48-44.57,0,0,40.72-59.46,69.77-59,0,0-109.35-18.29-99.91-43.37,0,0-40.35-57.82-16.26-62,0,0,3.32-4.71,10.07,2.39,0,0,10.48-3.19,9.68-23.74,0,0-4.85-59.83,28.33-75.24,0,0,28.08-44.85,87.33-37.19,0,0,47.73-11,93.75,23.75C237.33,25.91,287.68,6.15,300.64,41.14Z"/><path class="cls-6" d="M212.37,104.7s27.57,15.9,47.73-11c0,0,10.14-21.06,19.51-22.69,0,0,3.68-18.56,21-29.84,0,0-10.05-34.11-63.31-15.23,0,0-20.5,9.07-27.73,31C209.6,56.91,193.18,73.55,212.37,104.7Z"/><path class="cls-7" d="M207.73,77.92l6.33,12.69S257.57,47.22,207.73,77.92Z"/><path class="cls-8" d="M27.56,122.93S59.37,125,66.25,188.62c0,0-1,9.83-14.9,9.48l-11.55-7s-5.48,16.12-15.37,6.8c0,0-23.3-21.85-23.61-48.15,0,0-3.23-27.18,17.42-11.45C18.24,138.33,26.56,135.51,27.56,122.93Z"/><ellipse cx="13.97" cy="169.41" rx="2.04" ry="4.76" transform="matrix(0.99, -0.17, 0.17, 0.99, -28.71, 4.87)"/><path class="cls-1" d="M35.28,198.59s37,16.57,63.28-22.46"/><ellipse cx="22.01" cy="168.02" rx="2.04" ry="4.76" transform="translate(-28.36 6.22) rotate(-9.83)"/><path class="cls-1" d="M87.34,115.33s37.94-75.52,62.33,1.61"/><polygon class="cls-9" points="228.7 493.5 238.36 501.48 261.76 493.28 228.7 493.5"/><path class="cls-10" d="M212.53,304.62s51.28-14.4,53.57-41"/><path class="cls-10" d="M364.89,463.7S334,412.52,397.83,375.25c0,0,26.67-21.17,37.43-14.76"/></g></g></svg>