<svg xmlns="http://www.w3.org/2000/svg" viewBox="0 0 154.14 134.68"><g id="Layer_2" data-name="Layer 2"><g id="Art"><path d="M12.63,134.68a47.72,47.72,0,0,1-9.4-21.15,59.2,59.2,0,0,0,8.67-2.35q4.11-1.47,8.23-8.81t4.7-20q.59-12.65.07-23.29T22.55,45.66a7,7,0,0,0-5.22-3.23Q14,42,9.18,45.37A39.11,39.11,0,0,0,0,55.06a93.26,93.26,0,0,1,.88-14A70.71,70.71,0,0,1,5.07,26.86,40.61,40.61,0,0,1,15,12a51.92,51.92,0,0,0,8.38,4.11,48.51,48.51,0,0,0,12.19,2.35q7.64-.74,11-2.42t8.37-4.78Q63,23.63,64.34,33.17A20.87,20.87,0,0,0,56.71,35a14.29,14.29,0,0,0-5.51,4.7,27,27,0,0,0-3.75,8.08A54.18,54.18,0,0,0,45.76,61.3q-.23,8.6.15,21.38t4.33,20q4,7.2,8.23,8.81a25,25,0,0,0,9,1.62,52.33,52.33,0,0,1-9,21l-9.26-3.53q-4.26-1.6-13.66-2.35-9.84.74-14.32,2.5A82.2,82.2,0,0,0,12.63,134.68Z"/><path d="M85.63,57a16.92,16.92,0,0,1-5.29-6.87A23.5,23.5,0,0,1,79,40a15.73,15.73,0,0,0,3,2,8.66,8.66,0,0,0,3.7.76,12.28,12.28,0,0,0,5.29-1.41,21.61,21.61,0,0,0,.48,6.8,9.26,9.26,0,0,1,3.77-.79,20.39,20.39,0,0,1,4.6.3,7.3,7.3,0,0,0,.48-3.26A6,6,0,0,0,99.15,42a25,25,0,0,0-3.64-3.5,65.92,65.92,0,0,0-7.14-5,23,23,0,0,1-6.14-5A7.49,7.49,0,0,1,80.51,25a13.37,13.37,0,0,1,1-4.59A36.69,36.69,0,0,1,86.17,12a16.22,16.22,0,0,0,4.4,2,49.77,49.77,0,0,0,6,1,37.31,37.31,0,0,0,6-1.16A31,31,0,0,0,107,12a43.62,43.62,0,0,1,3.78,8A16.79,16.79,0,0,1,112,26a38.32,38.32,0,0,1-.62,4.7,12.13,12.13,0,0,0-5.42-3.36,6.27,6.27,0,0,0-4.87.41c-.28-.78-.55-1.51-.82-2.2a9.1,9.1,0,0,0-1.14-2,4.19,4.19,0,0,0-2.5-1.37,5.07,5.07,0,0,0-3.16,1,8.41,8.41,0,0,0-1.78,3.64c3.88,2.38,7.48,4.72,10.77,7a50.26,50.26,0,0,1,7.21,5.84,11.46,11.46,0,0,1,2.92,4.7,11.76,11.76,0,0,1,.24,5Q112.39,52,107,57a9.31,9.31,0,0,0-3.71-2A39.11,39.11,0,0,0,96.61,54a37.47,37.47,0,0,0-6.69,1.1A15.77,15.77,0,0,0,85.63,57Z"/><path d="M127.56,57.38q1.58-7.68,2.61-14.62a96.54,96.54,0,0,0,1-14.27q-1-2.89-2.88-3.57a8.63,8.63,0,0,0-3.88-.48,7.33,7.33,0,0,0-3.23,1,9.67,9.67,0,0,0-2.71,3.71,24,24,0,0,1-1-7.58,22.55,22.55,0,0,1,.69-5.36,16,16,0,0,1,1.44-3.39,10.7,10.7,0,0,0,3.33,1.44,10.07,10.07,0,0,0,4.15.1,5.81,5.81,0,0,0,3-1.06,17.52,17.52,0,0,0,0-4.74A17,17,0,0,0,129,4.39c-.5-1.23-1-2.7-1.64-4.39,1.41.5,2.75,1,4,1.34a13.94,13.94,0,0,0,4.5.51,10.55,10.55,0,0,0,4.18-.51C141.29.9,142.71.46,144.31,0c-.69,1.69-1.27,3.16-1.75,4.39a18.87,18.87,0,0,0-1.06,4.16,14.36,14.36,0,0,0,.13,4.83c.37.46,1.31.79,2.82,1a11.17,11.17,0,0,0,4.15-.14,11.76,11.76,0,0,0,3.47-1.4,19.17,19.17,0,0,1,1.37,3.43,23.75,23.75,0,0,1,.69,5.32,25.4,25.4,0,0,1-1,7.58v.14a11.23,11.23,0,0,0-2.81-3.81,6.48,6.48,0,0,0-3.19-1,9.54,9.54,0,0,0-3.88.48c-1.28.44-2.2,1.61-2.74,3.54a85.44,85.44,0,0,0,.89,14.31c.68,4.64,1.58,9.5,2.67,14.58q-1.44-.83-2.88-1.47a19.77,19.77,0,0,0-5.35-1.07,29,29,0,0,0-5.25,1A15.5,15.5,0,0,0,127.56,57.38Z"/></g></g></svg>