<svg xmlns="http://www.w3.org/2000/svg" viewBox="0 0 162.03 134.96"><g id="Layer_2" data-name="Layer 2"><g id="Art"><path d="M19.39,135A45,45,0,0,1,8,127a38.11,38.11,0,0,1-8-11.38q1.17-10,8.37-22t10.88-16.6q3.66-4.55,10.94-12.34l11.6-12.41q4.34-4.63,5.07-7.57A6.83,6.83,0,0,0,46,39.1,6.73,6.73,0,0,0,41.43,36a18.83,18.83,0,0,0-7.57.43q-4.62,1-12.63,5.66A131.5,131.5,0,0,0,2.94,55.34a91.6,91.6,0,0,1,.73-13.08A69.93,69.93,0,0,1,7.79,28.67,74.2,74.2,0,0,1,17.92,11a35.19,35.19,0,0,0,10,4.33,98.85,98.85,0,0,0,13.52,2.13,86.86,86.86,0,0,0,12.78-2,64.78,64.78,0,0,0,10.13-3.89A118.51,118.51,0,0,1,73.45,27a32.45,32.45,0,0,1,3.23,16.75A100.79,100.79,0,0,1,65.52,57.47q-6.31,6.54-16,19T37.17,95.88a88.76,88.76,0,0,0-4.12,14.84,36.25,36.25,0,0,1,6.91-1,28.73,28.73,0,0,1,9.25,1,36.5,36.5,0,0,0,2.21-7.64q.73-4.11,1.17-7.93a43.07,43.07,0,0,0,5.07,2.2,11.43,11.43,0,0,0,5.8,0,31.59,31.59,0,0,0,8-2.94,86.35,86.35,0,0,0,8.74-5.14q-1.9,15.57-6,25.78a115.33,115.33,0,0,1-10,19.32c-2.65-1.17-5.58-2.37-8.82-3.6A38.26,38.26,0,0,0,33,129.52,59.35,59.35,0,0,0,19.39,135Z"/><path d="M91,57.59a21.75,21.75,0,0,1-6.08-10.78,38.41,38.41,0,0,1-.51-12.56,67.08,67.08,0,0,1,2.19-11.36,38.07,38.07,0,0,1,5-10.6,8.88,8.88,0,0,0,3.94,2.6,8.63,8.63,0,0,0,4.84.14l-1.85,7.42a24.38,24.38,0,0,1,6.11-5.63q3.49-2.27,7.82-4.53a46.26,46.26,0,0,1,4.67,10.46,74.52,74.52,0,0,1,2.47,11.5,43.56,43.56,0,0,1-.82,12.53,20.7,20.7,0,0,1-6.32,10.6,7.8,7.8,0,0,0-1.51-3.19,21,21,0,0,0-4.8-4.29q.89-3.84,1.4-6.9a21.68,21.68,0,0,0,.28-5.66,14.86,14.86,0,0,0-.86-4.12,4.86,4.86,0,0,0-2.3-2.43,4.64,4.64,0,0,0-3.53-.45A5.58,5.58,0,0,0,97.85,33a10.63,10.63,0,0,0-1.37,5.83,82,82,0,0,0,1.1,11.12,8.83,8.83,0,0,0-3.92,2.44A12.86,12.86,0,0,0,91,57.59Z"/><path d="M153.79,57.59a21.87,21.87,0,0,0-4-1.89,19,19,0,0,0-4.5-1,11.67,11.67,0,0,0-4.6.45,24.53,24.53,0,0,0-5.32,2.47l-5.49-4.67A29.29,29.29,0,0,1,126.09,48a12,12,0,0,1-1.68-5.35,18.27,18.27,0,0,1,1.1-7.83A13.61,13.61,0,0,1,128,31.13c.73-.67,1.75-1.52,3.06-2.58a39.44,39.44,0,0,1,6.38-3.84,49.9,49.9,0,0,1,9.37-3.64c-.18-3.15-.49-6.21-.93-9.16a80.07,80.07,0,0,0-2-9.44,10.9,10.9,0,0,0,4.8-.07A5.88,5.88,0,0,0,151.73,0a47,47,0,0,1,7.89,15.44A60.83,60.83,0,0,1,162,33.15,36.73,36.73,0,0,1,160,46,47.9,47.9,0,0,1,153.79,57.59ZM139.51,46.33a8.21,8.21,0,0,1,3.23-.82,5.83,5.83,0,0,1,3.09.55,26,26,0,0,0,1.71-8.24,36.86,36.86,0,0,0-.07-7.69,19.46,19.46,0,0,0-4.35,1.38,14.72,14.72,0,0,0-3.33,2A9.34,9.34,0,0,0,137.63,36a6,6,0,0,0-.66,3.47C137.06,40.89,137.91,43.17,139.51,46.33Z"/></g></g></svg>