<svg xmlns="http://www.w3.org/2000/svg" viewBox="0 0 162.98 134.67"><g id="Layer_2" data-name="Layer 2"><g id="Art"><path d="M61.85,134.67c-2.94-1-5.78-2-8.52-3.16s-7.84-2.13-15.28-3a86.47,86.47,0,0,0-12,2.49,69.39,69.39,0,0,0-9.63,3.68A74.28,74.28,0,0,1,0,108.37a173.63,173.63,0,0,0,18.66,2.5,82.15,82.15,0,0,0,14.39-.08A104.27,104.27,0,0,0,44.51,109q3.52-2.79,5.88-8.67a44.9,44.9,0,0,0,2.94-12.78A30.63,30.63,0,0,0,40,83.91a103.15,103.15,0,0,0-13.88.51A66.11,66.11,0,0,0,10.87,88.1a46.16,46.16,0,0,0,0-26.3A120.52,120.52,0,0,0,26,65.25a74.06,74.06,0,0,0,14,.88A28.6,28.6,0,0,0,53.77,61.8a47.5,47.5,0,0,0-2.43-12.12,42.07,42.07,0,0,0-5.8-11.09q-2.94-1.91-9.11-2.94a63,63,0,0,0-15.13-.29A121.25,121.25,0,0,0,2.2,38.59,105.63,105.63,0,0,1,8.81,24a146.23,146.23,0,0,1,8.08-12.41,59.26,59.26,0,0,0,9.77,3.89,63,63,0,0,0,12.56,2q9.7-.72,14-2a66.62,66.62,0,0,0,9.48-3.82A110.07,110.07,0,0,1,79,44.83a127.26,127.26,0,0,1,4.92,37.83,75.2,75.2,0,0,1-4.26,27.4Q75.08,122.62,61.85,134.67Z"/><path d="M93.93,57.38a20.12,20.12,0,0,1-6-10.43,40.85,40.85,0,0,1-.58-12.7,60.63,60.63,0,0,1,2.09-11.46,38.24,38.24,0,0,1,5-10.5,9.36,9.36,0,0,0,4,2.6,8.17,8.17,0,0,0,4.7.14l-1.79,7.48A56.19,56.19,0,0,1,106.56,17q2-1.79,5.28-4.19a15,15,0,0,1,4.09,2.91,17.07,17.07,0,0,1,3.26,4.95,17,17,0,0,1,1.61,6.24A12.09,12.09,0,0,1,119.53,33a8.12,8.12,0,0,0-2.37-3.33,10.53,10.53,0,0,0-8.23-2.47,10.19,10.19,0,0,0-6.93,4,10.33,10.33,0,0,0-2.06,4.32,18.2,18.2,0,0,0-.52,4.63c0,1.42.41,4.63,1.1,9.61a8.65,8.65,0,0,0-4.29,2.54A10.37,10.37,0,0,0,93.93,57.38Z"/><path d="M154.74,57.59a21.55,21.55,0,0,0-4-1.89,18.87,18.87,0,0,0-4.49-1,11.64,11.64,0,0,0-4.6.45,24.11,24.11,0,0,0-5.32,2.47l-5.49-4.67A28.28,28.28,0,0,1,127.05,48a11.8,11.8,0,0,1-1.68-5.35,18.27,18.27,0,0,1,1.09-7.83,13.61,13.61,0,0,1,2.47-3.67c.74-.67,1.76-1.52,3.06-2.58a39.44,39.44,0,0,1,6.38-3.84,50.17,50.17,0,0,1,9.37-3.64c-.18-3.15-.49-6.21-.92-9.16a80.21,80.21,0,0,0-2-9.44,10.9,10.9,0,0,0,4.8-.07A5.88,5.88,0,0,0,152.68,0a47,47,0,0,1,7.9,15.44A61.17,61.17,0,0,1,163,33.15,36.73,36.73,0,0,1,161,46,47.56,47.56,0,0,1,154.74,57.59ZM140.47,46.33a8.12,8.12,0,0,1,3.22-.82,5.81,5.81,0,0,1,3.09.55,25.67,25.67,0,0,0,1.72-8.24,38.32,38.32,0,0,0-.07-7.69,19.55,19.55,0,0,0-4.36,1.38,15.17,15.17,0,0,0-3.33,2A9.52,9.52,0,0,0,138.58,36a5.89,5.89,0,0,0-.65,3.47C138,40.89,138.86,43.17,140.47,46.33Z"/></g></g></svg>