<svg xmlns="http://www.w3.org/2000/svg" viewBox="0 0 776.69 185.33"><g id="Layer_2" data-name="Layer 2"><g id="Art"><path d="M11,75.27A55,55,0,0,1,2.5,58.4,59.93,59.93,0,0,1,0,38.75,88.81,88.81,0,0,1,3.4,18.62,57.63,57.63,0,0,1,12.75.09a60.13,60.13,0,0,0,6.08,2.33,40.93,40.93,0,0,0,7.88,1.25,43.11,43.11,0,0,0,8.1-1.34A30.51,30.51,0,0,0,40.49,0a49.9,49.9,0,0,1,3.76,5.46c1,1.73,1.91,3.43,2.69,5.1a21.67,21.67,0,0,1,1.65,6,28.12,28.12,0,0,1-.27,8.28A10.49,10.49,0,0,1,44.48,32,18.3,18.3,0,0,1,37,35.17c-3,.6-5.22,1-6.8,1.21a15.23,15.23,0,0,0-5.28,1.92,7.13,7.13,0,0,0-3.67,4.43,13.1,13.1,0,0,0-.36,5.46,19.82,19.82,0,0,0,1.74,5.46c.9,1.88,1.85,3.81,2.87,5.78a19.67,19.67,0,0,0-4.52,1,12.09,12.09,0,0,0-4.12,2.69,15.37,15.37,0,0,0-3.49,5.14A45.93,45.93,0,0,0,11,75.27ZM33.42,24.79V23.36a18.93,18.93,0,0,0-1.65-5.86,5.62,5.62,0,0,0-4.88-3.45,5.8,5.8,0,0,0-4.83,3.45,14.11,14.11,0,0,0-1.61,5.86v1.43a16.94,16.94,0,0,1,6.44-1.43A15.59,15.59,0,0,1,33.42,24.79Z"/><path d="M63.94,75a26.15,26.15,0,0,1-7.83-13.6,53.13,53.13,0,0,1-.76-16.56,78.33,78.33,0,0,1,2.73-15A49.31,49.31,0,0,1,64.66,16.2a12.27,12.27,0,0,0,5.23,3.4,10.65,10.65,0,0,0,6.13.18L73.7,29.53a74.59,74.59,0,0,1,6.71-7.25Q83,20,87.3,16.83a19.61,19.61,0,0,1,5.33,3.8,22.56,22.56,0,0,1,4.25,6.44A22.35,22.35,0,0,1,99,35.22a15.76,15.76,0,0,1-1.66,7.92,10.64,10.64,0,0,0-3.08-4.34A13.32,13.32,0,0,0,89.13,36a13.13,13.13,0,0,0-5.63-.44,14.31,14.31,0,0,0-4.93,1.61,14.11,14.11,0,0,0-4.11,3.58,13.72,13.72,0,0,0-2.69,5.63,23.78,23.78,0,0,0-.67,6.05q.09,2.77,1.43,12.52a11.23,11.23,0,0,0-5.59,3.32A13.47,13.47,0,0,0,63.94,75Z"/><path d="M114.42,74.91a25.34,25.34,0,0,1-8.24-13.74,52.89,52.89,0,0,1-.71-16.33,60,60,0,0,1,2.37-14.5,47.59,47.59,0,0,1,6.94-14.14A27.07,27.07,0,0,0,121,19.06a30.82,30.82,0,0,0,7.7.72,23.7,23.7,0,0,0,7.47-1.21c1.76-.68,3.92-1.48,6.49-2.37A63.56,63.56,0,0,1,148.87,30a61.21,61.21,0,0,1,2.6,11.72,104.22,104.22,0,0,1,.18,12.75q-6.27-2.14-11.46-3.44a32.47,32.47,0,0,0-10-1,16.83,16.83,0,0,0-8.81,3.18,17.07,17.07,0,0,0,4.7,5.19q3,2.23,9.66,2.1a66.63,66.63,0,0,0,15.53-2.46,44.26,44.26,0,0,1-2.64,9.09q-1.47,3.27-6.31,7.74a14.53,14.53,0,0,0-4.88-2.6A40.84,40.84,0,0,0,129.1,71a48,48,0,0,0-9.36,1.43A22.51,22.51,0,0,0,114.42,74.91Zm21-34.73V38.75a18.69,18.69,0,0,0-1.66-5.86,5.6,5.6,0,0,0-4.87-3.45,5.83,5.83,0,0,0-4.84,3.45,14.43,14.43,0,0,0-1.61,5.86v1.43a17,17,0,0,1,6.45-1.43A15.63,15.63,0,0,1,135.45,40.18Z"/><path d="M166.33,74.91a22.19,22.19,0,0,1-6.9-9q-2.15-5.19-1.7-13.34a20.83,20.83,0,0,0,3.94,2.64,11.18,11.18,0,0,0,4.83,1,15.83,15.83,0,0,0,6.9-1.84,28.79,28.79,0,0,0,.62,8.86,12.4,12.4,0,0,1,4.93-1,26.18,26.18,0,0,1,6,.4,9.59,9.59,0,0,0,.63-4.25A7.94,7.94,0,0,0,184,55.26a32.78,32.78,0,0,0-4.75-4.56,86.79,86.79,0,0,0-9.3-6.49q-5.91-3.66-8-6.49a9.72,9.72,0,0,1-2.24-4.61,17.55,17.55,0,0,1,1.3-6A47.74,47.74,0,0,1,167,16.2a21,21,0,0,0,5.73,2.64,64.47,64.47,0,0,0,7.79,1.3,48.1,48.1,0,0,0,7.78-1.52,40.73,40.73,0,0,0,5.91-2.42,56.42,56.42,0,0,1,4.92,10.43,21.64,21.64,0,0,1,1.52,7.78,51.7,51.7,0,0,1-.8,6.13,16,16,0,0,0-7.07-4.38,8.19,8.19,0,0,0-6.36.53c-.36-1-.71-2-1.07-2.86a11.33,11.33,0,0,0-1.48-2.6,5.45,5.45,0,0,0-3.26-1.79,6.6,6.6,0,0,0-4.12,1.35c-.84.77-1.61,2.35-2.33,4.74q7.61,4.65,14.05,9.17a66.35,66.35,0,0,1,9.4,7.61,14.79,14.79,0,0,1,3.8,6.13,15.26,15.26,0,0,1,.32,6.49q-.54,3.45-7.52,10a12.09,12.09,0,0,0-4.83-2.55A50.9,50.9,0,0,0,180.65,71a51.08,51.08,0,0,0-8.73,1.43A21.37,21.37,0,0,0,166.33,74.91Z"/><path d="M216.71,74.91a22.16,22.16,0,0,1-6.89-9q-2.15-5.19-1.7-13.34a20.52,20.52,0,0,0,3.94,2.64,11.12,11.12,0,0,0,4.83,1,15.76,15.76,0,0,0,6.89-1.84,28.48,28.48,0,0,0,.63,8.86,12.3,12.3,0,0,1,4.92-1,26.22,26.22,0,0,1,6,.4A9.7,9.7,0,0,0,236,58.4a7.69,7.69,0,0,0-1.61-3.14,32.06,32.06,0,0,0-4.74-4.56,87.07,87.07,0,0,0-9.31-6.49q-5.91-3.66-8-6.49c-1.4-1.88-2.15-3.41-2.23-4.61a17.72,17.72,0,0,1,1.29-6,48.25,48.25,0,0,1,6.09-10.92,21,21,0,0,0,5.73,2.64,64.24,64.24,0,0,0,7.78,1.3,48.25,48.25,0,0,0,7.79-1.52,40.73,40.73,0,0,0,5.91-2.42,57.75,57.75,0,0,1,4.92,10.43,21.64,21.64,0,0,1,1.52,7.78,49.84,49.84,0,0,1-.81,6.13,15.92,15.92,0,0,0-7.07-4.38,8.17,8.17,0,0,0-6.35.53c-.36-1-.72-2-1.07-2.86a11.33,11.33,0,0,0-1.48-2.6A5.51,5.51,0,0,0,231,29.44a6.59,6.59,0,0,0-4.11,1.35q-1.26,1.16-2.33,4.74,7.6,4.65,14,9.17a66.35,66.35,0,0,1,9.4,7.61,14.9,14.9,0,0,1,3.8,6.13,15.11,15.11,0,0,1,.31,6.49q-.53,3.45-7.51,10a12.2,12.2,0,0,0-4.84-2.55A50.73,50.73,0,0,0,231,71a50.76,50.76,0,0,0-8.72,1.43A21.44,21.44,0,0,0,216.71,74.91Z"/><path d="M291.08,74.91a22.5,22.5,0,0,1-6.8-9A28.24,28.24,0,0,1,282,56.07a19.59,19.59,0,0,1,.9-7.34,12.13,12.13,0,0,1,4.25-5.19,17.18,17.18,0,0,1,8.1-3.18,93,93,0,0,1,10.15-.89l5.37.45a22.44,22.44,0,0,0-.67-5.37,10.94,10.94,0,0,0-1.47-3.32,5.28,5.28,0,0,0-3.23-1.79,6.59,6.59,0,0,0-4.11,1.35,13,13,0,0,0-2.6,4.38,11.9,11.9,0,0,0-5.32-.71A11.08,11.08,0,0,0,288,35.93a33.49,33.49,0,0,0-5.55,5A64.32,64.32,0,0,1,285,30,46.12,46.12,0,0,1,291.8,16.2a23.12,23.12,0,0,0,5.73,2.5,70.82,70.82,0,0,0,7.52,1.44,61.94,61.94,0,0,0,7.78-1.48A39,39,0,0,0,319,16.2a53.9,53.9,0,0,1,6.35,13.69,81.43,81.43,0,0,1,3,15,54.75,54.75,0,0,1-.81,16.29q-1.61,7.7-8.5,13.78a12.14,12.14,0,0,0-4.92-2.55A52.71,52.71,0,0,0,305.4,71a43.53,43.53,0,0,0-8.81,1.39A20.81,20.81,0,0,0,291.08,74.91ZM305.4,63.1A11.84,11.84,0,0,0,310.19,61a5.82,5.82,0,0,0,2-3.36,7.76,7.76,0,0,0-.76-4.65,4.47,4.47,0,0,0-4.12-2.82,16.71,16.71,0,0,0-5.32.45,6.82,6.82,0,0,0-3.49,1.88,4,4,0,0,0-1,3.13,10.94,10.94,0,0,0,.85,3.53A8.12,8.12,0,0,0,300.48,62Q301.92,63.28,305.4,63.1Z"/><path d="M344.07,75.27a28.34,28.34,0,0,1-7.92-14,50.2,50.2,0,0,1-.67-16.38A86.74,86.74,0,0,1,338.34,30a49.71,49.71,0,0,1,6.44-13.83,11.73,11.73,0,0,0,5.15,3.4,11.24,11.24,0,0,0,6.31.18l-2.42,9.66a31.89,31.89,0,0,1,8-7.33q4.56-3,10.2-5.91a60,60,0,0,1,6.09,13.65,97.91,97.91,0,0,1,3.22,15,56.33,56.33,0,0,1-1.08,16.33A27,27,0,0,1,372,75a10.19,10.19,0,0,0-2-4.16,27.16,27.16,0,0,0-6.26-5.6q1.15-5,1.83-9a28.49,28.49,0,0,0,.36-7.38,19.15,19.15,0,0,0-1.12-5.37,6.39,6.39,0,0,0-3-3.18,6,6,0,0,0-4.61-.58,7.25,7.25,0,0,0-4.2,3.4,13.85,13.85,0,0,0-1.79,7.6,107.47,107.47,0,0,0,1.43,14.5,11.49,11.49,0,0,0-5.1,3.18A16.78,16.78,0,0,0,344.07,75.27Z"/><path d="M401.26,92.09a54.9,54.9,0,0,0-3.09-6.89A11.44,11.44,0,0,0,393.34,80a6.89,6.89,0,0,0-5-.77,79.13,79.13,0,0,1,5.73-12.48A75.49,75.49,0,0,0,399.56,55a14,14,0,0,0-2.82-4.65,18.55,18.55,0,0,0-4.93-4.16,15.86,15.86,0,0,0-4.52-1.93,53,53,0,0,1,2.2-16.6,23.39,23.39,0,0,1,8.72-11.41,47.25,47.25,0,0,0,.45,9.58,43.15,43.15,0,0,0,3.09,10.51A29.22,29.22,0,0,0,408,45.73c1.55-2.2,3-4.34,4.38-6.4a12.14,12.14,0,0,0,2.06-6.93l-1.52-11.19a9.84,9.84,0,0,0,5.64-.45,6.94,6.94,0,0,0,4.38-4.56,37.68,37.68,0,0,1,5.91,9.31A35.85,35.85,0,0,1,432,36.6a176.59,176.59,0,0,0-17.85,26A157.61,157.61,0,0,0,401.26,92.09Z"/><path d="M472,75.27a62.36,62.36,0,0,1-8.1-15.13,47.8,47.8,0,0,1-2.64-16.73,79,79,0,0,1,3.13-23.09A61.55,61.55,0,0,1,474.64.18a7.78,7.78,0,0,0,4,3.13,14.26,14.26,0,0,0,6.27.09,101.79,101.79,0,0,0-2.64,12.31q-.85,5.77-1.21,11.94A65.12,65.12,0,0,1,493.3,32.4a51.68,51.68,0,0,1,8.33,5c1.7,1.37,3,2.49,4,3.36a17.53,17.53,0,0,1,3.22,4.78,23.91,23.91,0,0,1,1.43,10.21,15.67,15.67,0,0,1-2.19,7,37.2,37.2,0,0,1-5,6.44l-7.16,6.09A31.77,31.77,0,0,0,489,72.05a15.37,15.37,0,0,0-6-.59,24.79,24.79,0,0,0-5.86,1.35A27.06,27.06,0,0,0,472,75.27Zm18.61-14.68q3.14-6.18,3.32-9a7.91,7.91,0,0,0-.85-4.52,12.42,12.42,0,0,0-2.82-3.22,19.25,19.25,0,0,0-4.34-2.64,26,26,0,0,0-5.69-1.79,48.37,48.37,0,0,0-.09,10,33.66,33.66,0,0,0,2.24,10.74,7.71,7.71,0,0,1,4-.71A10.61,10.61,0,0,1,490.57,60.59Z"/><path d="M554.47,74.91a10.51,10.51,0,0,0-5.23-3.09,9.81,9.81,0,0,0-6,0l2.32-8.86a80.47,80.47,0,0,1-9.62,8,29.14,29.14,0,0,1-9.8,4q-6.88-6.18-8.54-13.83a51,51,0,0,1-.76-16.24,80.6,80.6,0,0,1,3-15,53.9,53.9,0,0,1,6.35-13.69A12.43,12.43,0,0,0,531,19.56a14.45,14.45,0,0,0,7.25.49,80.7,80.7,0,0,0-4.08,14.76,56,56,0,0,0-.49,14,7,7,0,0,0,2,4.2,12,12,0,0,0,4.43,2.6,11.36,11.36,0,0,0,5.23-2.6,7.28,7.28,0,0,0,1.93-4.2,44,44,0,0,0-.81-14Q545,28,542.39,20.05a12.36,12.36,0,0,0,6.27-.54,12.51,12.51,0,0,0,5.1-3.31,69.47,69.47,0,0,1,6.44,12.53,56.12,56.12,0,0,1,3.22,16.11,62.21,62.21,0,0,1-1.07,16.47A25.22,25.22,0,0,1,554.47,74.91Z"/><path d="M582.67,75.36q2.05-10,3.4-19.07a127.18,127.18,0,0,0,1.34-18.61q-1.26-3.76-3.76-4.66a11.42,11.42,0,0,0-5.06-.62,9.38,9.38,0,0,0-4.2,1.34c-1.11.72-2.28,2.33-3.54,4.83a31.44,31.44,0,0,1-1.34-9.89,29.56,29.56,0,0,1,.9-7,21.83,21.83,0,0,1,1.87-4.43,13.72,13.72,0,0,0,4.35,1.88,13,13,0,0,0,5.41.14c2-.33,3.25-.79,3.85-1.39a22.46,22.46,0,0,0,0-6.18,22.72,22.72,0,0,0-1.38-5.46c-.66-1.61-1.38-3.51-2.15-5.72,1.85.65,3.59,1.24,5.23,1.74A18.27,18.27,0,0,0,593.5,3,13.79,13.79,0,0,0,599,2.28c1.62-.56,3.46-1.15,5.55-1.74-.89,2.21-1.65,4.11-2.28,5.72a25.85,25.85,0,0,0-1.39,5.42A19,19,0,0,0,601,18c.48.6,1.7,1,3.67,1.3a14.72,14.72,0,0,0,5.42-.18,15.52,15.52,0,0,0,4.52-1.84,26,26,0,0,1,1.79,4.48,30.42,30.42,0,0,1,.89,6.93,33.51,33.51,0,0,1-1.25,9.89v.18c-1.37-2.56-2.6-4.22-3.67-5a8.44,8.44,0,0,0-4.16-1.35,12.2,12.2,0,0,0-5.06.63c-1.67.57-2.86,2.1-3.58,4.61a113.53,113.53,0,0,0,1.16,18.66q1.35,9.09,3.5,19c-1.26-.72-2.51-1.36-3.76-1.93a26,26,0,0,0-7-1.38,36.25,36.25,0,0,0-6.85,1.34A19.62,19.62,0,0,0,582.67,75.36Z"/><path d="M636.19,75.36q2.05-10,3.4-19.07a127.18,127.18,0,0,0,1.34-18.61q-1.26-3.76-3.76-4.66a11.42,11.42,0,0,0-5.06-.62,9.38,9.38,0,0,0-4.2,1.34q-1.67,1.08-3.54,4.83A31.44,31.44,0,0,1,623,28.68a30.2,30.2,0,0,1,.89-7,22.43,22.43,0,0,1,1.88-4.43,13.76,13.76,0,0,0,4.34,1.88,13,13,0,0,0,5.42.14c2-.33,3.25-.79,3.85-1.39a22.46,22.46,0,0,0,0-6.18,22.72,22.72,0,0,0-1.38-5.46c-.66-1.61-1.38-3.51-2.15-5.72,1.85.65,3.59,1.24,5.23,1.74A18.24,18.24,0,0,0,647,3a13.81,13.81,0,0,0,5.46-.67c1.62-.56,3.46-1.15,5.55-1.74-.89,2.21-1.65,4.11-2.28,5.72a25.25,25.25,0,0,0-1.39,5.42,18.73,18.73,0,0,0,.18,6.31c.48.6,1.7,1,3.67,1.3a14.73,14.73,0,0,0,5.42-.18,15.52,15.52,0,0,0,4.52-1.84,26,26,0,0,1,1.79,4.48,30.42,30.42,0,0,1,.89,6.93,33.51,33.51,0,0,1-1.25,9.89v.18c-1.38-2.56-2.6-4.22-3.67-5a8.47,8.47,0,0,0-4.16-1.35,12.2,12.2,0,0,0-5.06.63c-1.67.57-2.86,2.1-3.58,4.61a113.53,113.53,0,0,0,1.16,18.66q1.35,9.09,3.49,19c-1.25-.72-2.5-1.36-3.75-1.93a26,26,0,0,0-7-1.38,36.27,36.27,0,0,0-6.84,1.34A19.62,19.62,0,0,0,636.19,75.36Z"/><path d="M686,74.73A25.22,25.22,0,0,1,678,61.13a54.43,54.43,0,0,1-.8-16.29,92.89,92.89,0,0,1,3-14.9,46,46,0,0,1,6.62-13.74,29.18,29.18,0,0,0,5.91,2.42,50.79,50.79,0,0,0,8.05,1.16,48.69,48.69,0,0,0,7.34-1.16,38.34,38.34,0,0,0,6.27-2.42,54.85,54.85,0,0,1,6.22,13.69,95.16,95.16,0,0,1,3.08,15,54.59,54.59,0,0,1-.94,16.24q-1.65,7.65-8.54,13.65a12.42,12.42,0,0,0-4.88-2.42A56.8,56.8,0,0,0,700.71,71a38.56,38.56,0,0,0-9,1.34A36.46,36.46,0,0,0,686,74.73Zm14.67-13.42a8.59,8.59,0,0,0,6-5.11,24.48,24.48,0,0,0,1.57-8.59,24.12,24.12,0,0,0-1.61-9.22,16.74,16.74,0,0,0-6-7.51,17.27,17.27,0,0,0-6,7.6,23.93,23.93,0,0,0-1.61,9.22,22.86,22.86,0,0,0,1.61,8.5A9,9,0,0,0,700.71,61.31Z"/><path d="M739.29,75.27a28.34,28.34,0,0,1-7.92-14,50.46,50.46,0,0,1-.68-16.38A86.75,86.75,0,0,1,733.56,30,49.71,49.71,0,0,1,740,16.2a11.68,11.68,0,0,0,5.15,3.4,11.24,11.24,0,0,0,6.31.18L749,29.44a31.89,31.89,0,0,1,8-7.33q4.56-3,10.2-5.91a60.46,60.46,0,0,1,6.09,13.65,97.91,97.91,0,0,1,3.22,15,56.33,56.33,0,0,1-1.08,16.33A27,27,0,0,1,767.21,75a10.19,10.19,0,0,0-2-4.16,27.16,27.16,0,0,0-6.26-5.6q1.15-5,1.83-9a28.49,28.49,0,0,0,.36-7.38,19.15,19.15,0,0,0-1.12-5.37,6.39,6.39,0,0,0-3-3.18,6,6,0,0,0-4.61-.58,7.25,7.25,0,0,0-4.2,3.4,13.85,13.85,0,0,0-1.79,7.6,107.47,107.47,0,0,0,1.43,14.5,11.49,11.49,0,0,0-5.1,3.18A16.66,16.66,0,0,0,739.29,75.27Z"/><path d="M209,185.33q2.05-10,3.4-19.06a127.31,127.31,0,0,0,1.34-18.62Q212.5,143.9,210,143a11.29,11.29,0,0,0-5.06-.63,9.51,9.51,0,0,0-4.2,1.34c-1.11.72-2.28,2.33-3.54,4.84a31.48,31.48,0,0,1-1.34-9.89,30.2,30.2,0,0,1,.89-7,22.18,22.18,0,0,1,1.88-4.43,14.23,14.23,0,0,0,4.34,1.88,13.23,13.23,0,0,0,5.42.13c2-.33,3.25-.79,3.85-1.39a23.29,23.29,0,0,0-1.34-11.63q-1-2.42-2.15-5.73,2.77,1,5.23,1.75a18.56,18.56,0,0,0,5.87.67,14,14,0,0,0,5.45-.67c1.62-.57,3.46-1.15,5.55-1.75q-1.33,3.31-2.28,5.73a25.15,25.15,0,0,0-1.39,5.41,19,19,0,0,0,.18,6.31c.48.6,1.7,1,3.67,1.3a14.73,14.73,0,0,0,5.42-.18,15.78,15.78,0,0,0,4.52-1.83,25.57,25.57,0,0,1,1.79,4.47,30.53,30.53,0,0,1,.89,6.94,33.55,33.55,0,0,1-1.25,9.89v.18c-1.38-2.57-2.6-4.22-3.67-5a8.43,8.43,0,0,0-4.16-1.34,12.36,12.36,0,0,0-5.06.62q-2.5.86-3.58,4.61a113.39,113.39,0,0,0,1.16,18.66q1.35,9.09,3.49,19a41.56,41.56,0,0,0-3.75-1.92,25.92,25.92,0,0,0-7-1.39,37.08,37.08,0,0,0-6.85,1.34A20.16,20.16,0,0,0,209,185.33Z"/><path d="M258.87,184.7a25.25,25.25,0,0,1-8.06-13.6,54.43,54.43,0,0,1-.8-16.29,92.89,92.89,0,0,1,3-14.9,46,46,0,0,1,6.62-13.74,28.61,28.61,0,0,0,5.91,2.42,48.53,48.53,0,0,0,8.05,1.16,46.25,46.25,0,0,0,7.34-1.16,37.45,37.45,0,0,0,6.27-2.42,54.75,54.75,0,0,1,6.22,13.7,94.8,94.8,0,0,1,3.08,14.94,54.68,54.68,0,0,1-.94,16.25q-1.65,7.65-8.54,13.64a12.21,12.21,0,0,0-4.88-2.41,54.32,54.32,0,0,0-8.55-1.34,37.51,37.51,0,0,0-9,1.34A36.42,36.42,0,0,0,258.87,184.7Zm14.67-13.42a8.6,8.6,0,0,0,6-5.1,24.53,24.53,0,0,0,1.57-8.59,24.05,24.05,0,0,0-1.61-9.22,16.76,16.76,0,0,0-6-7.52,17.35,17.35,0,0,0-6,7.61,23.87,23.87,0,0,0-1.61,9.22,22.9,22.9,0,0,0,1.61,8.5A9,9,0,0,0,273.54,171.28Z"/><path d="M335.39,184.88a22.12,22.12,0,0,1-6.9-8.95q-2.14-5.19-1.7-13.33a21.84,21.84,0,0,0,3.94,2.64,11.34,11.34,0,0,0,4.83,1,15.94,15.94,0,0,0,6.9-1.83,28.82,28.82,0,0,0,.62,8.86,12.38,12.38,0,0,1,4.93-1,26.18,26.18,0,0,1,6,.4,9.58,9.58,0,0,0,.63-4.25,7.91,7.91,0,0,0-1.61-3.13,32.2,32.2,0,0,0-4.75-4.57,85.49,85.49,0,0,0-9.3-6.48q-5.91-3.67-8-6.49a9.76,9.76,0,0,1-2.24-4.61,17.64,17.64,0,0,1,1.3-6,48.16,48.16,0,0,1,6.08-10.92,20.44,20.44,0,0,0,5.73,2.64,64.47,64.47,0,0,0,7.79,1.3,47,47,0,0,0,7.78-1.52,39.64,39.64,0,0,0,5.91-2.42,56.73,56.73,0,0,1,4.92,10.43,21.69,21.69,0,0,1,1.52,7.79,52.24,52.24,0,0,1-.8,6.13,16.05,16.05,0,0,0-7.07-4.39,8.19,8.19,0,0,0-6.36.54c-.36-1-.71-2-1.07-2.87a11.27,11.27,0,0,0-1.48-2.59,5.4,5.4,0,0,0-3.26-1.79,6.6,6.6,0,0,0-4.12,1.34c-.84.78-1.61,2.36-2.33,4.74q7.61,4.67,14.05,9.18a66.42,66.42,0,0,1,9.4,7.6,14.82,14.82,0,0,1,3.8,6.14,15.22,15.22,0,0,1,.32,6.48q-.54,3.45-7.52,10a12.09,12.09,0,0,0-4.83-2.55,51.08,51.08,0,0,0-8.77-1.38,49.16,49.16,0,0,0-8.73,1.43A21,21,0,0,0,335.39,184.88Z"/><path d="M390.07,185.33q2.06-10,3.4-19.06a127.31,127.31,0,0,0,1.34-18.62c-.83-2.5-2.09-4.05-3.76-4.65a11.25,11.25,0,0,0-5.05-.63,9.55,9.55,0,0,0-4.21,1.34q-1.65,1.08-3.53,4.84a31.22,31.22,0,0,1-1.35-9.89,29.56,29.56,0,0,1,.9-7,21.08,21.08,0,0,1,1.88-4.43,14.12,14.12,0,0,0,4.34,1.88,13.17,13.17,0,0,0,5.41.13c2-.33,3.25-.79,3.85-1.39a22.78,22.78,0,0,0,0-6.17,22.47,22.47,0,0,0-1.39-5.46q-1-2.42-2.15-5.73c1.85.66,3.59,1.24,5.24,1.75a18.49,18.49,0,0,0,5.86.67,14,14,0,0,0,5.46-.67q2.42-.86,5.55-1.75-1.35,3.31-2.29,5.73a25.16,25.16,0,0,0-1.38,5.41,18.72,18.72,0,0,0,.18,6.31c.47.6,1.7,1,3.66,1.3a14.72,14.72,0,0,0,5.42-.18,15.66,15.66,0,0,0,4.52-1.83,24.82,24.82,0,0,1,1.79,4.47,30,30,0,0,1,.89,6.94,33.55,33.55,0,0,1-1.25,9.89v.18c-1.37-2.57-2.59-4.22-3.67-5a8.43,8.43,0,0,0-4.16-1.34,12.36,12.36,0,0,0-5.06.62q-2.51.86-3.58,4.61a112.3,112.3,0,0,0,1.17,18.66q1.34,9.09,3.49,19c-1.26-.72-2.51-1.36-3.76-1.92a25.83,25.83,0,0,0-7-1.39,37.27,37.27,0,0,0-6.85,1.34A20.16,20.16,0,0,0,390.07,185.33Z"/><path d="M439.47,184.88a22.31,22.31,0,0,1-6.8-9,28.24,28.24,0,0,1-2.28-9.85,19.77,19.77,0,0,1,.89-7.33,12.36,12.36,0,0,1,4.25-5.2,17.26,17.26,0,0,1,8.1-3.17,90.73,90.73,0,0,1,10.16-.9l5.37.45a22.44,22.44,0,0,0-.67-5.37,10.64,10.64,0,0,0-1.48-3.31,5.2,5.2,0,0,0-3.22-1.79,6.65,6.65,0,0,0-4.12,1.34,13.14,13.14,0,0,0-2.59,4.39,11.8,11.8,0,0,0-5.33-.72,10.93,10.93,0,0,0-5.32,1.48,32.93,32.93,0,0,0-5.55,5A64.26,64.26,0,0,1,433.34,140a45.58,45.58,0,0,1,6.85-13.79,23,23,0,0,0,5.72,2.51,71.78,71.78,0,0,0,7.52,1.43,62.17,62.17,0,0,0,7.79-1.48,36.76,36.76,0,0,0,6.17-2.46,53.5,53.5,0,0,1,6.36,13.7,81.15,81.15,0,0,1,2.95,14.94,54.43,54.43,0,0,1-.8,16.29q-1.62,7.69-8.51,13.78a12.08,12.08,0,0,0-4.92-2.55,52.75,52.75,0,0,0-8.68-1.38,43.4,43.4,0,0,0-8.81,1.38A21,21,0,0,0,439.47,184.88Zm14.32-11.81a11.77,11.77,0,0,0,4.79-2.15,5.81,5.81,0,0,0,2-3.35,7.86,7.86,0,0,0-.76-4.66,4.48,4.48,0,0,0-4.12-2.82,16.77,16.77,0,0,0-5.33.45,6.94,6.94,0,0,0-3.49,1.88,4.09,4.09,0,0,0-1,3.13,10.8,10.8,0,0,0,.85,3.54,8.17,8.17,0,0,0,2.15,2.91Q450.29,173.25,453.79,173.07Z"/><path d="M492.36,185a26.29,26.29,0,0,1-7.83-13.6,53.41,53.41,0,0,1-.76-16.56,78.08,78.08,0,0,1,2.73-14.94,49.64,49.64,0,0,1,6.58-13.7,12.21,12.21,0,0,0,5.24,3.4,10.65,10.65,0,0,0,6.13.18l-2.33,9.76a73.41,73.41,0,0,1,6.71-7.25q2.6-2.32,6.89-5.46a19.46,19.46,0,0,1,5.33,3.8,22.08,22.08,0,0,1,4.25,6.45,22.3,22.3,0,0,1,2.1,8.14,15.81,15.81,0,0,1-1.65,7.92,10.76,10.76,0,0,0-3.09-4.34,13.19,13.19,0,0,0-5.1-2.77,13,13,0,0,0-5.64-.45,14.4,14.4,0,0,0-4.92,1.61,14.17,14.17,0,0,0-4.12,3.58,13.82,13.82,0,0,0-2.69,5.64,23.71,23.71,0,0,0-.67,6q.09,2.78,1.44,12.53a11.24,11.24,0,0,0-5.6,3.31A13.51,13.51,0,0,0,492.36,185Z"/><path d="M546.33,185.33q2.05-10,3.4-19.06a125.94,125.94,0,0,0,1.34-18.62c-.83-2.5-2.09-4.05-3.75-4.65a11.31,11.31,0,0,0-5.06-.63,9.6,9.6,0,0,0-4.21,1.34q-1.65,1.08-3.53,4.84a31.22,31.22,0,0,1-1.35-9.89,29.56,29.56,0,0,1,.9-7,21.62,21.62,0,0,1,1.88-4.43,14.12,14.12,0,0,0,4.34,1.88,13.18,13.18,0,0,0,5.41.13c2-.33,3.26-.79,3.85-1.39a22.39,22.39,0,0,0,.05-6.17,22,22,0,0,0-1.39-5.46c-.66-1.61-1.37-3.52-2.15-5.73q2.78,1,5.24,1.75a18.49,18.49,0,0,0,5.86.67,14,14,0,0,0,5.46-.67q2.42-.86,5.55-1.75-1.35,3.31-2.28,5.73a25.15,25.15,0,0,0-1.39,5.41,18.72,18.72,0,0,0,.18,6.31c.47.6,1.7,1,3.67,1.3a14.66,14.66,0,0,0,5.41-.18,15.66,15.66,0,0,0,4.52-1.83,24.82,24.82,0,0,1,1.79,4.47,29.87,29.87,0,0,1,.9,6.94,33.25,33.25,0,0,1-1.26,9.89v.18c-1.37-2.57-2.59-4.22-3.67-5a8.43,8.43,0,0,0-4.16-1.34,12.29,12.29,0,0,0-5,.62q-2.52.86-3.58,4.61a111.24,111.24,0,0,0,1.16,18.66q1.33,9.09,3.49,19a41.71,41.71,0,0,0-3.76-1.92,25.83,25.83,0,0,0-7-1.39,37.45,37.45,0,0,0-6.85,1.34A20.16,20.16,0,0,0,546.33,185.33Z"/></g></g></svg>