<svg xmlns="http://www.w3.org/2000/svg" xmlns:xlink="http://www.w3.org/1999/xlink" viewBox="0 0 524.12 255.04"><defs><style>.cls-1,.cls-2,.cls-3{stroke-miterlimit:10;stroke-width:3px;}.cls-1{fill:url(#linear-gradient);stroke:url(#linear-gradient-2);}.cls-2{fill:url(#linear-gradient-3);stroke:url(#linear-gradient-4);}.cls-3{fill:url(#linear-gradient-5);stroke:url(#linear-gradient-6);}</style><linearGradient id="linear-gradient" x1="-0.05" y1="213.06" x2="173.83" y2="39.17" gradientUnits="userSpaceOnUse"><stop offset="0" stop-color="#d42927"/><stop offset="0.1" stop-color="#d1282e"/><stop offset="0.25" stop-color="#c82543"/><stop offset="0.43" stop-color="#b92064"/><stop offset="0.63" stop-color="#a51a93"/><stop offset="0.86" stop-color="#8b12ce"/><stop offset="1" stop-color="#790cf8"/></linearGradient><linearGradient id="linear-gradient-2" x1="-1.32" y1="214.18" x2="174.93" y2="37.93" gradientUnits="userSpaceOnUse"><stop offset="0" stop-color="#790cf8"/><stop offset="0.1" stop-color="#7c0df0"/><stop offset="0.25" stop-color="#8510db"/><stop offset="0.43" stop-color="#9415b9"/><stop offset="0.64" stop-color="#a91b89"/><stop offset="0.87" stop-color="#c4244d"/><stop offset="1" stop-color="#d42927"/></linearGradient><linearGradient id="linear-gradient-3" x1="195.53" y1="225.96" x2="338.99" y2="82.5" xlink:href="#linear-gradient"/><linearGradient id="linear-gradient-4" x1="194.4" y1="226.95" x2="340.16" y2="81.19" xlink:href="#linear-gradient-2"/><linearGradient id="linear-gradient-5" x1="363.9" y1="207.66" x2="523.59" y2="47.97" xlink:href="#linear-gradient"/><linearGradient id="linear-gradient-6" x1="361.28" y1="210.39" x2="526.06" y2="45.61" xlink:href="#linear-gradient-2"/></defs><g id="Layer_2" data-name="Layer 2"><g id="Art"><path class="cls-1" d="M37.87,251A199.36,199.36,0,0,1,11,201.6Q1.79,176.46,1.5,146.3A275.19,275.19,0,0,1,12.44,70,232,232,0,0,1,44.38,3.17,148.94,148.94,0,0,0,64.49,11q8.57,2.51,25.43,4,17.44-1.47,27.35-4.29A75.15,75.15,0,0,0,136.64,2Q142,8.8,150.25,25.05t11.23,30.31a106.54,106.54,0,0,1,2.07,28.54A42.08,42.08,0,0,1,156,102.09q-5.76,7.83-11.68,11.24a71.42,71.42,0,0,1-13,5.76,90.34,90.34,0,0,1,19.81,14,67.58,67.58,0,0,1,15.08,20.25,73.32,73.32,0,0,1,5,33.13A52.87,52.87,0,0,1,164,210a103.57,103.57,0,0,1-16.12,20.56l-23.07,21q-14.19-8.26-26.31-11.23a70.49,70.49,0,0,0-23.22-1.93A79.54,79.54,0,0,0,54.73,243,102.44,102.44,0,0,0,37.87,251Zm68.91-47.9a87.39,87.39,0,0,0,12.12-20.41,57.81,57.81,0,0,0,4.44-22.47A33,33,0,0,0,118.9,143a33.43,33.43,0,0,0-11.83-12.86,30.34,30.34,0,0,0-16-4.29q-13,4.15-18.78,13.9T65.37,163.6q-1.17,14,6.21,37.7a58.17,58.17,0,0,1,17.75-2.07A42.92,42.92,0,0,1,106.78,203.08Zm4.73-115.93V82.42A62.28,62.28,0,0,0,106,63.05q-4.59-10.2-16.12-11.38Q79,52.86,74,63.05a47.39,47.39,0,0,0-5.32,19.37v4.73a56,56,0,0,1,21.29-4.73A51.47,51.47,0,0,1,111.51,87.15Z"/><path class="cls-2" d="M220.63,250.39a73.83,73.83,0,0,1-22.48-29.72q-7.1-17.29-7.54-32.53t3-24.25q3.39-9,14-17.15t26.77-10.5a302,302,0,0,1,33.56-3l17.74,1.47A74.32,74.32,0,0,0,283.47,117a35.88,35.88,0,0,0-4.88-10.94q-3-4.14-10.65-5.91-9.46.58-13.6,4.43t-8.58,14.49q-6.81-3-17.59-2.36t-17.6,4.88q-6.81,4.29-18.33,16.41,1.17-12.42,8.13-36.08A151.22,151.22,0,0,1,223,56.4a76.63,76.63,0,0,0,18.93,8.28,233.39,233.39,0,0,0,24.84,4.73,203.54,203.54,0,0,0,25.73-4.88,125.63,125.63,0,0,0,20.4-8.13,177.67,177.67,0,0,1,21,45.24A267.12,267.12,0,0,1,343.64,151,179.45,179.45,0,0,1,341,204.85q-5.33,25.44-28.09,45.54-6.21-5.61-16.26-8.43t-28.69-4.58Q249,238.87,238.81,242A68.43,68.43,0,0,0,220.63,250.39Zm47.31-39q10.65-2.67,15.82-7.1a19.23,19.23,0,0,0,6.51-11.09q1.32-6.66-2.52-15.38t-13.6-9.31A55.44,55.44,0,0,0,256.56,170Q248.72,172,245,176.17a13.4,13.4,0,0,0-3.25,10.35,35.65,35.65,0,0,0,2.81,11.68,26.77,26.77,0,0,0,7.1,9.61Q256.41,212,267.94,211.36Z"/><path class="cls-3" d="M408.11,251.87q6.81-33.12,11.24-63a417.82,417.82,0,0,0,4.43-61.51Q419.64,115,411.36,112a37.61,37.61,0,0,0-16.7-2.07q-8.43.9-13.9,4.44t-11.68,16a103.23,103.23,0,0,1-4.44-32.68q.58-15.23,3-23.06A71.28,71.28,0,0,1,373.81,60a46,46,0,0,0,14.34,6.21A43.16,43.16,0,0,0,406,66.6Q415.81,65,418.76,62a74.66,74.66,0,0,0,.14-20.41,72.84,72.84,0,0,0-4.58-18q-3.26-8-7.1-18.93,9.16,3.26,17.3,5.77a60.64,60.64,0,0,0,19.37,2.21,45.84,45.84,0,0,0,18-2.21q8-2.82,18.34-5.77-4.44,11-7.54,18.93a83.32,83.32,0,0,0-4.59,17.89,62.06,62.06,0,0,0,.59,20.84c1.58,2,5.62,3.4,12.13,4.29A48.57,48.57,0,0,0,498.75,66,51.15,51.15,0,0,0,513.68,60a82.73,82.73,0,0,1,5.92,14.78q2.35,8,2.95,22.92t-4.14,32.68v.59q-6.79-12.7-12.12-16.41t-13.75-4.44a40.58,40.58,0,0,0-16.71,2.07Q467.55,115,464,127.37A372.45,372.45,0,0,0,467.85,189q4.42,30,11.53,62.84-6.21-3.56-12.42-6.36t-23.07-4.58q-16,2.07-22.62,4.43A65.12,65.12,0,0,0,408.11,251.87Z"/></g></g></svg>