<svg xmlns="http://www.w3.org/2000/svg" xmlns:xlink="http://www.w3.org/1999/xlink" viewBox="0 0 444.31 201.38"><defs><style>.cls-1,.cls-2,.cls-3{stroke-miterlimit:10;stroke-width:3px;}.cls-1{fill:url(#linear-gradient);stroke:url(#linear-gradient-2);}.cls-2{fill:url(#linear-gradient-3);stroke:url(#linear-gradient-4);}.cls-3{fill:url(#linear-gradient-5);stroke:url(#linear-gradient-6);}</style><linearGradient id="linear-gradient" x1="0.28" y1="167.93" x2="136.77" y2="31.44" gradientUnits="userSpaceOnUse"><stop offset="0" stop-color="#d42927"/><stop offset="0.1" stop-color="#d1282e"/><stop offset="0.25" stop-color="#c82543"/><stop offset="0.43" stop-color="#b92064"/><stop offset="0.63" stop-color="#a51a93"/><stop offset="0.86" stop-color="#8b12ce"/><stop offset="1" stop-color="#790cf8"/></linearGradient><linearGradient id="linear-gradient-2" x1="-0.99" y1="169.06" x2="137.86" y2="30.2" gradientUnits="userSpaceOnUse"><stop offset="0" stop-color="#790cf8"/><stop offset="0.1" stop-color="#7c0df0"/><stop offset="0.25" stop-color="#8510db"/><stop offset="0.43" stop-color="#9415b9"/><stop offset="0.64" stop-color="#a91b89"/><stop offset="0.87" stop-color="#c4244d"/><stop offset="1" stop-color="#d42927"/></linearGradient><linearGradient id="linear-gradient-3" x1="151.39" y1="170.48" x2="287.99" y2="33.88" xlink:href="#linear-gradient"/><linearGradient id="linear-gradient-4" x1="150.18" y1="171.97" x2="289.33" y2="32.81" xlink:href="#linear-gradient-2"/><linearGradient id="linear-gradient-5" x1="308.53" y1="161.2" x2="437.48" y2="32.26" xlink:href="#linear-gradient"/><linearGradient id="linear-gradient-6" x1="306.87" y1="164.06" x2="439.17" y2="31.76" xlink:href="#linear-gradient-2"/></defs><g id="Layer_2" data-name="Layer 2"><g id="Art"><path class="cls-1" d="M30.05,197.7A156.66,156.66,0,0,1,8.93,158.94,129.44,129.44,0,0,1,1.5,115.53a216.19,216.19,0,0,1,8.59-59.89A182.33,182.33,0,0,1,35.16,3.18,117.44,117.44,0,0,0,50.94,9.34q6.74,2,20,3.13Q84.6,11.31,92.37,9.1a59.25,59.25,0,0,0,15.21-6.84q4.17,5.34,10.68,18.1a97.6,97.6,0,0,1,8.82,23.79,83.58,83.58,0,0,1,1.62,22.4,33.14,33.14,0,0,1-5.92,14.28,31.3,31.3,0,0,1-9.17,8.82,55.53,55.53,0,0,1-10.21,4.52,70.9,70.9,0,0,1,15.55,11,53.2,53.2,0,0,1,11.84,15.9,57.65,57.65,0,0,1,4,26,41.61,41.61,0,0,1-5.69,18.45,80.77,80.77,0,0,1-12.65,16.13L98.29,198.16a78.75,78.75,0,0,0-20.66-8.82,55.24,55.24,0,0,0-18.22-1.51,62.85,62.85,0,0,0-16.13,3.6A81.39,81.39,0,0,0,30.05,197.7Zm54.08-37.6a68.19,68.19,0,0,0,9.52-16,45.42,45.42,0,0,0,3.48-17.64A25.84,25.84,0,0,0,93.65,113a26.16,26.16,0,0,0-9.28-10.1,23.84,23.84,0,0,0-12.54-3.37q-10.22,3.26-14.74,10.91t-5.45,18.69q-.93,11,4.87,29.59a45.66,45.66,0,0,1,13.93-1.62A33.51,33.51,0,0,1,84.13,160.1Zm3.72-91V65.39a48.91,48.91,0,0,0-4.3-15.2q-3.6-8-12.65-8.94-8.58.93-12.53,8.94a37.2,37.2,0,0,0-4.18,15.2v3.72A43.78,43.78,0,0,1,70.9,65.39,40.29,40.29,0,0,1,87.85,69.11Z"/><path class="cls-2" d="M178.61,197.7a153,153,0,0,1-21.36-38.76,133.55,133.55,0,0,1-7.66-43.41,222.38,222.38,0,0,1,8.82-59.89A189,189,0,0,1,183.25,3a143.07,143.07,0,0,0,16,6.27q6.74,2.08,20,3.25,13.7-1.16,21.47-3.37A58.44,58.44,0,0,0,256.13,2a157.31,157.31,0,0,1,25.65,54.44,248.11,248.11,0,0,1,7.31,60.69,151.82,151.82,0,0,1-8.82,41.79,176.51,176.51,0,0,1-20.42,38.76,92.82,92.82,0,0,0-5.92-17.76,43.73,43.73,0,0,0-11.72-15.2,28.86,28.86,0,0,0-8.36-5.11,41.28,41.28,0,0,0-10-2.55q4.41-11.37,7.31-20.08a104,104,0,0,0,4.3-18.92,29.58,29.58,0,0,0-5.69-19.61q-2.91-4.06-10.56-7.55-7.2,3.49-10.1,7.55a25.39,25.39,0,0,0-4.06,8.7,44,44,0,0,0-1.16,10.68A103.55,103.55,0,0,0,208.55,137q3,8.48,7.66,20.08A51.06,51.06,0,0,0,205,159.63a32.51,32.51,0,0,0-10.79,7,37.32,37.32,0,0,0-9,13.46Q181.62,188.42,178.61,197.7ZM236.17,67.25V63.53a48.61,48.61,0,0,0-4.29-15.2q-3.6-8-12.65-8.94a15.09,15.09,0,0,0-12.54,8.94,37.36,37.36,0,0,0-4.18,15.2v3.72a44,44,0,0,1,16.72-3.72A40.4,40.4,0,0,1,236.17,67.25Z"/><path class="cls-3" d="M345.27,197.93a228.61,228.61,0,0,0,9.63-37.14,169.5,169.5,0,0,0,2.21-34.47q-.71-16.81-1.75-31.33t-4.75-19.73q-3.72-5.22-7.08-6.39a14.67,14.67,0,0,0-7.08-.58,20.27,20.27,0,0,0-8.36,3.95,34.6,34.6,0,0,0-8.47,9.17A105.31,105.31,0,0,0,312,95.57a95.25,95.25,0,0,0-6.15,18.33q-2.79-5.33-2.44-21.58T311.15,50A111.07,111.07,0,0,1,336.91,4.11a100.56,100.56,0,0,0,15,6.39q6.84,2.21,21.24,2.9,13.23-.7,20.78-3.14a129.59,129.59,0,0,0,15.43-6.15A112.31,112.31,0,0,1,434.86,50q7.44,26.1,7.9,42.36T440,113.67q-1.86-9.75-9.17-23.79T418.38,72.24q-5.1-3.6-9.05-4.18a16.14,16.14,0,0,0-7.66.7c-2.47.85-4.84,3-7.08,6.38s-3.68,10-4.29,19.85-1.2,20.39-1.74,31.68A146.13,146.13,0,0,0,391,160.91a315.37,315.37,0,0,0,9.52,37c-4-1.23-7.74-2.44-11.14-3.6s-8.82-2.05-16.25-2.67q-11.14.93-16.48,2.79T345.27,197.93Z"/></g></g></svg>