<svg xmlns="http://www.w3.org/2000/svg" viewBox="0 0 713.78 49.24"><g id="Layer_2" data-name="Layer 2"><g id="Art"><path d="M5.86,40.24a29.29,29.29,0,0,1-4.52-9A31.82,31.82,0,0,1,0,20.72,47.19,47.19,0,0,1,1.82,10a30.73,30.73,0,0,1,5-9.9,32.58,32.58,0,0,0,3.25,1.24A21.3,21.3,0,0,0,14.28,2a22.58,22.58,0,0,0,4.33-.72,15.89,15.89,0,0,0,3-1.24,25.65,25.65,0,0,1,2,2.92q.81,1.38,1.44,2.73A11.37,11.37,0,0,1,26,8.88a14.94,14.94,0,0,1-.14,4.42,5.61,5.61,0,0,1-2.06,3.78,9.81,9.81,0,0,1-4,1.73c-1.58.32-2.79.53-3.64.64a8.27,8.27,0,0,0-2.82,1,3.77,3.77,0,0,0-2,2.37,7,7,0,0,0-.19,2.92,10.38,10.38,0,0,0,.93,2.92c.48,1,1,2,1.53,3.08a10.43,10.43,0,0,0-2.41.53A6.46,6.46,0,0,0,9,33.74a8,8,0,0,0-1.86,2.75A23.87,23.87,0,0,0,5.86,40.24Zm12-27v-.76A10.12,10.12,0,0,0,17,9.35a3,3,0,0,0-2.6-1.84,3.13,3.13,0,0,0-2.59,1.84,7.74,7.74,0,0,0-.86,3.14v.76a9.18,9.18,0,0,1,3.45-.76A8.47,8.47,0,0,1,17.87,13.25Z"/><path d="M34.19,40.1A14,14,0,0,1,30,32.83,28.4,28.4,0,0,1,29.59,24a42.65,42.65,0,0,1,1.46-8,26.66,26.66,0,0,1,3.52-7.32,6.57,6.57,0,0,0,2.8,1.82,5.8,5.8,0,0,0,3.28.1L39.4,15.79A40.87,40.87,0,0,1,43,11.92c.93-.83,2.16-1.81,3.69-2.92a10.26,10.26,0,0,1,2.84,2,11.74,11.74,0,0,1,2.28,3.45,11.87,11.87,0,0,1,1.12,4.35A8.43,8.43,0,0,1,52,23.06a5.72,5.72,0,0,0-1.66-2.32A7.36,7.36,0,0,0,44.64,19a7.9,7.9,0,0,0-2.63.86,7.62,7.62,0,0,0-2.2,1.92,7.26,7.26,0,0,0-1.43,3A11.84,11.84,0,0,0,38,28q0,1.49.76,6.7a6,6,0,0,0-3,1.77A7.15,7.15,0,0,0,34.19,40.1Z"/><path d="M61.18,40.05a13.48,13.48,0,0,1-4.41-7.34A28.42,28.42,0,0,1,56.39,24a32.25,32.25,0,0,1,1.27-7.75,25.5,25.5,0,0,1,3.71-7.56,14,14,0,0,0,3.35,1.53,16.18,16.18,0,0,0,4.11.39,12.85,12.85,0,0,0,4-.65c.94-.37,2.09-.79,3.47-1.27a34.7,34.7,0,0,1,3.3,7.39A33.69,33.69,0,0,1,81,22.32a55.35,55.35,0,0,1,.09,6.82c-2.23-.76-4.27-1.38-6.12-1.84a17.44,17.44,0,0,0-5.34-.53,9,9,0,0,0-4.71,1.7,9.15,9.15,0,0,0,2.51,2.78c1.07.79,2.79,1.17,5.17,1.12a36.17,36.17,0,0,0,8.3-1.31,22.74,22.74,0,0,1-1.41,4.85,14.24,14.24,0,0,1-3.37,4.14,8,8,0,0,0-2.61-1.39A22.37,22.37,0,0,0,69,38a25.2,25.2,0,0,0-5,.76A12.09,12.09,0,0,0,61.18,40.05ZM72.42,21.49v-.77a10.09,10.09,0,0,0-.88-3.14,3,3,0,0,0-2.61-1.84,3.15,3.15,0,0,0-2.59,1.84,7.74,7.74,0,0,0-.86,3.14v.77a9,9,0,0,1,3.45-.77A8.33,8.33,0,0,1,72.42,21.49Z"/><path d="M88.93,40.05a11.77,11.77,0,0,1-3.68-4.78,16.37,16.37,0,0,1-.91-7.13,11.69,11.69,0,0,0,2.1,1.41,6.12,6.12,0,0,0,2.59.53,8.58,8.58,0,0,0,3.68-1,15,15,0,0,0,.34,4.74,6.58,6.58,0,0,1,2.63-.55,13.46,13.46,0,0,1,3.2.22,5.26,5.26,0,0,0,.34-2.28,4.22,4.22,0,0,0-.86-1.67,17.39,17.39,0,0,0-2.54-2.44,45.23,45.23,0,0,0-5-3.47,16.25,16.25,0,0,1-4.28-3.47,5.28,5.28,0,0,1-1.2-2.46,9.75,9.75,0,0,1,.7-3.21,25.55,25.55,0,0,1,3.25-5.84,11.22,11.22,0,0,0,3.07,1.41,35.21,35.21,0,0,0,4.16.7A25.76,25.76,0,0,0,100.7,10a21.92,21.92,0,0,0,3.16-1.29,30.82,30.82,0,0,1,2.63,5.58,11.29,11.29,0,0,1,.81,4.16,25.1,25.1,0,0,1-.43,3.28,8.46,8.46,0,0,0-3.78-2.35,4.37,4.37,0,0,0-3.39.29c-.19-.54-.39-1.05-.58-1.53a5.89,5.89,0,0,0-.79-1.39,2.86,2.86,0,0,0-1.74-1,3.6,3.6,0,0,0-2.21.72A6,6,0,0,0,93.14,19q4.06,2.49,7.51,4.9a35.07,35.07,0,0,1,5,4.07,7.91,7.91,0,0,1,2,3.28,8.19,8.19,0,0,1,.17,3.47q-.28,1.83-4,5.33a6.47,6.47,0,0,0-2.58-1.36A26.64,26.64,0,0,0,96.59,38a26.71,26.71,0,0,0-4.67.76A11.45,11.45,0,0,0,88.93,40.05Z"/><path d="M115.87,40.05a11.77,11.77,0,0,1-3.68-4.78,16.37,16.37,0,0,1-.91-7.13,11.69,11.69,0,0,0,2.1,1.41,6.12,6.12,0,0,0,2.59.53,8.58,8.58,0,0,0,3.68-1,15,15,0,0,0,.34,4.74,6.58,6.58,0,0,1,2.63-.55,13.46,13.46,0,0,1,3.2.22,5.26,5.26,0,0,0,.34-2.28,4.22,4.22,0,0,0-.86-1.67,17.39,17.39,0,0,0-2.54-2.44,45.23,45.23,0,0,0-5-3.47,16.25,16.25,0,0,1-4.28-3.47,5.28,5.28,0,0,1-1.2-2.46,9.75,9.75,0,0,1,.7-3.21,25.55,25.55,0,0,1,3.25-5.84,11.22,11.22,0,0,0,3.07,1.41,35.21,35.21,0,0,0,4.16.7,25.76,25.76,0,0,0,4.16-.82,21.47,21.47,0,0,0,3.16-1.29,30.15,30.15,0,0,1,2.63,5.58,11.56,11.56,0,0,1,.82,4.16,27.08,27.08,0,0,1-.44,3.28A8.46,8.46,0,0,0,130,19.33a4.37,4.37,0,0,0-3.39.29c-.19-.54-.39-1.05-.58-1.53a5.89,5.89,0,0,0-.79-1.39,2.86,2.86,0,0,0-1.74-1,3.57,3.57,0,0,0-2.2.72A5.89,5.89,0,0,0,120.08,19q4.07,2.49,7.51,4.9a35.07,35.07,0,0,1,5,4.07,7.91,7.91,0,0,1,2,3.28,8,8,0,0,1,.17,3.47q-.28,1.83-4,5.33a6.47,6.47,0,0,0-2.58-1.36,26.64,26.64,0,0,0-4.69-.74,26.71,26.71,0,0,0-4.67.76A11.45,11.45,0,0,0,115.87,40.05Z"/><path d="M155.63,40.05A12,12,0,0,1,152,35.24,15,15,0,0,1,150.78,30a10.39,10.39,0,0,1,.48-3.92,6.44,6.44,0,0,1,2.27-2.78,9.22,9.22,0,0,1,4.33-1.7,51.71,51.71,0,0,1,5.43-.48l2.87.24a11.86,11.86,0,0,0-.36-2.87A5.6,5.6,0,0,0,165,16.7a2.77,2.77,0,0,0-1.72-1,3.6,3.6,0,0,0-2.2.72,7,7,0,0,0-1.39,2.35,6.34,6.34,0,0,0-2.85-.39,6,6,0,0,0-2.84.79,17.57,17.57,0,0,0-3,2.66A34.46,34.46,0,0,1,152.36,16,24.53,24.53,0,0,1,156,8.66,12,12,0,0,0,159.08,10a38.36,38.36,0,0,0,4,.77,34,34,0,0,0,4.16-.79,19.8,19.8,0,0,0,3.3-1.32A28.57,28.57,0,0,1,174,16a43.31,43.31,0,0,1,1.58,8,29.11,29.11,0,0,1-.43,8.71,13.41,13.41,0,0,1-4.55,7.37,6.43,6.43,0,0,0-2.63-1.36,27.25,27.25,0,0,0-4.64-.74,23,23,0,0,0-4.71.74A11.24,11.24,0,0,0,155.63,40.05Zm7.66-6.31a6.31,6.31,0,0,0,2.56-1.15,3.08,3.08,0,0,0,1.05-1.8,4.18,4.18,0,0,0-.4-2.49,2.39,2.39,0,0,0-2.2-1.5,8.63,8.63,0,0,0-2.85.24,3.65,3.65,0,0,0-1.87,1,2.17,2.17,0,0,0-.52,1.68,5.69,5.69,0,0,0,.45,1.89,4.42,4.42,0,0,0,1.15,1.55A3.72,3.72,0,0,0,163.29,33.74Z"/><path d="M184,40.24a15.17,15.17,0,0,1-4.23-7.51,27,27,0,0,1-.36-8.76,47.38,47.38,0,0,1,1.53-7.92,26.37,26.37,0,0,1,3.45-7.39,6.19,6.19,0,0,0,2.75,1.82,6.1,6.1,0,0,0,3.37.1l-1.29,5.16a17.06,17.06,0,0,1,4.26-3.92c1.62-1.05,3.44-2.11,5.45-3.16a31.92,31.92,0,0,1,3.26,7.3,52.57,52.57,0,0,1,1.72,8,30.49,30.49,0,0,1-.57,8.74,14.47,14.47,0,0,1-4.41,7.39,5.31,5.31,0,0,0-1-2.23,14.7,14.7,0,0,0-3.35-3c.41-1.78.74-3.39,1-4.8a15.39,15.39,0,0,0,.19-3.95,10.13,10.13,0,0,0-.6-2.87,3.37,3.37,0,0,0-1.6-1.7,3.21,3.21,0,0,0-2.46-.31,3.92,3.92,0,0,0-2.25,1.81,7.45,7.45,0,0,0-1,4.07,58.26,58.26,0,0,0,.77,7.75,6.11,6.11,0,0,0-2.73,1.7A9.07,9.07,0,0,0,184,40.24Z"/><path d="M214.54,49.24a28.24,28.24,0,0,0-1.65-3.69,6.18,6.18,0,0,0-2.58-2.8,3.71,3.71,0,0,0-2.66-.4,42.09,42.09,0,0,1,3.06-6.68,39.57,39.57,0,0,0,2.92-6.29,7.34,7.34,0,0,0-1.51-2.49,9.84,9.84,0,0,0-2.63-2.22,8.63,8.63,0,0,0-2.41-1,28.6,28.6,0,0,1,1.17-8.88,12.49,12.49,0,0,1,4.66-6.1,26.17,26.17,0,0,0,.24,5.12,23.29,23.29,0,0,0,1.65,5.62,15.75,15.75,0,0,0,3.33,5.05q1.25-1.77,2.34-3.42a6.5,6.5,0,0,0,1.1-3.71l-.81-6a5.36,5.36,0,0,0,3-.24,3.73,3.73,0,0,0,2.34-2.44,20.33,20.33,0,0,1,3.16,5A19.18,19.18,0,0,1,231,19.57a94.24,94.24,0,0,0-9.54,13.88A84.53,84.53,0,0,0,214.54,49.24Z"/><path d="M252.34,40.24A33.71,33.71,0,0,1,248,32.16a25.71,25.71,0,0,1-1.41-8.95,42.32,42.32,0,0,1,1.68-12.35A32.59,32.59,0,0,1,253.78.1a4.07,4.07,0,0,0,2.15,1.67,7.63,7.63,0,0,0,3.35.05,54.69,54.69,0,0,0-1.41,6.58c-.3,2.06-.52,4.18-.65,6.39a34.36,34.36,0,0,1,6.54,2.53A28.7,28.7,0,0,1,268.21,20c.91.74,1.61,1.33,2.13,1.8a9.53,9.53,0,0,1,1.72,2.56,12.65,12.65,0,0,1,.76,5.45,8.17,8.17,0,0,1-1.17,3.73A19.91,19.91,0,0,1,269,37l-3.83,3.25a17.34,17.34,0,0,0-3.71-1.72,8.18,8.18,0,0,0-3.21-.31,13,13,0,0,0-3.13.72A14.56,14.56,0,0,0,252.34,40.24Zm10-7.84a15.07,15.07,0,0,0,1.77-4.79,4.2,4.2,0,0,0-.46-2.42,6.51,6.51,0,0,0-1.51-1.72,9.93,9.93,0,0,0-2.32-1.41,14.36,14.36,0,0,0-3-1,25.37,25.37,0,0,0-.05,5.36,18.12,18.12,0,0,0,1.19,5.74,4.25,4.25,0,0,1,2.16-.38A5.6,5.6,0,0,1,262.3,32.4Z"/><path d="M296.46,40.05a5.68,5.68,0,0,0-2.8-1.65,5.3,5.3,0,0,0-3.18,0l1.24-4.74a43.39,43.39,0,0,1-5.14,4.26,15.56,15.56,0,0,1-5.24,2.15,13.79,13.79,0,0,1-4.57-7.39,27.72,27.72,0,0,1-.41-8.69,44.15,44.15,0,0,1,1.58-8,28.91,28.91,0,0,1,3.4-7.32,6.55,6.55,0,0,0,2.58,1.8,7.88,7.88,0,0,0,3.88.26,43.37,43.37,0,0,0-2.18,7.89,30,30,0,0,0-.26,7.47,3.8,3.8,0,0,0,1.08,2.25,6.47,6.47,0,0,0,2.37,1.39,6.08,6.08,0,0,0,2.79-1.39,3.87,3.87,0,0,0,1-2.25,23,23,0,0,0-.43-7.47q-.81-3.63-2.2-7.89a6.67,6.67,0,0,0,3.35-.29,6.6,6.6,0,0,0,2.73-1.77,36.94,36.94,0,0,1,3.44,6.7A30.12,30.12,0,0,1,301.25,24a33,33,0,0,1-.58,8.81A13.49,13.49,0,0,1,296.46,40.05Z"/><path d="M311.54,40.29c.73-3.57,1.34-7,1.81-10.19a67.45,67.45,0,0,0,.72-10,3.61,3.61,0,0,0-2-2.49,6.11,6.11,0,0,0-2.7-.34,5.15,5.15,0,0,0-2.25.72,6.63,6.63,0,0,0-1.89,2.58,16.91,16.91,0,0,1-.72-5.28A15.48,15.48,0,0,1,305,11.6a11.55,11.55,0,0,1,1-2.36,7.57,7.57,0,0,0,2.33,1,7,7,0,0,0,2.89.07,4,4,0,0,0,2.06-.74,12.17,12.17,0,0,0,0-3.3,11.66,11.66,0,0,0-.74-2.92c-.35-.86-.73-1.88-1.15-3.06,1,.35,1.92.66,2.8.93a9.9,9.9,0,0,0,3.14.36,7.52,7.52,0,0,0,2.91-.36c.87-.3,1.85-.61,3-.93-.48,1.18-.88,2.2-1.22,3.06a13.8,13.8,0,0,0-.74,2.9,10.12,10.12,0,0,0,.09,3.37,3.23,3.23,0,0,0,2,.69,7.9,7.9,0,0,0,2.89-.09,8.6,8.6,0,0,0,2.42-1,13.86,13.86,0,0,1,1,2.39,16.2,16.2,0,0,1,.47,3.71,17.62,17.62,0,0,1-.67,5.28v.1a7.78,7.78,0,0,0-2-2.66,4.59,4.59,0,0,0-2.22-.71,6.64,6.64,0,0,0-2.71.33,3.28,3.28,0,0,0-1.91,2.47,59.55,59.55,0,0,0,.62,10q.72,4.86,1.87,10.17c-.67-.38-1.34-.72-2-1a14,14,0,0,0-3.73-.74,18.91,18.91,0,0,0-3.66.72A10,10,0,0,0,311.54,40.29Z"/><path d="M340.15,40.29q1.1-5.35,1.82-10.19a67.45,67.45,0,0,0,.72-10,3.61,3.61,0,0,0-2-2.49,6.17,6.17,0,0,0-2.71-.34,5.15,5.15,0,0,0-2.25.72,6.63,6.63,0,0,0-1.89,2.58,16.6,16.6,0,0,1-.71-5.28,16.1,16.1,0,0,1,.47-3.74,11.57,11.57,0,0,1,1-2.36,7.51,7.51,0,0,0,2.32,1,7,7,0,0,0,2.9.07,4,4,0,0,0,2.05-.74,12.3,12.3,0,0,0-.71-6.22c-.36-.86-.74-1.88-1.15-3.06,1,.35,1.92.66,2.8.93a9.83,9.83,0,0,0,3.13.36,7.57,7.57,0,0,0,2.92-.36q1.29-.45,3-.93c-.48,1.18-.89,2.2-1.22,3.06a13.21,13.21,0,0,0-.75,2.9,10.13,10.13,0,0,0,.1,3.37,3.22,3.22,0,0,0,2,.69,8,8,0,0,0,2.9-.09,8.54,8.54,0,0,0,2.41-1,13.1,13.1,0,0,1,1,2.39,16.1,16.1,0,0,1,.48,3.71,17.94,17.94,0,0,1-.67,5.28v.1a8.05,8.05,0,0,0-2-2.66,4.67,4.67,0,0,0-2.23-.71,6.57,6.57,0,0,0-2.7.33,3.31,3.31,0,0,0-1.92,2.47,60.62,60.62,0,0,0,.63,10q.72,4.86,1.86,10.17c-.67-.38-1.34-.72-2-1a13.91,13.91,0,0,0-3.73-.74,19.25,19.25,0,0,0-3.66.72A10,10,0,0,0,340.15,40.29Z"/><path d="M366.8,40a13.52,13.52,0,0,1-4.3-7.28,28.79,28.79,0,0,1-.43-8.71,48.14,48.14,0,0,1,1.58-8,24.41,24.41,0,0,1,3.54-7.35A15,15,0,0,0,370.34,10a26.13,26.13,0,0,0,4.31.63,24.83,24.83,0,0,0,3.93-.63,19.26,19.26,0,0,0,3.34-1.29A29,29,0,0,1,385.25,16a51.17,51.17,0,0,1,1.65,8,29.24,29.24,0,0,1-.5,8.69,13.36,13.36,0,0,1-4.57,7.3,6.53,6.53,0,0,0-2.61-1.3,30.59,30.59,0,0,0-4.57-.71,15.91,15.91,0,0,0-7.85,2Zm7.85-7.18a4.61,4.61,0,0,0,3.23-2.73,13,13,0,0,0,.84-4.59,13,13,0,0,0-.86-4.93,9.06,9.06,0,0,0-3.21-4,9.19,9.19,0,0,0-3.2,4.07,12.77,12.77,0,0,0-.87,4.92,12.41,12.41,0,0,0,.87,4.55A4.8,4.8,0,0,0,374.65,32.78Z"/><path d="M395.28,40.24A15.12,15.12,0,0,1,391,32.73a27,27,0,0,1-.36-8.76,47.38,47.38,0,0,1,1.53-7.92,26.65,26.65,0,0,1,3.45-7.39,6.19,6.19,0,0,0,2.75,1.82,6.1,6.1,0,0,0,3.37.1l-1.29,5.16a17.06,17.06,0,0,1,4.26-3.92c1.63-1.05,3.45-2.11,5.46-3.16a32.33,32.33,0,0,1,3.25,7.3,52.57,52.57,0,0,1,1.72,8,30.49,30.49,0,0,1-.57,8.74,14.52,14.52,0,0,1-4.4,7.39,5.47,5.47,0,0,0-1.06-2.23,14.48,14.48,0,0,0-3.35-3c.42-1.78.74-3.39,1-4.8a15.42,15.42,0,0,0,.2-3.95,10.87,10.87,0,0,0-.6-2.87,3.39,3.39,0,0,0-1.61-1.7,3.21,3.21,0,0,0-2.46-.31,3.92,3.92,0,0,0-2.25,1.81,7.45,7.45,0,0,0-1,4.07,58.26,58.26,0,0,0,.77,7.75,6.22,6.22,0,0,0-2.73,1.7A9.06,9.06,0,0,0,395.28,40.24Z"/><path d="M438.25,40.29c.73-3.57,1.34-7,1.81-10.19a67.45,67.45,0,0,0,.72-10,3.56,3.56,0,0,0-2-2.49,6.11,6.11,0,0,0-2.7-.34,5.15,5.15,0,0,0-2.25.72,6.63,6.63,0,0,0-1.89,2.58,16.91,16.91,0,0,1-.72-5.28,16,16,0,0,1,.48-3.74,11.57,11.57,0,0,1,1-2.36,7.51,7.51,0,0,0,2.32,1,7,7,0,0,0,2.89.07A4,4,0,0,0,440,9.57a11.78,11.78,0,0,0,0-3.3,11.66,11.66,0,0,0-.74-2.92c-.35-.86-.73-1.88-1.15-3.06,1,.35,1.92.66,2.8.93a9.9,9.9,0,0,0,3.14.36A7.59,7.59,0,0,0,447,1.22c.86-.3,1.84-.61,3-.93-.48,1.18-.88,2.2-1.22,3.06a13.8,13.8,0,0,0-.74,2.9,9.87,9.87,0,0,0,.1,3.37,3.19,3.19,0,0,0,2,.69,7.89,7.89,0,0,0,2.89-.09,8.6,8.6,0,0,0,2.42-1,13.86,13.86,0,0,1,1,2.39,16.2,16.2,0,0,1,.47,3.71,17.62,17.62,0,0,1-.67,5.28v.1a7.78,7.78,0,0,0-2-2.66,4.59,4.59,0,0,0-2.22-.71,6.64,6.64,0,0,0-2.71.33,3.28,3.28,0,0,0-1.91,2.47,60.63,60.63,0,0,0,.62,10q.72,4.86,1.87,10.17c-.67-.38-1.34-.72-2-1a14,14,0,0,0-3.73-.74,18.91,18.91,0,0,0-3.66.72A10,10,0,0,0,438.25,40.29Z"/><path d="M464.9,40a13.54,13.54,0,0,1-4.31-7.28,29.44,29.44,0,0,1-.43-8.71,50.29,50.29,0,0,1,1.58-8,24.65,24.65,0,0,1,3.54-7.35A14.83,14.83,0,0,0,468.44,10a26,26,0,0,0,4.31.63,24.68,24.68,0,0,0,3.92-.63A19.33,19.33,0,0,0,480,8.66,29,29,0,0,1,483.35,16,51.17,51.17,0,0,1,485,24a29.57,29.57,0,0,1-.5,8.69,13.44,13.44,0,0,1-4.58,7.3,6.42,6.42,0,0,0-2.6-1.3,30.81,30.81,0,0,0-4.57-.71,15.91,15.91,0,0,0-7.85,2Zm7.85-7.18A4.63,4.63,0,0,0,476,30.05a13.27,13.27,0,0,0,.83-4.59,12.59,12.59,0,0,0-.86-4.93,9,9,0,0,0-3.2-4,9.29,9.29,0,0,0-3.21,4.07,12.76,12.76,0,0,0-.86,4.92,12.42,12.42,0,0,0,.86,4.55A4.8,4.8,0,0,0,472.75,32.78Z"/><path d="M506.1,40.05a13.85,13.85,0,0,1-4.26-7.32,27.32,27.32,0,0,1-.33-8.76A45.18,45.18,0,0,1,503,16a23.34,23.34,0,0,1,3.63-7.35,12.3,12.3,0,0,0,3,1.29,27.13,27.13,0,0,0,4.43.63A19,19,0,0,0,519,9.74l2.63-1.08a38.08,38.08,0,0,1,2.64,5.86q.76,2.37,1.57,5.82a7.63,7.63,0,0,0-3.06-1.3,9.25,9.25,0,0,0-3.06.05,7.66,7.66,0,0,0-2.68,1,8.78,8.78,0,0,0-1.2-2,7.08,7.08,0,0,0-1.67-1.63,9,9,0,0,0-3.3,4.07A12.58,12.58,0,0,0,510,25.5a12.86,12.86,0,0,0,.83,4.55A4.72,4.72,0,0,0,514,32.78a5,5,0,0,0,2.82-1.87,7.68,7.68,0,0,0,.86-2.44,6.81,6.81,0,0,0,2.66,1.15,8.42,8.42,0,0,0,2.84-.1,11.45,11.45,0,0,0,3.35-1.19,28.83,28.83,0,0,1-.79,4.85,14,14,0,0,1-4.28,7.06,13.52,13.52,0,0,0-3.13-1.5A21.72,21.72,0,0,0,514,38a21.14,21.14,0,0,0-4.74.76A20.54,20.54,0,0,0,506.1,40.05Z"/><path d="M534.52,40a13.52,13.52,0,0,1-4.3-7.28,28.79,28.79,0,0,1-.43-8.71,48.14,48.14,0,0,1,1.58-8,24.41,24.41,0,0,1,3.54-7.35A14.77,14.77,0,0,0,538.06,10a26.13,26.13,0,0,0,4.31.63A24.83,24.83,0,0,0,546.3,10a19.26,19.26,0,0,0,3.34-1.29A29,29,0,0,1,553,16a51.17,51.17,0,0,1,1.65,8,29.24,29.24,0,0,1-.5,8.69,13.36,13.36,0,0,1-4.57,7.3,6.53,6.53,0,0,0-2.61-1.3,30.59,30.59,0,0,0-4.57-.71,15.91,15.91,0,0,0-7.85,2Zm7.85-7.18a4.61,4.61,0,0,0,3.23-2.73,13,13,0,0,0,.84-4.59,13,13,0,0,0-.86-4.93,9.06,9.06,0,0,0-3.21-4,9.19,9.19,0,0,0-3.2,4.07,12.77,12.77,0,0,0-.87,4.92,12.41,12.41,0,0,0,.87,4.55A4.8,4.8,0,0,0,542.37,32.78Z"/><path d="M563,40.24a15.12,15.12,0,0,1-4.24-7.51A27,27,0,0,1,558.4,24a47.38,47.38,0,0,1,1.53-7.92,26.65,26.65,0,0,1,3.45-7.39,6.19,6.19,0,0,0,2.75,1.82,6.1,6.1,0,0,0,3.37.1l-1.29,5.16a17.06,17.06,0,0,1,4.26-3.92c1.63-1.05,3.45-2.11,5.45-3.16a31.92,31.92,0,0,1,3.26,7.3,52.57,52.57,0,0,1,1.72,8,30.49,30.49,0,0,1-.57,8.74,14.47,14.47,0,0,1-4.41,7.39,5.31,5.31,0,0,0-1-2.23,14.48,14.48,0,0,0-3.35-3c.42-1.78.74-3.39,1-4.8a15.42,15.42,0,0,0,.2-3.95,10.87,10.87,0,0,0-.6-2.87,3.39,3.39,0,0,0-1.61-1.7,3.21,3.21,0,0,0-2.46-.31,3.92,3.92,0,0,0-2.25,1.81,7.45,7.45,0,0,0-1,4.07,58.26,58.26,0,0,0,.77,7.75,6.22,6.22,0,0,0-2.73,1.7A9.06,9.06,0,0,0,563,40.24Z"/><path d="M593.24,40.29q1.1-5.35,1.82-10.19a68.85,68.85,0,0,0,.71-10,3.56,3.56,0,0,0-2-2.49,6.11,6.11,0,0,0-2.7-.34,5.15,5.15,0,0,0-2.25.72,6.63,6.63,0,0,0-1.89,2.58,16.91,16.91,0,0,1-.72-5.28,16.56,16.56,0,0,1,.48-3.74,11.57,11.57,0,0,1,1-2.36,7.51,7.51,0,0,0,2.32,1,7,7,0,0,0,2.89.07A4,4,0,0,0,595,9.57a11.78,11.78,0,0,0,0-3.3,11.66,11.66,0,0,0-.74-2.92c-.35-.86-.73-1.88-1.15-3.06,1,.35,1.93.66,2.8.93a9.9,9.9,0,0,0,3.14.36A7.57,7.57,0,0,0,602,1.22c.86-.3,1.85-.61,3-.93-.48,1.18-.88,2.2-1.22,3.06a13.8,13.8,0,0,0-.74,2.9,9.87,9.87,0,0,0,.1,3.37,3.19,3.19,0,0,0,2,.69,7.89,7.89,0,0,0,2.89-.09,8.48,8.48,0,0,0,2.42-1,13.86,13.86,0,0,1,1,2.39,16.68,16.68,0,0,1,.48,3.71,17.94,17.94,0,0,1-.67,5.28v.1a7.91,7.91,0,0,0-2-2.66,4.59,4.59,0,0,0-2.22-.71,6.57,6.57,0,0,0-2.7.33,3.27,3.27,0,0,0-1.92,2.47,60.63,60.63,0,0,0,.62,10q.72,4.86,1.87,10.17c-.67-.38-1.34-.72-2-1a13.91,13.91,0,0,0-3.73-.74,18.91,18.91,0,0,0-3.66.72A10,10,0,0,0,593.24,40.29Z"/><path d="M621.85,7.7a35.47,35.47,0,0,1-4.18-.62,10.56,10.56,0,0,1-2.95-1.19,10.9,10.9,0,0,0,1.68-2.8,10.77,10.77,0,0,0,.81-3,14.6,14.6,0,0,0,3.09.88,9.13,9.13,0,0,0,3,0,11.08,11.08,0,0,0,2.92-.91,15.26,15.26,0,0,0,1,3,11,11,0,0,0,1.72,2.83,11,11,0,0,1-3,1.22A41.4,41.4,0,0,1,621.85,7.7Zm-4.78,32.35a17.92,17.92,0,0,1-1.82-7.1c-.07-1.17-.12-2.68-.17-4.55a43.11,43.11,0,0,1,.17-5.29q.24-2.49.64-6.22c.28-2.49.62-4.94,1-7.37a14,14,0,0,0,4.93,1.25,9.5,9.5,0,0,0,4.69-1.25c.42,2.43.76,4.88,1,7.37s.46,4.56.57,6.22.17,3.42.17,5.29,0,3.39-.17,4.57a24.9,24.9,0,0,1-.55,3.42,24.44,24.44,0,0,1-1.19,3.66,10.94,10.94,0,0,0-4.74-1.19A9.78,9.78,0,0,0,617.07,40.05Z"/><path d="M636.93,40.24a15.12,15.12,0,0,1-4.24-7.51,27,27,0,0,1-.36-8.76,47.38,47.38,0,0,1,1.53-7.92,26.94,26.94,0,0,1,3.45-7.39,6.19,6.19,0,0,0,2.75,1.82,6.1,6.1,0,0,0,3.37.1l-1.29,5.16a17.06,17.06,0,0,1,4.26-3.92c1.63-1.05,3.45-2.11,5.46-3.16a32.33,32.33,0,0,1,3.25,7.3,51.4,51.4,0,0,1,1.72,8,30.49,30.49,0,0,1-.57,8.74,14.52,14.52,0,0,1-4.4,7.39,5.47,5.47,0,0,0-1.06-2.23,14.48,14.48,0,0,0-3.35-3c.42-1.78.74-3.39,1-4.8a15.42,15.42,0,0,0,.2-3.95,10.87,10.87,0,0,0-.6-2.87,3.39,3.39,0,0,0-1.61-1.7,3.21,3.21,0,0,0-2.46-.31,3.92,3.92,0,0,0-2.25,1.81,7.45,7.45,0,0,0-1,4.07,58.26,58.26,0,0,0,.77,7.75,6.22,6.22,0,0,0-2.73,1.7A9.06,9.06,0,0,0,636.93,40.24Z"/><path d="M680.61,40.05a5.69,5.69,0,0,0-2.79-1.65,5.33,5.33,0,0,0-3.19,0l1.25-4.74a44.19,44.19,0,0,1-5.15,4.26,15.48,15.48,0,0,1-5.24,2.15,13.85,13.85,0,0,1-4.57-7.39,27.44,27.44,0,0,1-.4-8.69,42.5,42.5,0,0,1,1.58-8,28.53,28.53,0,0,1,3.39-7.32,6.58,6.58,0,0,0,2.59,1.8,7.83,7.83,0,0,0,3.87.26,42.49,42.49,0,0,0-2.17,7.89,30,30,0,0,0-.27,7.47,3.8,3.8,0,0,0,1.08,2.25A6.47,6.47,0,0,0,673,29.72a6.13,6.13,0,0,0,2.8-1.39,3.93,3.93,0,0,0,1-2.25,23.6,23.6,0,0,0-.43-7.47c-.55-2.42-1.28-5-2.21-7.89a6.67,6.67,0,0,0,3.35-.29,6.54,6.54,0,0,0,2.73-1.77,37.65,37.65,0,0,1,3.45,6.7A30.49,30.49,0,0,1,685.4,24a33.48,33.48,0,0,1-.57,8.81A13.51,13.51,0,0,1,680.61,40.05Z"/><path d="M693.82,40.05a13.47,13.47,0,0,1-4.4-7.34A28.11,28.11,0,0,1,689,24a31.74,31.74,0,0,1,1.26-7.75A25.75,25.75,0,0,1,694,8.66a14.4,14.4,0,0,0,3.35,1.53,16.32,16.32,0,0,0,4.12.39,12.77,12.77,0,0,0,4-.65c.94-.37,2.1-.79,3.47-1.27a33.73,33.73,0,0,1,3.3,7.39,32.9,32.9,0,0,1,1.39,6.27,57.05,57.05,0,0,1,.1,6.82c-2.24-.76-4.28-1.38-6.13-1.84a17.4,17.4,0,0,0-5.33-.53,9,9,0,0,0-4.72,1.7,9.31,9.31,0,0,0,2.52,2.78c1.06.79,2.79,1.17,5.16,1.12a36.24,36.24,0,0,0,8.31-1.31,23.27,23.27,0,0,1-1.42,4.85,14.07,14.07,0,0,1-3.37,4.14,7.76,7.76,0,0,0-2.61-1.39,22.13,22.13,0,0,0-4.47-.71,25.07,25.07,0,0,0-5,.76A12,12,0,0,0,693.82,40.05Zm11.25-18.56v-.77a10.12,10.12,0,0,0-.89-3.14,3,3,0,0,0-2.61-1.84A3.12,3.12,0,0,0,699,17.58a7.74,7.74,0,0,0-.86,3.14v.77a9,9,0,0,1,3.44-.77A8.34,8.34,0,0,1,705.07,21.49Z"/></g></g></svg>