<svg xmlns="http://www.w3.org/2000/svg" xmlns:xlink="http://www.w3.org/1999/xlink" viewBox="0 0 70.34 228.66"><defs><style>.cls-1{stroke-miterlimit:10;stroke-width:3px;fill:url(#linear-gradient);stroke:url(#linear-gradient-2);}</style><linearGradient id="linear-gradient" x1="-36.53" y1="180.08" x2="104.51" y2="39.05" gradientUnits="userSpaceOnUse"><stop offset="0" stop-color="#d42927"/><stop offset="0.14" stop-color="#d42927"/><stop offset="0.27" stop-color="#d2282b"/><stop offset="0.39" stop-color="#cd2736"/><stop offset="0.5" stop-color="#c52449"/><stop offset="0.62" stop-color="#b92164"/><stop offset="0.73" stop-color="#aa1c86"/><stop offset="0.85" stop-color="#9816b1"/><stop offset="0.96" stop-color="#830fe2"/><stop offset="1" stop-color="#790cf8"/></linearGradient><linearGradient id="linear-gradient-2" x1="-38.67" y1="182.06" x2="106.78" y2="36.62" gradientUnits="userSpaceOnUse"><stop offset="0.33" stop-color="#790cf8"/><stop offset="0.63" stop-color="#a1199c"/><stop offset="1" stop-color="#d42927"/></linearGradient></defs><g id="Layer_2" data-name="Layer 2"><g id="Art"><path class="cls-1" d="M32.59,179.42Q18.26,149.17,9.11,108.17T1.81,3.22Q14.55,14.37,33.66,16a67.87,67.87,0,0,0,35-12.74q-3.18,64-12.47,105T32.59,179.42ZM56,226.12q-13-6.36-23.49-6.37T9,225.59a92.82,92.82,0,0,1,3.45-19.9q2.38-7.42,6.5-11.54t13.4-7.3q9.29,3.18,13.4,7.3t6.5,11.67A107.07,107.07,0,0,1,56,226.12Z"/></g></g></svg>