<svg xmlns="http://www.w3.org/2000/svg" viewBox="0 0 382.18 60.61"><g id="Layer_2" data-name="Layer 2"><g id="Art"><path d="M10.55,59.55Q4.23,53.86,2.08,47.81A37.83,37.83,0,0,1,0,34.66,61.3,61.3,0,0,1,2.36,16.52,52,52,0,0,1,10.13.63,31,31,0,0,0,14.67,2.5a31.38,31.38,0,0,0,6.71,1,28,28,0,0,0,6.05-1A36.47,36.47,0,0,0,32.07.63a64.28,64.28,0,0,1,6.57,11.43,29.44,29.44,0,0,1,2.29,9.67,14,14,0,0,0-4.75-2.68,13.63,13.63,0,0,0-4.36-.42A15.21,15.21,0,0,0,27,19.83a15.11,15.11,0,0,0-1.73-4.5,4.8,4.8,0,0,0-3.9-2.6,4.81,4.81,0,0,0-4.15,2.6,22,22,0,0,0-2.14,7.31A49.06,49.06,0,0,0,14.53,32a33.76,33.76,0,0,0,1.33,8.36q1.17,3.91,5.52,7.84c1.78-1.36,2.83-2.45,3.13-3.27s-.62-2.07-2.78-3.76A6.73,6.73,0,0,0,24,39.59a6.58,6.58,0,0,0,1.62-3.52A17,17,0,0,0,25.39,30a34.14,34.14,0,0,1,7.31,3.13,31.1,31.1,0,0,1,5,3.55,13.29,13.29,0,0,1,2.81,3.45c.64,1.17.22,3.76-1.23,7.77a34.1,34.1,0,0,1-7.8,11.85,20.66,20.66,0,0,0-4.12-1.87A40.05,40.05,0,0,0,21.1,56.6a36.22,36.22,0,0,0-6.43,1.27A37.1,37.1,0,0,0,10.55,59.55Z"/><path d="M54.5,59.55A46,46,0,0,1,48,47.81a40.4,40.4,0,0,1-2.32-13.15,67.49,67.49,0,0,1,2.67-18.14,57.24,57.24,0,0,1,7.53-16,41.89,41.89,0,0,0,4.85,1.9,31.37,31.37,0,0,0,6,1,37.18,37.18,0,0,0,6.51-1A17.59,17.59,0,0,0,78,.28a47.48,47.48,0,0,1,7.77,16.49A75.06,75.06,0,0,1,88,35.16,46.12,46.12,0,0,1,85.3,47.81a53.85,53.85,0,0,1-6.19,11.74,28,28,0,0,0-1.79-5.37,13.25,13.25,0,0,0-3.55-4.61A8.8,8.8,0,0,0,71.23,48a12.5,12.5,0,0,0-3-.77c.89-2.3,1.63-4.32,2.22-6.08a32.1,32.1,0,0,0,1.3-5.73,9.87,9.87,0,0,0-.39-3.31A9.75,9.75,0,0,0,70,29.5a7.78,7.78,0,0,0-3.2-2.29,7.84,7.84,0,0,0-3,2.29,7.61,7.61,0,0,0-1.23,2.63,13.15,13.15,0,0,0-.36,3.24,31.59,31.59,0,0,0,1.41,5.8q.92,2.56,2.32,6.08a15.6,15.6,0,0,0-3.41.77,10.07,10.07,0,0,0-3.27,2.11,11.34,11.34,0,0,0-2.74,4.08Q55.42,56.75,54.5,59.55ZM71.94,20V18.91a14.94,14.94,0,0,0-1.3-4.6A4.42,4.42,0,0,0,66.8,11.6,4.55,4.55,0,0,0,63,14.31a11.29,11.29,0,0,0-1.27,4.6V20a13.39,13.39,0,0,1,5.06-1.13A12.22,12.22,0,0,1,71.94,20Z"/><path d="M101.05,59.7a45.25,45.25,0,0,1-6.68-11.89,35.71,35.71,0,0,1-2-13.15,62,62,0,0,1,2.46-18.1A54.27,54.27,0,0,1,102.45.63q2.4,5.78,3.34,7.56a55.33,55.33,0,0,0,3.1,4.92,20.36,20.36,0,0,0,5.8,5.52A21.21,21.21,0,0,0,120.28,13a40,40,0,0,0,2.88-4.88c.54-1.17,1.51-3.78,2.92-7.81a50.94,50.94,0,0,1,8,16.21,69.38,69.38,0,0,1,2.64,18.1,47.34,47.34,0,0,1-2.68,13.19,51.61,51.61,0,0,1-6.18,11.7,28.54,28.54,0,0,0-1.8-5.3,11.54,11.54,0,0,0-2.91-4.08A12.06,12.06,0,0,0,120,48.09a15.56,15.56,0,0,0-3-.84,50.57,50.57,0,0,0,3-9.84,74.69,74.69,0,0,0,1.2-9.85,9.06,9.06,0,0,0-4,2.53,23.91,23.91,0,0,0-2.56,3.73A23.23,23.23,0,0,0,112,30.13a9.7,9.7,0,0,0-4.08-2.57A66.77,66.77,0,0,0,109.24,38a47.07,47.07,0,0,0,2.92,9.25,11.66,11.66,0,0,0-3.52,1.09,11.21,11.21,0,0,0-3.13,2.43A13.77,13.77,0,0,0,103,54.7C102.3,56.25,101.66,57.91,101.05,59.7Z"/><path d="M151.67,59.55q-6.33-5.76-8.51-11.77a36.25,36.25,0,0,1-2-13.12,61.24,61.24,0,0,1,2.36-18.1A52.38,52.38,0,0,1,151.25.63a31.15,31.15,0,0,0,4.53,1.83,35,35,0,0,0,6.72,1,30.79,30.79,0,0,0,6-1A28.7,28.7,0,0,0,173.19.63q2.31,3.24,3.86,5.94a50.39,50.39,0,0,1,3.17,7A58.64,58.64,0,0,0,171.08,12a28,28,0,0,0-7,.14A11.38,11.38,0,0,0,160,13.57a20.17,20.17,0,0,0-2.78,5.31,22.88,22.88,0,0,0-1.16,5.8,13.33,13.33,0,0,0,6.33,2.07,34,34,0,0,0,6.4-.42,58,58,0,0,0,7.24-1.65,22.11,22.11,0,0,0,0,12.59,31.36,31.36,0,0,0-7.31-1.76,45.17,45.17,0,0,0-6.37-.25A14.26,14.26,0,0,0,156.31,37a21.24,21.24,0,0,0,1.41,6.12,9.8,9.8,0,0,0,2.81,4.15,50.8,50.8,0,0,0,5.2.88,35.83,35.83,0,0,0,6.61,0A80.8,80.8,0,0,0,181.27,47a35.43,35.43,0,0,1-7.87,12.58,33.83,33.83,0,0,0-4.61-1.75,41.11,41.11,0,0,0-5.73-1.2A32,32,0,0,0,155.75,58C154.44,58.58,153.08,59.09,151.67,59.55Z"/><path d="M214.88,59.7q-6.33-5.62-8.51-11.68a36,36,0,0,1-2-13.07,61.91,61.91,0,0,1,2.32-18.22A49.52,49.52,0,0,1,214.46.91,26.86,26.86,0,0,0,219,2.81a32.19,32.19,0,0,0,6.71.92,28,28,0,0,0,6-1A37.07,37.07,0,0,0,236.4.91a54.55,54.55,0,0,1,7.49,15.89A68.9,68.9,0,0,1,246.52,35a42.16,42.16,0,0,1-2.39,13.18,30.41,30.41,0,0,1-8.08,11.57c-1.5-.57-2.93-1.07-4.29-1.52a42.33,42.33,0,0,0-6-1.3,45.26,45.26,0,0,0-6.82,1.3A37.9,37.9,0,0,0,214.88,59.7Zm10.9-11.25a18.51,18.51,0,0,0,5.42-7.74,28.3,28.3,0,0,0,1.3-8.4,55.56,55.56,0,0,0-.78-9.39,25.8,25.8,0,0,0-2.11-7.42,4.79,4.79,0,0,0-3.9-2.77,5.15,5.15,0,0,0-4.11,2.81A21.14,21.14,0,0,0,219.49,23a55.64,55.64,0,0,0-.53,9.31,37.81,37.81,0,0,0,1.16,8.37Q221.14,44.59,225.78,48.45Z"/><path d="M271.91,59.41a31.75,31.75,0,0,1-11.08-7.59,35.5,35.5,0,0,1-6.61-9.46,35,35,0,0,1-2.77-9.52,69.43,69.43,0,0,1-.71-9.85A40,40,0,0,1,253.55,11a39.71,39.71,0,0,1,7-11,9.3,9.3,0,0,0,3.23,2.81,8.43,8.43,0,0,0,4.64,0,79.88,79.88,0,0,0-2.32,11.11,61.93,61.93,0,0,0-.46,10.83A48.54,48.54,0,0,0,267.12,35,23.15,23.15,0,0,0,272,44a25.76,25.76,0,0,0,4.57-9A46.61,46.61,0,0,0,278,24.71a66.86,66.86,0,0,0-.45-10.79,83.62,83.62,0,0,0-2.22-11.11,8.19,8.19,0,0,0,4.57,0A9.91,9.91,0,0,0,283.23.07a40.55,40.55,0,0,1,6.82,11,45.24,45.24,0,0,1,3,12.09,63.76,63.76,0,0,1-.77,9.74,36.88,36.88,0,0,1-2.85,9.53,33.65,33.65,0,0,1-6.79,9.39A36.3,36.3,0,0,1,271.91,59.41Z"/><path d="M308,59.55q-6.33-5.76-8.51-11.77a36,36,0,0,1-2-13.12,60.91,60.91,0,0,1,2.35-18.1A52.84,52.84,0,0,1,307.55.63a31.69,31.69,0,0,0,4.54,1.83,34.73,34.73,0,0,0,6.71,1,30.9,30.9,0,0,0,6-1A28.25,28.25,0,0,0,329.49.63a69.82,69.82,0,0,1,3.87,5.94,50.49,50.49,0,0,1,3.16,7A58.45,58.45,0,0,0,327.38,12a28,28,0,0,0-7,.14,11.46,11.46,0,0,0-4.08,1.41,20.13,20.13,0,0,0-2.77,5.31,22.45,22.45,0,0,0-1.16,5.8,13.33,13.33,0,0,0,6.32,2.07,34,34,0,0,0,6.4-.42,57.6,57.6,0,0,0,7.24-1.65,22.29,22.29,0,0,0,0,12.59,31.24,31.24,0,0,0-7.31-1.76,45.09,45.09,0,0,0-6.36-.25A14.26,14.26,0,0,0,312.62,37,20.91,20.91,0,0,0,314,43.1a9.72,9.72,0,0,0,2.82,4.15,50.34,50.34,0,0,0,5.2.88,35.81,35.81,0,0,0,6.61,0A81.11,81.11,0,0,0,337.58,47a35.45,35.45,0,0,1-7.88,12.58,33.71,33.71,0,0,0-4.6-1.75,41.11,41.11,0,0,0-5.73-1.2A32.1,32.1,0,0,0,312.05,58C310.74,58.58,309.38,59.09,308,59.55Z"/><path d="M366,60.61a13.14,13.14,0,0,0,1.94-3.69,11,11,0,0,0,.56-3.59,6,6,0,0,0-.91-3.13,6.42,6.42,0,0,0-3.13-2.32,37.08,37.08,0,0,0,3.65-3.9,18,18,0,0,0,2.25-3.44,7.24,7.24,0,0,0,.6-3.49,9.85,9.85,0,0,0-.74-3.41,8.49,8.49,0,0,0-1.93-2.7,7,7,0,0,0-4.11-1.62,6.28,6.28,0,0,0-4.05,2,10.57,10.57,0,0,0-1.79,3.83,10.35,10.35,0,0,0,.46,5.77,30.08,30.08,0,0,0,3.13,6.71,7.3,7.3,0,0,0-3.41.39,10,10,0,0,0-3.34,2.14,13.85,13.85,0,0,0-2.92,3.94,21.83,21.83,0,0,0-1.87,5.34A46,46,0,0,1,344,47.74a35.5,35.5,0,0,1-2-13.08,65.11,65.11,0,0,1,2.49-18.17A52.74,52.74,0,0,1,352.06.63a26.73,26.73,0,0,0,4.68,1.9,42.26,42.26,0,0,0,7.42.92,30.59,30.59,0,0,0,5.16-1A14.09,14.09,0,0,0,373.86.21a31.22,31.22,0,0,1,3.3,5.59,32.22,32.22,0,0,1,2.68,7.1,23.74,23.74,0,0,1,.49,6.58,10.26,10.26,0,0,1-1.8,4.67,9.3,9.3,0,0,1-2.77,2.67,16.73,16.73,0,0,1-3.17,1.38,18.76,18.76,0,0,1,4.75,3.23A17.26,17.26,0,0,1,381,36.35a19.4,19.4,0,0,1,1.13,7.88,13.08,13.08,0,0,1-1.8,5.55,20,20,0,0,1-3.76,4.57A62.25,62.25,0,0,1,371.54,58,21.55,21.55,0,0,1,366,60.61Zm2-40.15V19.27a14.88,14.88,0,0,0-1.33-4.68,4.49,4.49,0,0,0-3.87-2.78,4.69,4.69,0,0,0-3.9,2.78,11.36,11.36,0,0,0-1.3,4.68v1.19a13.05,13.05,0,0,1,5.2-1.19A12,12,0,0,1,368,20.46Z"/></g></g></svg>