<svg xmlns="http://www.w3.org/2000/svg" xmlns:xlink="http://www.w3.org/1999/xlink" viewBox="0 0 515.68 254.08"><defs><style>.cls-1,.cls-2,.cls-3{stroke-miterlimit:10;stroke-width:3px;}.cls-1{fill:url(#linear-gradient);stroke:url(#linear-gradient-2);}.cls-2{fill:url(#linear-gradient-3);stroke:url(#linear-gradient-4);}.cls-3{fill:url(#linear-gradient-5);stroke:url(#linear-gradient-6);}</style><linearGradient id="linear-gradient" x1="-22.91" y1="189.99" x2="150.23" y2="16.85" gradientUnits="userSpaceOnUse"><stop offset="0" stop-color="#d42927"/><stop offset="0.1" stop-color="#d1282e"/><stop offset="0.25" stop-color="#c82543"/><stop offset="0.43" stop-color="#b92064"/><stop offset="0.63" stop-color="#a51a93"/><stop offset="0.86" stop-color="#8b12ce"/><stop offset="1" stop-color="#790cf8"/></linearGradient><linearGradient id="linear-gradient-2" x1="-23.85" y1="191.81" x2="151.83" y2="16.13" gradientUnits="userSpaceOnUse"><stop offset="0" stop-color="#790cf8"/><stop offset="0.1" stop-color="#7c0df0"/><stop offset="0.25" stop-color="#8510db"/><stop offset="0.43" stop-color="#9415b9"/><stop offset="0.64" stop-color="#a91b89"/><stop offset="0.87" stop-color="#c4244d"/><stop offset="1" stop-color="#d42927"/></linearGradient><linearGradient id="linear-gradient-3" x1="188.77" y1="224.44" x2="332.59" y2="80.63" xlink:href="#linear-gradient"/><linearGradient id="linear-gradient-4" x1="187.64" y1="225.43" x2="333.76" y2="79.31" xlink:href="#linear-gradient-2"/><linearGradient id="linear-gradient-5" x1="355.46" y1="206.7" x2="515.15" y2="47.01" xlink:href="#linear-gradient"/><linearGradient id="linear-gradient-6" x1="352.84" y1="209.43" x2="517.62" y2="44.65" xlink:href="#linear-gradient-2"/></defs><g id="Layer_2" data-name="Layer 2"><g id="Art"><path class="cls-1" d="M37.71,250.62A181.7,181.7,0,0,1,9.77,194.87,197.94,197.94,0,0,1,1.63,130,293.88,293.88,0,0,1,12.72,63.43Q22,31.2,43.63,2.21A195.52,195.52,0,0,0,63.73,9.9q8.58,2.67,26,4.14,16.84-1.47,26.76-4.43A102,102,0,0,0,135.3,1.92a168.06,168.06,0,0,1,12.42,18q5,8.58,8.87,16.85a70.6,70.6,0,0,1,5.47,20q1.62,11.68-.89,27.36t-12.71,23.36q-10.2,7.7-24.84,10.64t-22.48,4q-7.83,1-17.45,6.35T71.57,143.12a43.37,43.37,0,0,0-1.18,18,64.75,64.75,0,0,0,5.76,18q4.44,9.31,9.47,19.07a65.2,65.2,0,0,0-14.94,3.26Q64,203.9,57.08,210.4a50.73,50.73,0,0,0-11.53,17A152.13,152.13,0,0,0,37.71,250.62ZM111.94,83.83V79.1a62.24,62.24,0,0,0-5.48-19.37q-4.58-10.2-16.11-11.39-10.95,1.2-16,11.39A47.19,47.19,0,0,0,69.06,79.1v4.73A55.82,55.82,0,0,1,90.35,79.1,51.47,51.47,0,0,1,111.94,83.83Z"/><path class="cls-2" d="M214,249.43q-21.89-19.8-27.21-45.39a174.46,174.46,0,0,1-2.36-54,197.59,197.59,0,0,1,7.83-47.9q6.94-24,22.92-46.73,12.12,7.1,20.7,9.47t25.43,2.36q16-.58,24.7-4t21.43-7.84a210.14,210.14,0,0,1,20.41,45.69q7.1,23.22,8.57,38.74T337,182q-20.7-7.09-37.86-11.39a107,107,0,0,0-33-3.25A55.78,55.78,0,0,0,237,177.87,56.67,56.67,0,0,0,252.55,195q9.9,7.39,31.94,6.95t51.3-8.13q-3.84,19.23-8.72,30t-20.85,25.58a47.7,47.7,0,0,0-16.11-8.57q-9.32-3-27.65-4.44-21.6,1.77-30.91,4.73A73.63,73.63,0,0,0,214,249.43Zm69.49-114.74V130A62,62,0,0,0,278,110.59q-4.59-10.2-16.12-11.38-10.94,1.19-16,11.38A47.41,47.41,0,0,0,240.57,130v4.73A56,56,0,0,1,261.86,130,51.4,51.4,0,0,1,283.45,134.69Z"/><path class="cls-3" d="M399.67,250.91q6.79-33.12,11.24-63a419.19,419.19,0,0,0,4.43-61.51Q411.2,114,402.92,111A37.49,37.49,0,0,0,386.21,109a31.34,31.34,0,0,0-13.9,4.43q-5.47,3.55-11.68,16a103.49,103.49,0,0,1-4.43-32.68q.58-15.22,3-23.06A71.28,71.28,0,0,1,365.37,59a46,46,0,0,0,14.34,6.21,43.16,43.16,0,0,0,17.89.44q9.75-1.62,12.71-4.58a74.2,74.2,0,0,0,.15-20.4,73.25,73.25,0,0,0-4.58-18q-3.25-8-7.1-18.93,9.17,3.26,17.3,5.77a60.3,60.3,0,0,0,19.37,2.22,45.84,45.84,0,0,0,18-2.22q8-2.81,18.33-5.77-4.43,11-7.54,18.93a82.9,82.9,0,0,0-4.58,17.89,62.11,62.11,0,0,0,.59,20.85q2.37,3,12.12,4.28a48.61,48.61,0,0,0,17.9-.59A51.15,51.15,0,0,0,505.24,59a82.51,82.51,0,0,1,5.91,14.79q2.37,8,3,22.91T510,129.37V130q-6.81-12.71-12.12-16.41t-13.75-4.44a40.73,40.73,0,0,0-16.71,2.07q-8.28,2.82-11.83,15.23a373.48,373.48,0,0,0,3.84,61.66q4.44,30,11.54,62.84-6.21-3.54-12.42-6.36T435.45,240q-16,2.07-22.62,4.44A65.07,65.07,0,0,0,399.67,250.91Z"/></g></g></svg>