<svg xmlns="http://www.w3.org/2000/svg" xmlns:xlink="http://www.w3.org/1999/xlink" viewBox="0 0 431.34 200.73"><defs><style>.cls-1,.cls-2,.cls-3{stroke-miterlimit:10;stroke-width:3px;}.cls-1{fill:url(#linear-gradient);stroke:url(#linear-gradient-2);}.cls-2{fill:url(#linear-gradient-3);stroke:url(#linear-gradient-4);}.cls-3{fill:url(#linear-gradient-5);stroke:url(#linear-gradient-6);}</style><linearGradient id="linear-gradient" x1="-17.68" y1="149.68" x2="118.35" y2="13.65" gradientUnits="userSpaceOnUse"><stop offset="0" stop-color="#d42927"/><stop offset="0.1" stop-color="#d1282e"/><stop offset="0.25" stop-color="#c82543"/><stop offset="0.43" stop-color="#b92064"/><stop offset="0.63" stop-color="#a51a93"/><stop offset="0.86" stop-color="#8b12ce"/><stop offset="1" stop-color="#790cf8"/></linearGradient><linearGradient id="linear-gradient-2" x1="-18.62" y1="151.49" x2="119.95" y2="12.93" gradientUnits="userSpaceOnUse"><stop offset="0" stop-color="#790cf8"/><stop offset="0.1" stop-color="#7c0df0"/><stop offset="0.25" stop-color="#8510db"/><stop offset="0.43" stop-color="#9415b9"/><stop offset="0.64" stop-color="#a91b89"/><stop offset="0.87" stop-color="#c4244d"/><stop offset="1" stop-color="#d42927"/></linearGradient><linearGradient id="linear-gradient-3" x1="146.98" y1="165.89" x2="279.99" y2="32.88" xlink:href="#linear-gradient"/><linearGradient id="linear-gradient-4" x1="145.86" y1="166.89" x2="281.13" y2="31.62" xlink:href="#linear-gradient-2"/><linearGradient id="linear-gradient-5" x1="295.44" y1="160.31" x2="424.5" y2="31.25" xlink:href="#linear-gradient"/><linearGradient id="linear-gradient-6" x1="293.78" y1="163.17" x2="426.19" y2="30.75" xlink:href="#linear-gradient-2"/></defs><g id="Layer_2" data-name="Layer 2"><g id="Art"><path class="cls-1" d="M30,197.31a142.83,142.83,0,0,1-22-43.8,155.76,155.76,0,0,1-6.39-51,230.61,230.61,0,0,1,8.72-52.28A149.86,149.86,0,0,1,34.6,2.15a154.25,154.25,0,0,0,15.79,6q6.75,2.09,20.45,3.25,13.25-1.15,21-3.48a79.78,79.78,0,0,0,14.76-6,130.45,130.45,0,0,1,9.75,14.17q4,6.73,7,13.24A55.6,55.6,0,0,1,127.64,45,73.63,73.63,0,0,1,127,66.5q-2,12.33-10,18.36a47.46,47.46,0,0,1-19.52,8.36q-11.5,2.32-17.66,3.14a39.72,39.72,0,0,0-13.7,5q-7.56,4.19-9.53,11.5A34.09,34.09,0,0,0,55.62,127a51.11,51.11,0,0,0,4.53,14.17q3.48,7.32,7.44,15a51.65,51.65,0,0,0-11.74,2.56,31.39,31.39,0,0,0-10.68,7,39.82,39.82,0,0,0-9.06,13.36A118.42,118.42,0,0,0,30,197.31Zm58.31-131V62.55A48.43,48.43,0,0,0,84,47.34q-3.6-8-12.66-9-8.6.93-12.54,9a37.08,37.08,0,0,0-4.18,15.21v3.72A44,44,0,0,1,71.3,62.55,40.45,40.45,0,0,1,88.26,66.27Z"/><path class="cls-2" d="M178.17,196.84q-20.91-19.05-28.11-38.91a119.27,119.27,0,0,1-6.74-43.33,201.62,201.62,0,0,1,7.79-59.83A173.53,173.53,0,0,1,176.78,2.15a103.24,103.24,0,0,0,15,6q6.84,2.09,22.18,3.25a99.44,99.44,0,0,0,19.87-3.13,92.52,92.52,0,0,0,15.45-6.16A229.12,229.12,0,0,1,262,21.78,165.29,165.29,0,0,1,272.5,44.9a192.43,192.43,0,0,0-30.2-5.11q-14.18-1.17-23,.46T205.82,44.9a66.54,66.54,0,0,0-9.18,17.54,75.49,75.49,0,0,0-3.83,19.17q10.92,6.49,20.91,6.85a112.09,112.09,0,0,0,21.14-1.39,193.53,193.53,0,0,0,23.93-5.46,73,73,0,0,0,0,41.58,105.42,105.42,0,0,0-24.16-5.81,152.72,152.72,0,0,0-21-.81,46.78,46.78,0,0,0-20.09,5.69,70.1,70.1,0,0,0,4.64,20.22q3.72,9.28,9.3,13.7a170.19,170.19,0,0,0,17.19,2.91,119.24,119.24,0,0,0,21.84.11,270.46,270.46,0,0,0,29.5-3.95,117.21,117.21,0,0,1-26,41.59A110.91,110.91,0,0,0,234.75,191a138.22,138.22,0,0,0-18.94-3.95q-17.66,2.1-24.16,4.77T178.17,196.84Z"/><path class="cls-3" d="M332.21,197.07a228,228,0,0,0,9.64-37.17,169.17,169.17,0,0,0,2.21-34.5q-.71-16.84-1.75-31.36t-4.76-19.75c-2.48-3.49-4.84-5.61-7.09-6.39a14.53,14.53,0,0,0-7.08-.58,20.09,20.09,0,0,0-8.36,4,34.62,34.62,0,0,0-8.48,9.17,105.61,105.61,0,0,0-7.67,14.18A95.92,95.92,0,0,0,292.71,113q-2.79-5.34-2.44-21.61T298.06,49A111.11,111.11,0,0,1,323.84,3.08a100.28,100.28,0,0,0,15,6.39q6.84,2.2,21.26,2.9,13.25-.69,20.79-3.13a131.66,131.66,0,0,0,15.45-6.16A112.48,112.48,0,0,1,421.89,49q7.42,26.15,7.9,42.4T427,112.74q-1.87-9.76-9.18-23.82T405.39,71.27q-5.11-3.6-9.06-4.18a16.06,16.06,0,0,0-7.67.69q-3.72,1.29-7.08,6.39T377.28,94q-.93,14.74-1.74,31.71A145.86,145.86,0,0,0,378,160a313.8,313.8,0,0,0,9.52,37c-4-1.23-7.75-2.44-11.15-3.6s-8.83-2.05-16.26-2.67q-11.16.93-16.5,2.79T332.21,197.07Z"/></g></g></svg>