<svg xmlns="http://www.w3.org/2000/svg" viewBox="0 0 400.31 105.47"><defs><style>.cls-1{stroke:#000;stroke-miterlimit:10;}</style></defs><g id="Layer_2" data-name="Layer 2"><g id="Art"><path class="cls-1" d="M12.75,103.1A61.48,61.48,0,0,1,3.3,84.25a66.89,66.89,0,0,1-2.75-22A99.28,99.28,0,0,1,4.3,39.79a64.47,64.47,0,0,1,10.45-20.7,67.7,67.7,0,0,0,6.8,2.6,44.34,44.34,0,0,0,8.8,1.4,33.71,33.71,0,0,0,8.35-1.5A48.2,48.2,0,0,0,44.35,19a55.12,55.12,0,0,1,4.2,6.1c1.13,1.93,2.14,3.84,3,5.7a23.6,23.6,0,0,1,1.85,6.75,31.35,31.35,0,0,1-.3,9.25,11.67,11.67,0,0,1-4.3,7.9,20.42,20.42,0,0,1-7.7,3.61q-4.24,1-6.9,1.35a17,17,0,0,0-5.9,2.15,7.92,7.92,0,0,0-4.1,5,14.64,14.64,0,0,0-.4,6.1A22,22,0,0,0,25.75,79c1,2.1,2.06,4.25,3.2,6.45a21.71,21.71,0,0,0-5.05,1.1,13.39,13.39,0,0,0-4.6,3,17,17,0,0,0-3.9,5.75A50.47,50.47,0,0,0,12.75,103.1Zm25.1-56.41v-1.6A21.14,21.14,0,0,0,36,38.54a6.27,6.27,0,0,0-5.45-3.85,6.49,6.49,0,0,0-5.4,3.85,15.86,15.86,0,0,0-1.8,6.55v1.6a18.94,18.94,0,0,1,7.2-1.6A17.47,17.47,0,0,1,37.85,46.69Z"/><path class="cls-1" d="M91,72.3a11.64,11.64,0,0,0-8.2,2,11.8,11.8,0,0,0-4.2,5,20.26,20.26,0,0,0-1.2,6.2A27.44,27.44,0,0,1,64.85,71.9q-4.09-9.21-4.7-22a85.84,85.84,0,0,1,3.4-25.75A87,87,0,0,1,74.56.79a17.37,17.37,0,0,0,4.8,3.35c1.86.9,4.36,1.11,7.5.65q-1.71,6.9-3.2,14.6a113,113,0,0,0-1.9,16.7,70.93,70.93,0,0,0,1.3,17.4Q84.76,61.89,91,72.3Z"/><path class="cls-1" d="M107.86,84.7a25,25,0,0,1-7.6-10,31.53,31.53,0,0,1-2.55-11,22,22,0,0,1,1-8.21,13.64,13.64,0,0,1,4.75-5.8,19.35,19.35,0,0,1,9.05-3.55,104.37,104.37,0,0,1,11.35-1l6,.5a24.62,24.62,0,0,0-.75-6,11.91,11.91,0,0,0-1.65-3.7,5.82,5.82,0,0,0-3.6-2,7.47,7.47,0,0,0-4.6,1.5,14.7,14.7,0,0,0-2.9,4.9,13.35,13.35,0,0,0-6-.8,12.45,12.45,0,0,0-6,1.65,37.52,37.52,0,0,0-6.2,5.55A70.62,70.62,0,0,1,101,34.49a51.32,51.32,0,0,1,7.65-15.4,26.06,26.06,0,0,0,6.4,2.8,79.92,79.92,0,0,0,8.4,1.6,68.28,68.28,0,0,0,8.7-1.65,42.81,42.81,0,0,0,6.91-2.75,60.26,60.26,0,0,1,7.1,15.3,90.45,90.45,0,0,1,3.3,16.7,60.85,60.85,0,0,1-.9,18.21q-1.8,8.6-9.5,15.4a13.39,13.39,0,0,0-5.51-2.85,59.18,59.18,0,0,0-9.7-1.55A48.6,48.6,0,0,0,114,81.85,23.18,23.18,0,0,0,107.86,84.7Zm16-13.2a13.1,13.1,0,0,0,5.35-2.4,6.47,6.47,0,0,0,2.2-3.75,8.7,8.7,0,0,0-.85-5.2A5,5,0,0,0,126,57a19.12,19.12,0,0,0-5.95.5,7.81,7.81,0,0,0-3.9,2.1A4.59,4.59,0,0,0,115,63.1a12.16,12.16,0,0,0,.95,3.95,9.2,9.2,0,0,0,2.4,3.25Q120,71.7,123.86,71.5Z"/><path class="cls-1" d="M172,103.9a60.05,60.05,0,0,0-3.45-7.7,12.73,12.73,0,0,0-5.4-5.85,7.67,7.67,0,0,0-5.55-.85,88.19,88.19,0,0,1,6.4-14,83.23,83.23,0,0,0,6.1-13.15,15.54,15.54,0,0,0-3.15-5.2,20.78,20.78,0,0,0-5.5-4.66,18.33,18.33,0,0,0-5-2.15q0-11.19,2.45-18.55a26.12,26.12,0,0,1,9.75-12.75,53.25,53.25,0,0,0,.5,10.7,47.61,47.61,0,0,0,3.45,11.75,32.74,32.74,0,0,0,6.95,10.55q2.59-3.69,4.9-7.15a13.68,13.68,0,0,0,2.3-7.75L185,24.69a11,11,0,0,0,6.3-.5,7.78,7.78,0,0,0,4.9-5.1,41.72,41.72,0,0,1,6.6,10.4,40,40,0,0,1,3.5,12.4,197.7,197.7,0,0,0-20,29A175.9,175.9,0,0,0,172,103.9Z"/><path class="cls-1" d="M223.28,84.7a28.27,28.27,0,0,1-9.2-15.35,59.06,59.06,0,0,1-.8-18.26,66.68,66.68,0,0,1,2.65-16.2,53.25,53.25,0,0,1,7.75-15.8,30.36,30.36,0,0,0,7,3.2,34.74,34.74,0,0,0,8.6.8,26.43,26.43,0,0,0,8.35-1.35q3-1.15,7.25-2.65a71.26,71.26,0,0,1,6.9,15.45,68.78,68.78,0,0,1,2.9,13.1,116,116,0,0,1,.2,14.26q-7-2.4-12.8-3.85a36.13,36.13,0,0,0-11.15-1.11,18.83,18.83,0,0,0-9.85,3.56,19.3,19.3,0,0,0,5.25,5.8q3.34,2.49,10.8,2.35a75.7,75.7,0,0,0,17.35-2.75,48.53,48.53,0,0,1-3,10.15q-1.65,3.65-7,8.65A16.07,16.07,0,0,0,249,81.8a44.52,44.52,0,0,0-9.35-1.5,52.45,52.45,0,0,0-10.45,1.6A24.89,24.89,0,0,0,223.28,84.7Zm23.5-38.81v-1.6a21.14,21.14,0,0,0-1.85-6.55,6.27,6.27,0,0,0-5.45-3.85,6.49,6.49,0,0,0-5.4,3.85,16,16,0,0,0-1.8,6.55v1.6a19,19,0,0,1,7.2-1.6A17.47,17.47,0,0,1,246.78,45.89Z"/><path class="cls-1" d="M281.79,84.8A29.28,29.28,0,0,1,273,69.6a59.67,59.67,0,0,1-.85-18.51,87.55,87.55,0,0,1,3.05-16.7,55.54,55.54,0,0,1,7.36-15.3,13.6,13.6,0,0,0,5.85,3.8,12,12,0,0,0,6.85.2L292.69,34a81.27,81.27,0,0,1,7.5-8.1q2.9-2.59,7.7-6.1A21.9,21.9,0,0,1,313.84,24a24.79,24.79,0,0,1,4.75,7.2,25,25,0,0,1,2.35,9.1,17.61,17.61,0,0,1-1.85,8.85,12.09,12.09,0,0,0-3.45-4.85,14.92,14.92,0,0,0-5.7-3.1,14.7,14.7,0,0,0-6.3-.5,16.12,16.12,0,0,0-5.5,1.8,15.85,15.85,0,0,0-4.6,4,15.25,15.25,0,0,0-3,6.3,25.93,25.93,0,0,0-.75,6.75q.09,3.1,1.6,14a12.44,12.44,0,0,0-6.25,3.7A15,15,0,0,0,281.79,84.8Z"/><path class="cls-1" d="M362.4,85.1A32.44,32.44,0,0,1,356,70.7a41.48,41.48,0,0,0,5.9-1.6q2.79-1,5.6-6t3.2-13.61q.41-8.6.05-15.85c-.23-4.83-.77-7.88-1.6-9.15a4.81,4.81,0,0,0-3.55-2.2q-2.31-.3-5.55,2a26.6,26.6,0,0,0-6.25,6.6,63.81,63.81,0,0,1,.6-9.5,48.36,48.36,0,0,1,2.85-9.7A27.54,27.54,0,0,1,364,1.59a35,35,0,0,0,5.7,2.8A33.55,33.55,0,0,0,378,6a23.2,23.2,0,0,0,7.5-1.65q2.29-1.16,5.7-3.25,5.51,8.4,6.4,14.9a14.15,14.15,0,0,0-5.2,1.25,9.79,9.79,0,0,0-3.75,3.2,18.51,18.51,0,0,0-2.55,5.5,36.69,36.69,0,0,0-1.15,9.2q-.15,5.85.1,14.55T388,63.3q2.7,4.89,5.6,6a17.17,17.17,0,0,0,6.1,1.1,35.57,35.57,0,0,1-6.1,14.3l-6.3-2.4a36.5,36.5,0,0,0-9.3-1.6,36,36,0,0,0-9.75,1.7A53.88,53.88,0,0,0,362.4,85.1Z"/></g></g></svg>