<svg xmlns="http://www.w3.org/2000/svg" viewBox="0 0 445.94 276.33"><defs><style>.cls-1{fill:none;}</style></defs><g id="Layer_2" data-name="Layer 2"><g id="Art"><rect class="cls-1" width="445.94" height="276.33"/><path d="M87.84,118.31a43.23,43.23,0,0,1-6.64-13.26,46.89,46.89,0,0,1-1.94-15.43A69.5,69.5,0,0,1,81.9,73.8a45.35,45.35,0,0,1,7.35-14.56A45.58,45.58,0,0,0,94,61.07a31.92,31.92,0,0,0,6.19,1A33.56,33.56,0,0,0,106.58,61,24,24,0,0,0,111,59.17a39.74,39.74,0,0,1,3,4.29c.79,1.36,1.5,2.7,2.11,4a16.86,16.86,0,0,1,1.3,4.75,22.75,22.75,0,0,1-.21,6.5,8.25,8.25,0,0,1-3,5.56,14.33,14.33,0,0,1-5.9,2.53c-2.32.47-4.11.78-5.35,1a11.85,11.85,0,0,0-4.15,1.51,5.58,5.58,0,0,0-2.88,3.48A10.34,10.34,0,0,0,95.61,97,15.55,15.55,0,0,0,97,101.33c.7,1.47,1.45,3,2.25,4.53a15.2,15.2,0,0,0-3.55.78,9.45,9.45,0,0,0-3.23,2.1,12.05,12.05,0,0,0-2.75,4.05A37.15,37.15,0,0,0,87.84,118.31Zm17.65-39.66V77.53a14.92,14.92,0,0,0-1.3-4.61,4.42,4.42,0,0,0-3.83-2.71,4.57,4.57,0,0,0-3.8,2.71,11.29,11.29,0,0,0-1.27,4.61v1.12a13.24,13.24,0,0,1,5.07-1.12A12.19,12.19,0,0,1,105.49,78.65Z"/><path d="M143.81,109.31a8.23,8.23,0,0,0-5.77,1.4,8.38,8.38,0,0,0-2.95,3.52,14.25,14.25,0,0,0-.84,4.36,19.24,19.24,0,0,1-8.79-9.56,42.88,42.88,0,0,1-3.31-15.47,60.65,60.65,0,0,1,2.39-18.11A61.42,61.42,0,0,1,132.28,59a12.18,12.18,0,0,0,3.37,2.36,9.23,9.23,0,0,0,5.28.46q-1.2,4.84-2.25,10.26a79.62,79.62,0,0,0-1.34,11.74,50.49,50.49,0,0,0,.91,12.24A43.34,43.34,0,0,0,143.81,109.31Z"/><path d="M155.69,118a17.53,17.53,0,0,1-5.34-7.07,22,22,0,0,1-1.79-7.73,15.26,15.26,0,0,1,.7-5.77,9.58,9.58,0,0,1,3.34-4.08A13.47,13.47,0,0,1,159,90.89a72.16,72.16,0,0,1,8-.71l4.22.35a17.48,17.48,0,0,0-.53-4.21,8.35,8.35,0,0,0-1.16-2.61,4.13,4.13,0,0,0-2.53-1.4,5.12,5.12,0,0,0-3.23,1,10.17,10.17,0,0,0-2,3.45,9.33,9.33,0,0,0-4.19-.57,8.82,8.82,0,0,0-4.18,1.16,26.77,26.77,0,0,0-4.36,3.91,49.8,49.8,0,0,1,1.94-8.58,36,36,0,0,1,5.37-10.83,18.21,18.21,0,0,0,4.5,2A54.24,54.24,0,0,0,166.66,75a47.94,47.94,0,0,0,6.12-1.16,29.57,29.57,0,0,0,4.85-1.93,42.13,42.13,0,0,1,5,10.76,62.9,62.9,0,0,1,2.32,11.74,42.93,42.93,0,0,1-.63,12.8A19.78,19.78,0,0,1,177.63,118a9.53,9.53,0,0,0-3.87-2,41.87,41.87,0,0,0-6.82-1.09A34.68,34.68,0,0,0,160,116,16.11,16.11,0,0,0,155.69,118Zm11.25-9.29a9.24,9.24,0,0,0,3.76-1.68,4.57,4.57,0,0,0,1.55-2.64,6.17,6.17,0,0,0-.6-3.66,3.5,3.5,0,0,0-3.23-2.21,13.34,13.34,0,0,0-4.19.35,5.46,5.46,0,0,0-2.74,1.48,3.2,3.2,0,0,0-.77,2.46,8.39,8.39,0,0,0,.67,2.78,6.29,6.29,0,0,0,1.68,2.28Q164.2,108.89,166.94,108.74Z"/><path d="M200.76,131.53a42.34,42.34,0,0,0-2.42-5.42,9,9,0,0,0-3.8-4.11,5.37,5.37,0,0,0-3.9-.6,61.79,61.79,0,0,1,4.5-9.81,59.77,59.77,0,0,0,4.29-9.24,11,11,0,0,0-2.22-3.66,14.53,14.53,0,0,0-3.87-3.27,12.63,12.63,0,0,0-3.55-1.51,41.75,41.75,0,0,1,1.73-13,18.33,18.33,0,0,1,6.85-9,37.61,37.61,0,0,0,.35,7.52,34.14,34.14,0,0,0,2.43,8.27A22.89,22.89,0,0,0,206,95.1c1.21-1.73,2.36-3.41,3.44-5a9.61,9.61,0,0,0,1.62-5.45l-1.2-8.79a7.77,7.77,0,0,0,4.43-.35,5.52,5.52,0,0,0,3.45-3.59,29.8,29.8,0,0,1,4.64,7.31,28.45,28.45,0,0,1,2.46,8.72,138.75,138.75,0,0,0-14,20.39A124.24,124.24,0,0,0,200.76,131.53Z"/><path d="M236.83,118a19.91,19.91,0,0,1-6.47-10.8,41.61,41.61,0,0,1-.56-12.83A47,47,0,0,1,231.66,83a37.8,37.8,0,0,1,5.45-11.11A21.33,21.33,0,0,0,242,74.15a24,24,0,0,0,6,.56,18.55,18.55,0,0,0,5.87-.95c1.39-.53,3.09-1.16,5.1-1.86a49.86,49.86,0,0,1,4.85,10.86,47.69,47.69,0,0,1,2,9.22,81.27,81.27,0,0,1,.14,10q-4.92-1.68-9-2.7a25.52,25.52,0,0,0-7.84-.78,13.27,13.27,0,0,0-6.92,2.5,13.42,13.42,0,0,0,3.69,4.08q2.36,1.75,7.59,1.65a53,53,0,0,0,12.2-1.93,34.4,34.4,0,0,1-2.07,7.13,21.13,21.13,0,0,1-5,6.09,11.43,11.43,0,0,0-3.83-2,31.89,31.89,0,0,0-6.58-1.06,36.65,36.65,0,0,0-7.34,1.13A17.25,17.25,0,0,0,236.83,118Zm16.53-27.29V89.62a15,15,0,0,0-1.3-4.61,4.43,4.43,0,0,0-3.84-2.7,4.56,4.56,0,0,0-3.79,2.7,11.33,11.33,0,0,0-1.27,4.61v1.12a13.38,13.38,0,0,1,5.06-1.12A12.39,12.39,0,0,1,253.36,90.74Z"/><path d="M278,118.1a20.61,20.61,0,0,1-6.16-10.69,41.9,41.9,0,0,1-.59-13,61.08,61.08,0,0,1,2.14-11.74,38.82,38.82,0,0,1,5.17-10.76,9.52,9.52,0,0,0,4.11,2.67,8.32,8.32,0,0,0,4.82.14l-1.83,7.67a58.55,58.55,0,0,1,5.27-5.7q2-1.83,5.42-4.29a15.47,15.47,0,0,1,4.18,3,19.22,19.22,0,0,1,5,11.46,12.36,12.36,0,0,1-1.3,6.23,8.52,8.52,0,0,0-2.42-3.42,10.49,10.49,0,0,0-4-2.17,10.25,10.25,0,0,0-4.43-.36,11.45,11.45,0,0,0-3.87,1.27,11,11,0,0,0-3.23,2.81,10.8,10.8,0,0,0-2.11,4.43,18.24,18.24,0,0,0-.53,4.75c.05,1.45.42,4.73,1.13,9.84a8.84,8.84,0,0,0-4.4,2.6A10.59,10.59,0,0,0,278,118.1Z"/><path d="M358,118.31a25.55,25.55,0,0,0-1.83-5.52,12.08,12.08,0,0,0-2.92-4.08,12.23,12.23,0,0,0-3.09-2.11,8.67,8.67,0,0,0-3.13-.67A29.64,29.64,0,0,0,349.86,99a35.11,35.11,0,0,0,1.3-7.14A42.92,42.92,0,0,1,341,90.71a17.82,17.82,0,0,1-7.77-3.8,11.8,11.8,0,0,1-3.84-6,19.62,19.62,0,0,1-.35-7.25,30.38,30.38,0,0,1,2-7.48,29.78,29.78,0,0,1,4.08-7,10,10,0,0,0,4.78,2.47,20.63,20.63,0,0,0,6.33.56,20.42,20.42,0,0,0-4.18,6.08,15.88,15.88,0,0,0-1.27,5.34,9.27,9.27,0,0,0,.84,4.47,6.27,6.27,0,0,0,3.48,3q2.53,1,6.26-.81a44.51,44.51,0,0,0-.14-9.35,38,38,0,0,0-2-8.72,11.58,11.58,0,0,0,4.43-1A13.05,13.05,0,0,0,357.14,59a51.22,51.22,0,0,1,7.45,16.46,70.41,70.41,0,0,1,2.11,18.42,43.27,43.27,0,0,1-2.5,12.65A52.25,52.25,0,0,1,358,118.31Z"/><path d="M132.88,217.36a43.09,43.09,0,0,1-6.65-13.25,46.93,46.93,0,0,1-1.93-15.43,70,70,0,0,1,2.63-15.82,45.55,45.55,0,0,1,7.35-14.56,46.44,46.44,0,0,0,4.78,1.83,31.3,31.3,0,0,0,6.19,1,23.67,23.67,0,0,0,5.87-1.05,34,34,0,0,0,4-1.83,38.78,38.78,0,0,1,3,4.29c.79,1.36,1.5,2.7,2.11,4a16.78,16.78,0,0,1,1.3,4.74,22.46,22.46,0,0,1-.21,6.51,8.24,8.24,0,0,1-3,5.55,14.16,14.16,0,0,1-5.41,2.53c-2,.47-3.61.79-4.85.95a12.19,12.19,0,0,0-4.15,1.51,5.6,5.6,0,0,0-2.88,3.48,10.35,10.35,0,0,0-.29,4.29,15.38,15.38,0,0,0,1.38,4.29q1,2.22,2.25,4.54a15.62,15.62,0,0,0-3.55.77,9.58,9.58,0,0,0-3.24,2.11,12.13,12.13,0,0,0-2.74,4A35.69,35.69,0,0,0,132.88,217.36Zm17.64-39.65v-1.13a14.59,14.59,0,0,0-1.3-4.6,4.4,4.4,0,0,0-3.83-2.71,4.58,4.58,0,0,0-3.8,2.71,11.39,11.39,0,0,0-1.26,4.6v1.13a13.2,13.2,0,0,1,5.06-1.13A12.2,12.2,0,0,1,150.52,177.71Z"/><path d="M173.52,204.5a20.61,20.61,0,0,1-6.16-10.69,41.9,41.9,0,0,1-.59-13,61.08,61.08,0,0,1,2.14-11.74,39.11,39.11,0,0,1,5.17-10.76,9.52,9.52,0,0,0,4.11,2.67,8.32,8.32,0,0,0,4.82.14l-1.83,7.67a58.55,58.55,0,0,1,5.27-5.7q2-1.83,5.42-4.29a15.47,15.47,0,0,1,4.18,3,19.22,19.22,0,0,1,5,11.46,12.3,12.3,0,0,1-1.3,6.22,8.46,8.46,0,0,0-2.42-3.41,10.49,10.49,0,0,0-4-2.17,10.24,10.24,0,0,0-4.43-.36,11.45,11.45,0,0,0-3.87,1.27,11.14,11.14,0,0,0-3.23,2.81,10.8,10.8,0,0,0-2.11,4.43,18.24,18.24,0,0,0-.53,4.75c.05,1.45.42,4.73,1.13,9.84a8.84,8.84,0,0,0-4.4,2.6A10.59,10.59,0,0,0,173.52,204.5Z"/><path d="M213.17,204.43a19.91,19.91,0,0,1-6.47-10.8,41.61,41.61,0,0,1-.56-12.83A47,47,0,0,1,208,169.41a37.8,37.8,0,0,1,5.45-11.11,21.33,21.33,0,0,0,4.93,2.25,24,24,0,0,0,6,.56,18.55,18.55,0,0,0,5.87-1c1.39-.53,3.09-1.16,5.1-1.86a49.65,49.65,0,0,1,4.85,10.86,47.69,47.69,0,0,1,2,9.22,81.27,81.27,0,0,1,.14,10q-4.92-1.68-9-2.7a25.52,25.52,0,0,0-7.84-.78,13.27,13.27,0,0,0-6.92,2.5,13.42,13.42,0,0,0,3.69,4.08q2.35,1.75,7.59,1.65a53,53,0,0,0,12.2-1.93,34.59,34.59,0,0,1-2.07,7.13,21.13,21.13,0,0,1-5,6.09,11.43,11.43,0,0,0-3.83-2,31.89,31.89,0,0,0-6.58-1.06,36.65,36.65,0,0,0-7.34,1.13A17.25,17.25,0,0,0,213.17,204.43Zm16.53-27.29V176a14.75,14.75,0,0,0-1.31-4.61,4.4,4.4,0,0,0-3.83-2.7,4.56,4.56,0,0,0-3.79,2.7A11.33,11.33,0,0,0,219.5,176v1.12a13.38,13.38,0,0,1,5.06-1.12A12.39,12.39,0,0,1,229.7,177.14Z"/><path d="M254,204.43a17.4,17.4,0,0,1-5.41-7,24.1,24.1,0,0,1-1.34-10.47,16.38,16.38,0,0,0,3.1,2.07,8.9,8.9,0,0,0,3.79.78,12.47,12.47,0,0,0,5.42-1.45,22.37,22.37,0,0,0,.49,7,9.72,9.72,0,0,1,3.87-.81,20.78,20.78,0,0,1,4.71.31,7.55,7.55,0,0,0,.49-3.34,6.24,6.24,0,0,0-1.26-2.46,25.76,25.76,0,0,0-3.73-3.58,67.36,67.36,0,0,0-7.31-5.1,23.39,23.39,0,0,1-6.3-5.1,7.69,7.69,0,0,1-1.75-3.62,13.57,13.57,0,0,1,1-4.71,38,38,0,0,1,4.79-8.58,16.68,16.68,0,0,0,4.5,2.08,49.57,49.57,0,0,0,6.11,1,36.17,36.17,0,0,0,6.12-1.19,30.91,30.91,0,0,0,4.64-1.9,44.69,44.69,0,0,1,3.87,8.19,16.83,16.83,0,0,1,1.19,6.12,38.52,38.52,0,0,1-.63,4.82,12.61,12.61,0,0,0-5.55-3.45,6.5,6.5,0,0,0-5,.42q-.42-1.18-.84-2.25a9.11,9.11,0,0,0-1.16-2,4.31,4.31,0,0,0-2.57-1.4,5.14,5.14,0,0,0-3.23,1,8.65,8.65,0,0,0-1.83,3.73q6,3.66,11,7.21a50.57,50.57,0,0,1,7.38,6,11.66,11.66,0,0,1,3,4.82,11.88,11.88,0,0,1,.25,5.1q-.42,2.7-5.91,7.84a9.5,9.5,0,0,0-3.8-2,40.22,40.22,0,0,0-6.89-1.09,39.09,39.09,0,0,0-6.85,1.13A16.59,16.59,0,0,0,254,204.43Z"/><path d="M293.54,204.43a17.4,17.4,0,0,1-5.41-7,24.1,24.1,0,0,1-1.34-10.47,16.66,16.66,0,0,0,3.09,2.07,8.94,8.94,0,0,0,3.8.78,12.43,12.43,0,0,0,5.41-1.45,22.67,22.67,0,0,0,.5,7,9.62,9.62,0,0,1,3.86-.81,20.78,20.78,0,0,1,4.71.31,7.59,7.59,0,0,0,.5-3.34,6.29,6.29,0,0,0-1.27-2.46,24.73,24.73,0,0,0-3.73-3.58,66.37,66.37,0,0,0-7.31-5.1,23.48,23.48,0,0,1-6.29-5.1,7.72,7.72,0,0,1-1.76-3.62,13.9,13.9,0,0,1,1-4.71,37.84,37.84,0,0,1,4.78-8.58,16.68,16.68,0,0,0,4.5,2.08,49.8,49.8,0,0,0,6.12,1,36.17,36.17,0,0,0,6.12-1.19,31.34,31.34,0,0,0,4.64-1.9,45.27,45.27,0,0,1,3.86,8.19,17.1,17.1,0,0,1,1.2,6.12,40.48,40.48,0,0,1-.63,4.82,12.64,12.64,0,0,0-5.56-3.45,6.48,6.48,0,0,0-5,.42q-.42-1.18-.84-2.25a9.51,9.51,0,0,0-1.16-2,4.34,4.34,0,0,0-2.57-1.4,5.12,5.12,0,0,0-3.23,1,8.65,8.65,0,0,0-1.83,3.73q6,3.66,11,7.21a51.7,51.7,0,0,1,7.38,6,11.77,11.77,0,0,1,3,4.82,12,12,0,0,1,.24,5.1q-.42,2.7-5.9,7.84a9.56,9.56,0,0,0-3.8-2,40.4,40.4,0,0,0-6.89-1.09,39.23,39.23,0,0,0-6.86,1.13A16.52,16.52,0,0,0,293.54,204.43Z"/></g></g></svg>