<svg xmlns="http://www.w3.org/2000/svg" viewBox="0 0 445.94 276.33"><defs><style>.cls-1{fill:none;}</style></defs><g id="Layer_2" data-name="Layer 2"><g id="Art"><rect class="cls-1" width="445.94" height="276.33"/><path d="M90.76,118.27A43.06,43.06,0,0,1,84.12,105a47.22,47.22,0,0,1-1.94-15.44,70.14,70.14,0,0,1,2.64-15.82,45.51,45.51,0,0,1,7.35-14.55A46.44,46.44,0,0,0,97,61a31.3,31.3,0,0,0,6.19,1A32.88,32.88,0,0,0,109.5,61,24.38,24.38,0,0,0,114,59.14a40,40,0,0,1,3,4.29c.8,1.36,1.5,2.69,2.11,4a16.78,16.78,0,0,1,1.3,4.74,22.12,22.12,0,0,1-.21,6.51,8.24,8.24,0,0,1-3,5.55,14.33,14.33,0,0,1-5.9,2.53q-3.48.7-5.35,1a12.15,12.15,0,0,0-4.14,1.51,5.62,5.62,0,0,0-2.89,3.48A10.34,10.34,0,0,0,98.53,97a15.34,15.34,0,0,0,1.37,4.29q1.06,2.22,2.25,4.54a15.86,15.86,0,0,0-3.55.77,9.64,9.64,0,0,0-3.23,2.11,12,12,0,0,0-2.74,4A36.78,36.78,0,0,0,90.76,118.27Zm17.65-39.65V77.49a14.59,14.59,0,0,0-1.3-4.6,4.41,4.41,0,0,0-3.83-2.71,4.57,4.57,0,0,0-3.8,2.71,11.07,11.07,0,0,0-1.26,4.6v1.13a13.2,13.2,0,0,1,5.06-1.13A12.2,12.2,0,0,1,108.41,78.62Z"/><path d="M146.73,109.27a8.21,8.21,0,0,0-5.76,1.41,8.32,8.32,0,0,0-3,3.51,14.31,14.31,0,0,0-.84,4.36,19.24,19.24,0,0,1-8.79-9.56,43,43,0,0,1-3.31-15.47,60.27,60.27,0,0,1,2.4-18.1A60.94,60.94,0,0,1,135.2,59a12.16,12.16,0,0,0,3.37,2.35,9.06,9.06,0,0,0,5.28.46q-1.2,4.86-2.25,10.27a80.83,80.83,0,0,0-1.34,11.74,49.87,49.87,0,0,0,.92,12.23A42.94,42.94,0,0,0,146.73,109.27Z"/><path d="M158.61,118a17.64,17.64,0,0,1-5.34-7.07,22.19,22.19,0,0,1-1.79-7.73,15.52,15.52,0,0,1,.7-5.77,9.62,9.62,0,0,1,3.34-4.07,13.59,13.59,0,0,1,6.36-2.5,72.2,72.2,0,0,1,8-.7l4.22.35a17.71,17.71,0,0,0-.52-4.22,8.76,8.76,0,0,0-1.16-2.6,4.12,4.12,0,0,0-2.54-1.41,5.2,5.2,0,0,0-3.23,1.06,10.1,10.1,0,0,0-2,3.44,9.32,9.32,0,0,0-4.18-.56,8.61,8.61,0,0,0-4.19,1.16,26.13,26.13,0,0,0-4.36,3.9,50.78,50.78,0,0,1,1.94-8.58,35.78,35.78,0,0,1,5.38-10.82,18.21,18.21,0,0,0,4.5,2,53.1,53.1,0,0,0,5.9,1.13,47.94,47.94,0,0,0,6.12-1.16,30.13,30.13,0,0,0,4.85-1.93,42.06,42.06,0,0,1,5,10.75,63,63,0,0,1,2.32,11.75,42.54,42.54,0,0,1-.63,12.79A19.78,19.78,0,0,1,180.55,118a9.34,9.34,0,0,0-3.87-2,40.61,40.61,0,0,0-6.82-1.09,33.39,33.39,0,0,0-6.92,1.09A16.4,16.4,0,0,0,158.61,118Zm11.25-9.28a9.15,9.15,0,0,0,3.77-1.69,4.59,4.59,0,0,0,1.54-2.63,6.15,6.15,0,0,0-.6-3.66,3.51,3.51,0,0,0-3.23-2.22,13.24,13.24,0,0,0-4.18.36,5.44,5.44,0,0,0-2.75,1.47,3.22,3.22,0,0,0-.77,2.46,8.33,8.33,0,0,0,.67,2.78,6.35,6.35,0,0,0,1.69,2.29C166.75,108.52,168,108.8,169.86,108.71Z"/><path d="M203.68,131.49a42.27,42.27,0,0,0-2.42-5.41,9,9,0,0,0-3.8-4.12,5.41,5.41,0,0,0-3.9-.59,61.79,61.79,0,0,1,4.5-9.81,57.66,57.66,0,0,0,4.29-9.25,11,11,0,0,0-2.22-3.66,14.64,14.64,0,0,0-3.86-3.26,12.83,12.83,0,0,0-3.55-1.52,41.82,41.82,0,0,1,1.72-13,18.41,18.41,0,0,1,6.85-9,37,37,0,0,0,.36,7.52,33.58,33.58,0,0,0,2.42,8.26A23,23,0,0,0,209,95.07c1.22-1.73,2.36-3.41,3.44-5A9.59,9.59,0,0,0,214,84.59l-1.2-8.79a7.77,7.77,0,0,0,4.43-.35,5.48,5.48,0,0,0,3.45-3.58,29.43,29.43,0,0,1,4.64,7.31,28.38,28.38,0,0,1,2.46,8.72,139,139,0,0,0-14,20.39A124.14,124.14,0,0,0,203.68,131.49Z"/><path d="M239.75,118a19.84,19.84,0,0,1-6.46-10.79,41.31,41.31,0,0,1-.57-12.83A46.49,46.49,0,0,1,234.59,83,37.31,37.31,0,0,1,240,71.87,22,22,0,0,0,245,74.12a24.54,24.54,0,0,0,6,.56,18.62,18.62,0,0,0,5.88-1q2.07-.81,5.09-1.86a49.65,49.65,0,0,1,4.85,10.86,47.77,47.77,0,0,1,2,9.21,79.43,79.43,0,0,1,.14,10q-4.92-1.69-9-2.71a25.47,25.47,0,0,0-7.84-.77,13.22,13.22,0,0,0-6.92,2.5,13.51,13.51,0,0,0,3.69,4.07q2.35,1.77,7.59,1.66a53,53,0,0,0,12.2-1.94,34.52,34.52,0,0,1-2.07,7.14,21,21,0,0,1-5,6.08,11.33,11.33,0,0,0-3.83-2,31.34,31.34,0,0,0-6.57-1,36.82,36.82,0,0,0-7.35,1.12A17.81,17.81,0,0,0,239.75,118Zm16.53-27.28V89.58A14.94,14.94,0,0,0,255,85a4.42,4.42,0,0,0-3.83-2.71,4.57,4.57,0,0,0-3.8,2.71,11.29,11.29,0,0,0-1.27,4.6v1.13a13.44,13.44,0,0,1,5.07-1.13A12.2,12.2,0,0,1,256.28,90.71Z"/><path d="M280.89,118.06a20.54,20.54,0,0,1-6.16-10.69,41.83,41.83,0,0,1-.59-13,61.18,61.18,0,0,1,2.14-11.75,39.06,39.06,0,0,1,5.17-10.75,9.71,9.71,0,0,0,4.11,2.67,8.49,8.49,0,0,0,4.82.14l-1.83,7.66a59.41,59.41,0,0,1,5.27-5.69q2-1.83,5.42-4.29a15.32,15.32,0,0,1,4.18,3,17.36,17.36,0,0,1,3.34,5.06,17.19,17.19,0,0,1,1.65,6.4,12.32,12.32,0,0,1-1.3,6.22,8.3,8.3,0,0,0-2.42-3.41,10.51,10.51,0,0,0-4-2.18,10.39,10.39,0,0,0-4.43-.35,10.44,10.44,0,0,0-7.1,4.08A10.8,10.8,0,0,0,287,95.6a18.6,18.6,0,0,0-.53,4.74c.05,1.46.42,4.74,1.13,9.85a8.81,8.81,0,0,0-4.4,2.6A10.51,10.51,0,0,0,280.89,118.06Z"/><path d="M337.56,118.27a22.83,22.83,0,0,1-4.5-10.12,28.05,28.05,0,0,0,4.15-1.13c1.31-.47,2.62-1.87,3.94-4.22a21.8,21.8,0,0,0,2.25-9.56q.27-6,0-11.14c-.16-3.4-.54-5.55-1.12-6.44a3.38,3.38,0,0,0-2.5-1.54,5.79,5.79,0,0,0-3.9,1.4,18.8,18.8,0,0,0-4.4,4.64,45.11,45.11,0,0,1,.42-6.68,34.25,34.25,0,0,1,2-6.82,19.36,19.36,0,0,1,4.74-7.1,24.78,24.78,0,0,0,4,2,23,23,0,0,0,5.84,1.12,16,16,0,0,0,5.27-1.16c1.08-.53,2.42-1.3,4-2.28q3.87,5.91,4.5,10.48a9.75,9.75,0,0,0-3.66.88A6.8,6.8,0,0,0,356,72.82a12.71,12.71,0,0,0-1.8,3.86,25.81,25.81,0,0,0-.81,6.47c-.07,2.74,0,6.15.07,10.23s.81,7.27,2.08,9.56,2.58,3.71,3.94,4.22a11.87,11.87,0,0,0,4.29.78,25.19,25.19,0,0,1-4.29,10l-4.43-1.69a25.82,25.82,0,0,0-6.54-1.12,25.49,25.49,0,0,0-6.86,1.19A40.62,40.62,0,0,0,337.56,118.27Z"/><path d="M132.81,217.33a43.36,43.36,0,0,1-6.65-13.26,47.16,47.16,0,0,1-1.93-15.43,69.5,69.5,0,0,1,2.64-15.82,45,45,0,0,1,7.35-14.55,47.6,47.6,0,0,0,4.78,1.82,31.16,31.16,0,0,0,6.18,1,24.15,24.15,0,0,0,5.88-1.06,32.94,32.94,0,0,0,4-1.82,41,41,0,0,1,2.95,4.28q1.2,2,2.11,4a17,17,0,0,1,1.3,4.75,22,22,0,0,1-.21,6.5,8.28,8.28,0,0,1-3,5.56,14.42,14.42,0,0,1-5.42,2.53c-2,.47-3.61.78-4.85.95a12.06,12.06,0,0,0-4.15,1.51,5.58,5.58,0,0,0-2.88,3.48,10.34,10.34,0,0,0-.28,4.29,15.55,15.55,0,0,0,1.37,4.29c.7,1.47,1.45,3,2.25,4.53a15.2,15.2,0,0,0-3.55.78,9.37,9.37,0,0,0-3.24,2.11,12,12,0,0,0-2.74,4A35,35,0,0,0,132.81,217.33Zm17.65-39.66v-1.12a14.92,14.92,0,0,0-1.3-4.61,4.42,4.42,0,0,0-3.84-2.71,4.55,4.55,0,0,0-3.79,2.71,11.29,11.29,0,0,0-1.27,4.61v1.12a13.23,13.23,0,0,1,5.06-1.12A12.21,12.21,0,0,1,150.46,177.67Z"/><path d="M173.45,204.46a20.52,20.52,0,0,1-6.15-10.69,41.52,41.52,0,0,1-.6-13A61.18,61.18,0,0,1,168.84,169,39.06,39.06,0,0,1,174,158.27a9.68,9.68,0,0,0,4.12,2.67,8.46,8.46,0,0,0,4.81.14l-1.83,7.66a59.26,59.26,0,0,1,5.28-5.69q2-1.83,5.41-4.29a15.11,15.11,0,0,1,4.18,3,17.17,17.17,0,0,1,3.34,5.06,17.4,17.4,0,0,1,1.66,6.4,12.53,12.53,0,0,1-1.3,6.22,8.42,8.42,0,0,0-2.43-3.41,10.83,10.83,0,0,0-8.44-2.53,10.5,10.5,0,0,0-7.1,4.08A10.8,10.8,0,0,0,179.6,182a18.6,18.6,0,0,0-.53,4.74q.08,2.19,1.13,9.85a8.74,8.74,0,0,0-4.39,2.6A10.52,10.52,0,0,0,173.45,204.46Z"/><path d="M213.11,204.39a19.86,19.86,0,0,1-6.47-10.79,41.62,41.62,0,0,1-.57-12.83,47.46,47.46,0,0,1,1.87-11.39,37.55,37.55,0,0,1,5.45-11.11,22,22,0,0,0,4.92,2.25,24.58,24.58,0,0,0,6.05.56,18.9,18.9,0,0,0,5.87-1q2.07-.81,5.09-1.86a50.17,50.17,0,0,1,4.86,10.86,49.34,49.34,0,0,1,2,9.21,83.45,83.45,0,0,1,.14,10q-4.94-1.7-9-2.71a25.53,25.53,0,0,0-7.84-.77,13.22,13.22,0,0,0-6.93,2.5,13.51,13.51,0,0,0,3.69,4.07q2.35,1.77,7.6,1.66a53,53,0,0,0,12.19-1.94,33.91,33.91,0,0,1-2.07,7.14,21,21,0,0,1-5,6.08,11.33,11.33,0,0,0-3.83-2,31.34,31.34,0,0,0-6.57-1,37.08,37.08,0,0,0-7.35,1.12A17.56,17.56,0,0,0,213.11,204.39Zm16.52-27.28V176a14.67,14.67,0,0,0-1.3-4.6,4.42,4.42,0,0,0-3.83-2.71,4.57,4.57,0,0,0-3.8,2.71,11.29,11.29,0,0,0-1.27,4.6v1.13A13.44,13.44,0,0,1,224.5,176,12.2,12.2,0,0,1,229.63,177.11Z"/><path d="M253.89,204.39a17.39,17.39,0,0,1-5.42-7,24.16,24.16,0,0,1-1.33-10.48,17.26,17.26,0,0,0,3.09,2.08,8.8,8.8,0,0,0,3.8.77,12.58,12.58,0,0,0,5.41-1.44,22.63,22.63,0,0,0,.49,7,9.72,9.72,0,0,1,3.87-.81,20.77,20.77,0,0,1,4.71.32,7.4,7.4,0,0,0,.49-3.34,6.12,6.12,0,0,0-1.26-2.46,25.19,25.19,0,0,0-3.73-3.59,68.8,68.8,0,0,0-7.31-5.1,23.68,23.68,0,0,1-6.29-5.09,7.75,7.75,0,0,1-1.76-3.63,14,14,0,0,1,1-4.71,37.61,37.61,0,0,1,4.78-8.57,16.32,16.32,0,0,0,4.5,2.07,51.41,51.41,0,0,0,6.12,1,37.11,37.11,0,0,0,6.11-1.2,30.82,30.82,0,0,0,4.64-1.89,44.69,44.69,0,0,1,3.87,8.19,17.1,17.1,0,0,1,1.2,6.11,40.36,40.36,0,0,1-.64,4.82A12.49,12.49,0,0,0,274.7,174a6.38,6.38,0,0,0-5,.42c-.28-.8-.56-1.55-.85-2.25a8.54,8.54,0,0,0-1.16-2,4.23,4.23,0,0,0-2.56-1.41,5.24,5.24,0,0,0-3.24,1.06,8.89,8.89,0,0,0-1.83,3.72q6,3.66,11,7.21a52,52,0,0,1,7.39,6,11.65,11.65,0,0,1,3,4.81,11.89,11.89,0,0,1,.25,5.1q-.42,2.72-5.91,7.84a9.39,9.39,0,0,0-3.79-2,39.58,39.58,0,0,0-6.89-1.09,39.22,39.22,0,0,0-6.86,1.12A16.7,16.7,0,0,0,253.89,204.39Z"/><path d="M293.47,204.39a17.37,17.37,0,0,1-5.41-7,24.14,24.14,0,0,1-1.34-10.48,17,17,0,0,0,3.1,2.08,8.76,8.76,0,0,0,3.79.77,12.62,12.62,0,0,0,5.42-1.44,22.33,22.33,0,0,0,.49,7,9.72,9.72,0,0,1,3.87-.81,20.77,20.77,0,0,1,4.71.32,7.55,7.55,0,0,0,.49-3.34,6,6,0,0,0-1.27-2.46,25,25,0,0,0-3.72-3.59,68.8,68.8,0,0,0-7.31-5.1,23.59,23.59,0,0,1-6.3-5.09,7.85,7.85,0,0,1-1.76-3.63,14,14,0,0,1,1-4.71,37.72,37.72,0,0,1,4.79-8.57,16.32,16.32,0,0,0,4.5,2.07,51.16,51.16,0,0,0,6.11,1,37,37,0,0,0,6.12-1.2,30.82,30.82,0,0,0,4.64-1.89,44.69,44.69,0,0,1,3.87,8.19,16.82,16.82,0,0,1,1.19,6.11,38.28,38.28,0,0,1-.63,4.82,12.49,12.49,0,0,0-5.55-3.44,6.41,6.41,0,0,0-5,.42q-.42-1.2-.84-2.25a8.89,8.89,0,0,0-1.16-2,4.26,4.26,0,0,0-2.57-1.41,5.2,5.2,0,0,0-3.23,1.06,8.66,8.66,0,0,0-1.83,3.72q6,3.66,11,7.21a51.75,51.75,0,0,1,7.38,6,11.68,11.68,0,0,1,3,4.81,11.89,11.89,0,0,1,.25,5.1q-.42,2.72-5.91,7.84a9.36,9.36,0,0,0-3.8-2,39.25,39.25,0,0,0-6.89-1.09,39.08,39.08,0,0,0-6.85,1.12A16.76,16.76,0,0,0,293.47,204.39Z"/></g></g></svg>