<svg xmlns="http://www.w3.org/2000/svg" viewBox="0 0 589.29 95"><g id="Layer_2" data-name="Layer 2"><g id="Art"><path d="M11.28,77.68a56.56,56.56,0,0,1-8.7-17.37A61.75,61.75,0,0,1,0,40.08,91.31,91.31,0,0,1,3.5,19.35,59.27,59.27,0,0,1,13.13.28a61.92,61.92,0,0,0,6.26,2.39A40.81,40.81,0,0,0,27.5,4a43.49,43.49,0,0,0,8.34-1.38A30.71,30.71,0,0,0,41.69.18,53.9,53.9,0,0,1,45.56,5.8c1,1.79,2,3.54,2.76,5.26A22,22,0,0,1,50,17.28a29.1,29.1,0,0,1-.28,8.52,10.79,10.79,0,0,1-4,7.28,18.92,18.92,0,0,1-7.74,3.32c-3,.61-5.38,1-7,1.24a16,16,0,0,0-5.44,2,7.33,7.33,0,0,0-3.78,4.56,13.7,13.7,0,0,0-.37,5.62,20.23,20.23,0,0,0,1.8,5.62q1.38,2.91,2.95,5.95a20.16,20.16,0,0,0-4.65,1,12.36,12.36,0,0,0-4.24,2.76,15.93,15.93,0,0,0-3.6,5.3A48.33,48.33,0,0,0,11.28,77.68Zm23.13-52V24.23a19.28,19.28,0,0,0-1.7-6,5.8,5.8,0,0,0-5-3.55,6,6,0,0,0-5,3.55,14.67,14.67,0,0,0-1.66,6v1.48a17.61,17.61,0,0,1,6.63-1.48A16,16,0,0,1,34.41,25.71Z"/><path d="M84.63,65.88a10.82,10.82,0,0,0-7.56,1.84,11.05,11.05,0,0,0-3.87,4.61A18.93,18.93,0,0,0,72.1,78,25.2,25.2,0,0,1,60.58,65.51a56.07,56.07,0,0,1-4.33-20.27,78.75,78.75,0,0,1,3.13-23.72A80.08,80.08,0,0,1,69.52,0a16,16,0,0,0,4.42,3.09,11.93,11.93,0,0,0,6.91.6Q79.28,10,77.9,17.14a105.78,105.78,0,0,0-1.75,15.39,65.82,65.82,0,0,0,1.2,16Q78.91,56.3,84.63,65.88Z"/><path d="M100.2,77.31a23,23,0,0,1-7-9.26,28.89,28.89,0,0,1-2.35-10.14,20.2,20.2,0,0,1,.92-7.55A12.44,12.44,0,0,1,96.15,45a17.69,17.69,0,0,1,8.33-3.27,93.75,93.75,0,0,1,10.46-.92l5.53.46a23.2,23.2,0,0,0-.69-5.53,11.18,11.18,0,0,0-1.52-3.41,5.38,5.38,0,0,0-3.32-1.84,6.77,6.77,0,0,0-4.24,1.38A13.39,13.39,0,0,0,108,36.4a12.12,12.12,0,0,0-5.48-.74,11.3,11.3,0,0,0-5.48,1.52,34.32,34.32,0,0,0-5.72,5.11,65.88,65.88,0,0,1,2.54-11.24,47.06,47.06,0,0,1,7-14.19,23.72,23.72,0,0,0,5.89,2.58,74.14,74.14,0,0,0,7.74,1.48,63.83,63.83,0,0,0,8-1.52A39.29,39.29,0,0,0,129,16.86,55.24,55.24,0,0,1,135.49,31a83.38,83.38,0,0,1,3,15.39,56,56,0,0,1-.83,16.77Q136.05,71,129,77.31a12.44,12.44,0,0,0-5.07-2.63,54.88,54.88,0,0,0-8.94-1.43,45.42,45.42,0,0,0-9.07,1.43A21.42,21.42,0,0,0,100.2,77.31Zm14.74-12.17a12.07,12.07,0,0,0,4.93-2.21,6,6,0,0,0,2-3.45,8.07,8.07,0,0,0-.78-4.79,4.64,4.64,0,0,0-4.24-2.91,17.68,17.68,0,0,0-5.48.46,7.24,7.24,0,0,0-3.6,1.94,4.17,4.17,0,0,0-1,3.22,11,11,0,0,0,.87,3.64,8.36,8.36,0,0,0,2.21,3Q111.35,65.33,114.94,65.14Z"/><path d="M159.26,95a53.21,53.21,0,0,0-3.18-7.1,11.76,11.76,0,0,0-5-5.39,7.09,7.09,0,0,0-5.12-.78,81.67,81.67,0,0,1,5.9-12.85,75.92,75.92,0,0,0,5.62-12.12,14.38,14.38,0,0,0-2.9-4.79,19.15,19.15,0,0,0-5.07-4.29,16.69,16.69,0,0,0-4.65-2q0-10.32,2.26-17.09a24.13,24.13,0,0,1,9-11.75,49.25,49.25,0,0,0,.46,9.86,44.11,44.11,0,0,0,3.18,10.83,30.29,30.29,0,0,0,6.4,9.72c1.6-2.27,3.1-4.47,4.52-6.59a12.61,12.61,0,0,0,2.12-7.14L171.24,22a10.17,10.17,0,0,0,5.81-.46,7.18,7.18,0,0,0,4.51-4.7,38.71,38.71,0,0,1,6.08,9.58,37.14,37.14,0,0,1,3.23,11.43,181,181,0,0,0-18.38,26.72A161.94,161.94,0,0,0,159.26,95Z"/><path d="M206.53,77.31a26.07,26.07,0,0,1-8.48-14.15,54.43,54.43,0,0,1-.73-16.81,61.57,61.57,0,0,1,2.44-14.93,49.05,49.05,0,0,1,7.14-14.56,28,28,0,0,0,6.45,2.95,31.88,31.88,0,0,0,7.92.74A24.32,24.32,0,0,0,229,19.3c1.81-.7,4-1.52,6.68-2.44A66.13,66.13,0,0,1,242,31.1a63.92,63.92,0,0,1,2.67,12.07,106.35,106.35,0,0,1,.18,13.13q-6.45-2.22-11.79-3.55a33.16,33.16,0,0,0-10.28-1A17.26,17.26,0,0,0,213.72,55a17.45,17.45,0,0,0,4.84,5.34q3.08,2.31,9.95,2.17a69.37,69.37,0,0,0,16-2.54,44.59,44.59,0,0,1-2.71,9.36q-1.53,3.36-6.5,8a14.72,14.72,0,0,0-5-2.67,41.21,41.21,0,0,0-8.62-1.39A48.31,48.31,0,0,0,212,74.73,22.67,22.67,0,0,0,206.53,77.31Zm21.66-35.75V40.08a19.59,19.59,0,0,0-1.71-6,5.78,5.78,0,0,0-5-3.55,6,6,0,0,0-5,3.55,14.83,14.83,0,0,0-1.66,6v1.48a17.24,17.24,0,0,1,6.64-1.48A16,16,0,0,1,228.19,41.56Z"/><path d="M260.43,77.4a27,27,0,0,1-8.06-14,54.32,54.32,0,0,1-.78-17A80.16,80.16,0,0,1,254.4,31a51.1,51.1,0,0,1,6.77-14.1,12.57,12.57,0,0,0,5.39,3.5,11,11,0,0,0,6.31.19l-2.39,10a75.56,75.56,0,0,1,6.91-7.46q2.67-2.4,7.09-5.62A20.24,20.24,0,0,1,290,21.42a23,23,0,0,1,4.37,6.64,23,23,0,0,1,2.17,8.38,16.33,16.33,0,0,1-1.71,8.16,10.94,10.94,0,0,0-3.18-4.47,13.7,13.7,0,0,0-5.25-2.86,13.46,13.46,0,0,0-5.8-.46,14.91,14.91,0,0,0-5.07,1.66,14.67,14.67,0,0,0-4.24,3.68A14.19,14.19,0,0,0,268.5,48a23.83,23.83,0,0,0-.69,6.22q.09,2.85,1.47,12.9a11.5,11.5,0,0,0-5.76,3.41A14,14,0,0,0,260.43,77.4Z"/><path d="M336.54,77.4a27,27,0,0,1-8.06-14,54.32,54.32,0,0,1-.78-17A80.16,80.16,0,0,1,330.51,31a51.1,51.1,0,0,1,6.77-14.1,12.57,12.57,0,0,0,5.39,3.5,11,11,0,0,0,6.31.19l-2.39,10a75.56,75.56,0,0,1,6.91-7.46q2.67-2.4,7.09-5.62a20.24,20.24,0,0,1,5.49,3.91,23,23,0,0,1,4.37,6.64,23,23,0,0,1,2.17,8.38,16.33,16.33,0,0,1-1.71,8.16,10.94,10.94,0,0,0-3.18-4.47,13.7,13.7,0,0,0-5.25-2.86,13.46,13.46,0,0,0-5.8-.46,14.91,14.91,0,0,0-5.07,1.66,14.67,14.67,0,0,0-4.24,3.68A14.19,14.19,0,0,0,344.61,48a23.41,23.41,0,0,0-.69,6.22q.09,2.85,1.47,12.9a11.5,11.5,0,0,0-5.76,3.41A13.88,13.88,0,0,0,336.54,77.4Z"/><path d="M388.51,77.31A26,26,0,0,1,380,63.16a54.11,54.11,0,0,1-.74-16.81,61.57,61.57,0,0,1,2.44-14.93,49.05,49.05,0,0,1,7.14-14.56,28,28,0,0,0,6.45,2.95,31.88,31.88,0,0,0,7.92.74A24.32,24.32,0,0,0,411,19.3c1.81-.7,4-1.52,6.68-2.44A66.13,66.13,0,0,1,424,31.1a63.92,63.92,0,0,1,2.67,12.07,106.35,106.35,0,0,1,.18,13.13q-6.45-2.22-11.79-3.55a33.13,33.13,0,0,0-10.27-1A17.26,17.26,0,0,0,395.7,55a17.57,17.57,0,0,0,4.84,5.34q3.07,2.31,9.95,2.17a69.37,69.37,0,0,0,16-2.54,44.59,44.59,0,0,1-2.71,9.36q-1.53,3.36-6.5,8a14.72,14.72,0,0,0-5-2.67,41.21,41.21,0,0,0-8.62-1.39A48.31,48.31,0,0,0,394,74.73,22.67,22.67,0,0,0,388.51,77.31Zm21.66-35.75V40.08a19.59,19.59,0,0,0-1.71-6,5.78,5.78,0,0,0-5-3.55,6,6,0,0,0-5,3.55,15,15,0,0,0-1.66,6v1.48a17.24,17.24,0,0,1,6.64-1.48A16,16,0,0,1,410.17,41.56Z"/><path d="M442.14,77.31a23,23,0,0,1-7-9.26,28.89,28.89,0,0,1-2.35-10.14,20,20,0,0,1,.92-7.55A12.48,12.48,0,0,1,438.08,45a17.73,17.73,0,0,1,8.34-3.27,93.75,93.75,0,0,1,10.46-.92l5.53.46a23.2,23.2,0,0,0-.69-5.53,11.18,11.18,0,0,0-1.52-3.41,5.41,5.41,0,0,0-3.32-1.84,6.75,6.75,0,0,0-4.24,1.38A13.39,13.39,0,0,0,450,36.4a12.12,12.12,0,0,0-5.48-.74A11.27,11.27,0,0,0,439,37.18a34.32,34.32,0,0,0-5.72,5.11,65.88,65.88,0,0,1,2.54-11.24,47.06,47.06,0,0,1,7.05-14.19,23.72,23.72,0,0,0,5.89,2.58,74.14,74.14,0,0,0,7.74,1.48,64.2,64.2,0,0,0,8-1.52,39.29,39.29,0,0,0,6.36-2.54A55.93,55.93,0,0,1,477.43,31a83.38,83.38,0,0,1,3,15.39,56,56,0,0,1-.83,16.77Q478,71,470.89,77.31a12.44,12.44,0,0,0-5.07-2.63,54.88,54.88,0,0,0-8.94-1.43,45.3,45.3,0,0,0-9.07,1.43A21.42,21.42,0,0,0,442.14,77.31Zm14.74-12.17a12.07,12.07,0,0,0,4.93-2.21,6,6,0,0,0,2-3.45,8.09,8.09,0,0,0-.79-4.79,4.61,4.61,0,0,0-4.23-2.91,17.77,17.77,0,0,0-5.49.46,7.25,7.25,0,0,0-3.59,1.94,4.13,4.13,0,0,0-1,3.22A11,11,0,0,0,449.6,61a8.36,8.36,0,0,0,2.21,3Q453.3,65.33,456.88,65.14Z"/><path d="M526.63,77.68a28.66,28.66,0,0,0-5.34-2.54,26.31,26.31,0,0,0-6-1.38,15.85,15.85,0,0,0-6.17.6,32.74,32.74,0,0,0-7.14,3.32l-7.37-6.27a38.43,38.43,0,0,1-5.12-6.63,16,16,0,0,1-2.25-7.19,24.49,24.49,0,0,1,1.47-10.51A18.17,18.17,0,0,1,492,42.15c1-.88,2.35-2,4.1-3.45a52.94,52.94,0,0,1,8.57-5.16,66.6,66.6,0,0,1,12.57-4.88q-.36-6.36-1.24-12.3a105.88,105.88,0,0,0-2.72-12.67,14.59,14.59,0,0,0,6.45-.1A7.94,7.94,0,0,0,523.87.37a63.5,63.5,0,0,1,10.6,20.73,81.57,81.57,0,0,1,3.22,23.77A49.1,49.1,0,0,1,535,62.1,63.8,63.8,0,0,1,526.63,77.68ZM507.47,62.56a11,11,0,0,1,4.33-1.1,7.88,7.88,0,0,1,4.14.74,34.67,34.67,0,0,0,2.31-11.06,50.54,50.54,0,0,0-.09-10.32,26.65,26.65,0,0,0-5.86,1.84,20,20,0,0,0-4.46,2.72,12.67,12.67,0,0,0-2.91,3.32,8,8,0,0,0-.87,4.65Q504.24,56.22,507.47,62.56Z"/><path d="M557.68,95a54.34,54.34,0,0,0-3.17-7.1,11.78,11.78,0,0,0-5-5.39,7.06,7.06,0,0,0-5.11-.78,81.66,81.66,0,0,1,5.89-12.85,75.92,75.92,0,0,0,5.62-12.12A14.22,14.22,0,0,0,553,52,19,19,0,0,0,548,47.68a16.69,16.69,0,0,0-4.65-2q0-10.32,2.26-17.09a24.13,24.13,0,0,1,9-11.75,49.25,49.25,0,0,0,.46,9.86,44.11,44.11,0,0,0,3.18,10.83,30.14,30.14,0,0,0,6.41,9.72c1.59-2.27,3.1-4.47,4.51-6.59a12.61,12.61,0,0,0,2.12-7.14L569.66,22a10.17,10.17,0,0,0,5.81-.46,7.18,7.18,0,0,0,4.51-4.7,38.71,38.71,0,0,1,6.08,9.58,37.14,37.14,0,0,1,3.23,11.43,181,181,0,0,0-18.38,26.72A161.94,161.94,0,0,0,557.68,95Z"/></g></g></svg>