<svg xmlns="http://www.w3.org/2000/svg" viewBox="0 0 408.22 104.67"><defs><style>.cls-1{stroke:#000;stroke-miterlimit:10;}</style></defs><g id="Layer_2" data-name="Layer 2"><g id="Art"><path class="cls-1" d="M12.65,102.3A61,61,0,0,1,3.27,83.6,66.43,66.43,0,0,1,.55,61.82,97.71,97.71,0,0,1,4.27,39.49,63.89,63.89,0,0,1,14.64,19a69.1,69.1,0,0,0,6.74,2.58,44.75,44.75,0,0,0,8.74,1.39,33.68,33.68,0,0,0,8.28-1.49A47.5,47.5,0,0,0,44,18.85a57.13,57.13,0,0,1,4.17,6q1.68,2.88,3,5.66A23.48,23.48,0,0,1,53,37.26a31.5,31.5,0,0,1-.3,9.17q-.84,5.26-4.26,7.84a20.29,20.29,0,0,1-7.65,3.58c-2.81.66-5.09,1.1-6.84,1.34a16.88,16.88,0,0,0-5.86,2.13A7.92,7.92,0,0,0,24,66.23a14.58,14.58,0,0,0-.39,6,21.57,21.57,0,0,0,1.93,6.06c1,2.08,2.05,4.22,3.18,6.4a21.76,21.76,0,0,0-5,1.09,13.45,13.45,0,0,0-4.57,3,17,17,0,0,0-3.87,5.7A51.12,51.12,0,0,0,12.65,102.3Zm24.91-56V44.75a20.76,20.76,0,0,0-1.84-6.5,6.2,6.2,0,0,0-5.4-3.82A6.43,6.43,0,0,0,25,38.25a15.9,15.9,0,0,0-1.79,6.5v1.59a18.5,18.5,0,0,1,7.15-1.59A17.22,17.22,0,0,1,37.56,46.34Z"/><path class="cls-1" d="M90.25,71.74a11.61,11.61,0,0,0-8.13,2,11.79,11.79,0,0,0-4.17,5,20.29,20.29,0,0,0-1.19,6.15,27.16,27.16,0,0,1-12.41-13.5q-4.06-9.12-4.66-21.83A84.84,84.84,0,0,1,63.06,24,86.29,86.29,0,0,1,74,.79a17.23,17.23,0,0,0,4.76,3.32q2.78,1.34,7.44.65Q84.5,11.6,83,19.24a114.22,114.22,0,0,0-1.89,16.58,71.28,71.28,0,0,0,1.29,17.26Q84.11,61.42,90.25,71.74Z"/><path class="cls-1" d="M107,84a24.75,24.75,0,0,1-7.54-10A31.24,31.24,0,0,1,97,63.16a21.84,21.84,0,0,1,1-8.14,13.56,13.56,0,0,1,4.72-5.76,19.05,19.05,0,0,1,9-3.52,100.32,100.32,0,0,1,11.26-1l5.95.49a24.73,24.73,0,0,0-.74-6,12,12,0,0,0-1.64-3.67,5.79,5.79,0,0,0-3.57-2,7.31,7.31,0,0,0-4.56,1.49A14.39,14.39,0,0,0,115.46,40a13.18,13.18,0,0,0-5.91-.79,12.17,12.17,0,0,0-5.9,1.64,36.58,36.58,0,0,0-6.15,5.51,69.91,69.91,0,0,1,2.73-12.11A50.53,50.53,0,0,1,107.82,19a25.88,25.88,0,0,0,6.35,2.78,79.38,79.38,0,0,0,8.33,1.58,70.17,70.17,0,0,0,8.64-1.63A44,44,0,0,0,138,19,59.68,59.68,0,0,1,145,34.13,89,89,0,0,1,148.3,50.7a60.18,60.18,0,0,1-.89,18.06Q145.63,77.3,138,84a13.47,13.47,0,0,0-5.45-2.82,57.6,57.6,0,0,0-9.63-1.54,47.89,47.89,0,0,0-9.77,1.54A22.86,22.86,0,0,0,107,84ZM122.9,71a13,13,0,0,0,5.31-2.39,6.36,6.36,0,0,0,2.18-3.72,8.64,8.64,0,0,0-.84-5.16A5,5,0,0,0,125,56.56a18.52,18.52,0,0,0-5.9.49,7.74,7.74,0,0,0-3.87,2.09,4.48,4.48,0,0,0-1.09,3.47,11.92,11.92,0,0,0,.94,3.92,9,9,0,0,0,2.38,3.22Q119,71.15,122.9,71Z"/><path class="cls-1" d="M170.63,103.1a58.46,58.46,0,0,0-3.42-7.64,12.71,12.71,0,0,0-5.36-5.81,7.55,7.55,0,0,0-5.51-.84A87.82,87.82,0,0,1,162.69,75a81.59,81.59,0,0,0,6.06-13,15.59,15.59,0,0,0-3.13-5.16,20.63,20.63,0,0,0-5.46-4.61,17.59,17.59,0,0,0-5-2.13q0-11.11,2.43-18.41A26,26,0,0,1,167.26,19a52.32,52.32,0,0,0,.49,10.61,47.34,47.34,0,0,0,3.43,11.66,32.36,32.36,0,0,0,6.9,10.47c1.72-2.44,3.34-4.81,4.86-7.09a13.57,13.57,0,0,0,2.28-7.69L183.53,24.5a10.92,10.92,0,0,0,6.25-.49A7.76,7.76,0,0,0,194.65,19a41.94,41.94,0,0,1,6.55,10.32,39.82,39.82,0,0,1,3.47,12.3,195.69,195.69,0,0,0-19.8,28.78A175.11,175.11,0,0,0,170.63,103.1Z"/><path class="cls-1" d="M221.54,84a28,28,0,0,1-9.13-15.23,58.41,58.41,0,0,1-.79-18.11,65.54,65.54,0,0,1,2.63-16.07A52.69,52.69,0,0,1,221.94,19a30.68,30.68,0,0,0,6.94,3.17,34.3,34.3,0,0,0,8.54.8,26.61,26.61,0,0,0,8.28-1.34q2.93-1.14,7.2-2.63a70.4,70.4,0,0,1,6.84,15.33,68,68,0,0,1,2.88,13,116,116,0,0,1,.2,14.14q-6.94-2.39-12.7-3.82a35.9,35.9,0,0,0-11.07-1.09A18.63,18.63,0,0,0,229.28,60a19,19,0,0,0,5.21,5.75q3.33,2.49,10.72,2.34a75,75,0,0,0,17.21-2.73,48.41,48.41,0,0,1-2.92,10.07q-1.65,3.63-7,8.58a16,16,0,0,0-5.41-2.87,44.49,44.49,0,0,0-9.28-1.49,52,52,0,0,0-10.37,1.59A24.63,24.63,0,0,0,221.54,84Zm23.32-38.5V44a20.83,20.83,0,0,0-1.84-6.5,6.21,6.21,0,0,0-5.4-3.82,6.45,6.45,0,0,0-5.36,3.82,15.94,15.94,0,0,0-1.79,6.5v1.59A18.87,18.87,0,0,1,237.62,44,17.22,17.22,0,0,1,244.86,45.54Z"/><path class="cls-1" d="M279.59,84.14a29,29,0,0,1-8.68-15.08,58.43,58.43,0,0,1-.84-18.36,85.44,85.44,0,0,1,3-16.57A54.82,54.82,0,0,1,280.39,19a13.61,13.61,0,0,0,5.8,3.77,11.91,11.91,0,0,0,6.8.2l-2.58,10.81a82.42,82.42,0,0,1,7.44-8q2.88-2.58,7.64-6.05a22,22,0,0,1,5.91,4.22A24.58,24.58,0,0,1,316.11,31a24.55,24.55,0,0,1,2.33,9,17.49,17.49,0,0,1-1.83,8.79A12,12,0,0,0,313.18,44a14.8,14.8,0,0,0-5.65-3.07,14.5,14.5,0,0,0-6.26-.5,16,16,0,0,0-5.45,1.79,15.48,15.48,0,0,0-4.57,4,15.33,15.33,0,0,0-3,6.25,25.87,25.87,0,0,0-.74,6.7q.11,3.07,1.59,13.89a12.36,12.36,0,0,0-6.2,3.67A14.92,14.92,0,0,0,279.59,84.14Z"/><path class="cls-1" d="M392.82,84.24q-3-1-5.76-2.13t-10.32-2a59.56,59.56,0,0,0-8.09,1.69,47.46,47.46,0,0,0-6.5,2.48A50.25,50.25,0,0,1,351,66.48a118.84,118.84,0,0,0,12.6,1.69,56.7,56.7,0,0,0,9.73,0,70.51,70.51,0,0,0,7.74-1.24,13.83,13.83,0,0,0,4-5.86,29.68,29.68,0,0,0,2-8.63,20.65,20.65,0,0,0-9-2.43,69.05,69.05,0,0,0-9.38.34,45,45,0,0,0-10.32,2.49,31.24,31.24,0,0,0,0-17.77,81.1,81.1,0,0,0,10.22,2.33A50.18,50.18,0,0,0,378,38,19.27,19.27,0,0,0,387.36,35a31.85,31.85,0,0,0-1.64-8.18,28.5,28.5,0,0,0-3.92-7.5,16.6,16.6,0,0,0-6.15-2,42.58,42.58,0,0,0-10.22-.2,82.43,82.43,0,0,0-12.9,2.18A71.11,71.11,0,0,1,357,9.47q2.19-3.83,5.46-8.39a38.57,38.57,0,0,0,6.6,2.63,42.22,42.22,0,0,0,8.49,1.34A47.94,47.94,0,0,0,387,3.66a43.26,43.26,0,0,0,6.4-2.58,74.16,74.16,0,0,1,11,22.48,85.84,85.84,0,0,1,3.32,25.55,50.77,50.77,0,0,1-2.87,18.51Q401.74,76.11,392.82,84.24Z"/></g></g></svg>