<svg xmlns="http://www.w3.org/2000/svg" viewBox="0 0 405.34 104.73"><defs><style>.cls-1{stroke:#000;stroke-miterlimit:10;}</style></defs><g id="Layer_2" data-name="Layer 2"><g id="Art"><path class="cls-1" d="M12.65,102.37A61,61,0,0,1,3.27,83.66,66.36,66.36,0,0,1,.55,61.88,97.89,97.89,0,0,1,4.27,39.55,64,64,0,0,1,14.64,19a64.29,64.29,0,0,0,6.74,2.58A44,44,0,0,0,30.12,23a33.21,33.21,0,0,0,8.28-1.49A47.5,47.5,0,0,0,44,18.91,57.19,57.19,0,0,1,48.18,25q1.68,2.88,3,5.65A23.67,23.67,0,0,1,53,37.32a31.57,31.57,0,0,1-.3,9.18q-.84,5.27-4.26,7.84a20.27,20.27,0,0,1-7.65,3.57q-4.22,1-6.84,1.34a16.72,16.72,0,0,0-5.86,2.14A7.9,7.9,0,0,0,24,66.3a14.57,14.57,0,0,0-.39,6,21.51,21.51,0,0,0,1.93,6.05c1,2.09,2.05,4.22,3.18,6.41a21.25,21.25,0,0,0-5,1.09,13.56,13.56,0,0,0-4.57,3,17.19,17.19,0,0,0-3.87,5.71A50.75,50.75,0,0,0,12.65,102.37Zm24.91-56V44.81a20.83,20.83,0,0,0-1.84-6.5,6.21,6.21,0,0,0-5.4-3.82A6.45,6.45,0,0,0,25,38.31a15.94,15.94,0,0,0-1.79,6.5V46.4a18.87,18.87,0,0,1,7.15-1.59A17.22,17.22,0,0,1,37.56,46.4Z"/><path class="cls-1" d="M90.25,71.81a11.51,11.51,0,0,0-8.13,2,11.77,11.77,0,0,0-4.17,5,20.29,20.29,0,0,0-1.19,6.15A27.14,27.14,0,0,1,64.35,71.41q-4.06-9.14-4.66-21.83A84.9,84.9,0,0,1,63.06,24,86.43,86.43,0,0,1,74,.85a17.26,17.26,0,0,0,4.76,3.33c1.85.89,4.33,1.11,7.44.64Q84.5,11.68,83,19.31a114.24,114.24,0,0,0-1.89,16.57,71.36,71.36,0,0,0,1.29,17.27Q84.11,61.49,90.25,71.81Z"/><path class="cls-1" d="M107,84.11a24.81,24.81,0,0,1-7.54-10A31.24,31.24,0,0,1,97,63.22a21.87,21.87,0,0,1,1-8.14,13.59,13.59,0,0,1,4.72-5.75,19.05,19.05,0,0,1,9-3.52,102.68,102.68,0,0,1,11.26-1l5.95.5a24.66,24.66,0,0,0-.74-6,11.91,11.91,0,0,0-1.64-3.68,5.83,5.83,0,0,0-3.57-2,7.25,7.25,0,0,0-4.56,1.49,14.39,14.39,0,0,0-2.88,4.86,13,13,0,0,0-5.91-.79,12.28,12.28,0,0,0-5.9,1.63A37,37,0,0,0,97.5,46.4a69.84,69.84,0,0,1,2.73-12.1A50.57,50.57,0,0,1,107.82,19a25.51,25.51,0,0,0,6.35,2.78,78.94,78.94,0,0,0,8.33,1.59,69.82,69.82,0,0,0,8.64-1.64A42.06,42.06,0,0,0,138,19,59.58,59.58,0,0,1,145,34.2a88.88,88.88,0,0,1,3.27,16.57,60.18,60.18,0,0,1-.89,18.06q-1.78,8.53-9.43,15.28a13.36,13.36,0,0,0-5.45-2.83,58.66,58.66,0,0,0-9.63-1.54,49.33,49.33,0,0,0-9.77,1.54A23.19,23.19,0,0,0,107,84.11ZM122.9,71a13,13,0,0,0,5.31-2.38,6.36,6.36,0,0,0,2.18-3.72,8.64,8.64,0,0,0-.84-5.16A5,5,0,0,0,125,56.62a18.8,18.8,0,0,0-5.9.5,7.74,7.74,0,0,0-3.87,2.08,4.51,4.51,0,0,0-1.09,3.48,12,12,0,0,0,.94,3.92,9,9,0,0,0,2.38,3.22Q119,71.22,122.9,71Z"/><path class="cls-1" d="M170.63,103.16a59.06,59.06,0,0,0-3.42-7.64,12.68,12.68,0,0,0-5.36-5.8,7.61,7.61,0,0,0-5.51-.85A88.12,88.12,0,0,1,162.69,75,81.59,81.59,0,0,0,168.75,62a15.59,15.59,0,0,0-3.13-5.16,20.26,20.26,0,0,0-5.46-4.61,18,18,0,0,0-5-2.14q0-11.12,2.43-18.4A26,26,0,0,1,167.26,19a52.45,52.45,0,0,0,.49,10.62,47.34,47.34,0,0,0,3.43,11.66,32.36,32.36,0,0,0,6.9,10.47c1.72-2.45,3.34-4.81,4.86-7.1A13.55,13.55,0,0,0,185.22,37l-1.69-12.4a10.93,10.93,0,0,0,6.25-.5A7.74,7.74,0,0,0,194.65,19a42.32,42.32,0,0,1,6.55,10.32,40,40,0,0,1,3.47,12.31,195.16,195.16,0,0,0-19.8,28.78A175,175,0,0,0,170.63,103.16Z"/><path class="cls-1" d="M221.54,84.11a28,28,0,0,1-9.13-15.23,58.41,58.41,0,0,1-.79-18.11,65.7,65.7,0,0,1,2.63-16.08A52.81,52.81,0,0,1,221.94,19a30.34,30.34,0,0,0,6.94,3.18,34.39,34.39,0,0,0,8.54.79,26.32,26.32,0,0,0,8.28-1.34q2.93-1.14,7.2-2.63a70.61,70.61,0,0,1,6.84,15.33,68.36,68.36,0,0,1,2.88,13,116.1,116.1,0,0,1,.2,14.14q-6.94-2.37-12.7-3.82a36.21,36.21,0,0,0-11.07-1.09,18.73,18.73,0,0,0-9.77,3.53,19,19,0,0,0,5.21,5.75q3.33,2.49,10.72,2.33a74.5,74.5,0,0,0,17.21-2.73,48.53,48.53,0,0,1-2.92,10.08q-1.65,3.61-7,8.58a15.84,15.84,0,0,0-5.41-2.88,45.17,45.17,0,0,0-9.28-1.49,52.72,52.72,0,0,0-10.37,1.59A24.66,24.66,0,0,0,221.54,84.11Zm23.32-38.5V44a20.76,20.76,0,0,0-1.84-6.5,6.2,6.2,0,0,0-5.4-3.82,6.43,6.43,0,0,0-5.36,3.82,15.9,15.9,0,0,0-1.79,6.5v1.59A18.87,18.87,0,0,1,237.62,44,17.22,17.22,0,0,1,244.86,45.61Z"/><path class="cls-1" d="M279.59,84.21a29.05,29.05,0,0,1-8.68-15.08,58.43,58.43,0,0,1-.84-18.36,85.3,85.3,0,0,1,3-16.57A54.87,54.87,0,0,1,280.39,19a13.43,13.43,0,0,0,5.8,3.77,11.83,11.83,0,0,0,6.8.2L290.41,33.8a81.25,81.25,0,0,1,7.44-8q2.88-2.58,7.64-6.05a21.93,21.93,0,0,1,5.91,4.21,24.78,24.78,0,0,1,4.71,7.15,24.55,24.55,0,0,1,2.33,9,17.46,17.46,0,0,1-1.83,8.78,12,12,0,0,0-3.43-4.81A14.82,14.82,0,0,0,307.53,41a14.65,14.65,0,0,0-6.26-.49,16,16,0,0,0-5.45,1.78,15.78,15.78,0,0,0-4.57,4,15.45,15.45,0,0,0-3,6.25,25.91,25.91,0,0,0-.74,6.7q.11,3.07,1.59,13.9a12.36,12.36,0,0,0-6.2,3.67A14.84,14.84,0,0,0,279.59,84.21Z"/><path class="cls-1" d="M392.52,84.51a36.9,36.9,0,0,0-2.58-7.79A17.29,17.29,0,0,0,385.82,71a17.93,17.93,0,0,0-4.36-3A12.37,12.37,0,0,0,377,67a42,42,0,0,0,4-9.77,49.58,49.58,0,0,0,1.83-10.07,60.57,60.57,0,0,1-14.29-1.64,25.27,25.27,0,0,1-11-5.36,16.7,16.7,0,0,1-5.41-8.53,27.59,27.59,0,0,1-.49-10.23A41.74,41.74,0,0,1,360.27,1,14.22,14.22,0,0,0,367,4.43a29,29,0,0,0,8.93.79A29.23,29.23,0,0,0,370,13.8a22.7,22.7,0,0,0-1.78,7.54,13.08,13.08,0,0,0,1.19,6.31,8.71,8.71,0,0,0,4.91,4.21q3.57,1.44,8.83-1.14a63,63,0,0,0-.2-13.2,54.55,54.55,0,0,0-2.77-12.3,16.41,16.41,0,0,0,6.25-1.39A18.64,18.64,0,0,0,391.33.75,72.53,72.53,0,0,1,401.85,24a99.7,99.7,0,0,1,3,26,61.72,61.72,0,0,1-3.53,17.87A73.91,73.91,0,0,1,392.52,84.51Z"/></g></g></svg>