<svg xmlns="http://www.w3.org/2000/svg" viewBox="0 0 445.94 276.33"><defs><style>.cls-1{fill:none;}</style></defs><g id="Layer_2" data-name="Layer 2"><g id="Art"><rect class="cls-1" width="445.94" height="276.33"/><path d="M86.82,118.27A43.06,43.06,0,0,1,80.18,105a47,47,0,0,1-1.94-15.44,69.59,69.59,0,0,1,2.64-15.82,45.3,45.3,0,0,1,7.35-14.55A45.58,45.58,0,0,0,93,61a31.3,31.3,0,0,0,6.19,1A32.88,32.88,0,0,0,105.56,61,24,24,0,0,0,110,59.14a40.19,40.19,0,0,1,3,4.29c.79,1.36,1.5,2.69,2.11,4a17.12,17.12,0,0,1,1.3,4.74,22.83,22.83,0,0,1-.21,6.51,8.24,8.24,0,0,1-3,5.55,14.33,14.33,0,0,1-5.9,2.53c-2.32.47-4.11.79-5.35,1a12.27,12.27,0,0,0-4.15,1.51,5.63,5.63,0,0,0-2.88,3.48A10.34,10.34,0,0,0,94.59,97,15.34,15.34,0,0,0,96,101.29q1,2.22,2.25,4.54a15.86,15.86,0,0,0-3.55.77,9.64,9.64,0,0,0-3.23,2.11,12,12,0,0,0-2.75,4A38,38,0,0,0,86.82,118.27Zm17.65-39.65V77.49a14.86,14.86,0,0,0-1.3-4.6,4.42,4.42,0,0,0-3.83-2.71,4.57,4.57,0,0,0-3.8,2.71,11.25,11.25,0,0,0-1.27,4.6v1.13a13.25,13.25,0,0,1,5.07-1.13A12.2,12.2,0,0,1,104.47,78.62Z"/><path d="M142.79,109.27a8.22,8.22,0,0,0-5.77,1.41,8.36,8.36,0,0,0-3,3.51,14.31,14.31,0,0,0-.84,4.36,19.24,19.24,0,0,1-8.79-9.56,42.62,42.62,0,0,1-3.31-15.47,60.59,60.59,0,0,1,2.39-18.1A61.28,61.28,0,0,1,131.26,59a12.16,12.16,0,0,0,3.37,2.35,9,9,0,0,0,5.28.46q-1.2,4.86-2.25,10.27a79.46,79.46,0,0,0-1.34,11.74,50.37,50.37,0,0,0,.91,12.23A43.24,43.24,0,0,0,142.79,109.27Z"/><path d="M154.67,118a17.46,17.46,0,0,1-5.34-7.07,22,22,0,0,1-1.79-7.73,15.52,15.52,0,0,1,.7-5.77,9.62,9.62,0,0,1,3.34-4.07,13.59,13.59,0,0,1,6.36-2.5,72.2,72.2,0,0,1,8-.7l4.22.35a17.65,17.65,0,0,0-.53-4.22,8.28,8.28,0,0,0-1.16-2.6,4.09,4.09,0,0,0-2.53-1.41,5.18,5.18,0,0,0-3.23,1.06,10.1,10.1,0,0,0-2,3.44,9.32,9.32,0,0,0-4.18-.56,8.61,8.61,0,0,0-4.19,1.16,26.13,26.13,0,0,0-4.36,3.9,49.8,49.8,0,0,1,1.94-8.58,36,36,0,0,1,5.37-10.82,18.53,18.53,0,0,0,4.5,2A53.83,53.83,0,0,0,165.64,75a47.94,47.94,0,0,0,6.12-1.16,30.5,30.5,0,0,0,4.85-1.93,42.06,42.06,0,0,1,5,10.75,63,63,0,0,1,2.32,11.75,42.87,42.87,0,0,1-.63,12.79A19.78,19.78,0,0,1,176.61,118a9.34,9.34,0,0,0-3.87-2,40.61,40.61,0,0,0-6.82-1.09A33.28,33.28,0,0,0,159,116,16.4,16.4,0,0,0,154.67,118Zm11.25-9.28a9.1,9.1,0,0,0,3.76-1.69,4.55,4.55,0,0,0,1.55-2.63,6.15,6.15,0,0,0-.6-3.66,3.52,3.52,0,0,0-3.23-2.22,13.24,13.24,0,0,0-4.18.36,5.44,5.44,0,0,0-2.75,1.47,3.22,3.22,0,0,0-.77,2.46,8.33,8.33,0,0,0,.67,2.78,6.32,6.32,0,0,0,1.68,2.29Q163.18,108.85,165.92,108.71Z"/><path d="M199.74,131.49a42.27,42.27,0,0,0-2.42-5.41,9,9,0,0,0-3.8-4.12,5.41,5.41,0,0,0-3.9-.59,61.79,61.79,0,0,1,4.5-9.81,59.45,59.45,0,0,0,4.29-9.25,11,11,0,0,0-2.22-3.66,14.68,14.68,0,0,0-3.87-3.26,12.71,12.71,0,0,0-3.55-1.52,41.79,41.79,0,0,1,1.73-13,18.35,18.35,0,0,1,6.85-9,37.68,37.68,0,0,0,.35,7.52,34.08,34.08,0,0,0,2.43,8.26A23,23,0,0,0,205,95.07q1.81-2.59,3.44-5a9.59,9.59,0,0,0,1.62-5.45l-1.2-8.79a7.77,7.77,0,0,0,4.43-.35,5.51,5.51,0,0,0,3.45-3.58,29.43,29.43,0,0,1,4.64,7.31,28.38,28.38,0,0,1,2.46,8.72,138.23,138.23,0,0,0-14,20.39A124.14,124.14,0,0,0,199.74,131.49Z"/><path d="M235.81,118a19.92,19.92,0,0,1-6.47-10.79,41.63,41.63,0,0,1-.56-12.83A47,47,0,0,1,230.64,83a37.8,37.8,0,0,1,5.45-11.11A22.22,22.22,0,0,0,241,74.12a24.54,24.54,0,0,0,6,.56,18.55,18.55,0,0,0,5.87-1q2.08-.81,5.1-1.86a49.65,49.65,0,0,1,4.85,10.86,47.77,47.77,0,0,1,2,9.21,81.39,81.39,0,0,1,.14,10q-4.92-1.69-9-2.71a25.5,25.5,0,0,0-7.84-.77,13.22,13.22,0,0,0-6.92,2.5,13.51,13.51,0,0,0,3.69,4.07q2.35,1.77,7.59,1.66a53.1,53.1,0,0,0,12.2-1.94,34.52,34.52,0,0,1-2.07,7.14,21.12,21.12,0,0,1-5,6.08,11.43,11.43,0,0,0-3.83-2,31.34,31.34,0,0,0-6.58-1A36.82,36.82,0,0,0,240,116,17.63,17.63,0,0,0,235.81,118Zm16.53-27.28V89.58A14.94,14.94,0,0,0,251,85a4.42,4.42,0,0,0-3.84-2.71A4.55,4.55,0,0,0,243.41,85a11.29,11.29,0,0,0-1.27,4.6v1.13a13.39,13.39,0,0,1,5.06-1.13A12.28,12.28,0,0,1,252.34,90.71Z"/><path d="M277,118.06a20.54,20.54,0,0,1-6.16-10.69,41.83,41.83,0,0,1-.59-13,61.18,61.18,0,0,1,2.14-11.75,38.77,38.77,0,0,1,5.17-10.75,9.71,9.71,0,0,0,4.11,2.67,8.49,8.49,0,0,0,4.82.14l-1.83,7.66a58.13,58.13,0,0,1,5.27-5.69q2-1.83,5.42-4.29a15.47,15.47,0,0,1,4.18,3,19.22,19.22,0,0,1,5,11.46,12.32,12.32,0,0,1-1.3,6.22,8.49,8.49,0,0,0-2.42-3.41,10.51,10.51,0,0,0-4-2.18,10.39,10.39,0,0,0-4.43-.35,10.44,10.44,0,0,0-7.1,4.08,10.8,10.8,0,0,0-2.11,4.43,18.16,18.16,0,0,0-.53,4.74c.05,1.46.42,4.74,1.13,9.85a8.77,8.77,0,0,0-4.4,2.6A10.51,10.51,0,0,0,277,118.06Z"/><path d="M357.17,118.13c-1.4-.47-2.76-1-4.08-1.51a32,32,0,0,0-7.31-1.44,42.75,42.75,0,0,0-5.73,1.19,33.76,33.76,0,0,0-4.6,1.76,35.54,35.54,0,0,1-7.88-12.58,83.27,83.27,0,0,0,8.93,1.19,39.15,39.15,0,0,0,6.89,0,53.53,53.53,0,0,0,5.49-.88,9.87,9.87,0,0,0,2.81-4.15,21,21,0,0,0,1.4-6.12,14.56,14.56,0,0,0-6.36-1.72,49.55,49.55,0,0,0-6.64.24,32.48,32.48,0,0,0-7.32,1.76,22.08,22.08,0,0,0,0-12.58A58.13,58.13,0,0,0,340,84.91a35.92,35.92,0,0,0,6.68.42,13.68,13.68,0,0,0,6.6-2.07,22.37,22.37,0,0,0-1.16-5.8,19.83,19.83,0,0,0-2.77-5.31A11.86,11.86,0,0,0,345,70.74a30.16,30.16,0,0,0-7.24-.14,58.45,58.45,0,0,0-9.14,1.55,49.33,49.33,0,0,1,3.16-7,69.82,69.82,0,0,1,3.87-5.94,27.33,27.33,0,0,0,4.67,1.86,29.34,29.34,0,0,0,6,1,34.12,34.12,0,0,0,6.72-1,31.15,31.15,0,0,0,4.53-1.83,52.38,52.38,0,0,1,7.77,15.93,60.91,60.91,0,0,1,2.36,18.1,36.16,36.16,0,0,1-2,13.11Q363.51,112.37,357.17,118.13Z"/><path d="M132.88,217.33a43.14,43.14,0,0,1-6.65-13.26,46.89,46.89,0,0,1-1.93-15.43,70,70,0,0,1,2.63-15.82,45.4,45.4,0,0,1,7.35-14.55,48.53,48.53,0,0,0,4.78,1.82,31.16,31.16,0,0,0,6.19,1,24.05,24.05,0,0,0,5.87-1.06,32.25,32.25,0,0,0,4-1.82,41.17,41.17,0,0,1,3,4.28c.79,1.36,1.5,2.7,2.11,4a17.3,17.3,0,0,1,1.3,4.75,22.75,22.75,0,0,1-.21,6.5,8.25,8.25,0,0,1-3,5.56,14.31,14.31,0,0,1-5.41,2.53c-2,.47-3.61.78-4.85.95a12,12,0,0,0-4.15,1.51,5.55,5.55,0,0,0-2.88,3.48,10.35,10.35,0,0,0-.29,4.29,15.59,15.59,0,0,0,1.38,4.29c.7,1.47,1.45,3,2.25,4.53a15.09,15.09,0,0,0-3.55.78,9.28,9.28,0,0,0-3.24,2.11,12,12,0,0,0-2.74,4A35,35,0,0,0,132.88,217.33Zm17.64-39.66v-1.12a14.65,14.65,0,0,0-1.3-4.61,4.4,4.4,0,0,0-3.83-2.71,4.58,4.58,0,0,0-3.8,2.71,11.27,11.27,0,0,0-1.26,4.61v1.12a13.19,13.19,0,0,1,5.06-1.12A12.19,12.19,0,0,1,150.52,177.67Z"/><path d="M173.52,204.46a20.54,20.54,0,0,1-6.16-10.69,41.83,41.83,0,0,1-.59-13A61.18,61.18,0,0,1,168.91,169a39.06,39.06,0,0,1,5.17-10.75,9.71,9.71,0,0,0,4.11,2.67,8.49,8.49,0,0,0,4.82.14l-1.83,7.66a59.41,59.41,0,0,1,5.27-5.69q2-1.83,5.42-4.29a15.26,15.26,0,0,1,4.18,3,17.36,17.36,0,0,1,3.34,5.06,17.19,17.19,0,0,1,1.65,6.4,12.32,12.32,0,0,1-1.3,6.22,8.39,8.39,0,0,0-2.42-3.41,10.51,10.51,0,0,0-4-2.18,10.39,10.39,0,0,0-4.43-.35,10.44,10.44,0,0,0-7.1,4.08,10.8,10.8,0,0,0-2.11,4.43,18.16,18.16,0,0,0-.53,4.74c.05,1.46.42,4.74,1.13,9.85a8.77,8.77,0,0,0-4.4,2.6A10.51,10.51,0,0,0,173.52,204.46Z"/><path d="M213.17,204.39a19.92,19.92,0,0,1-6.47-10.79,41.63,41.63,0,0,1-.56-12.83A47,47,0,0,1,208,169.38a37.55,37.55,0,0,1,5.45-11.11,22,22,0,0,0,4.93,2.25,24.49,24.49,0,0,0,6,.56,18.85,18.85,0,0,0,5.87-1q2.09-.81,5.1-1.86a49.65,49.65,0,0,1,4.85,10.86,47.77,47.77,0,0,1,2,9.21,81.39,81.39,0,0,1,.14,10q-4.92-1.7-9-2.71a25.5,25.5,0,0,0-7.84-.77,13.19,13.19,0,0,0-6.92,2.5,13.51,13.51,0,0,0,3.69,4.07q2.35,1.77,7.59,1.66a53.1,53.1,0,0,0,12.2-1.94,34.52,34.52,0,0,1-2.07,7.14,21.12,21.12,0,0,1-5,6.08,11.43,11.43,0,0,0-3.83-2,31.34,31.34,0,0,0-6.58-1,36.82,36.82,0,0,0-7.34,1.12A17.63,17.63,0,0,0,213.17,204.39Zm16.53-27.28V176a15,15,0,0,0-1.31-4.6,4.4,4.4,0,0,0-3.83-2.71,4.55,4.55,0,0,0-3.79,2.71,11.29,11.29,0,0,0-1.27,4.6v1.13a13.39,13.39,0,0,1,5.06-1.13A12.28,12.28,0,0,1,229.7,177.11Z"/><path d="M254,204.39a17.37,17.37,0,0,1-5.41-7,24.14,24.14,0,0,1-1.34-10.48,17,17,0,0,0,3.1,2.08,8.76,8.76,0,0,0,3.79.77,12.62,12.62,0,0,0,5.42-1.44,22.33,22.33,0,0,0,.49,7,9.72,9.72,0,0,1,3.87-.81,20.77,20.77,0,0,1,4.71.32,7.55,7.55,0,0,0,.49-3.34A6,6,0,0,0,267.8,189a25,25,0,0,0-3.72-3.59,68.8,68.8,0,0,0-7.31-5.1,23.59,23.59,0,0,1-6.3-5.09,7.71,7.71,0,0,1-1.75-3.63,13.65,13.65,0,0,1,1-4.71,37.72,37.72,0,0,1,4.79-8.57,16.32,16.32,0,0,0,4.5,2.07,51.16,51.16,0,0,0,6.11,1,37,37,0,0,0,6.12-1.2,30.82,30.82,0,0,0,4.64-1.89,44.69,44.69,0,0,1,3.87,8.19,16.82,16.82,0,0,1,1.19,6.11,38.28,38.28,0,0,1-.63,4.82,12.49,12.49,0,0,0-5.55-3.44,6.41,6.41,0,0,0-5,.42q-.42-1.2-.84-2.25a8.89,8.89,0,0,0-1.16-2,4.26,4.26,0,0,0-2.57-1.41,5.2,5.2,0,0,0-3.23,1.06,8.66,8.66,0,0,0-1.83,3.72q6,3.66,11,7.21a51.75,51.75,0,0,1,7.38,6,11.68,11.68,0,0,1,3,4.81,11.89,11.89,0,0,1,.25,5.1q-.42,2.72-5.91,7.84a9.36,9.36,0,0,0-3.8-2,39.25,39.25,0,0,0-6.89-1.09,39.25,39.25,0,0,0-6.85,1.12A16.76,16.76,0,0,0,254,204.39Z"/><path d="M293.54,204.39a17.28,17.28,0,0,1-5.41-7,24,24,0,0,1-1.34-10.48,17.26,17.26,0,0,0,3.09,2.08,8.8,8.8,0,0,0,3.8.77,12.54,12.54,0,0,0,5.41-1.44,22.62,22.62,0,0,0,.5,7,9.62,9.62,0,0,1,3.86-.81,20.77,20.77,0,0,1,4.71.32,7.59,7.59,0,0,0,.5-3.34,6.16,6.16,0,0,0-1.27-2.46,24.69,24.69,0,0,0-3.73-3.59,67.77,67.77,0,0,0-7.31-5.1,23.68,23.68,0,0,1-6.29-5.09,7.75,7.75,0,0,1-1.76-3.63,14,14,0,0,1,1-4.71,37.61,37.61,0,0,1,4.78-8.57,16.32,16.32,0,0,0,4.5,2.07,51.41,51.41,0,0,0,6.12,1,37,37,0,0,0,6.12-1.2,31.25,31.25,0,0,0,4.64-1.89,45.27,45.27,0,0,1,3.86,8.19,17.1,17.1,0,0,1,1.2,6.11,42.36,42.36,0,0,1-.63,4.82,12.57,12.57,0,0,0-5.56-3.44,6.39,6.39,0,0,0-5,.42q-.42-1.2-.84-2.25a9.28,9.28,0,0,0-1.16-2,4.29,4.29,0,0,0-2.57-1.41,5.24,5.24,0,0,0-3.24,1.06,8.79,8.79,0,0,0-1.82,3.72q6,3.66,11,7.21a52.34,52.34,0,0,1,7.38,6,11.68,11.68,0,0,1,3,4.81,12.06,12.06,0,0,1,.24,5.1q-.42,2.72-5.9,7.84a9.43,9.43,0,0,0-3.8-2,39.41,39.41,0,0,0-6.89-1.09,39.39,39.39,0,0,0-6.86,1.12A16.84,16.84,0,0,0,293.54,204.39Z"/></g></g></svg>