<svg xmlns="http://www.w3.org/2000/svg" viewBox="0 0 445.94 276.33"><defs><style>.cls-1{fill:none;}</style></defs><g id="Layer_2" data-name="Layer 2"><g id="Art"><rect class="cls-1" width="445.94" height="276.33"/><path d="M87.7,118.31a43.45,43.45,0,0,1-6.64-13.26,46.89,46.89,0,0,1-1.93-15.43A70,70,0,0,1,81.76,73.8a45.55,45.55,0,0,1,7.35-14.56,46.44,46.44,0,0,0,4.78,1.83,31.92,31.92,0,0,0,6.19,1A33.56,33.56,0,0,0,106.44,61a24.38,24.38,0,0,0,4.47-1.83,41,41,0,0,1,3,4.29q1.2,2,2.11,4a16.86,16.86,0,0,1,1.3,4.75,22,22,0,0,1-.21,6.5,8.28,8.28,0,0,1-3,5.56,14.43,14.43,0,0,1-5.91,2.53c-2.32.47-4.1.78-5.34,1a11.72,11.72,0,0,0-4.15,1.51,5.57,5.57,0,0,0-2.89,3.48A10.51,10.51,0,0,0,95.47,97a15.55,15.55,0,0,0,1.37,4.29c.71,1.47,1.46,3,2.25,4.53a15.32,15.32,0,0,0-3.55.78,9.45,9.45,0,0,0-3.23,2.1,12,12,0,0,0-2.74,4.05A36,36,0,0,0,87.7,118.31Zm17.65-39.66V77.53a14.65,14.65,0,0,0-1.3-4.61,4.41,4.41,0,0,0-3.83-2.71,4.57,4.57,0,0,0-3.8,2.71,11.12,11.12,0,0,0-1.26,4.61v1.12a13.19,13.19,0,0,1,5.06-1.12A12.19,12.19,0,0,1,105.35,78.65Z"/><path d="M143.67,109.31a8.21,8.21,0,0,0-5.76,1.4,8.42,8.42,0,0,0-3,3.52,14.25,14.25,0,0,0-.84,4.36,19.24,19.24,0,0,1-8.79-9.56A42.88,42.88,0,0,1,122,93.56a60,60,0,0,1,2.39-18.11A61.09,61.09,0,0,1,132.14,59a12.09,12.09,0,0,0,3.38,2.36,9.19,9.19,0,0,0,5.27.46q-1.2,4.84-2.25,10.26a81,81,0,0,0-1.34,11.74,50.49,50.49,0,0,0,.92,12.24A43.29,43.29,0,0,0,143.67,109.31Z"/><path d="M155.56,118a17.64,17.64,0,0,1-5.35-7.07,22.24,22.24,0,0,1-1.79-7.73,15.46,15.46,0,0,1,.7-5.77,9.58,9.58,0,0,1,3.34-4.08,13.47,13.47,0,0,1,6.36-2.49,72.13,72.13,0,0,1,8-.71l4.21.35a17.55,17.55,0,0,0-.52-4.21,8.83,8.83,0,0,0-1.16-2.61,4.16,4.16,0,0,0-2.53-1.4,5.15,5.15,0,0,0-3.24,1,10.17,10.17,0,0,0-2,3.45,9.3,9.3,0,0,0-4.18-.57,8.86,8.86,0,0,0-4.19,1.16,26.8,26.8,0,0,0-4.35,3.91,49.57,49.57,0,0,1,1.93-8.58,35.83,35.83,0,0,1,5.38-10.83,17.9,17.9,0,0,0,4.5,2,53.5,53.5,0,0,0,5.9,1.12,47.59,47.59,0,0,0,6.12-1.16,29.22,29.22,0,0,0,4.85-1.93,41.79,41.79,0,0,1,5,10.76,63.73,63.73,0,0,1,2.33,11.74,42.6,42.6,0,0,1-.64,12.8A19.78,19.78,0,0,1,177.49,118a9.49,9.49,0,0,0-3.86-2,42.06,42.06,0,0,0-6.82-1.09,34.93,34.93,0,0,0-6.93,1.09A15.9,15.9,0,0,0,155.56,118Zm11.25-9.29a9.3,9.3,0,0,0,3.76-1.68,4.56,4.56,0,0,0,1.54-2.64,6.23,6.23,0,0,0-.59-3.66,3.51,3.51,0,0,0-3.24-2.21,13.25,13.25,0,0,0-4.18.35,5.41,5.41,0,0,0-2.74,1.48,3.17,3.17,0,0,0-.78,2.46,8.39,8.39,0,0,0,.67,2.78,6.44,6.44,0,0,0,1.69,2.28Q164.07,108.89,166.81,108.74Z"/><path d="M200.63,131.53a44,44,0,0,0-2.43-5.42,8.92,8.92,0,0,0-3.8-4.11,5.35,5.35,0,0,0-3.9-.6,61.79,61.79,0,0,1,4.5-9.81,58,58,0,0,0,4.29-9.24,11,11,0,0,0-2.22-3.66,14.34,14.34,0,0,0-3.86-3.27,12.75,12.75,0,0,0-3.55-1.51,41.78,41.78,0,0,1,1.72-13,18.38,18.38,0,0,1,6.85-9,36.9,36.9,0,0,0,.36,7.52A33.65,33.65,0,0,0,201,87.69a22.89,22.89,0,0,0,4.89,7.41c1.22-1.73,2.37-3.41,3.44-5A9.61,9.61,0,0,0,211,84.63l-1.19-8.79a7.78,7.78,0,0,0,4.43-.35,5.51,5.51,0,0,0,3.44-3.59,29.8,29.8,0,0,1,4.64,7.31,28.45,28.45,0,0,1,2.46,8.72,138.69,138.69,0,0,0-14,20.39A122.94,122.94,0,0,0,200.63,131.53Z"/><path d="M236.7,118a19.85,19.85,0,0,1-6.47-10.8,41.61,41.61,0,0,1-.57-12.83A47.54,47.54,0,0,1,231.53,83,37.55,37.55,0,0,1,237,71.9a21.1,21.1,0,0,0,4.92,2.25,24.09,24.09,0,0,0,6,.56,18.61,18.61,0,0,0,5.87-.95c1.38-.53,3.08-1.16,5.09-1.86a50.39,50.39,0,0,1,4.86,10.86,49.24,49.24,0,0,1,2,9.22,83.32,83.32,0,0,1,.14,10q-4.93-1.68-9-2.7a25.55,25.55,0,0,0-7.84-.78,13.3,13.3,0,0,0-6.93,2.5,13.42,13.42,0,0,0,3.69,4.08q2.35,1.75,7.6,1.65a53,53,0,0,0,12.19-1.93,33.79,33.79,0,0,1-2.07,7.13,21,21,0,0,1-5,6.09,11.33,11.33,0,0,0-3.83-2,31.89,31.89,0,0,0-6.57-1.06,36.91,36.91,0,0,0-7.35,1.13A17.18,17.18,0,0,0,236.7,118Zm16.52-27.29V89.62a14.72,14.72,0,0,0-1.3-4.61,4.43,4.43,0,0,0-3.83-2.7,4.57,4.57,0,0,0-3.8,2.7A11.33,11.33,0,0,0,243,89.62v1.12a13.43,13.43,0,0,1,5.07-1.12A12.35,12.35,0,0,1,253.22,90.74Z"/><path d="M277.83,118.1a20.53,20.53,0,0,1-6.15-10.69,41.59,41.59,0,0,1-.6-13,61.08,61.08,0,0,1,2.14-11.74,39.11,39.11,0,0,1,5.17-10.76,9.52,9.52,0,0,0,4.11,2.67,8.32,8.32,0,0,0,4.82.14l-1.83,7.67a58.4,58.4,0,0,1,5.28-5.7q2-1.83,5.41-4.29a15.32,15.32,0,0,1,4.18,3,17.17,17.17,0,0,1,3.34,5.06,17.5,17.5,0,0,1,1.66,6.4,12.57,12.57,0,0,1-1.3,6.23,8.45,8.45,0,0,0-2.43-3.42,10.49,10.49,0,0,0-4-2.17,10.24,10.24,0,0,0-4.43-.36,11.45,11.45,0,0,0-3.87,1.27,11.27,11.27,0,0,0-3.23,2.81A10.8,10.8,0,0,0,284,95.63a18.68,18.68,0,0,0-.53,4.75q.07,2.18,1.13,9.84a8.89,8.89,0,0,0-4.4,2.6A10.59,10.59,0,0,0,277.83,118.1Z"/><path d="M337.73,118.31a21.73,21.73,0,0,1-5.44-3.83,18.3,18.3,0,0,1-3.84-5.45,27.25,27.25,0,0,1,4-10.55,80.73,80.73,0,0,1,5.2-8c1.18-1.45,2.92-3.42,5.24-5.9s4.17-4.47,5.56-5.94a9.5,9.5,0,0,0,2.42-3.62,3.24,3.24,0,0,0-.42-2.64,3.21,3.21,0,0,0-2.18-1.51,9,9,0,0,0-3.62.21,23.81,23.81,0,0,0-6.05,2.7,63.23,63.23,0,0,0-8.75,6.37,44.52,44.52,0,0,1,.35-6.26,33.84,33.84,0,0,1,2-6.5A35.67,35.67,0,0,1,337,59,16.83,16.83,0,0,0,341.81,61a48.11,48.11,0,0,0,6.47,1,42.37,42.37,0,0,0,6.12-1,30.34,30.34,0,0,0,4.85-1.87,57.11,57.11,0,0,1,4.36,7.39,15.61,15.61,0,0,1,1.55,8,48.31,48.31,0,0,1-5.35,6.58q-3,3.12-7.66,9.07t-5.91,9.31a43.21,43.21,0,0,0-2,7.11,17.24,17.24,0,0,1,3.31-.5,13.58,13.58,0,0,1,4.43.5,17.28,17.28,0,0,0,1.05-3.66c.24-1.31.42-2.58.57-3.8a20.93,20.93,0,0,0,2.42,1.06,5.59,5.59,0,0,0,2.78,0,15.46,15.46,0,0,0,3.83-1.41,39.88,39.88,0,0,0,4.18-2.46A49.81,49.81,0,0,1,364,108.78a55,55,0,0,1-4.78,9.25c-1.27-.57-2.67-1.14-4.22-1.73a18.34,18.34,0,0,0-5.06-1.09,18.1,18.1,0,0,0-5.66.5A27.93,27.93,0,0,0,337.73,118.31Z"/><path d="M132.81,217.36a43.31,43.31,0,0,1-6.65-13.25,47.19,47.19,0,0,1-1.93-15.43,69.5,69.5,0,0,1,2.64-15.82,45.15,45.15,0,0,1,7.35-14.56,45.58,45.58,0,0,0,4.78,1.83,31.31,31.31,0,0,0,6.18,1,23.77,23.77,0,0,0,5.88-1.05,34.74,34.74,0,0,0,4-1.83,40,40,0,0,1,2.95,4.29q1.2,2,2.11,4a16.78,16.78,0,0,1,1.3,4.74,22.12,22.12,0,0,1-.21,6.51,8.28,8.28,0,0,1-3,5.55,14.27,14.27,0,0,1-5.42,2.53c-2,.47-3.61.79-4.85.95a12.27,12.27,0,0,0-4.15,1.51,5.63,5.63,0,0,0-2.88,3.48,10.34,10.34,0,0,0-.28,4.29,15.34,15.34,0,0,0,1.37,4.29q1.05,2.22,2.25,4.54a15.74,15.74,0,0,0-3.55.77,9.67,9.67,0,0,0-3.24,2.11,12.13,12.13,0,0,0-2.74,4A35.69,35.69,0,0,0,132.81,217.36Zm17.65-39.65v-1.13a14.86,14.86,0,0,0-1.3-4.6,4.42,4.42,0,0,0-3.84-2.71,4.55,4.55,0,0,0-3.79,2.71,11.25,11.25,0,0,0-1.27,4.6v1.13a13.24,13.24,0,0,1,5.06-1.13A12.22,12.22,0,0,1,150.46,177.71Z"/><path d="M173.45,204.5a20.6,20.6,0,0,1-6.15-10.69,41.59,41.59,0,0,1-.6-13,61.08,61.08,0,0,1,2.14-11.74A39.11,39.11,0,0,1,174,158.3a9.49,9.49,0,0,0,4.12,2.67,8.29,8.29,0,0,0,4.81.14l-1.83,7.67a58.4,58.4,0,0,1,5.28-5.7q2-1.83,5.41-4.29a15.32,15.32,0,0,1,4.18,3,17.17,17.17,0,0,1,3.34,5.06,17.5,17.5,0,0,1,1.66,6.4,12.51,12.51,0,0,1-1.3,6.22,8.48,8.48,0,0,0-2.43-3.41,10.42,10.42,0,0,0-4-2.17,10.24,10.24,0,0,0-4.43-.36,11.33,11.33,0,0,0-3.86,1.27,11.17,11.17,0,0,0-3.24,2.81A10.8,10.8,0,0,0,179.6,182a18.68,18.68,0,0,0-.53,4.75q.08,2.17,1.13,9.84a8.81,8.81,0,0,0-4.39,2.6A10.6,10.6,0,0,0,173.45,204.5Z"/><path d="M213.11,204.43a19.85,19.85,0,0,1-6.47-10.8,41.61,41.61,0,0,1-.57-12.83,47.54,47.54,0,0,1,1.87-11.39,37.55,37.55,0,0,1,5.45-11.11,21.1,21.1,0,0,0,4.92,2.25,24.09,24.09,0,0,0,6.05.56,18.61,18.61,0,0,0,5.87-1c1.38-.53,3.08-1.16,5.09-1.86a50.17,50.17,0,0,1,4.86,10.86,49.24,49.24,0,0,1,2,9.22,83.32,83.32,0,0,1,.14,10q-4.94-1.68-9-2.7a25.55,25.55,0,0,0-7.84-.78,13.3,13.3,0,0,0-6.93,2.5,13.42,13.42,0,0,0,3.69,4.08q2.35,1.75,7.6,1.65a53,53,0,0,0,12.19-1.93,34,34,0,0,1-2.07,7.13,21,21,0,0,1-5,6.09,11.33,11.33,0,0,0-3.83-2,31.89,31.89,0,0,0-6.57-1.06,36.91,36.91,0,0,0-7.35,1.13A17.18,17.18,0,0,0,213.11,204.43Zm16.52-27.29V176a14.72,14.72,0,0,0-1.3-4.61,4.43,4.43,0,0,0-3.83-2.7,4.57,4.57,0,0,0-3.8,2.7,11.33,11.33,0,0,0-1.27,4.61v1.12A13.43,13.43,0,0,1,224.5,176,12.35,12.35,0,0,1,229.63,177.14Z"/><path d="M253.89,204.43a17.42,17.42,0,0,1-5.42-7,24.11,24.11,0,0,1-1.33-10.47,16.66,16.66,0,0,0,3.09,2.07,8.94,8.94,0,0,0,3.8.78,12.47,12.47,0,0,0,5.41-1.45,22.67,22.67,0,0,0,.49,7,9.72,9.72,0,0,1,3.87-.81,20.78,20.78,0,0,1,4.71.31,7.4,7.4,0,0,0,.49-3.34,6.24,6.24,0,0,0-1.26-2.46,25.24,25.24,0,0,0-3.73-3.58,67.36,67.36,0,0,0-7.31-5.1,23.48,23.48,0,0,1-6.29-5.1,7.72,7.72,0,0,1-1.76-3.62,13.9,13.9,0,0,1,1-4.71,37.84,37.84,0,0,1,4.78-8.58,16.68,16.68,0,0,0,4.5,2.08,49.8,49.8,0,0,0,6.12,1,36.23,36.23,0,0,0,6.11-1.19,30.91,30.91,0,0,0,4.64-1.9,44.69,44.69,0,0,1,3.87,8.19,17.1,17.1,0,0,1,1.2,6.12,40.63,40.63,0,0,1-.64,4.82A12.61,12.61,0,0,0,274.7,174a6.47,6.47,0,0,0-5,.42c-.28-.79-.56-1.54-.85-2.25a8.73,8.73,0,0,0-1.16-2,4.28,4.28,0,0,0-2.56-1.4,5.18,5.18,0,0,0-3.24,1,8.88,8.88,0,0,0-1.83,3.73q6,3.66,11,7.21a51.33,51.33,0,0,1,7.39,6,11.74,11.74,0,0,1,3,4.82,11.88,11.88,0,0,1,.25,5.1q-.42,2.7-5.91,7.84a9.52,9.52,0,0,0-3.79-2,40.57,40.57,0,0,0-6.89-1.09,39.06,39.06,0,0,0-6.86,1.13A16.38,16.38,0,0,0,253.89,204.43Z"/><path d="M293.47,204.43a17.4,17.4,0,0,1-5.41-7,24.1,24.1,0,0,1-1.34-10.47,16.38,16.38,0,0,0,3.1,2.07,8.9,8.9,0,0,0,3.79.78,12.5,12.5,0,0,0,5.42-1.45,22.37,22.37,0,0,0,.49,7,9.72,9.72,0,0,1,3.87-.81,20.78,20.78,0,0,1,4.71.31,7.55,7.55,0,0,0,.49-3.34,6.15,6.15,0,0,0-1.27-2.46,25.05,25.05,0,0,0-3.72-3.58,67.36,67.36,0,0,0-7.31-5.1,23.39,23.39,0,0,1-6.3-5.1,7.82,7.82,0,0,1-1.76-3.62,13.9,13.9,0,0,1,1-4.71A38,38,0,0,1,294,158.3a16.68,16.68,0,0,0,4.5,2.08,49.57,49.57,0,0,0,6.11,1,36.17,36.17,0,0,0,6.12-1.19,30.91,30.91,0,0,0,4.64-1.9,44.69,44.69,0,0,1,3.87,8.19,16.83,16.83,0,0,1,1.19,6.12,38.52,38.52,0,0,1-.63,4.82,12.61,12.61,0,0,0-5.55-3.45,6.5,6.5,0,0,0-5,.42q-.42-1.18-.84-2.25a9.11,9.11,0,0,0-1.16-2,4.31,4.31,0,0,0-2.57-1.4,5.14,5.14,0,0,0-3.23,1,8.65,8.65,0,0,0-1.83,3.73q6,3.66,11,7.21a51.13,51.13,0,0,1,7.38,6,10.76,10.76,0,0,1,3.24,9.92q-.42,2.7-5.91,7.84a9.5,9.5,0,0,0-3.8-2,40.22,40.22,0,0,0-6.89-1.09,38.92,38.92,0,0,0-6.85,1.13A16.44,16.44,0,0,0,293.47,204.43Z"/></g></g></svg>