<svg xmlns="http://www.w3.org/2000/svg" viewBox="0 0 1455.91 307.99"><defs><style>.cls-1{stroke:#000;stroke-miterlimit:10;stroke-width:0.25px;}</style></defs><g id="Layer_2" data-name="Layer 2"><g id="Art"><path class="cls-1" d="M16.76,115.11A83.72,83.72,0,0,1,3.92,89.5,90.82,90.82,0,0,1,.19,59.68,134.75,134.75,0,0,1,5.28,29.11,87.57,87.57,0,0,1,19.48,1a92.23,92.23,0,0,0,9.24,3.53,60.86,60.86,0,0,0,12,1.9,63.78,63.78,0,0,0,12.3-2A46.38,46.38,0,0,0,61.6.85a76.54,76.54,0,0,1,5.7,8.29q2.31,3.94,4.08,7.74a32.85,32.85,0,0,1,2.51,9.17,42.87,42.87,0,0,1-.41,12.57q-1.16,7.2-5.84,10.73a27.66,27.66,0,0,1-11.41,4.89q-6.72,1.36-10.33,1.84a23.2,23.2,0,0,0-8,2.92,10.78,10.78,0,0,0-5.57,6.72A20.13,20.13,0,0,0,31.77,74a30.15,30.15,0,0,0,2.65,8.29q2,4.28,4.35,8.76a29.61,29.61,0,0,0-6.86,1.5,18.35,18.35,0,0,0-6.25,4.07,23.42,23.42,0,0,0-5.3,7.82A70.77,70.77,0,0,0,16.76,115.11Zm34.1-76.63V36.31a28.6,28.6,0,0,0-2.51-8.9A8.52,8.52,0,0,0,41,22.18a8.81,8.81,0,0,0-7.34,5.23,21.81,21.81,0,0,0-2.45,8.9v2.17A25.83,25.83,0,0,1,41,36.31,23.7,23.7,0,0,1,50.86,38.48Z"/><path class="cls-1" d="M97.19,114.7A39.81,39.81,0,0,1,85.3,94.05a80.6,80.6,0,0,1-1.15-25.13,117.58,117.58,0,0,1,4.14-22.69,75.5,75.5,0,0,1,10-20.79,18.46,18.46,0,0,0,8,5.16,16.25,16.25,0,0,0,9.3.28L112,45.69a111.92,111.92,0,0,1,10.19-11q3.94-3.53,10.46-8.29a29.89,29.89,0,0,1,8.09,5.78A33.81,33.81,0,0,1,147.19,42a33.67,33.67,0,0,1,3.19,12.36,24,24,0,0,1-2.51,12,16.31,16.31,0,0,0-4.69-6.59,20.28,20.28,0,0,0-7.74-4.22,20,20,0,0,0-8.56-.67,21.76,21.76,0,0,0-7.47,2.44,21.33,21.33,0,0,0-6.25,5.44,20.84,20.84,0,0,0-4.08,8.56,35.52,35.52,0,0,0-1,9.17q.14,4.2,2.17,19a17,17,0,0,0-8.49,5Q98.41,108.18,97.19,114.7Z"/><path class="cls-1" d="M173.82,114.57q-10.06-9.1-12.5-20.86a80.45,80.45,0,0,1-1.09-24.79,90.58,90.58,0,0,1,3.6-22,72.74,72.74,0,0,1,10.53-21.47,41.32,41.32,0,0,0,9.51,4.35,46.74,46.74,0,0,0,11.69,1.09A36.1,36.1,0,0,0,206.9,29q4-1.56,9.85-3.6a96.35,96.35,0,0,1,9.37,21,94,94,0,0,1,3.95,17.8,160.24,160.24,0,0,1,.27,19.36q-9.51-3.25-17.39-5.23a49.12,49.12,0,0,0-15.15-1.49,25.47,25.47,0,0,0-13.38,4.82,25.89,25.89,0,0,0,7.13,7.88q4.55,3.39,14.67,3.19A102.46,102.46,0,0,0,229.79,89a66.32,66.32,0,0,1-4,13.79q-2.25,5-9.58,11.75a21.82,21.82,0,0,0-7.41-3.94,60.53,60.53,0,0,0-12.7-2q-9.91.81-14.2,2.17A33.92,33.92,0,0,0,173.82,114.57Zm31.93-52.72V59.68a28.56,28.56,0,0,0-2.52-8.9,8.51,8.51,0,0,0-7.4-5.23,8.83,8.83,0,0,0-7.34,5.23,21.75,21.75,0,0,0-2.44,8.9v2.17a25.55,25.55,0,0,1,9.78-2.17A23.78,23.78,0,0,1,205.75,61.85Z"/><path class="cls-1" d="M252.62,114.57A33.57,33.57,0,0,1,242.16,101q-3.27-7.87-2.58-20.24a32.48,32.48,0,0,0,6,4,17,17,0,0,0,7.34,1.49q4.49.08,10.46-2.79a43.52,43.52,0,0,0,.95,13.46,18.75,18.75,0,0,1,7.47-1.57,40.59,40.59,0,0,1,9.11.61q1.35-4.33.95-6.45a11.85,11.85,0,0,0-2.45-4.75,48.82,48.82,0,0,0-7.2-6.93A129.45,129.45,0,0,0,258.05,68q-9-5.58-12.16-9.85t-3.39-7q-.21-2.71,2-9.1t9.24-16.58a31.54,31.54,0,0,0,8.69,4,97.21,97.21,0,0,0,11.82,2A70.79,70.79,0,0,0,286,29.11a59.77,59.77,0,0,0,9-3.67,86.63,86.63,0,0,1,7.47,15.83q2.58,7.54,2.31,11.82a77,77,0,0,1-1.22,9.31,24.26,24.26,0,0,0-10.74-6.66q-5.56-1.5-9.64.81c-.55-1.54-1.09-3-1.63-4.34a17.52,17.52,0,0,0-2.24-3.94,8.3,8.3,0,0,0-5-2.72c-2.9.18-5,.86-6.25,2s-2.45,3.58-3.54,7.2q11.55,7.07,21.33,13.92a100.75,100.75,0,0,1,14.27,11.55,22.61,22.61,0,0,1,5.77,9.31,23.11,23.11,0,0,1,.48,9.85q-.81,5.24-11.41,15.15a18.28,18.28,0,0,0-7.34-3.87,77,77,0,0,0-13.31-2.11,76.29,76.29,0,0,0-13.25,2.17A32.14,32.14,0,0,0,252.62,114.57Z"/><path class="cls-1" d="M329.11,114.57A33.57,33.57,0,0,1,318.65,101q-3.27-7.87-2.58-20.24a32.48,32.48,0,0,0,6,4,17,17,0,0,0,7.34,1.49q4.49.08,10.46-2.79a43.52,43.52,0,0,0,1,13.46,18.75,18.75,0,0,1,7.47-1.57,40.59,40.59,0,0,1,9.11.61q1.35-4.33.95-6.45a11.85,11.85,0,0,0-2.45-4.75,48.82,48.82,0,0,0-7.2-6.93A129.45,129.45,0,0,0,334.54,68q-9-5.58-12.16-9.85t-3.39-7q-.21-2.71,2-9.1t9.24-16.58a31.67,31.67,0,0,0,8.69,4,97.21,97.21,0,0,0,11.82,2,70.79,70.79,0,0,0,11.82-2.31,59.77,59.77,0,0,0,9-3.67A86.63,86.63,0,0,1,379,41.27q2.58,7.54,2.31,11.82a77,77,0,0,1-1.22,9.31,24.26,24.26,0,0,0-10.74-6.66q-5.56-1.5-9.64.81c-.55-1.54-1.09-3-1.63-4.34a17.52,17.52,0,0,0-2.24-3.94,8.3,8.3,0,0,0-5-2.72c-2.9.18-5,.86-6.25,2s-2.45,3.58-3.54,7.2q11.55,7.07,21.33,13.92a100.75,100.75,0,0,1,14.27,11.55,22.61,22.61,0,0,1,5.77,9.31,23.11,23.11,0,0,1,.48,9.85q-.81,5.24-11.41,15.15a18.28,18.28,0,0,0-7.34-3.87,77,77,0,0,0-13.31-2.11,76.29,76.29,0,0,0-13.25,2.17A32.14,32.14,0,0,0,329.11,114.57Z"/><path class="cls-1" d="M448.67,114.84q-12.23-11.15-16.44-22.76a69.67,69.67,0,0,1-3.94-25.34,117.77,117.77,0,0,1,4.55-35A101.54,101.54,0,0,1,447.85,1a61.32,61.32,0,0,0,8.77,3.53,66.35,66.35,0,0,0,13,1.9,58.42,58.42,0,0,0,11.62-1.83,54.39,54.39,0,0,0,9-3.6,131.87,131.87,0,0,1,7.47,11.48A95.42,95.42,0,0,1,503.83,26a112.25,112.25,0,0,0-17.66-3,52.91,52.91,0,0,0-13.46.27A22,22,0,0,0,464.83,26a39.15,39.15,0,0,0-5.36,10.25,44.08,44.08,0,0,0-2.24,11.21,25.74,25.74,0,0,0,12.22,4,65.06,65.06,0,0,0,12.37-.82,112.31,112.31,0,0,0,14-3.19,42.83,42.83,0,0,0,0,24.32,61.58,61.58,0,0,0-14.13-3.4,88.41,88.41,0,0,0-12.29-.47,27.25,27.25,0,0,0-11.76,3.33,41.2,41.2,0,0,0,2.72,11.82,18.86,18.86,0,0,0,5.44,8,100.28,100.28,0,0,0,10,1.7,69.3,69.3,0,0,0,12.77.07,159.67,159.67,0,0,0,17.26-2.31,68.82,68.82,0,0,1-15.22,24.32,64.91,64.91,0,0,0-8.9-3.4,81.53,81.53,0,0,0-11.07-2.31q-10.33,1.23-14.13,2.79T448.67,114.84Z"/><path class="cls-1" d="M531,115.11A91.52,91.52,0,0,1,518.23,92a71.08,71.08,0,0,1-4.08-25.27,121.39,121.39,0,0,1,5-35.12,99.34,99.34,0,0,1,15.83-31,100.11,100.11,0,0,0,8.69,30.7A94.34,94.34,0,0,0,562,58.05q2.29-7.61-1-17.53a84.87,84.87,0,0,0-6.92-16.17,23.25,23.25,0,0,0,6.72-2.1,19.54,19.54,0,0,0,6-4.69A28.67,28.67,0,0,0,571.55,10q2-4.48,4.28-9.37a107.54,107.54,0,0,1,12.3,26.22A90.2,90.2,0,0,1,592,56.15a140.27,140.27,0,0,1-5.23,30.57,81.48,81.48,0,0,1-15,28.25,193.53,193.53,0,0,0-6.93-24.18q-4.22-11.69-8.76-16.64a62.88,62.88,0,0,0-10.4-9,45.61,45.61,0,0,0,1.22,14,51.63,51.63,0,0,0,5,12.09,29.94,29.94,0,0,0-6.45,1.43,15.37,15.37,0,0,0-5.84,4,24.82,24.82,0,0,0-5,7.88A97.14,97.14,0,0,0,531,115.11Z"/><path class="cls-1" d="M625.29,115a134.29,134.29,0,0,0,5.64-21.73,99.24,99.24,0,0,0,1.29-20.18q-.4-9.84-1-18.34t-2.79-11.55q-2.17-3.06-4.14-3.73a8.4,8.4,0,0,0-4.15-.34,11.67,11.67,0,0,0-4.89,2.31,20.29,20.29,0,0,0-5,5.36,62.63,62.63,0,0,0-4.49,8.29,57,57,0,0,0-3.6,10.73q-1.63-3.12-1.43-12.63t4.56-24.8A64.81,64.81,0,0,1,620.4,1.53a59,59,0,0,0,8.76,3.74q4,1.29,12.43,1.69a49.64,49.64,0,0,0,12.16-1.83,76.5,76.5,0,0,0,9-3.6,65.78,65.78,0,0,1,14.94,26.83q4.35,15.28,4.62,24.8t-1.63,12.5a53.11,53.11,0,0,0-5.37-13.93q-4.27-8.22-7.27-10.32A12.85,12.85,0,0,0,662.79,39a9.48,9.48,0,0,0-4.49.41,8.73,8.73,0,0,0-4.14,3.73q-2,3-2.51,11.62t-1,18.54a85.57,85.57,0,0,0,1.42,20A185.45,185.45,0,0,0,657.62,115c-2.35-.72-4.53-1.42-6.52-2.1a43.11,43.11,0,0,0-9.51-1.56,41.82,41.82,0,0,0-9.64,1.63Q628.82,114,625.29,115Z"/><path class="cls-1" d="M711.42,114.84Q699.2,103.7,695,92.08A69.89,69.89,0,0,1,691,66.74a117.77,117.77,0,0,1,4.56-35A101.54,101.54,0,0,1,710.61,1a61.7,61.7,0,0,0,8.76,3.53,66.49,66.49,0,0,0,13,1.9A58.18,58.18,0,0,0,744,4.59,54.14,54.14,0,0,0,753,1a131.87,131.87,0,0,1,7.47,11.48A95.52,95.52,0,0,1,766.58,26a112.06,112.06,0,0,0-17.66-3,52.83,52.83,0,0,0-13.45.27A21.9,21.9,0,0,0,727.59,26a39.15,39.15,0,0,0-5.36,10.25A43.66,43.66,0,0,0,720,47.45a25.81,25.81,0,0,0,12.23,4,65,65,0,0,0,12.36-.82,112.44,112.44,0,0,0,14-3.19,42.65,42.65,0,0,0,0,24.32,61.58,61.58,0,0,0-14.13-3.4,88.55,88.55,0,0,0-12.3-.47,27.21,27.21,0,0,0-11.75,3.33,40.87,40.87,0,0,0,2.72,11.82,18.94,18.94,0,0,0,5.43,8,100,100,0,0,0,10.06,1.7,69.29,69.29,0,0,0,12.77.07,159.19,159.19,0,0,0,17.25-2.31,68.65,68.65,0,0,1-15.21,24.32,64.91,64.91,0,0,0-8.9-3.4,81.38,81.38,0,0,0-11.08-2.31q-10.32,1.23-14.13,2.79T711.42,114.84Z"/><path class="cls-1" d="M823.51,116.88a25.3,25.3,0,0,0,3.74-7.14,21,21,0,0,0,1.08-6.92,11.61,11.61,0,0,0-1.76-6,12.27,12.27,0,0,0-6.05-4.48,72.51,72.51,0,0,0,7.07-7.54,33.85,33.85,0,0,0,4.34-6.66,14,14,0,0,0,1.16-6.73,18.88,18.88,0,0,0-1.43-6.59,16.75,16.75,0,0,0-3.73-5.23q-2.52-2.45-7.95-3.12-5.58.94-7.81,3.8a20.41,20.41,0,0,0-3.47,7.41q-1.22,4.55.88,11.14a58.81,58.81,0,0,0,6,13,14.19,14.19,0,0,0-6.59.75,19.58,19.58,0,0,0-6.45,4.14,26.75,26.75,0,0,0-5.64,7.61,41,41,0,0,0-3.6,10.33A89.36,89.36,0,0,1,781,92a68.91,68.91,0,0,1-3.94-25.27,125.46,125.46,0,0,1,4.82-35.12A101.36,101.36,0,0,1,796.61,1a52.11,52.11,0,0,0,9,3.66C808.23,5.38,813,6,820,6.42a57.4,57.4,0,0,0,10-1.83A27,27,0,0,0,838.73.17,60.68,60.68,0,0,1,845.11,11a62.79,62.79,0,0,1,5.17,13.72,45.46,45.46,0,0,1,1,12.71,20,20,0,0,1-3.47,9,18.41,18.41,0,0,1-5.36,5.17,31.69,31.69,0,0,1-6.12,2.64,37,37,0,0,1,9.17,6.25A33.51,33.51,0,0,1,852.58,70a37.46,37.46,0,0,1,2.18,15.22A25.11,25.11,0,0,1,851.29,96a38.41,38.41,0,0,1-7.26,8.83q-4.9,3.94-9.79,7.14A41.55,41.55,0,0,1,823.51,116.88Zm3.94-77.58V37a28.79,28.79,0,0,0-2.58-9,8.64,8.64,0,0,0-7.47-5.37A9,9,0,0,0,809.86,28a22.07,22.07,0,0,0-2.52,9V39.3A25.48,25.48,0,0,1,817.4,37,23.28,23.28,0,0,1,827.45,39.3Z"/><path class="cls-1" d="M980.7,115a42.39,42.39,0,0,1-10.39-4.82,46,46,0,0,1-10.26-8.63,22.52,22.52,0,0,1-3.8,6.46,57.06,57.06,0,0,1-6.79,6.59,31.63,31.63,0,0,1-9.58-5.37q-5-3.87-12.57-13.52L931,108.59a19.86,19.86,0,0,0-9.85,1.22,14.8,14.8,0,0,0-6.18,4.76q-10.47-9.51-13-21.06a87,87,0,0,1-1.56-24.86,143.88,143.88,0,0,1,4.48-22.56A66.18,66.18,0,0,1,915,25.44,14.49,14.49,0,0,0,922.42,30a21.45,21.45,0,0,0,9.78.07q-3.54,10.88-5.57,20.24A114.46,114.46,0,0,0,924.18,70q.69,6.39,3.47,9.92A13.83,13.83,0,0,0,934,84.68a11.75,11.75,0,0,0,5.57-4.49Q942,76.8,942.66,70a84.38,84.38,0,0,0-1.49-19.76,143.69,143.69,0,0,0-5.57-19.91,19,19,0,0,0,8.49-.47,15.15,15.15,0,0,0,6.18-3.74,104.51,104.51,0,0,1,10.46,26q3.39,13.46,2.45,31a8,8,0,0,0,5.16-2.52,13.92,13.92,0,0,0,2.51-5.77,38.56,38.56,0,0,0,.48-10.53,84.31,84.31,0,0,0-2.65-15.49q-2.25-8.76-4.55-17.32a19.1,19.1,0,0,0,9.64-1.29Q978,28.3,979.07,26a103.68,103.68,0,0,1,9.78,19.08q3.81,9.85,4.9,24.39A99,99,0,0,1,992,94.6,38.68,38.68,0,0,1,980.7,115Z"/><path class="cls-1" d="M1019.15,115.38a92.52,92.52,0,0,1-12.5-23.3,71.87,71.87,0,0,1-3.8-25.34,119.15,119.15,0,0,1,4.55-35.12A91.91,91.91,0,0,1,1023,1a12.23,12.23,0,0,0,6.25,4.89,26.87,26.87,0,0,0,9.78.54,141.42,141.42,0,0,0-4.08,16.78,96.08,96.08,0,0,0-1.36,16.37,33.66,33.66,0,0,1,7.82-2.38,21,21,0,0,1,8.49.61,33.58,33.58,0,0,1,9.85,4.56,34.34,34.34,0,0,1,9.1,9,49.09,49.09,0,0,1,6.66,15A58.79,58.79,0,0,1,1077.71,85a56.85,56.85,0,0,1-2.92,16.37,62.81,62.81,0,0,1-7.41,14.33,61.37,61.37,0,0,0-3.6-10.25,22.17,22.17,0,0,0-5.64-7.88,23.26,23.26,0,0,0-6-4,27.2,27.2,0,0,0-5.78-1.63A87.59,87.59,0,0,0,1051,77.07a78.16,78.16,0,0,0,1.77-10.73,14.79,14.79,0,0,0-.55-5.64,8.74,8.74,0,0,0-2.92-3.87,9.13,9.13,0,0,0-5.57-1.91,7.8,7.8,0,0,0-5.5,1.63,9.56,9.56,0,0,0-2.92,3.88,15.71,15.71,0,0,0-.41,6.59,67.54,67.54,0,0,0,2.24,11.2q1.85,6.73,4,13.39a15.77,15.77,0,0,0-6.38,1,22.36,22.36,0,0,0-6.39,4.07,21.82,21.82,0,0,0-5.57,7.81A66.86,66.86,0,0,0,1019.15,115.38Z"/><path class="cls-1" d="M1101.21,114.57q-10.05-9.1-12.5-20.86a80.15,80.15,0,0,1-1.08-24.79,90.58,90.58,0,0,1,3.6-22,72.25,72.25,0,0,1,10.53-21.47,41.13,41.13,0,0,0,9.51,4.35A46.65,46.65,0,0,0,1123,30.88,36.1,36.1,0,0,0,1134.29,29q4-1.56,9.85-3.6a96.88,96.88,0,0,1,9.38,21,94.61,94.61,0,0,1,3.94,17.8,160.24,160.24,0,0,1,.27,19.36q-9.51-3.25-17.39-5.23a49.06,49.06,0,0,0-15.15-1.49,25.5,25.5,0,0,0-13.38,4.82,26,26,0,0,0,7.13,7.88q4.56,3.39,14.68,3.19A102.62,102.62,0,0,0,1157.19,89a66.86,66.86,0,0,1-4,13.79q-2.25,5-9.58,11.75a21.77,21.77,0,0,0-7.4-3.94,60.65,60.65,0,0,0-12.71-2q-9.91.81-14.19,2.17A34,34,0,0,0,1101.21,114.57Zm31.93-52.72V59.68a28.53,28.53,0,0,0-2.51-8.9,8.54,8.54,0,0,0-7.41-5.23,8.83,8.83,0,0,0-7.34,5.23,21.75,21.75,0,0,0-2.44,8.9v2.17a25.63,25.63,0,0,1,9.78-2.17A23.75,23.75,0,0,1,1133.14,61.85Z"/><path class="cls-1" d="M1180.83,115.11q-9.51-9.64-12-21.33a76.93,76.93,0,0,1-1-24.86,133.26,133.26,0,0,1,4.35-22.49,75.4,75.4,0,0,1,9.78-21,17.61,17.61,0,0,0,7.82,5.16,17.14,17.14,0,0,0,9.57.28l-3.66,14.67a48.63,48.63,0,0,1,12.09-11.14q6.93-4.48,15.49-9a90.93,90.93,0,0,1,9.23,20.72,147.36,147.36,0,0,1,4.9,22.76,85.64,85.64,0,0,1-1.64,24.79q-2.58,11.63-12.49,21a15.46,15.46,0,0,0-3-6.31q-2.6-3.6-9.51-8.5,1.76-7.61,2.78-13.65A43.37,43.37,0,0,0,1214,75a29.19,29.19,0,0,0-1.69-8.15,9.78,9.78,0,0,0-4.55-4.82,9.21,9.21,0,0,0-7-.89q-3.67,1-6.39,5.17t-2.71,11.54q0,7.35,2.17,22a17.41,17.41,0,0,0-7.74,4.83Q1182.86,108.19,1180.83,115.11Z"/><path class="cls-1" d="M1296.58,114.57a33.94,33.94,0,0,1-10.32-13.66A42.79,42.79,0,0,1,1282.79,86q-.19-7,1.36-11.14T1290.6,67a26.24,26.24,0,0,1,12.3-4.83,139.28,139.28,0,0,1,15.42-1.35l8.15.68a34.27,34.27,0,0,0-1-8.16,16.19,16.19,0,0,0-2.24-5q-1.37-1.91-4.89-2.72-4.35.27-6.25,2c-1.27,1.18-2.58,3.39-3.94,6.65a18,18,0,0,0-8.08-1.08A16.77,16.77,0,0,0,1292,55.4a50.41,50.41,0,0,0-8.42,7.54q.54-5.7,3.74-16.58a69.45,69.45,0,0,1,10.39-20.92,35.73,35.73,0,0,0,8.69,3.81,109.16,109.16,0,0,0,11.42,2.17,93.8,93.8,0,0,0,11.82-2.24,58.37,58.37,0,0,0,9.37-3.74,81.61,81.61,0,0,1,9.65,20.79,122.69,122.69,0,0,1,4.48,22.69,82.36,82.36,0,0,1-1.22,24.72q-2.45,11.7-12.91,20.93a18.24,18.24,0,0,0-7.47-3.87,79.64,79.64,0,0,0-13.18-2.11,65.22,65.22,0,0,0-13.38,2.11A31.48,31.48,0,0,0,1296.58,114.57Zm21.74-17.94a17.82,17.82,0,0,0,7.27-3.26,8.84,8.84,0,0,0,3-5.09,11.85,11.85,0,0,0-1.16-7.07,6.8,6.8,0,0,0-6.25-4.28,25.69,25.69,0,0,0-8.08.68,10.56,10.56,0,0,0-5.3,2.86,6.16,6.16,0,0,0-1.49,4.75,16.13,16.13,0,0,0,1.29,5.37,12.22,12.22,0,0,0,3.26,4.41C1312.3,96.27,1314.79,96.82,1318.32,96.63Z"/><path class="cls-1" d="M1404.59,97.72q-6.79-.54-11.14,2.72a16.07,16.07,0,0,0-5.7,6.79,27.67,27.67,0,0,0-1.63,8.42,37.23,37.23,0,0,1-17-18.47q-5.57-12.51-6.38-29.89a116.24,116.24,0,0,1,4.62-35A118.43,118.43,0,0,1,1382.31.58a23.67,23.67,0,0,0,6.52,4.55Q1392.64,7,1399,6q-2.31,9.38-4.35,19.84a155.65,155.65,0,0,0-2.58,22.69,97.16,97.16,0,0,0,1.77,23.64Q1396.17,83.6,1404.59,97.72Z"/><path class="cls-1" d="M1455.68,97.72q-6.79-.54-11.14,2.72a16.1,16.1,0,0,0-5.71,6.79,27.67,27.67,0,0,0-1.63,8.42,37.16,37.16,0,0,1-17-18.47q-5.58-12.51-6.39-29.89a116.56,116.56,0,0,1,4.62-35,118.16,118.16,0,0,1,15-31.72,23.53,23.53,0,0,0,6.52,4.55q3.8,1.83,10.19.88-2.31,9.38-4.35,19.84a154.28,154.28,0,0,0-2.58,22.69,96.66,96.66,0,0,0,1.76,23.64Q1447.25,83.6,1455.68,97.72Z"/><path class="cls-1" d="M137.14,306.51A83.28,83.28,0,0,1,124.3,280.9a90.82,90.82,0,0,1-3.74-29.82,134.39,134.39,0,0,1,5.1-30.57,87.64,87.64,0,0,1,14.19-28.12,90.73,90.73,0,0,0,9.24,3.53,60.23,60.23,0,0,0,12,1.9,46.39,46.39,0,0,0,11.34-2,66.8,66.8,0,0,0,7.68-3.54,76.54,76.54,0,0,1,5.7,8.29q2.31,3.94,4.08,7.74a32.17,32.17,0,0,1,2.51,9.18A43.12,43.12,0,0,1,192,230q-1.16,7.2-5.85,10.74a27.84,27.84,0,0,1-10.46,4.89q-5.78,1.35-9.37,1.83a23.32,23.32,0,0,0-8,2.92,10.81,10.81,0,0,0-5.57,6.73,19.89,19.89,0,0,0-.54,8.28,29.71,29.71,0,0,0,2.65,8.29c1.36,2.86,2.8,5.78,4.35,8.77a29.7,29.7,0,0,0-6.87,1.49A18.21,18.21,0,0,0,146,288a23.13,23.13,0,0,0-5.3,7.81A68.6,68.6,0,0,0,137.14,306.51Zm34.1-76.62v-2.18a28.44,28.44,0,0,0-2.52-8.9,8.53,8.53,0,0,0-7.4-5.23,8.85,8.85,0,0,0-7.34,5.23,21.83,21.83,0,0,0-2.44,8.9v2.18a25.64,25.64,0,0,1,9.78-2.18A23.6,23.6,0,0,1,171.24,229.89Z"/><path class="cls-1" d="M243.38,264.67q-6.8-.54-11.14,2.71a16.19,16.19,0,0,0-5.71,6.8,27.91,27.91,0,0,0-1.63,8.42,37.14,37.14,0,0,1-17-18.48q-5.56-12.5-6.39-29.89a116.49,116.49,0,0,1,4.62-35,118.16,118.16,0,0,1,14.95-31.72,23.74,23.74,0,0,0,6.52,4.55q3.8,1.83,10.19.88-2.31,9.38-4.35,19.84a154.12,154.12,0,0,0-2.58,22.69,97.16,97.16,0,0,0,1.77,23.64Q235,250.53,243.38,264.67Z"/><path class="cls-1" d="M266.34,281.51A34,34,0,0,1,256,267.86a43,43,0,0,1-3.46-14.94,29.88,29.88,0,0,1,1.36-11.15q1.56-4.14,6.45-7.88a26.19,26.19,0,0,1,12.3-4.82,141.47,141.47,0,0,1,15.42-1.36l8.15.68a34.18,34.18,0,0,0-1-8.15,16.5,16.5,0,0,0-2.24-5c-.91-1.26-2.54-2.17-4.89-2.71q-4.35.27-6.25,2t-3.94,6.66a18.07,18.07,0,0,0-8.09-1.09,16.73,16.73,0,0,0-8.08,2.25,50,50,0,0,0-8.42,7.54A96.55,96.55,0,0,1,257,213.31a69.37,69.37,0,0,1,10.4-20.92,35.13,35.13,0,0,0,8.69,3.8,108.44,108.44,0,0,0,11.41,2.18,94.91,94.91,0,0,0,11.82-2.24,58.08,58.08,0,0,0,9.38-3.74,81.24,81.24,0,0,1,9.64,20.79,122.38,122.38,0,0,1,4.49,22.69,82.71,82.71,0,0,1-1.22,24.72q-2.44,11.69-12.91,20.92a18.31,18.31,0,0,0-7.47-3.87,80,80,0,0,0-13.18-2.1,66,66,0,0,0-13.38,2.1A31.48,31.48,0,0,0,266.34,281.51Zm21.74-17.93a17.82,17.82,0,0,0,7.27-3.26,8.87,8.87,0,0,0,3-5.09,11.92,11.92,0,0,0-1.16-7.07,6.79,6.79,0,0,0-6.25-4.28,25.69,25.69,0,0,0-8.08.68,10.55,10.55,0,0,0-5.3,2.85,6.22,6.22,0,0,0-1.5,4.76,16.51,16.51,0,0,0,1.29,5.36,12.4,12.4,0,0,0,3.27,4.42C282.05,263.22,284.55,263.76,288.08,263.58Z"/><path class="cls-1" d="M353.43,307.6a81.46,81.46,0,0,0-4.69-10.46q-3.06-5.85-7.34-7.95c-2.85-1.4-5.36-1.79-7.54-1.15a120.49,120.49,0,0,1,8.7-19,113,113,0,0,0,8.29-17.86,21.16,21.16,0,0,0-4.28-7.07,28.2,28.2,0,0,0-7.48-6.32,24.68,24.68,0,0,0-6.86-2.92q0-15.21,3.33-25.2t13.25-17.32a71.77,71.77,0,0,0,.68,14.54,64.62,64.62,0,0,0,4.69,16,44.31,44.31,0,0,0,9.44,14.33q3.53-5,6.66-9.71A18.58,18.58,0,0,0,373.4,217l-2.31-17a15,15,0,0,0,8.56-.68,10.62,10.62,0,0,0,6.66-6.93,56.88,56.88,0,0,1,9,14.13A54.7,54.7,0,0,1,400,223.37a267.07,267.07,0,0,0-27.11,39.4A239.43,239.43,0,0,0,353.43,307.6Z"/><path class="cls-1" d="M423.12,281.51q-10-9.09-12.49-20.85a80.14,80.14,0,0,1-1.09-24.79,90.58,90.58,0,0,1,3.6-22,72.62,72.62,0,0,1,10.53-21.47,42,42,0,0,0,9.51,4.35,47.23,47.23,0,0,0,11.68,1.08A36.22,36.22,0,0,0,456.21,196q4-1.56,9.85-3.6a96.62,96.62,0,0,1,9.37,21,92.89,92.89,0,0,1,3.94,17.8,158.13,158.13,0,0,1,.27,19.36q-9.51-3.27-17.39-5.23a49.38,49.38,0,0,0-15.15-1.5,25.63,25.63,0,0,0-13.38,4.83,26.16,26.16,0,0,0,7.14,7.88q4.54,3.39,14.67,3.19A102.69,102.69,0,0,0,479.1,256a65.87,65.87,0,0,1-4,13.79q-2.23,5-9.58,11.75a21.94,21.94,0,0,0-7.4-3.94,61.33,61.33,0,0,0-12.7-2q-9.93.81-14.2,2.17A34.14,34.14,0,0,0,423.12,281.51Zm31.93-52.71v-2.17a28.53,28.53,0,0,0-2.51-8.9,8.51,8.51,0,0,0-7.41-5.23,8.79,8.79,0,0,0-7.33,5.23,21.77,21.77,0,0,0-2.45,8.9v2.17a25.63,25.63,0,0,1,9.78-2.17A23.56,23.56,0,0,1,455.05,228.8Z"/><path class="cls-1" d="M502.61,281.65A39.74,39.74,0,0,1,490.72,261a80.59,80.59,0,0,1-1.16-25.13,118.19,118.19,0,0,1,4.15-22.69,74.91,74.91,0,0,1,10-20.79,18.61,18.61,0,0,0,7.95,5.16,16.2,16.2,0,0,0,9.31.27l-3.54,14.81a112.82,112.82,0,0,1,10.19-11q3.95-3.54,10.47-8.29a30,30,0,0,1,8.08,5.77,37.28,37.28,0,0,1,9.64,22.15,24,24,0,0,1-2.51,12,16.37,16.37,0,0,0-4.69-6.59,20.26,20.26,0,0,0-7.74-4.21,20,20,0,0,0-8.56-.68,22.13,22.13,0,0,0-7.47,2.45,21.54,21.54,0,0,0-6.25,5.43,20.9,20.9,0,0,0-4.08,8.56,35.61,35.61,0,0,0-1,9.17q.13,4.22,2.18,19a17,17,0,0,0-8.49,5A20.4,20.4,0,0,0,502.61,281.65Z"/><path class="cls-1" d="M578,281.51a33.54,33.54,0,0,1-10.46-13.58q-3.27-7.87-2.59-20.25a31.86,31.86,0,0,0,6,4,17.08,17.08,0,0,0,7.34,1.5q4.49.06,10.46-2.79a43.46,43.46,0,0,0,1,13.45,18.94,18.94,0,0,1,7.47-1.56,40,40,0,0,1,9.11.61q1.35-4.35,1-6.45a11.87,11.87,0,0,0-2.45-4.76,49.88,49.88,0,0,0-7.2-6.93,132.3,132.3,0,0,0-14.13-9.85q-9-5.57-12.16-9.85t-3.39-7q-.21-2.72,2-9.11t9.23-16.57a31.72,31.72,0,0,0,8.7,4,99.24,99.24,0,0,0,11.82,2,72.9,72.9,0,0,0,11.82-2.31,60.84,60.84,0,0,0,9-3.67,86.32,86.32,0,0,1,7.47,15.83q2.58,7.53,2.31,11.82a76.86,76.86,0,0,1-1.22,9.3,24.23,24.23,0,0,0-10.74-6.65q-5.57-1.5-9.64.81c-.55-1.54-1.09-3-1.63-4.35a17.75,17.75,0,0,0-2.24-3.94,8.34,8.34,0,0,0-5-2.71c-2.9.18-5,.86-6.25,2s-2.45,3.58-3.54,7.21q11.55,7.06,21.33,13.92t14.27,11.55a22.55,22.55,0,0,1,5.77,9.31,23.11,23.11,0,0,1,.48,9.85q-.81,5.22-11.41,15.14a18.28,18.28,0,0,0-7.34-3.87,77.19,77.19,0,0,0-13.31-2.1,76.29,76.29,0,0,0-13.25,2.17A32.12,32.12,0,0,0,578,281.51Z"/><path class="cls-1" d="M690.91,281.51a34,34,0,0,1-10.33-13.65,42.76,42.76,0,0,1-3.46-14.94,29.88,29.88,0,0,1,1.36-11.15q1.56-4.14,6.45-7.88a26.19,26.19,0,0,1,12.3-4.82,141.47,141.47,0,0,1,15.42-1.36l8.15.68a34.18,34.18,0,0,0-1-8.15,16.5,16.5,0,0,0-2.24-5c-.91-1.26-2.54-2.17-4.89-2.71q-4.35.27-6.25,2t-3.94,6.66a18.07,18.07,0,0,0-8.09-1.09,16.73,16.73,0,0,0-8.08,2.25,50,50,0,0,0-8.42,7.54,96.55,96.55,0,0,1,3.73-16.58A69.37,69.37,0,0,1,692,192.39a35,35,0,0,0,8.69,3.8,108.44,108.44,0,0,0,11.41,2.18,94.91,94.91,0,0,0,11.82-2.24,58.08,58.08,0,0,0,9.38-3.74,81.58,81.58,0,0,1,9.64,20.79,122.38,122.38,0,0,1,4.49,22.69,82.71,82.71,0,0,1-1.22,24.72q-2.44,11.69-12.91,20.92a18.31,18.31,0,0,0-7.47-3.87,80,80,0,0,0-13.18-2.1,66.29,66.29,0,0,0-13.39,2.1A31.56,31.56,0,0,0,690.91,281.51Zm21.74-17.93a17.82,17.82,0,0,0,7.27-3.26,8.87,8.87,0,0,0,3-5.09,11.92,11.92,0,0,0-1.16-7.07,6.79,6.79,0,0,0-6.25-4.28,25.69,25.69,0,0,0-8.08.68,10.55,10.55,0,0,0-5.3,2.85,6.18,6.18,0,0,0-1.5,4.76,16.51,16.51,0,0,0,1.29,5.36,12.49,12.49,0,0,0,3.26,4.42C706.62,263.22,709.12,263.76,712.65,263.58Z"/><path class="cls-1" d="M771.2,281.65A39.72,39.72,0,0,1,759.32,261a80.29,80.29,0,0,1-1.16-25.13,118.21,118.21,0,0,1,4.14-22.69,75.23,75.23,0,0,1,10-20.79,18.55,18.55,0,0,0,8,5.16,16.17,16.17,0,0,0,9.3.27L786,212.63a111.58,111.58,0,0,1,10.19-11q3.94-3.54,10.46-8.29a29.92,29.92,0,0,1,8.09,5.77,37.28,37.28,0,0,1,9.64,22.15,24,24,0,0,1-2.51,12,16.37,16.37,0,0,0-4.69-6.59,20.26,20.26,0,0,0-7.74-4.21,20,20,0,0,0-8.56-.68,22.13,22.13,0,0,0-7.47,2.45,21.41,21.41,0,0,0-6.25,5.43,20.9,20.9,0,0,0-4.08,8.56,35.61,35.61,0,0,0-1,9.17q.13,4.22,2.18,19a17,17,0,0,0-8.5,5A20.57,20.57,0,0,0,771.2,281.65Z"/><path class="cls-1" d="M847.83,281.51q-10.05-9.09-12.5-20.85a80.45,80.45,0,0,1-1.09-24.79,91.07,91.07,0,0,1,3.6-22,72.62,72.62,0,0,1,10.53-21.47,42.39,42.39,0,0,0,9.51,4.35,47.37,47.37,0,0,0,11.69,1.08A36.14,36.14,0,0,0,880.91,196q4-1.56,9.85-3.6a96.67,96.67,0,0,1,9.38,21,94.44,94.44,0,0,1,3.94,17.8,160.19,160.19,0,0,1,.27,19.36q-9.51-3.27-17.39-5.23a49.44,49.44,0,0,0-15.15-1.5,25.56,25.56,0,0,0-13.38,4.83,26.13,26.13,0,0,0,7.13,7.88q4.55,3.39,14.67,3.19A102.69,102.69,0,0,0,903.81,256a66.48,66.48,0,0,1-4,13.79q-2.25,5-9.58,11.75a22,22,0,0,0-7.41-3.94,61.21,61.21,0,0,0-12.7-2q-9.92.81-14.2,2.17A34.07,34.07,0,0,0,847.83,281.51Zm31.93-52.71v-2.17a28.29,28.29,0,0,0-2.52-8.9,8.49,8.49,0,0,0-7.4-5.23,8.81,8.81,0,0,0-7.34,5.23,21.75,21.75,0,0,0-2.44,8.9v2.17a25.63,25.63,0,0,1,9.78-2.17A23.59,23.59,0,0,1,879.76,228.8Z"/><path class="cls-1" d="M963.45,281.65A39.81,39.81,0,0,1,951.56,261a80.3,80.3,0,0,1-1.15-25.13,117.44,117.44,0,0,1,4.14-22.69,75.23,75.23,0,0,1,10-20.79,18.58,18.58,0,0,0,7.94,5.16,16.2,16.2,0,0,0,9.31.27l-3.53,14.81a110.36,110.36,0,0,1,10.19-11q3.93-3.54,10.46-8.29a29.87,29.87,0,0,1,8.08,5.77,37.2,37.2,0,0,1,9.65,22.15,24,24,0,0,1-2.52,12,16.25,16.25,0,0,0-4.68-6.59,20.23,20.23,0,0,0-7.75-4.21,20,20,0,0,0-8.56-.68,22.13,22.13,0,0,0-7.47,2.45,21.54,21.54,0,0,0-6.25,5.43,20.88,20.88,0,0,0-4.07,8.56,35.61,35.61,0,0,0-1,9.17q.13,4.22,2.17,19a17,17,0,0,0-8.49,5A20.4,20.4,0,0,0,963.45,281.65Z"/><path class="cls-1" d="M1040.07,281.51q-10-9.09-12.49-20.85a79.83,79.83,0,0,1-1.09-24.79,90.58,90.58,0,0,1,3.6-22,72.62,72.62,0,0,1,10.53-21.47,42,42,0,0,0,9.51,4.35,47.23,47.23,0,0,0,11.68,1.08,36.27,36.27,0,0,0,11.35-1.83q4-1.56,9.85-3.6a96.62,96.62,0,0,1,9.37,21,93.66,93.66,0,0,1,3.94,17.8,160.19,160.19,0,0,1,.27,19.36q-9.51-3.27-17.39-5.23a49.38,49.38,0,0,0-15.15-1.5,25.63,25.63,0,0,0-13.38,4.83,26.26,26.26,0,0,0,7.13,7.88q4.56,3.39,14.68,3.19a102.69,102.69,0,0,0,23.57-3.74,65.87,65.87,0,0,1-4,13.79q-2.24,5-9.58,11.75a21.94,21.94,0,0,0-7.4-3.94,61.33,61.33,0,0,0-12.7-2q-9.93.81-14.2,2.17A34,34,0,0,0,1040.07,281.51ZM1072,228.8v-2.17a28.53,28.53,0,0,0-2.51-8.9,8.51,8.51,0,0,0-7.41-5.23,8.79,8.79,0,0,0-7.33,5.23,21.77,21.77,0,0,0-2.45,8.9v2.17a25.63,25.63,0,0,1,9.78-2.17A23.56,23.56,0,0,1,1072,228.8Z"/><path class="cls-1" d="M1119.15,281.51a34,34,0,0,1-10.33-13.65,42.76,42.76,0,0,1-3.46-14.94q-.21-7,1.36-11.15t6.45-7.88a26.19,26.19,0,0,1,12.29-4.82,141.92,141.92,0,0,1,15.42-1.36l8.16.68a34.18,34.18,0,0,0-1-8.15,16.5,16.5,0,0,0-2.24-5c-.91-1.26-2.54-2.17-4.9-2.71-2.89.18-5,.86-6.25,2s-2.58,3.4-3.93,6.66a18.07,18.07,0,0,0-8.09-1.09,16.7,16.7,0,0,0-8.08,2.25,49.93,49.93,0,0,0-8.43,7.54q.54-5.71,3.74-16.58a69.57,69.57,0,0,1,10.39-20.92,35.18,35.18,0,0,0,8.7,3.8,108.44,108.44,0,0,0,11.41,2.18,95.66,95.66,0,0,0,11.82-2.24,58.44,58.44,0,0,0,9.38-3.74,81.58,81.58,0,0,1,9.64,20.79,122.38,122.38,0,0,1,4.49,22.69,82.7,82.7,0,0,1-1.23,24.72q-2.45,11.69-12.9,20.92a18.35,18.35,0,0,0-7.48-3.87,79.83,79.83,0,0,0-13.18-2.1,66.29,66.29,0,0,0-13.38,2.1A31.42,31.42,0,0,0,1119.15,281.51Zm21.73-17.93a17.69,17.69,0,0,0,7.27-3.26,8.82,8.82,0,0,0,3-5.09,11.91,11.91,0,0,0-1.15-7.07,6.79,6.79,0,0,0-6.25-4.28,25.75,25.75,0,0,0-8.09.68,10.52,10.52,0,0,0-5.29,2.85,6.15,6.15,0,0,0-1.5,4.76,16.51,16.51,0,0,0,1.29,5.36,12.37,12.37,0,0,0,3.26,4.42Q1135.58,263.86,1140.88,263.58Z"/><path class="cls-1" d="M1243.73,282.06a41.92,41.92,0,0,0-7.88-3.74,38,38,0,0,0-8.9-2,23.18,23.18,0,0,0-9.1.89,48.36,48.36,0,0,0-10.53,4.89l-10.87-9.24a56.87,56.87,0,0,1-7.54-9.78,23.65,23.65,0,0,1-3.33-10.6,36.09,36.09,0,0,1,2.18-15.49q2.71-5.3,4.89-7.27t6-5.09a78.88,78.88,0,0,1,12.64-7.61,98.2,98.2,0,0,1,18.54-7.2q-.54-9.37-1.83-18.14a158.51,158.51,0,0,0-4-18.68q6,1,9.51-.14a11.71,11.71,0,0,0,6.12-4.75,93.3,93.3,0,0,1,15.62,30.57,120.44,120.44,0,0,1,4.76,35.05,72.93,72.93,0,0,1-4,25.41A94.73,94.73,0,0,1,1243.73,282.06Zm-28.26-22.28a16.2,16.2,0,0,1,6.39-1.63,11.81,11.81,0,0,1,6.11,1.08q2.71-6.38,3.4-16.3a73.6,73.6,0,0,0-.14-15.22,39.41,39.41,0,0,0-8.62,2.72,29.28,29.28,0,0,0-6.59,4,18.37,18.37,0,0,0-4.28,4.89,11.7,11.7,0,0,0-1.29,6.86Q1210.72,250.41,1215.47,259.78Z"/><path class="cls-1" d="M1289.52,307.6a81.46,81.46,0,0,0-4.69-10.46q-3.06-5.85-7.34-7.95c-2.85-1.4-5.36-1.79-7.54-1.15a120.49,120.49,0,0,1,8.7-19,113,113,0,0,0,8.29-17.86,21.33,21.33,0,0,0-4.28-7.07,28.2,28.2,0,0,0-7.48-6.32,24.68,24.68,0,0,0-6.86-2.92q0-15.21,3.33-25.2t13.25-17.32a71.77,71.77,0,0,0,.68,14.54,65,65,0,0,0,4.68,16,44.49,44.49,0,0,0,9.45,14.33q3.52-5,6.65-9.71a18.51,18.51,0,0,0,3.13-10.53l-2.31-17a15,15,0,0,0,8.56-.68,10.62,10.62,0,0,0,6.66-6.93,56.88,56.88,0,0,1,9,14.13,54.7,54.7,0,0,1,4.76,16.85,267.07,267.07,0,0,0-27.11,39.4A239.43,239.43,0,0,0,1289.52,307.6Z"/></g></g></svg>