<svg xmlns="http://www.w3.org/2000/svg" viewBox="0 0 385.94 382.37"><g id="Layer_2" data-name="Layer 2"><g id="Art"><path d="M51.68,92.23A67.37,67.37,0,0,1,41.31,71.56a73.59,73.59,0,0,1-3-24.07,109.12,109.12,0,0,1,4.11-24.68A70.66,70.66,0,0,1,53.87.11,75.1,75.1,0,0,0,61.33,3,49.07,49.07,0,0,0,71,4.5,52.23,52.23,0,0,0,80.9,2.85a37.75,37.75,0,0,0,7-2.85,62.12,62.12,0,0,1,4.6,6.69c1.25,2.12,2.34,4.21,3.29,6.25a26.2,26.2,0,0,1,2,7.4,34.81,34.81,0,0,1-.33,10.15q-.93,5.81-4.71,8.66a22.49,22.49,0,0,1-9.21,4q-5.43,1.09-8.34,1.48a18.66,18.66,0,0,0-6.47,2.36,8.68,8.68,0,0,0-4.5,5.43,16.12,16.12,0,0,0-.43,6.69,24.07,24.07,0,0,0,2.13,6.69q1.65,3.45,3.51,7.07A24.15,24.15,0,0,0,63.9,74a14.81,14.81,0,0,0-5,3.29,18.81,18.81,0,0,0-4.28,6.3A56.75,56.75,0,0,0,51.68,92.23ZM79.2,30.38V28.62a22.88,22.88,0,0,0-2-7.18,6.86,6.86,0,0,0-6-4.22,7.1,7.1,0,0,0-5.92,4.22,17.45,17.45,0,0,0-2,7.18v1.76a20.82,20.82,0,0,1,7.9-1.76A19,19,0,0,1,79.2,30.38Z"/><path d="M116.6,91.9A32.17,32.17,0,0,1,107,75.23a65.14,65.14,0,0,1-.93-20.29,95.3,95.3,0,0,1,3.35-18.31,60.63,60.63,0,0,1,8.06-16.78A15.06,15.06,0,0,0,123.89,24a13.26,13.26,0,0,0,7.52.22l-2.86,12a91.23,91.23,0,0,1,8.23-8.88q3.18-2.85,8.44-6.69a23.86,23.86,0,0,1,6.53,4.66A27.5,27.5,0,0,1,157,33.17a27.58,27.58,0,0,1,2.58,10,19.47,19.47,0,0,1-2,9.71,13.17,13.17,0,0,0-3.79-5.32,16.32,16.32,0,0,0-6.25-3.4,16.11,16.11,0,0,0-6.91-.55,17.7,17.7,0,0,0-6,2,17.37,17.37,0,0,0-5,4.38,16.75,16.75,0,0,0-3.29,6.91,28.52,28.52,0,0,0-.83,7.41q.12,3.39,1.76,15.35a13.74,13.74,0,0,0-6.86,4.06A16.49,16.49,0,0,0,116.6,91.9Z"/><path d="M178.45,91.79A31,31,0,0,1,168.36,75a64.76,64.76,0,0,1-.87-20,73.18,73.18,0,0,1,2.9-17.76,58.66,58.66,0,0,1,8.5-17.33,33.72,33.72,0,0,0,7.68,3.51,37.64,37.64,0,0,0,9.43.88,29.34,29.34,0,0,0,9.16-1.48q3.22-1.26,8-2.91a77.77,77.77,0,0,1,7.56,16.94,75.67,75.67,0,0,1,3.19,14.37,129.91,129.91,0,0,1,.21,15.63q-7.66-2.64-14-4.22a39.51,39.51,0,0,0-12.23-1.21A20.67,20.67,0,0,0,187,65.25a20.81,20.81,0,0,0,5.75,6.36q3.68,2.74,11.85,2.58a82.5,82.5,0,0,0,19-3,53.16,53.16,0,0,1-3.24,11.14q-1.82,4-7.73,9.48a17.56,17.56,0,0,0-6-3.18A49,49,0,0,0,196.44,87,58,58,0,0,0,185,88.72,27.43,27.43,0,0,0,178.45,91.79Zm25.77-42.55V47.49a22.9,22.9,0,0,0-2-7.19,6.88,6.88,0,0,0-6-4.22,7.1,7.1,0,0,0-5.92,4.22,17.49,17.49,0,0,0-2,7.19v1.75a20.63,20.63,0,0,1,7.9-1.75A19,19,0,0,1,204.22,49.24Z"/><path d="M242.06,91.79a27,27,0,0,1-8.44-11q-2.64-6.36-2.09-16.35a25.8,25.8,0,0,0,4.83,3.24,13.71,13.71,0,0,0,5.92,1.21,19.59,19.59,0,0,0,8.44-2.25,35.29,35.29,0,0,0,.77,10.85,15.34,15.34,0,0,1,6-1.26,32.19,32.19,0,0,1,7.35.5,11.83,11.83,0,0,0,.77-5.21,9.65,9.65,0,0,0-2-3.84,38.74,38.74,0,0,0-5.81-5.59,104.51,104.51,0,0,0-11.4-8q-7.24-4.5-9.82-8t-2.74-5.64q-.16-2.19,1.59-7.35t7.46-13.38a25.45,25.45,0,0,0,7,3.24,82.52,82.52,0,0,0,9.54,1.59A58.71,58.71,0,0,0,269,22.81a49.13,49.13,0,0,0,7.24-3,70,70,0,0,1,6,12.78q2.08,6.07,1.86,9.54a62.58,62.58,0,0,1-1,7.51,19.53,19.53,0,0,0-8.67-5.37,10,10,0,0,0-7.78.65q-.66-1.86-1.32-3.51a14.15,14.15,0,0,0-1.81-3.18,6.71,6.71,0,0,0-4-2.19q-3.51.22-5.05,1.65t-2.85,5.81q9.32,5.7,17.22,11.24a81,81,0,0,1,11.51,9.32,18.13,18.13,0,0,1,4.66,7.51,18.5,18.5,0,0,1,.39,8q-.66,4.23-9.21,12.23a14.7,14.7,0,0,0-5.93-3.12A61.87,61.87,0,0,0,259.61,87a61.91,61.91,0,0,0-10.7,1.75A26.16,26.16,0,0,0,242.06,91.79Z"/><path d="M303.8,91.79a27.09,27.09,0,0,1-8.44-11q-2.64-6.36-2.09-16.35a26.13,26.13,0,0,0,4.83,3.24A13.75,13.75,0,0,0,304,68.93a19.67,19.67,0,0,0,8.45-2.25,35,35,0,0,0,.76,10.85,15.43,15.43,0,0,1,6-1.26,32.14,32.14,0,0,1,7.34.5,11.83,11.83,0,0,0,.77-5.21,9.74,9.74,0,0,0-2-3.84,39.43,39.43,0,0,0-5.82-5.59,103.53,103.53,0,0,0-11.4-8q-7.24-4.5-9.82-8c-1.71-2.3-2.63-4.18-2.74-5.64s.42-3.91,1.59-7.35,3.66-7.9,7.46-13.38a25.59,25.59,0,0,0,7,3.24,82.52,82.52,0,0,0,9.54,1.59,58.71,58.71,0,0,0,9.54-1.87,49.13,49.13,0,0,0,7.24-3,70,70,0,0,1,6,12.78q2.08,6.07,1.87,9.54a62.72,62.72,0,0,1-1,7.51,19.53,19.53,0,0,0-8.67-5.37,10,10,0,0,0-7.78.65q-.66-1.86-1.32-3.51a14.15,14.15,0,0,0-1.81-3.18,6.71,6.71,0,0,0-4-2.19q-3.51.22-5.05,1.65t-2.85,5.81q9.33,5.7,17.22,11.24a81.22,81.22,0,0,1,11.52,9.32,18.34,18.34,0,0,1,4.66,7.51,18.66,18.66,0,0,1,.38,8q-.66,4.23-9.21,12.23a14.72,14.72,0,0,0-5.92-3.12A62.19,62.19,0,0,0,321.35,87a61.6,61.6,0,0,0-10.69,1.75A26.08,26.08,0,0,0,303.8,91.79Z"/><path d="M16.14,361.86q2.53-12.28,4.17-23.36A154.63,154.63,0,0,0,22,315.69c-1-3.07-2.56-5-4.61-5.7a13.91,13.91,0,0,0-6.2-.77A11.68,11.68,0,0,0,6,310.86c-1.35.88-2.8,2.85-4.33,5.93A38.48,38.48,0,0,1,0,304.67a36.34,36.34,0,0,1,1.1-8.56,27.35,27.35,0,0,1,2.3-5.43A17,17,0,0,0,8.74,293a16.13,16.13,0,0,0,6.64.16q3.61-.6,4.71-1.7a27.37,27.37,0,0,0,.06-7.56,27.28,27.28,0,0,0-1.7-6.69q-1.21-3-2.63-7c2.26.8,4.4,1.52,6.41,2.14a22.55,22.55,0,0,0,7.18.82,17,17,0,0,0,6.69-.82c2-.7,4.24-1.41,6.8-2.14-1.09,2.7-2,5-2.79,7a30.29,30.29,0,0,0-1.7,6.63,22.74,22.74,0,0,0,.22,7.73q.87,1.1,4.49,1.59a18,18,0,0,0,6.64-.22,18.76,18.76,0,0,0,5.54-2.25,31.74,31.74,0,0,1,2.19,5.49,37.17,37.17,0,0,1,1.1,8.5,41.19,41.19,0,0,1-1.54,12.12V317q-2.52-4.71-4.5-6.08a10.47,10.47,0,0,0-5.1-1.65,15.1,15.1,0,0,0-6.19.77q-3.07,1.05-4.39,5.65a137.58,137.58,0,0,0,1.43,22.86q1.64,11.15,4.27,23.31C41,361,39.5,360.2,38,359.5s-4.39-1.26-8.56-1.7A45.14,45.14,0,0,0,21,359.45,24.28,24.28,0,0,0,16.14,361.86Z"/><path d="M77.23,361.09a31,31,0,0,1-9.87-16.67,66.45,66.45,0,0,1-1-20A114.81,114.81,0,0,1,70,306.2a56.31,56.31,0,0,1,8.12-16.83,34.85,34.85,0,0,0,7.23,3,61,61,0,0,0,9.87,1.43,58,58,0,0,0,9-1.43,45.45,45.45,0,0,0,7.67-3,66.43,66.43,0,0,1,7.63,16.78,118.51,118.51,0,0,1,3.78,18.31,67.59,67.59,0,0,1-1.15,19.91q-2,9.38-10.47,16.72a15.18,15.18,0,0,0-6-3,66.85,66.85,0,0,0-10.48-1.64,46.89,46.89,0,0,0-11,1.64A44.11,44.11,0,0,0,77.23,361.09Zm18-16.45q5.6-1.65,7.41-6.25a30.49,30.49,0,0,0,1.92-10.53,29.44,29.44,0,0,0-2-11.29,20.61,20.61,0,0,0-7.35-9.22,21.24,21.24,0,0,0-7.34,9.33,29.44,29.44,0,0,0-2,11.29,28.24,28.24,0,0,0,2,10.42Q89.73,342.89,95.21,344.64Z"/><path d="M173.74,381.49a67.6,67.6,0,0,1-10.37-20.67,73.61,73.61,0,0,1-3-24.08,109,109,0,0,1,4.11-24.67,70.66,70.66,0,0,1,11.46-22.7,75.1,75.1,0,0,0,7.46,2.85,49.07,49.07,0,0,0,9.65,1.54,37.53,37.53,0,0,0,9.16-1.65,53.15,53.15,0,0,0,6.19-2.85A62.3,62.3,0,0,1,213,296q1.86,3.18,3.29,6.25a26.54,26.54,0,0,1,2,7.4,34.81,34.81,0,0,1-.33,10.15q-.93,5.81-4.72,8.66a22.42,22.42,0,0,1-8.44,3.95q-4.67,1.09-7.57,1.48a18.66,18.66,0,0,0-6.47,2.36,8.68,8.68,0,0,0-4.5,5.43,16.08,16.08,0,0,0-.43,6.68A23.86,23.86,0,0,0,188,355q1.65,3.47,3.51,7.08a24.7,24.7,0,0,0-5.54,1.2,15.12,15.12,0,0,0-5,3.29,18.86,18.86,0,0,0-4.28,6.31A56,56,0,0,0,173.74,381.49Zm27.52-61.85v-1.76a22.88,22.88,0,0,0-2-7.18,6.86,6.86,0,0,0-6-4.22,7.1,7.1,0,0,0-5.92,4.22,17.45,17.45,0,0,0-2,7.18v1.76a20.82,20.82,0,0,1,7.9-1.76A19,19,0,0,1,201.26,319.64Z"/><path d="M259.5,347.71a12.8,12.8,0,0,0-9,2.2,13,13,0,0,0-4.6,5.48,22.61,22.61,0,0,0-1.32,6.8,30.07,30.07,0,0,1-13.71-14.92q-4.5-10.08-5.15-24.12a93.9,93.9,0,0,1,3.73-28.24,95.45,95.45,0,0,1,12.06-25.61,18.93,18.93,0,0,0,5.27,3.67q3.06,1.48,8.22.72-1.86,7.56-3.51,16A124.13,124.13,0,0,0,249.41,308a78.58,78.58,0,0,0,1.42,19.08Q252.71,336.32,259.5,347.71Z"/><path d="M278,361.31a27.33,27.33,0,0,1-8.33-11,34.48,34.48,0,0,1-2.8-12.06,24.14,24.14,0,0,1,1.1-9,14.88,14.88,0,0,1,5.21-6.36,21.1,21.1,0,0,1,9.92-3.89,111.26,111.26,0,0,1,12.45-1.1l6.58.55a28.32,28.32,0,0,0-.82-6.58,13.36,13.36,0,0,0-1.81-4.06,6.47,6.47,0,0,0-3.95-2.19q-3.51.22-5.05,1.64a16.3,16.3,0,0,0-3.18,5.38,14.56,14.56,0,0,0-6.52-.88,13.54,13.54,0,0,0-6.53,1.81,40.6,40.6,0,0,0-6.8,6.09,78.07,78.07,0,0,1,3-13.38,56,56,0,0,1,8.39-16.89,28.22,28.22,0,0,0,7,3.07,85,85,0,0,0,9.21,1.75,73.56,73.56,0,0,0,9.54-1.81,46.67,46.67,0,0,0,7.57-3A65.91,65.91,0,0,1,320,306.15a98.78,98.78,0,0,1,3.62,18.31,66.79,66.79,0,0,1-1,20q-2,9.43-10.42,16.89a14.87,14.87,0,0,0-6-3.13,64.61,64.61,0,0,0-10.64-1.69,53.67,53.67,0,0,0-10.8,1.69A25.24,25.24,0,0,0,278,361.31Zm17.55-14.48a14.19,14.19,0,0,0,5.86-2.63,7.11,7.11,0,0,0,2.42-4.11,9.62,9.62,0,0,0-.93-5.7,5.51,5.51,0,0,0-5.05-3.46,20.82,20.82,0,0,0-6.52.55,8.49,8.49,0,0,0-4.28,2.3,5,5,0,0,0-1.21,3.84,13.28,13.28,0,0,0,1,4.33,10,10,0,0,0,2.64,3.57C290.71,346.54,292.73,347,295.58,346.83Z"/><path d="M348.33,382.37a65.22,65.22,0,0,0-3.79-8.45q-2.46-4.71-5.92-6.41a8.38,8.38,0,0,0-6.08-.94,96.92,96.92,0,0,1,7-15.29,89.33,89.33,0,0,0,6.69-14.43,17,17,0,0,0-3.45-5.7,22.63,22.63,0,0,0-6-5.1,19.89,19.89,0,0,0-5.54-2.36q0-12.27,2.69-20.34t10.69-14a57.68,57.68,0,0,0,.55,11.73A52.37,52.37,0,0,0,348.93,314a36.07,36.07,0,0,0,7.62,11.57q2.85-4.05,5.38-7.84a15,15,0,0,0,2.52-8.5l-1.87-13.71a12.11,12.11,0,0,0,6.91-.55,8.58,8.58,0,0,0,5.38-5.59,46.28,46.28,0,0,1,7.24,11.4,44.32,44.32,0,0,1,3.83,13.6,215.66,215.66,0,0,0-21.87,31.81A192.45,192.45,0,0,0,348.33,382.37Z"/></g></g></svg>