<svg xmlns="http://www.w3.org/2000/svg" xmlns:xlink="http://www.w3.org/1999/xlink" viewBox="0 0 608.11 201.56"><defs><style>.cls-1,.cls-2,.cls-3,.cls-4{stroke-miterlimit:10;stroke-width:3px;}.cls-1{fill:url(#linear-gradient);stroke:url(#linear-gradient-2);}.cls-2{fill:url(#linear-gradient-3);stroke:url(#linear-gradient-4);}.cls-3{fill:url(#linear-gradient-5);stroke:url(#linear-gradient-6);}.cls-4{fill:url(#linear-gradient-7);stroke:url(#linear-gradient-8);}</style><linearGradient id="linear-gradient" x1="6.7" y1="161.2" x2="135.64" y2="32.26" gradientUnits="userSpaceOnUse"><stop offset="0" stop-color="#d42927"/><stop offset="0.1" stop-color="#d1282e"/><stop offset="0.25" stop-color="#c82543"/><stop offset="0.43" stop-color="#b92064"/><stop offset="0.63" stop-color="#a51a93"/><stop offset="0.86" stop-color="#8b12ce"/><stop offset="1" stop-color="#790cf8"/></linearGradient><linearGradient id="linear-gradient-2" x1="5.04" y1="164.06" x2="137.34" y2="31.76" gradientUnits="userSpaceOnUse"><stop offset="0" stop-color="#790cf8"/><stop offset="0.1" stop-color="#7c0df0"/><stop offset="0.25" stop-color="#8510db"/><stop offset="0.43" stop-color="#9415b9"/><stop offset="0.64" stop-color="#a91b89"/><stop offset="0.87" stop-color="#c4244d"/><stop offset="1" stop-color="#d42927"/></linearGradient><linearGradient id="linear-gradient-3" x1="158.33" y1="172.17" x2="296.68" y2="33.82" xlink:href="#linear-gradient"/><linearGradient id="linear-gradient-4" x1="157.11" y1="173.62" x2="298.07" y2="32.67" xlink:href="#linear-gradient-2"/><linearGradient id="linear-gradient-5" x1="315.19" y1="170.48" x2="451.79" y2="33.88" xlink:href="#linear-gradient"/><linearGradient id="linear-gradient-6" x1="313.98" y1="171.97" x2="453.13" y2="32.81" xlink:href="#linear-gradient-2"/><linearGradient id="linear-gradient-7" x1="472.33" y1="161.2" x2="601.27" y2="32.26" xlink:href="#linear-gradient"/><linearGradient id="linear-gradient-8" x1="470.67" y1="164.06" x2="602.97" y2="31.76" xlink:href="#linear-gradient-2"/></defs><g id="Layer_2" data-name="Layer 2"><g id="Art"><path class="cls-1" d="M43.44,197.93a228.61,228.61,0,0,0,9.63-37.14,168.77,168.77,0,0,0,2.2-34.47Q54.58,109.51,53.53,95T48.77,75.26Q45.07,70,41.7,68.87a14.67,14.67,0,0,0-7.08-.58,20.21,20.21,0,0,0-8.36,3.95,34.6,34.6,0,0,0-8.47,9.17,105.31,105.31,0,0,0-7.66,14.16A95.25,95.25,0,0,0,4,113.9q-2.79-5.33-2.44-21.58T9.31,50A111.09,111.09,0,0,1,35.08,4.11a100.56,100.56,0,0,0,15,6.39q6.84,2.21,21.24,2.9,13.23-.7,20.77-3.14A129,129,0,0,0,107.5,4.11,112.31,112.31,0,0,1,133,50q7.44,26.1,7.9,42.36t-2.79,21.35q-1.86-9.75-9.17-23.79T116.55,72.24q-5.1-3.6-9-4.18a16.14,16.14,0,0,0-7.66.7Q96.12,70,92.76,75.14T88.47,95q-.93,14.74-1.74,31.68a146.13,146.13,0,0,0,2.43,34.24,315.37,315.37,0,0,0,9.52,37c-4-1.23-7.74-2.44-11.14-3.6s-8.82-2.05-16.25-2.67q-11.15.93-16.48,2.79T43.44,197.93Z"/><path class="cls-2" d="M184.33,198.16q-14.62-19.5-21.82-39.22a122.35,122.35,0,0,1-7-43.41,210.33,210.33,0,0,1,8.36-59.89A182.31,182.31,0,0,1,189,3.18a40.33,40.33,0,0,0,11.61,7.08q7,2.91,16.48,1.28a269.2,269.2,0,0,0-6.73,28.78,105.58,105.58,0,0,0-.93,28.09q5.81-3.48,18.57-4,13.46.24,19.73,4a149.39,149.39,0,0,0-2.09-28,255.16,255.16,0,0,0-7-28.9q9.51,1.4,16.59-1.62A34.07,34.07,0,0,0,266,3.18,179.66,179.66,0,0,1,291,55.76a219.55,219.55,0,0,1,8.47,59.77q-1.15,24.15-8.35,43.64a182.15,182.15,0,0,1-20.2,38.76,101.51,101.51,0,0,0-6.15-17.64,38.42,38.42,0,0,0-9.63-13.35,42.23,42.23,0,0,0-10.45-7,38,38,0,0,0-10-2.67,159.45,159.45,0,0,0,8.13-25.3,150.83,150.83,0,0,0,3.48-24.6,23.66,23.66,0,0,0-5.81-8.83q-4.17-4.17-12.53-6.26-8.59,2.09-12.77,6.26a23.63,23.63,0,0,0-5.8,8.83,181.72,181.72,0,0,0,4.64,26.8q3,11.49,7,23.1a34.08,34.08,0,0,0-11.61,3.37,36.24,36.24,0,0,0-10.33,8.12,49.65,49.65,0,0,0-8.47,13.12A154.9,154.9,0,0,0,184.33,198.16Z"/><path class="cls-3" d="M342.4,197.7a152.63,152.63,0,0,1-21.35-38.76,133.55,133.55,0,0,1-7.66-43.41,222.38,222.38,0,0,1,8.82-59.89A189,189,0,0,1,347.05,3a142.32,142.32,0,0,0,16,6.27q6.74,2.08,20,3.25,13.69-1.16,21.48-3.37A58.44,58.44,0,0,0,419.93,2a157.49,157.49,0,0,1,25.65,54.44,248.11,248.11,0,0,1,7.31,60.69,151.82,151.82,0,0,1-8.82,41.79,176.94,176.94,0,0,1-20.42,38.76,92.82,92.82,0,0,0-5.92-17.76A43.76,43.76,0,0,0,406,164.74a28.81,28.81,0,0,0-8.35-5.11,41.28,41.28,0,0,0-10-2.55q4.4-11.37,7.31-20.08a104.8,104.8,0,0,0,4.29-18.92,29.51,29.51,0,0,0-5.68-19.61q-2.91-4.06-10.57-7.55-7.18,3.49-10.09,7.55a25.39,25.39,0,0,0-4.06,8.7,44,44,0,0,0-1.16,10.68A103.55,103.55,0,0,0,372.35,137q3,8.48,7.66,20.08a51.06,51.06,0,0,0-11.26,2.55,32.51,32.51,0,0,0-10.79,7,37.34,37.34,0,0,0-9.06,13.46Q345.42,188.42,342.4,197.7ZM400,67.25V63.53a48.88,48.88,0,0,0-4.29-15.2q-3.62-8-12.66-8.94a15.08,15.08,0,0,0-12.53,8.94,37.2,37.2,0,0,0-4.18,15.2v3.72A44,44,0,0,1,383,63.53,40.41,40.41,0,0,1,400,67.25Z"/><path class="cls-4" d="M509.06,197.93a227.67,227.67,0,0,0,9.64-37.14,168.77,168.77,0,0,0,2.2-34.47q-.69-16.81-1.74-31.33T514.4,75.26c-2.47-3.48-4.84-5.61-7.08-6.39a14.64,14.64,0,0,0-7.08-.58,20.24,20.24,0,0,0-8.35,3.95,34.6,34.6,0,0,0-8.47,9.17,105.31,105.31,0,0,0-7.66,14.16,96,96,0,0,0-6.16,18.33q-2.78-5.33-2.43-21.58T474.94,50A111.09,111.09,0,0,1,500.71,4.11a100.12,100.12,0,0,0,15,6.39q6.84,2.21,21.24,2.9,13.23-.7,20.77-3.14a129,129,0,0,0,15.44-6.15A112.31,112.31,0,0,1,598.66,50q7.43,26.1,7.89,42.36t-2.78,21.35q-1.86-9.75-9.17-23.79T582.18,72.24q-5.1-3.6-9-4.18a16.14,16.14,0,0,0-7.66.7q-3.72,1.27-7.08,6.38T554.1,95q-.93,14.74-1.74,31.68a146.13,146.13,0,0,0,2.43,34.24,315.37,315.37,0,0,0,9.52,37c-4-1.23-7.74-2.44-11.14-3.6s-8.82-2.05-16.25-2.67q-11.14.93-16.48,2.79T509.06,197.93Z"/></g></g></svg>